<svg width="251" height="56" viewBox="0 0 251 56" fill="none" xmlns="http://www.w3.org/2000/svg">
<path d="M0.343994 53.8492C9.09145 55.0529 28.2717 56.1123 35.0128 50.7193C43.4393 43.9782 48.0136 26.8845 60.5329 28.0883C73.0522 29.2921 81.4787 47.108 93.2757 46.3858C105.073 45.6635 113.671 43.7988 118.314 32.422C123.129 20.6248 120.722 24.7176 121.444 13.643C122.459 -1.91923 135.581 -1.03505 139.742 4.97566C141.908 8.10577 141.908 14.3654 147.205 15.0877C152.502 15.81 189.578 21.8285 191.504 26.1622C193.43 30.4958 194.634 30.7367 199.69 30.2552C204.746 29.7737 202.097 30.2552 208.357 30.2552C213.105 30.2552 212.45 32.4219 217.987 32.4219C223.524 32.4219 235.803 19.6619 239.896 32.422C243.17 42.63 250.008 41.5707 250.008 41.0892" stroke="url(#paint0_linear_4715_655)" stroke-width="1.44453"/>
<defs>
<linearGradient id="paint0_linear_4715_655" x1="32.1687" y1="51.928" x2="250.146" y2="43.0739" gradientUnits="userSpaceOnUse">
<stop stop-color="#EF4444" stop-opacity="0.45"/>
<stop offset="0.127791" stop-color="#EF4444"/>
<stop offset="0.802083" stop-color="#EF4444"/>
<stop offset="1" stop-color="#EF4444" stop-opacity="0.43"/>
</linearGradient>
</defs>
</svg>
