<svg width="252" height="71" viewBox="0 0 252 71" fill="none" xmlns="http://www.w3.org/2000/svg">
<path d="M0.862427 68.1639C9.60988 69.3677 35.5312 72.1122 42.2724 66.7192C50.6988 59.9781 53.1064 28.9207 65.6257 30.1245C78.145 31.3283 88.7382 63.1079 100.535 62.3857C112.332 61.6634 109.925 60.219 122.203 60.7005C134.482 61.182 145.557 67.2008 160.965 64.7932C176.373 62.3857 174.207 24.8278 174.929 18.0866C175.651 11.3455 180.225 0.993246 185.522 1.71551C190.819 2.43778 194.671 9.41938 196.597 13.753C198.523 18.0866 201.171 20.2534 206.227 19.7719C211.283 19.2904 214.894 23.3832 217.302 27.4761C219.709 31.5689 225.969 19.7719 231.506 19.7719C237.044 19.7719 243.063 35.6618 247.155 48.4218C250.43 58.6299 251.248 60.2188 251.248 59.7373" stroke="url(#paint0_linear_4715_656)" stroke-width="1.44453"/>
<defs>
<linearGradient id="paint0_linear_4715_656" x1="32.7792" y1="66.2712" x2="251.521" y2="59.238" gradientUnits="userSpaceOnUse">
<stop stop-color="#44EAF1" stop-opacity="0.33"/>
<stop offset="0.127791" stop-color="#219653"/>
<stop offset="0.802083" stop-color="#219653"/>
<stop offset="1" stop-color="#44F189" stop-opacity="0"/>
</linearGradient>
</defs>
</svg>
