<svg width="602" height="373" viewBox="0 0 602 373" fill="none" xmlns="http://www.w3.org/2000/svg">
<g filter="url(#filter0_dd_4707_196)">
<rect x="30" y="19.3252" width="552" height="320" rx="16" fill="#11453B"/>
<rect x="30" y="19.3252" width="552" height="320" rx="16" fill="url(#paint0_radial_4707_196)" fill-opacity="0.14"/>
<path d="M94.616 92.7252H110.128V96.3372H104.472V112.325H100.272V96.3372H94.616V92.7252ZM124.306 108.993V112.325H122.29C120.47 112.325 119.574 111.541 119.63 109.973C119.098 110.813 118.454 111.429 117.698 111.849C116.914 112.297 115.99 112.493 114.926 112.493C113.302 112.493 112.014 112.129 111.034 111.401C110.054 110.673 109.578 109.609 109.578 108.265C109.578 106.753 110.138 105.577 111.258 104.737C112.378 103.897 114.03 103.477 116.186 103.477H119.042V102.777C119.042 102.133 118.79 101.629 118.314 101.237C117.81 100.845 117.166 100.649 116.354 100.649C115.626 100.649 115.01 100.817 114.562 101.125C114.086 101.461 113.806 101.881 113.722 102.413H109.914C110.026 100.957 110.698 99.8092 111.874 98.9972C113.05 98.1852 114.59 97.7652 116.55 97.7652C118.566 97.7652 120.134 98.2132 121.254 99.1092C122.374 100.005 122.934 101.321 122.934 103.001V108.069C122.934 108.433 122.99 108.685 123.158 108.797C123.298 108.937 123.522 108.993 123.858 108.993H124.306ZM119.042 106.109H116.158C115.318 106.109 114.674 106.277 114.226 106.613C113.778 106.949 113.554 107.397 113.554 107.985C113.554 108.489 113.722 108.909 114.114 109.189C114.506 109.497 115.01 109.637 115.682 109.637C116.69 109.637 117.502 109.357 118.118 108.769C118.706 108.181 119.014 107.397 119.042 106.389V106.109ZM146.917 99.3052C147.869 100.341 148.373 102.049 148.373 104.429V112.353H144.425V104.289C144.425 102.105 143.585 101.013 141.933 101.013C141.065 101.013 140.365 101.321 139.861 101.937C139.329 102.553 139.077 103.393 139.077 104.457V112.353H135.129V104.289C135.129 102.105 134.289 101.013 132.609 101.013C131.741 101.013 131.041 101.349 130.537 101.965C130.033 102.581 129.781 103.421 129.781 104.485V112.353H125.833V97.9332H129.277L129.641 99.7252C130.117 99.1092 130.705 98.6332 131.377 98.2972C132.049 97.9612 132.889 97.7932 133.897 97.7652C135.941 97.7652 137.369 98.5772 138.181 100.201C138.685 99.4172 139.385 98.8292 140.225 98.4092C141.065 97.9892 142.045 97.7652 143.137 97.7652C144.677 97.7652 145.937 98.2972 146.917 99.3052ZM162.584 98.6892C163.592 99.3052 164.376 100.145 164.936 101.265C165.496 102.385 165.804 103.701 165.804 105.157C165.804 106.641 165.496 107.929 164.936 109.021C164.376 110.141 163.592 110.981 162.584 111.597C161.576 112.213 160.428 112.493 159.14 112.493C157.292 112.493 155.836 111.849 154.8 110.505V117.925H150.852V97.9332H154.296L154.688 99.9212C155.164 99.2772 155.78 98.7452 156.536 98.3532C157.292 97.9612 158.16 97.7652 159.168 97.7652C160.456 97.7652 161.576 98.0732 162.584 98.6892ZM160.82 108.125C161.464 107.341 161.8 106.333 161.8 105.101C161.8 103.869 161.464 102.889 160.82 102.133C160.148 101.377 159.308 100.985 158.244 100.985C157.18 100.985 156.312 101.377 155.696 102.133C155.052 102.889 154.744 103.869 154.744 105.101C154.744 106.361 155.052 107.369 155.696 108.125C156.312 108.909 157.18 109.273 158.244 109.273C159.308 109.273 160.148 108.909 160.82 108.125ZM168.333 101.265C168.949 100.145 169.789 99.3052 170.881 98.6892C171.973 98.0732 173.233 97.7652 174.689 97.7652C176.145 97.7652 177.405 98.0732 178.525 98.6332C179.645 99.1932 180.513 100.005 181.129 101.041C181.745 102.077 182.081 103.281 182.109 104.681C182.109 105.185 182.053 105.633 181.997 106.025H171.553V106.137C171.637 107.201 171.973 108.013 172.561 108.601C173.121 109.217 173.933 109.497 174.941 109.497C175.725 109.497 176.397 109.329 176.929 108.993C177.461 108.657 177.825 108.125 177.993 107.453H181.885C181.717 108.405 181.353 109.273 180.793 110.029C180.205 110.813 179.449 111.401 178.497 111.849C177.545 112.297 176.453 112.493 175.221 112.493C173.597 112.493 172.225 112.213 171.049 111.597C169.873 111.009 168.977 110.169 168.361 109.049C167.745 107.929 167.437 106.641 167.437 105.157C167.437 103.673 167.717 102.385 168.333 101.265ZM178.161 103.449C178.021 102.581 177.657 101.909 177.069 101.433C176.481 100.957 175.753 100.705 174.857 100.705C173.989 100.705 173.261 100.957 172.673 101.461C172.085 101.965 171.749 102.609 171.637 103.449H178.161ZM193.031 97.9332V101.517H191.463C190.343 101.517 189.503 101.853 188.999 102.525C188.467 103.197 188.215 104.121 188.215 105.269V112.325H184.267V97.9332H187.851L188.215 100.089C188.635 99.3892 189.167 98.8572 189.811 98.4932C190.427 98.1292 191.295 97.9332 192.359 97.9332H193.031ZM194.487 105.969V102.777H204.287V105.969H194.487ZM218.502 98.6892C219.51 99.3052 220.294 100.145 220.854 101.265C221.414 102.385 221.722 103.701 221.722 105.157C221.722 106.641 221.414 107.929 220.854 109.021C220.294 110.141 219.51 110.981 218.502 111.597C217.494 112.213 216.346 112.493 215.058 112.493C213.21 112.493 211.754 111.849 210.718 110.505V117.925H206.77V97.9332H210.214L210.606 99.9212C211.082 99.2772 211.698 98.7452 212.454 98.3532C213.21 97.9612 214.078 97.7652 215.086 97.7652C216.374 97.7652 217.494 98.0732 218.502 98.6892ZM216.738 108.125C217.382 107.341 217.718 106.333 217.718 105.101C217.718 103.869 217.382 102.889 216.738 102.133C216.066 101.377 215.226 100.985 214.162 100.985C213.098 100.985 212.23 101.377 211.614 102.133C210.97 102.889 210.662 103.869 210.662 105.101C210.662 106.361 210.97 107.369 211.614 108.125C212.23 108.909 213.098 109.273 214.162 109.273C215.226 109.273 216.066 108.909 216.738 108.125ZM232.679 97.9332V101.517H231.111C229.991 101.517 229.151 101.853 228.647 102.525C228.115 103.197 227.863 104.121 227.863 105.269V112.325H223.915V97.9332H227.499L227.863 100.089C228.283 99.3892 228.815 98.8572 229.459 98.4932C230.075 98.1292 230.943 97.9332 232.007 97.9332H232.679ZM237.001 111.597C235.853 110.981 234.957 110.113 234.341 108.993C233.725 107.873 233.417 106.585 233.417 105.129C233.417 103.673 233.725 102.385 234.341 101.265C234.957 100.145 235.853 99.3052 237.001 98.6892C238.149 98.0732 239.493 97.7652 241.005 97.7652C242.517 97.7652 243.833 98.0732 244.981 98.6892C246.129 99.3052 247.025 100.145 247.641 101.265C248.257 102.385 248.593 103.673 248.593 105.129C248.593 106.613 248.257 107.901 247.641 109.021C247.025 110.141 246.129 110.981 244.981 111.597C243.833 112.213 242.517 112.493 241.005 112.493C239.493 112.493 238.149 112.213 237.001 111.597ZM243.609 108.125C244.253 107.369 244.589 106.361 244.589 105.129C244.589 103.897 244.253 102.917 243.609 102.133C242.965 101.377 242.097 100.985 241.005 100.985C239.913 100.985 239.045 101.377 238.401 102.133C237.757 102.917 237.449 103.897 237.449 105.129C237.449 106.361 237.757 107.369 238.401 108.125C239.045 108.909 239.913 109.273 241.005 109.273C242.097 109.273 242.965 108.909 243.609 108.125ZM253.791 111.597C252.643 110.981 251.747 110.113 251.131 108.993C250.515 107.873 250.207 106.585 250.207 105.129C250.207 103.673 250.515 102.385 251.131 101.265C251.747 100.145 252.643 99.3052 253.791 98.6892C254.939 98.0732 256.283 97.7652 257.795 97.7652C259.307 97.7652 260.623 98.0732 261.771 98.6892C262.919 99.3052 263.815 100.145 264.431 101.265C265.047 102.385 265.383 103.673 265.383 105.129C265.383 106.613 265.047 107.901 264.431 109.021C263.815 110.141 262.919 110.981 261.771 111.597C260.623 112.213 259.307 112.493 257.795 112.493C256.283 112.493 254.939 112.213 253.791 111.597ZM260.399 108.125C261.043 107.369 261.379 106.361 261.379 105.129C261.379 103.897 261.043 102.917 260.399 102.133C259.755 101.377 258.887 100.985 257.795 100.985C256.703 100.985 255.835 101.377 255.191 102.133C254.547 102.917 254.239 103.897 254.239 105.129C254.239 106.361 254.547 107.369 255.191 108.125C255.835 108.909 256.703 109.273 257.795 109.273C258.887 109.273 259.755 108.909 260.399 108.125ZM268.425 97.9332V96.6732C268.425 95.4132 268.789 94.4332 269.517 93.7612C270.245 93.0892 271.309 92.7252 272.765 92.7252H275.985V96.0852H273.549C273.129 96.0852 272.821 96.1972 272.653 96.3652C272.457 96.5612 272.373 96.8692 272.373 97.2612V97.9332H275.985V101.265H272.373V112.325H268.425V101.265H266.045V97.9332H268.425ZM292.687 92.7252C294.087 92.7252 295.319 93.0052 296.383 93.5372C297.447 94.0692 298.287 94.8252 298.875 95.8052C299.463 96.8132 299.771 97.9612 299.771 99.2492C299.771 100.565 299.463 101.713 298.875 102.693C298.287 103.673 297.447 104.429 296.383 104.961C295.319 105.493 294.087 105.745 292.687 105.745H288.907V112.325H284.707V92.7252H292.687ZM288.907 102.245H292.295C293.275 102.245 294.059 101.993 294.647 101.433C295.207 100.901 295.515 100.173 295.515 99.2492C295.515 98.3252 295.207 97.5972 294.647 97.0372C294.059 96.5052 293.275 96.2252 292.295 96.2252H288.907V102.245ZM315.138 108.993V112.325H313.122C311.302 112.325 310.406 111.541 310.462 109.973C309.93 110.813 309.286 111.429 308.53 111.849C307.746 112.297 306.822 112.493 305.758 112.493C304.134 112.493 302.846 112.129 301.866 111.401C300.886 110.673 300.41 109.609 300.41 108.265C300.41 106.753 300.97 105.577 302.09 104.737C303.21 103.897 304.862 103.477 307.018 103.477H309.874V102.777C309.874 102.133 309.622 101.629 309.146 101.237C308.642 100.845 307.998 100.649 307.186 100.649C306.458 100.649 305.842 100.817 305.394 101.125C304.918 101.461 304.638 101.881 304.554 102.413H300.746C300.858 100.957 301.53 99.8092 302.706 98.9972C303.882 98.1852 305.422 97.7652 307.382 97.7652C309.398 97.7652 310.966 98.2132 312.086 99.1092C313.206 100.005 313.766 101.321 313.766 103.001V108.069C313.766 108.433 313.822 108.685 313.99 108.797C314.13 108.937 314.354 108.993 314.69 108.993H315.138ZM309.874 106.109H306.99C306.15 106.109 305.506 106.277 305.058 106.613C304.61 106.949 304.386 107.397 304.386 107.985C304.386 108.489 304.554 108.909 304.946 109.189C305.338 109.497 305.842 109.637 306.514 109.637C307.522 109.637 308.334 109.357 308.95 108.769C309.538 108.181 309.846 107.397 309.874 106.389V106.109ZM318.973 97.9332L322.473 108.265L325.889 97.9332H330.117L323.733 114.369C323.397 115.265 323.061 115.937 322.781 116.441C322.473 116.945 322.081 117.309 321.633 117.561C321.185 117.813 320.597 117.925 319.869 117.925H316.033V114.593H318.217C318.721 114.593 319.085 114.509 319.309 114.341C319.533 114.173 319.729 113.865 319.953 113.361L320.317 112.409L314.773 97.9332H318.973ZM340.222 97.9332V101.517H338.654C337.534 101.517 336.694 101.853 336.19 102.525C335.658 103.197 335.406 104.121 335.406 105.269V112.325H331.458V97.9332H335.042L335.406 100.089C335.826 99.3892 336.358 98.8572 337.002 98.4932C337.618 98.1292 338.486 97.9332 339.55 97.9332H340.222ZM344.544 111.597C343.396 110.981 342.5 110.113 341.884 108.993C341.268 107.873 340.96 106.585 340.96 105.129C340.96 103.673 341.268 102.385 341.884 101.265C342.5 100.145 343.396 99.3052 344.544 98.6892C345.692 98.0732 347.036 97.7652 348.548 97.7652C350.06 97.7652 351.376 98.0732 352.524 98.6892C353.672 99.3052 354.568 100.145 355.184 101.265C355.8 102.385 356.136 103.673 356.136 105.129C356.136 106.613 355.8 107.901 355.184 109.021C354.568 110.141 353.672 110.981 352.524 111.597C351.376 112.213 350.06 112.493 348.548 112.493C347.036 112.493 345.692 112.213 344.544 111.597ZM351.152 108.125C351.796 107.369 352.132 106.361 352.132 105.129C352.132 103.897 351.796 102.917 351.152 102.133C350.508 101.377 349.64 100.985 348.548 100.985C347.456 100.985 346.588 101.377 345.944 102.133C345.3 102.917 344.992 103.897 344.992 105.129C344.992 106.361 345.3 107.369 345.944 108.125C346.588 108.909 347.456 109.273 348.548 109.273C349.64 109.273 350.508 108.909 351.152 108.125ZM358.31 92.7252H362.258V112.325H358.31V92.7252ZM365.009 92.7252H368.957V112.325H365.009V92.7252ZM379.577 97.9332V96.6732C379.577 95.4132 379.941 94.4332 380.669 93.7612C381.397 93.0892 382.461 92.7252 383.917 92.7252H387.137V96.0852H384.701C384.281 96.0852 383.973 96.1972 383.805 96.3652C383.609 96.5612 383.525 96.8692 383.525 97.2612V97.9332H387.137V101.265H383.525V112.325H379.577V101.265H377.197V97.9332H379.577ZM391.138 111.597C389.99 110.981 389.094 110.113 388.478 108.993C387.862 107.873 387.554 106.585 387.554 105.129C387.554 103.673 387.862 102.385 388.478 101.265C389.094 100.145 389.99 99.3052 391.138 98.6892C392.286 98.0732 393.63 97.7652 395.142 97.7652C396.654 97.7652 397.97 98.0732 399.118 98.6892C400.266 99.3052 401.162 100.145 401.778 101.265C402.394 102.385 402.73 103.673 402.73 105.129C402.73 106.613 402.394 107.901 401.778 109.021C401.162 110.141 400.266 110.981 399.118 111.597C397.97 112.213 396.654 112.493 395.142 112.493C393.63 112.493 392.286 112.213 391.138 111.597ZM397.746 108.125C398.39 107.369 398.726 106.361 398.726 105.129C398.726 103.897 398.39 102.917 397.746 102.133C397.102 101.377 396.234 100.985 395.142 100.985C394.05 100.985 393.182 101.377 392.538 102.133C391.894 102.917 391.586 103.897 391.586 105.129C391.586 106.361 391.894 107.369 392.538 108.125C393.182 108.909 394.05 109.273 395.142 109.273C396.234 109.273 397.102 108.909 397.746 108.125ZM413.667 97.9332V101.517H412.099C410.979 101.517 410.139 101.853 409.635 102.525C409.103 103.197 408.851 104.121 408.851 105.269V112.325H404.903V97.9332H408.487L408.851 100.089C409.271 99.3892 409.803 98.8572 410.447 98.4932C411.063 98.1292 411.931 97.9332 412.995 97.9332H413.667ZM422.684 112.325V92.7252H426.884V108.713H434.668V112.325H422.684ZM436.93 92.7252H441.13V112.325H436.93V92.7252ZM445.066 97.9332V96.6732C445.066 95.4132 445.43 94.4332 446.158 93.7612C446.886 93.0892 447.95 92.7252 449.406 92.7252H452.626V96.0852H450.19C449.77 96.0852 449.462 96.1972 449.294 96.3652C449.098 96.5612 449.014 96.8692 449.014 97.2612V97.9332H452.626V101.265H449.014V112.325H445.066V101.265H442.686V97.9332H445.066ZM453.938 101.265C454.554 100.145 455.394 99.3052 456.486 98.6892C457.578 98.0732 458.838 97.7652 460.294 97.7652C461.75 97.7652 463.01 98.0732 464.13 98.6332C465.25 99.1932 466.118 100.005 466.734 101.041C467.35 102.077 467.686 103.281 467.714 104.681C467.714 105.185 467.658 105.633 467.602 106.025H457.158V106.137C457.242 107.201 457.578 108.013 458.166 108.601C458.726 109.217 459.538 109.497 460.546 109.497C461.33 109.497 462.002 109.329 462.534 108.993C463.066 108.657 463.43 108.125 463.598 107.453H467.49C467.322 108.405 466.958 109.273 466.398 110.029C465.81 110.813 465.054 111.401 464.102 111.849C463.15 112.297 462.058 112.493 460.826 112.493C459.202 112.493 457.83 112.213 456.654 111.597C455.478 111.009 454.582 110.169 453.966 109.049C453.35 107.929 453.042 106.641 453.042 105.157C453.042 103.673 453.322 102.385 453.938 101.265ZM463.766 103.449C463.626 102.581 463.262 101.909 462.674 101.433C462.086 100.957 461.358 100.705 460.462 100.705C459.594 100.705 458.866 100.957 458.278 101.461C457.69 101.965 457.354 102.609 457.242 103.449H463.766Z" fill="white"/>
<path d="M94.162 149.707H95.998L99.706 155.971L103.468 149.707H105.232L100.48 157.663V162.325H98.914V157.663L94.162 149.707ZM106.969 161.839C106.285 161.443 105.745 160.903 105.367 160.183C104.971 159.481 104.791 158.671 104.791 157.735C104.791 156.817 104.971 156.007 105.367 155.287C105.745 154.585 106.285 154.027 106.969 153.631C107.653 153.235 108.445 153.037 109.345 153.037C110.227 153.037 111.019 153.235 111.703 153.631C112.387 154.027 112.927 154.585 113.323 155.287C113.701 156.007 113.899 156.817 113.899 157.735C113.899 158.671 113.701 159.481 113.323 160.183C112.927 160.903 112.387 161.443 111.703 161.839C111.019 162.235 110.227 162.433 109.345 162.433C108.445 162.433 107.653 162.235 106.969 161.839ZM110.929 160.687C111.397 160.399 111.757 160.003 112.009 159.481C112.261 158.977 112.387 158.383 112.387 157.735C112.387 157.087 112.261 156.511 112.009 155.989C111.757 155.485 111.397 155.071 110.929 154.783C110.461 154.495 109.939 154.351 109.345 154.351C108.733 154.351 108.211 154.495 107.743 154.783C107.275 155.071 106.933 155.485 106.681 155.989C106.429 156.511 106.303 157.087 106.303 157.735C106.303 158.383 106.429 158.977 106.681 159.481C106.933 160.003 107.275 160.399 107.743 160.687C108.211 160.975 108.733 161.119 109.345 161.119C109.939 161.119 110.461 160.975 110.929 160.687ZM123.494 153.145V162.325H122.216L122.018 161.101C121.316 162.001 120.344 162.433 119.084 162.433C117.986 162.433 117.104 162.109 116.456 161.425C115.79 160.759 115.466 159.697 115.466 158.257V153.145H116.942V158.167C116.942 159.121 117.14 159.841 117.554 160.345C117.968 160.849 118.562 161.083 119.336 161.083C120.164 161.083 120.83 160.795 121.298 160.183C121.766 159.589 122.018 158.779 122.018 157.735V153.145H123.494ZM130.168 153.145V154.585H129.43C128.548 154.585 127.918 154.891 127.54 155.467C127.162 156.061 126.982 156.781 126.982 157.645V162.325H125.506V153.145H126.784L126.982 154.531C127.234 154.117 127.576 153.775 128.008 153.523C128.422 153.271 128.998 153.145 129.754 153.145H130.168ZM137.381 159.301C137.399 159.859 137.633 160.309 138.101 160.651C138.569 161.011 139.163 161.173 139.901 161.173C140.549 161.173 141.071 161.047 141.467 160.795C141.863 160.543 142.079 160.201 142.079 159.769C142.079 159.409 141.971 159.139 141.791 158.941C141.593 158.761 141.341 158.617 141.035 158.545C140.729 158.473 140.297 158.401 139.739 158.329C138.947 158.239 138.299 158.113 137.795 157.951C137.291 157.807 136.877 157.555 136.571 157.213C136.247 156.871 136.103 156.403 136.103 155.791C136.103 155.251 136.247 154.783 136.553 154.351C136.859 153.937 137.273 153.613 137.813 153.379C138.335 153.145 138.929 153.019 139.595 153.019C140.675 153.019 141.539 153.271 142.223 153.775C142.907 154.279 143.285 154.999 143.357 155.935H141.881C141.809 155.467 141.575 155.071 141.179 154.747C140.765 154.441 140.261 154.279 139.649 154.279C139.019 154.279 138.515 154.423 138.137 154.675C137.741 154.927 137.561 155.269 137.561 155.683C137.561 156.007 137.651 156.241 137.831 156.403C138.011 156.583 138.227 156.691 138.515 156.745C138.803 156.817 139.235 156.871 139.811 156.943C140.603 157.051 141.269 157.177 141.791 157.339C142.313 157.519 142.727 157.789 143.051 158.149C143.375 158.527 143.537 159.031 143.537 159.661C143.537 160.219 143.375 160.705 143.051 161.119C142.727 161.551 142.277 161.875 141.737 162.091C141.179 162.325 140.567 162.433 139.901 162.433C138.695 162.433 137.723 162.163 137.003 161.605C136.283 161.065 135.905 160.291 135.905 159.301H137.381ZM145.823 154.495H144.167V153.145H145.823V150.571H147.299V153.145H149.621V154.495H147.299V159.913C147.299 160.309 147.371 160.579 147.515 160.741C147.659 160.903 147.929 160.975 148.307 160.975H149.909V162.325H148.217C147.353 162.325 146.723 162.145 146.363 161.749C146.003 161.371 145.823 160.759 145.823 159.931V154.495ZM159.405 160.975V162.325H158.595C158.001 162.325 157.587 162.217 157.335 161.965C157.083 161.731 156.939 161.371 156.939 160.903C156.219 161.929 155.193 162.433 153.861 162.433C152.835 162.433 152.007 162.199 151.395 161.713C150.783 161.245 150.477 160.579 150.477 159.751C150.477 158.833 150.783 158.131 151.413 157.627C152.043 157.141 152.961 156.889 154.167 156.889H156.867V156.259C156.867 155.665 156.651 155.197 156.255 154.855C155.859 154.531 155.301 154.351 154.581 154.351C153.933 154.351 153.411 154.495 152.997 154.783C152.583 155.071 152.331 155.431 152.241 155.899H150.765C150.873 154.999 151.269 154.297 151.953 153.793C152.637 153.289 153.537 153.037 154.653 153.037C155.823 153.037 156.723 153.325 157.371 153.901C158.019 154.477 158.343 155.287 158.343 156.349V160.309C158.343 160.759 158.541 160.975 158.955 160.975H159.405ZM156.867 158.131H154.023C152.655 158.131 151.971 158.653 151.971 159.661C151.971 160.129 152.151 160.489 152.511 160.759C152.871 161.047 153.357 161.173 153.969 161.173C154.869 161.173 155.571 160.939 156.093 160.471C156.597 160.003 156.867 159.373 156.867 158.581V158.131ZM161.151 153.145V152.119C161.151 151.309 161.331 150.715 161.709 150.319C162.087 149.923 162.699 149.725 163.545 149.725H165.237V151.075H163.635C163.275 151.075 163.005 151.165 162.861 151.309C162.699 151.471 162.627 151.723 162.627 152.083V153.145H165.219V154.495H162.627V162.325H161.151V154.495H159.495V153.145H161.151ZM166.775 150.319C167.153 149.923 167.765 149.725 168.611 149.725H170.303V151.075H168.701C168.341 151.075 168.071 151.165 167.927 151.309C167.765 151.471 167.693 151.723 167.693 152.083V153.145H170.285V154.495H167.693V162.325H166.217V152.119C166.217 151.309 166.397 150.715 166.775 150.319ZM182.884 153.595C183.55 153.973 184.072 154.513 184.45 155.215C184.828 155.935 185.026 156.763 185.026 157.735C185.026 158.671 184.828 159.481 184.45 160.183C184.072 160.903 183.55 161.443 182.884 161.839C182.2 162.235 181.444 162.433 180.616 162.433C179.86 162.433 179.23 162.307 178.708 162.037C178.168 161.767 177.754 161.389 177.466 160.921V165.925H175.99V153.145H177.268L177.466 154.621C178.222 153.577 179.284 153.037 180.616 153.037C181.462 153.037 182.218 153.235 182.884 153.595ZM182.668 160.183C183.226 159.553 183.514 158.743 183.514 157.735C183.514 156.745 183.226 155.935 182.668 155.305C182.11 154.675 181.372 154.351 180.472 154.351C179.878 154.351 179.356 154.495 178.888 154.783C178.42 155.071 178.078 155.467 177.826 155.971C177.574 156.475 177.448 157.051 177.448 157.699C177.448 158.365 177.574 158.959 177.826 159.481C178.078 160.003 178.42 160.399 178.888 160.687C179.356 160.975 179.878 161.119 180.472 161.119C181.372 161.119 182.11 160.813 182.668 160.183ZM195.299 160.975V162.325H194.489C193.895 162.325 193.481 162.217 193.229 161.965C192.977 161.731 192.833 161.371 192.833 160.903C192.113 161.929 191.087 162.433 189.755 162.433C188.729 162.433 187.901 162.199 187.289 161.713C186.677 161.245 186.371 160.579 186.371 159.751C186.371 158.833 186.677 158.131 187.307 157.627C187.937 157.141 188.855 156.889 190.061 156.889H192.761V156.259C192.761 155.665 192.545 155.197 192.149 154.855C191.753 154.531 191.195 154.351 190.475 154.351C189.827 154.351 189.305 154.495 188.891 154.783C188.477 155.071 188.225 155.431 188.135 155.899H186.659C186.767 154.999 187.163 154.297 187.847 153.793C188.531 153.289 189.431 153.037 190.547 153.037C191.717 153.037 192.617 153.325 193.265 153.901C193.913 154.477 194.237 155.287 194.237 156.349V160.309C194.237 160.759 194.435 160.975 194.849 160.975H195.299ZM192.761 158.131H189.917C188.549 158.131 187.865 158.653 187.865 159.661C187.865 160.129 188.045 160.489 188.405 160.759C188.765 161.047 189.251 161.173 189.863 161.173C190.763 161.173 191.465 160.939 191.987 160.471C192.491 160.003 192.761 159.373 192.761 158.581V158.131ZM196.818 153.145L199.644 160.633L202.38 153.145H203.946L199.716 163.873C199.5 164.431 199.302 164.845 199.14 165.115C198.96 165.403 198.762 165.601 198.51 165.727C198.258 165.871 197.916 165.925 197.502 165.925H195.738V164.575H197.052C197.34 164.575 197.556 164.557 197.7 164.485C197.844 164.431 197.952 164.341 198.042 164.197C198.132 164.053 198.24 163.819 198.384 163.495L198.852 162.397L195.252 153.145H196.818ZM209.709 153.145V154.585H208.971C208.089 154.585 207.459 154.891 207.081 155.467C206.703 156.061 206.523 156.781 206.523 157.645V162.325H205.047V153.145H206.325L206.523 154.531C206.775 154.117 207.117 153.775 207.549 153.523C207.963 153.271 208.539 153.145 209.295 153.145H209.709ZM212.385 161.839C211.701 161.443 211.161 160.903 210.783 160.183C210.387 159.481 210.207 158.671 210.207 157.735C210.207 156.817 210.387 156.007 210.783 155.287C211.161 154.585 211.701 154.027 212.385 153.631C213.069 153.235 213.861 153.037 214.761 153.037C215.643 153.037 216.435 153.235 217.119 153.631C217.803 154.027 218.343 154.585 218.739 155.287C219.117 156.007 219.315 156.817 219.315 157.735C219.315 158.671 219.117 159.481 218.739 160.183C218.343 160.903 217.803 161.443 217.119 161.839C216.435 162.235 215.643 162.433 214.761 162.433C213.861 162.433 213.069 162.235 212.385 161.839ZM216.345 160.687C216.813 160.399 217.173 160.003 217.425 159.481C217.677 158.977 217.803 158.383 217.803 157.735C217.803 157.087 217.677 156.511 217.425 155.989C217.173 155.485 216.813 155.071 216.345 154.783C215.877 154.495 215.355 154.351 214.761 154.351C214.149 154.351 213.627 154.495 213.159 154.783C212.691 155.071 212.349 155.485 212.097 155.989C211.845 156.511 211.719 157.087 211.719 157.735C211.719 158.383 211.845 158.977 212.097 159.481C212.349 160.003 212.691 160.399 213.159 160.687C213.627 160.975 214.149 161.119 214.761 161.119C215.355 161.119 215.877 160.975 216.345 160.687ZM221.008 149.725H222.484V162.325H221.008V149.725ZM224.506 149.725H225.982V162.325H224.506V149.725ZM239.915 154.045C240.599 154.729 240.941 155.773 240.941 157.213V162.325H239.465V157.303C239.465 156.367 239.249 155.647 238.817 155.143C238.385 154.639 237.755 154.387 236.963 154.387C236.099 154.387 235.433 154.693 234.929 155.287C234.425 155.899 234.191 156.709 234.191 157.735V162.325H232.715V149.725H234.191V154.657C234.479 154.189 234.875 153.793 235.379 153.487C235.883 153.199 236.495 153.037 237.215 153.037C238.331 153.037 239.231 153.379 239.915 154.045ZM244.244 149.869C244.424 150.049 244.514 150.283 244.514 150.553C244.514 150.841 244.424 151.057 244.244 151.237C244.064 151.417 243.83 151.507 243.56 151.507C243.272 151.507 243.056 151.417 242.876 151.237C242.696 151.057 242.606 150.841 242.606 150.553C242.606 150.283 242.696 150.049 242.876 149.869C243.056 149.689 243.272 149.599 243.56 149.599C243.83 149.599 244.064 149.689 244.244 149.869ZM242.822 153.145H244.298V162.325H242.822V153.145ZM247.473 159.301C247.491 159.859 247.725 160.309 248.193 160.651C248.661 161.011 249.255 161.173 249.993 161.173C250.641 161.173 251.163 161.047 251.559 160.795C251.955 160.543 252.171 160.201 252.171 159.769C252.171 159.409 252.063 159.139 251.883 158.941C251.685 158.761 251.433 158.617 251.127 158.545C250.821 158.473 250.389 158.401 249.831 158.329C249.039 158.239 248.391 158.113 247.887 157.951C247.383 157.807 246.969 157.555 246.663 157.213C246.339 156.871 246.195 156.403 246.195 155.791C246.195 155.251 246.339 154.783 246.645 154.351C246.951 153.937 247.365 153.613 247.905 153.379C248.427 153.145 249.021 153.019 249.687 153.019C250.767 153.019 251.631 153.271 252.315 153.775C252.999 154.279 253.377 154.999 253.449 155.935H251.973C251.901 155.467 251.667 155.071 251.271 154.747C250.857 154.441 250.353 154.279 249.741 154.279C249.111 154.279 248.607 154.423 248.229 154.675C247.833 154.927 247.653 155.269 247.653 155.683C247.653 156.007 247.743 156.241 247.923 156.403C248.103 156.583 248.319 156.691 248.607 156.745C248.895 156.817 249.327 156.871 249.903 156.943C250.695 157.051 251.361 157.177 251.883 157.339C252.405 157.519 252.819 157.789 253.143 158.149C253.467 158.527 253.629 159.031 253.629 159.661C253.629 160.219 253.467 160.705 253.143 161.119C252.819 161.551 252.369 161.875 251.829 162.091C251.271 162.325 250.659 162.433 249.993 162.433C248.787 162.433 247.815 162.163 247.095 161.605C246.375 161.065 245.997 160.291 245.997 159.301H247.473ZM255.915 154.495H254.259V153.145H255.915V150.571H257.391V153.145H259.713V154.495H257.391V159.913C257.391 160.309 257.463 160.579 257.607 160.741C257.751 160.903 258.021 160.975 258.399 160.975H260.001V162.325H258.309C257.445 162.325 256.815 162.145 256.455 161.749C256.095 161.371 255.915 160.759 255.915 159.931V154.495ZM262.676 161.839C261.992 161.443 261.452 160.903 261.074 160.183C260.678 159.481 260.498 158.671 260.498 157.735C260.498 156.817 260.678 156.007 261.074 155.287C261.452 154.585 261.992 154.027 262.676 153.631C263.36 153.235 264.152 153.037 265.052 153.037C265.934 153.037 266.726 153.235 267.41 153.631C268.094 154.027 268.634 154.585 269.03 155.287C269.408 156.007 269.606 156.817 269.606 157.735C269.606 158.671 269.408 159.481 269.03 160.183C268.634 160.903 268.094 161.443 267.41 161.839C266.726 162.235 265.934 162.433 265.052 162.433C264.152 162.433 263.36 162.235 262.676 161.839ZM266.636 160.687C267.104 160.399 267.464 160.003 267.716 159.481C267.968 158.977 268.094 158.383 268.094 157.735C268.094 157.087 267.968 156.511 267.716 155.989C267.464 155.485 267.104 155.071 266.636 154.783C266.168 154.495 265.646 154.351 265.052 154.351C264.44 154.351 263.918 154.495 263.45 154.783C262.982 155.071 262.64 155.485 262.388 155.989C262.136 156.511 262.01 157.087 262.01 157.735C262.01 158.383 262.136 158.977 262.388 159.481C262.64 160.003 262.982 160.399 263.45 160.687C263.918 160.975 264.44 161.119 265.052 161.119C265.646 161.119 266.168 160.975 266.636 160.687ZM275.961 153.145V154.585H275.223C274.341 154.585 273.711 154.891 273.333 155.467C272.955 156.061 272.775 156.781 272.775 157.645V162.325H271.299V153.145H272.577L272.775 154.531C273.027 154.117 273.369 153.775 273.801 153.523C274.215 153.271 274.791 153.145 275.547 153.145H275.961ZM278.047 153.145L280.873 160.633L283.609 153.145H285.175L280.945 163.873C280.729 164.431 280.531 164.845 280.369 165.115C280.189 165.403 279.991 165.601 279.739 165.727C279.487 165.871 279.145 165.925 278.731 165.925H276.967V164.575H278.281C278.569 164.575 278.785 164.557 278.929 164.485C279.073 164.431 279.181 164.341 279.271 164.197C279.361 164.053 279.469 163.819 279.613 163.495L280.081 162.397L276.481 153.145H278.047ZM292.409 149.869C292.589 150.049 292.679 150.283 292.679 150.553C292.679 150.841 292.589 151.057 292.409 151.237C292.229 151.417 291.995 151.507 291.725 151.507C291.437 151.507 291.221 151.417 291.041 151.237C290.861 151.057 290.771 150.841 290.771 150.553C290.771 150.283 290.861 150.049 291.041 149.869C291.221 149.689 291.437 149.599 291.725 149.599C291.995 149.599 292.229 149.689 292.409 149.869ZM290.987 153.145H292.463V162.325H290.987V153.145ZM295.637 159.301C295.655 159.859 295.889 160.309 296.357 160.651C296.825 161.011 297.419 161.173 298.157 161.173C298.805 161.173 299.327 161.047 299.723 160.795C300.119 160.543 300.335 160.201 300.335 159.769C300.335 159.409 300.227 159.139 300.047 158.941C299.849 158.761 299.597 158.617 299.291 158.545C298.985 158.473 298.553 158.401 297.995 158.329C297.203 158.239 296.555 158.113 296.051 157.951C295.547 157.807 295.133 157.555 294.827 157.213C294.503 156.871 294.359 156.403 294.359 155.791C294.359 155.251 294.503 154.783 294.809 154.351C295.115 153.937 295.529 153.613 296.069 153.379C296.591 153.145 297.185 153.019 297.851 153.019C298.931 153.019 299.795 153.271 300.479 153.775C301.163 154.279 301.541 154.999 301.613 155.935H300.137C300.065 155.467 299.831 155.071 299.435 154.747C299.021 154.441 298.517 154.279 297.905 154.279C297.275 154.279 296.771 154.423 296.393 154.675C295.997 154.927 295.817 155.269 295.817 155.683C295.817 156.007 295.907 156.241 296.087 156.403C296.267 156.583 296.483 156.691 296.771 156.745C297.059 156.817 297.491 156.871 298.067 156.943C298.859 157.051 299.525 157.177 300.047 157.339C300.569 157.519 300.983 157.789 301.307 158.149C301.631 158.527 301.793 159.031 301.793 159.661C301.793 160.219 301.631 160.705 301.307 161.119C300.983 161.551 300.533 161.875 299.993 162.091C299.435 162.325 298.823 162.433 298.157 162.433C296.951 162.433 295.979 162.163 295.259 161.605C294.539 161.065 294.161 160.291 294.161 159.301H295.637ZM308.178 149.725H309.654V158.077L314.316 153.145H316.08L312.552 156.907L316.332 162.325H314.55L311.49 157.969L309.654 159.895V162.325H308.178V149.725ZM317.165 155.269C317.525 154.567 318.047 154.027 318.713 153.631C319.361 153.235 320.117 153.037 320.981 153.037C321.809 153.037 322.565 153.217 323.213 153.559C323.861 153.919 324.365 154.423 324.743 155.071C325.103 155.737 325.301 156.511 325.337 157.393C325.337 157.537 325.319 157.735 325.301 158.023H318.173V158.149C318.191 159.049 318.461 159.769 319.001 160.309C319.523 160.849 320.207 161.119 321.071 161.119C321.719 161.119 322.277 160.957 322.745 160.633C323.213 160.309 323.519 159.841 323.681 159.247H325.175C324.995 160.183 324.545 160.957 323.825 161.551C323.105 162.145 322.223 162.433 321.179 162.433C320.261 162.433 319.469 162.253 318.785 161.857C318.101 161.461 317.561 160.921 317.183 160.201C316.805 159.481 316.625 158.671 316.625 157.735C316.625 156.799 316.805 155.989 317.165 155.269ZM323.807 156.799C323.735 156.025 323.429 155.413 322.925 154.981C322.421 154.549 321.773 154.333 320.999 154.333C320.297 154.333 319.685 154.567 319.163 155.017C318.623 155.485 318.335 156.079 318.263 156.799H323.807ZM333.916 153.595C334.582 153.973 335.104 154.513 335.482 155.215C335.86 155.935 336.058 156.763 336.058 157.735C336.058 158.671 335.86 159.481 335.482 160.183C335.104 160.903 334.582 161.443 333.916 161.839C333.232 162.235 332.476 162.433 331.648 162.433C330.892 162.433 330.262 162.307 329.74 162.037C329.2 161.767 328.786 161.389 328.498 160.921V165.925H327.022V153.145H328.3L328.498 154.621C329.254 153.577 330.316 153.037 331.648 153.037C332.494 153.037 333.25 153.235 333.916 153.595ZM333.7 160.183C334.258 159.553 334.546 158.743 334.546 157.735C334.546 156.745 334.258 155.935 333.7 155.305C333.142 154.675 332.404 154.351 331.504 154.351C330.91 154.351 330.388 154.495 329.92 154.783C329.452 155.071 329.11 155.467 328.858 155.971C328.606 156.475 328.48 157.051 328.48 157.699C328.48 158.365 328.606 158.959 328.858 159.481C329.11 160.003 329.452 160.399 329.92 160.687C330.388 160.975 330.91 161.119 331.504 161.119C332.404 161.119 333.142 160.813 333.7 160.183ZM338.251 154.495H336.595V153.145H338.251V150.571H339.727V153.145H342.049V154.495H339.727V159.913C339.727 160.309 339.799 160.579 339.943 160.741C340.087 160.903 340.357 160.975 340.735 160.975H342.337V162.325H340.645C339.781 162.325 339.151 162.145 338.791 161.749C338.431 161.371 338.251 160.759 338.251 159.931V154.495ZM349.52 149.869C349.7 150.049 349.79 150.283 349.79 150.553C349.79 150.841 349.7 151.057 349.52 151.237C349.34 151.417 349.106 151.507 348.836 151.507C348.548 151.507 348.332 151.417 348.152 151.237C347.972 151.057 347.882 150.841 347.882 150.553C347.882 150.283 347.972 150.049 348.152 149.869C348.332 149.689 348.548 149.599 348.836 149.599C349.106 149.599 349.34 149.689 349.52 149.869ZM348.098 153.145H349.574V162.325H348.098V153.145ZM358.778 154.045C359.462 154.729 359.804 155.773 359.804 157.213V162.325H358.328V157.303C358.328 156.367 358.112 155.647 357.68 155.143C357.248 154.639 356.636 154.387 355.844 154.387C354.98 154.387 354.296 154.693 353.81 155.287C353.306 155.899 353.072 156.709 353.072 157.735V162.325H351.596V153.145H352.874L353.072 154.387C353.756 153.487 354.764 153.037 356.096 153.037C357.212 153.037 358.094 153.379 358.778 154.045ZM368.251 161.839C367.567 161.443 367.027 160.903 366.649 160.183C366.253 159.481 366.073 158.671 366.073 157.735C366.073 156.817 366.253 156.007 366.649 155.287C367.027 154.585 367.567 154.027 368.251 153.631C368.935 153.235 369.727 153.037 370.627 153.037C371.509 153.037 372.301 153.235 372.985 153.631C373.669 154.027 374.209 154.585 374.605 155.287C374.983 156.007 375.181 156.817 375.181 157.735C375.181 158.671 374.983 159.481 374.605 160.183C374.209 160.903 373.669 161.443 372.985 161.839C372.301 162.235 371.509 162.433 370.627 162.433C369.727 162.433 368.935 162.235 368.251 161.839ZM372.211 160.687C372.679 160.399 373.039 160.003 373.291 159.481C373.543 158.977 373.669 158.383 373.669 157.735C373.669 157.087 373.543 156.511 373.291 155.989C373.039 155.485 372.679 155.071 372.211 154.783C371.743 154.495 371.221 154.351 370.627 154.351C370.015 154.351 369.493 154.495 369.025 154.783C368.557 155.071 368.215 155.485 367.963 155.989C367.711 156.511 367.585 157.087 367.585 157.735C367.585 158.383 367.711 158.977 367.963 159.481C368.215 160.003 368.557 160.399 369.025 160.687C369.493 160.975 370.015 161.119 370.627 161.119C371.221 161.119 371.743 160.975 372.211 160.687ZM384.055 154.045C384.739 154.729 385.081 155.773 385.081 157.213V162.325H383.605V157.303C383.605 156.367 383.389 155.647 382.957 155.143C382.525 154.639 381.913 154.387 381.121 154.387C380.257 154.387 379.573 154.693 379.087 155.287C378.583 155.899 378.349 156.709 378.349 157.735V162.325H376.873V153.145H378.151L378.349 154.387C379.033 153.487 380.041 153.037 381.373 153.037C382.489 153.037 383.371 153.379 384.055 154.045ZM387.179 155.269C387.539 154.567 388.061 154.027 388.727 153.631C389.375 153.235 390.131 153.037 390.995 153.037C391.823 153.037 392.579 153.217 393.227 153.559C393.875 153.919 394.379 154.423 394.757 155.071C395.117 155.737 395.315 156.511 395.351 157.393C395.351 157.537 395.333 157.735 395.315 158.023H388.187V158.149C388.205 159.049 388.475 159.769 389.015 160.309C389.537 160.849 390.221 161.119 391.085 161.119C391.733 161.119 392.291 160.957 392.759 160.633C393.227 160.309 393.533 159.841 393.695 159.247H395.189C395.009 160.183 394.559 160.957 393.839 161.551C393.119 162.145 392.237 162.433 391.193 162.433C390.275 162.433 389.483 162.253 388.799 161.857C388.115 161.461 387.575 160.921 387.197 160.201C386.819 159.481 386.639 158.671 386.639 157.735C386.639 156.799 386.819 155.989 387.179 155.269ZM393.821 156.799C393.749 156.025 393.443 155.413 392.939 154.981C392.435 154.549 391.787 154.333 391.013 154.333C390.311 154.333 389.699 154.567 389.177 155.017C388.637 155.485 388.349 156.079 388.277 156.799H393.821ZM408.64 153.595C409.306 153.973 409.828 154.513 410.206 155.215C410.584 155.935 410.782 156.763 410.782 157.735C410.782 158.671 410.584 159.481 410.206 160.183C409.828 160.903 409.306 161.443 408.64 161.839C407.956 162.235 407.2 162.433 406.372 162.433C405.616 162.433 404.986 162.307 404.464 162.037C403.924 161.767 403.51 161.389 403.222 160.921V165.925H401.746V153.145H403.024L403.222 154.621C403.978 153.577 405.04 153.037 406.372 153.037C407.218 153.037 407.974 153.235 408.64 153.595ZM408.424 160.183C408.982 159.553 409.27 158.743 409.27 157.735C409.27 156.745 408.982 155.935 408.424 155.305C407.866 154.675 407.128 154.351 406.228 154.351C405.634 154.351 405.112 154.495 404.644 154.783C404.176 155.071 403.834 155.467 403.582 155.971C403.33 156.475 403.204 157.051 403.204 157.699C403.204 158.365 403.33 158.959 403.582 159.481C403.834 160.003 404.176 160.399 404.644 160.687C405.112 160.975 405.634 161.119 406.228 161.119C407.128 161.119 407.866 160.813 408.424 160.183ZM412.469 149.725H413.945V162.325H412.469V149.725ZM424.553 160.975V162.325H423.743C423.149 162.325 422.735 162.217 422.483 161.965C422.231 161.731 422.087 161.371 422.087 160.903C421.367 161.929 420.341 162.433 419.009 162.433C417.983 162.433 417.155 162.199 416.543 161.713C415.931 161.245 415.625 160.579 415.625 159.751C415.625 158.833 415.931 158.131 416.561 157.627C417.191 157.141 418.109 156.889 419.315 156.889H422.015V156.259C422.015 155.665 421.799 155.197 421.403 154.855C421.007 154.531 420.449 154.351 419.729 154.351C419.081 154.351 418.559 154.495 418.145 154.783C417.731 155.071 417.479 155.431 417.389 155.899H415.913C416.021 154.999 416.417 154.297 417.101 153.793C417.785 153.289 418.685 153.037 419.801 153.037C420.971 153.037 421.871 153.325 422.519 153.901C423.167 154.477 423.491 155.287 423.491 156.349V160.309C423.491 160.759 423.689 160.975 424.103 160.975H424.553ZM422.015 158.131H419.171C417.803 158.131 417.119 158.653 417.119 159.661C417.119 160.129 417.299 160.489 417.659 160.759C418.019 161.047 418.505 161.173 419.117 161.173C420.017 161.173 420.719 160.939 421.241 160.471C421.745 160.003 422.015 159.373 422.015 158.581V158.131ZM432.528 161.569C431.808 162.145 430.908 162.433 429.828 162.433C428.928 162.433 428.154 162.235 427.488 161.839C426.804 161.443 426.282 160.903 425.922 160.183C425.544 159.463 425.364 158.653 425.364 157.717C425.364 156.799 425.544 155.989 425.922 155.269C426.3 154.567 426.84 154.027 427.524 153.631C428.208 153.235 428.982 153.037 429.882 153.037C430.962 153.037 431.844 153.325 432.546 153.901C433.248 154.477 433.698 155.269 433.878 156.277H432.384C432.24 155.701 431.934 155.233 431.484 154.873C431.016 154.531 430.476 154.351 429.828 154.351C428.946 154.351 428.226 154.675 427.686 155.287C427.146 155.917 426.876 156.727 426.876 157.717C426.876 158.725 427.146 159.553 427.686 160.183C428.226 160.813 428.946 161.119 429.828 161.119C430.494 161.119 431.052 160.957 431.52 160.597C431.97 160.255 432.258 159.769 432.402 159.157H433.878C433.68 160.183 433.23 160.993 432.528 161.569ZM435.607 155.269C435.967 154.567 436.489 154.027 437.155 153.631C437.803 153.235 438.559 153.037 439.423 153.037C440.251 153.037 441.007 153.217 441.655 153.559C442.303 153.919 442.807 154.423 443.185 155.071C443.545 155.737 443.743 156.511 443.779 157.393C443.779 157.537 443.761 157.735 443.743 158.023H436.615V158.149C436.633 159.049 436.903 159.769 437.443 160.309C437.965 160.849 438.649 161.119 439.513 161.119C440.161 161.119 440.719 160.957 441.187 160.633C441.655 160.309 441.961 159.841 442.123 159.247H443.617C443.437 160.183 442.987 160.957 442.267 161.551C441.547 162.145 440.665 162.433 439.621 162.433C438.703 162.433 437.911 162.253 437.227 161.857C436.543 161.461 436.003 160.921 435.625 160.201C435.247 159.481 435.067 158.671 435.067 157.735C435.067 156.799 435.247 155.989 435.607 155.269ZM442.249 156.799C442.177 156.025 441.871 155.413 441.367 154.981C440.863 154.549 440.215 154.333 439.441 154.333C438.739 154.333 438.127 154.567 437.605 155.017C437.065 155.485 436.777 156.079 436.705 156.799H442.249ZM450.786 153.145V152.119C450.786 151.309 450.966 150.715 451.344 150.319C451.722 149.923 452.334 149.725 453.18 149.725H454.872V151.075H453.27C452.91 151.075 452.64 151.165 452.496 151.309C452.334 151.471 452.262 151.723 452.262 152.083V153.145H454.854V154.495H452.262V162.325H450.786V154.495H449.13V153.145H450.786ZM457.284 161.839C456.6 161.443 456.06 160.903 455.682 160.183C455.286 159.481 455.106 158.671 455.106 157.735C455.106 156.817 455.286 156.007 455.682 155.287C456.06 154.585 456.6 154.027 457.284 153.631C457.968 153.235 458.76 153.037 459.66 153.037C460.542 153.037 461.334 153.235 462.018 153.631C462.702 154.027 463.242 154.585 463.638 155.287C464.016 156.007 464.214 156.817 464.214 157.735C464.214 158.671 464.016 159.481 463.638 160.183C463.242 160.903 462.702 161.443 462.018 161.839C461.334 162.235 460.542 162.433 459.66 162.433C458.76 162.433 457.968 162.235 457.284 161.839ZM461.244 160.687C461.712 160.399 462.072 160.003 462.324 159.481C462.576 158.977 462.702 158.383 462.702 157.735C462.702 157.087 462.576 156.511 462.324 155.989C462.072 155.485 461.712 155.071 461.244 154.783C460.776 154.495 460.254 154.351 459.66 154.351C459.048 154.351 458.526 154.495 458.058 154.783C457.59 155.071 457.248 155.485 456.996 155.989C456.744 156.511 456.618 157.087 456.618 157.735C456.618 158.383 456.744 158.977 456.996 159.481C457.248 160.003 457.59 160.399 458.058 160.687C458.526 160.975 459.048 161.119 459.66 161.119C460.254 161.119 460.776 160.975 461.244 160.687ZM470.568 153.145V154.585H469.83C468.948 154.585 468.318 154.891 467.94 155.467C467.562 156.061 467.382 156.781 467.382 157.645V162.325H465.906V153.145H467.184L467.382 154.531C467.634 154.117 467.976 153.775 468.408 153.523C468.822 153.271 469.398 153.145 470.154 153.145H470.568ZM471.607 155.269C471.967 154.567 472.489 154.027 473.155 153.631C473.803 153.235 474.559 153.037 475.423 153.037C476.251 153.037 477.007 153.217 477.655 153.559C478.303 153.919 478.807 154.423 479.185 155.071C479.545 155.737 479.743 156.511 479.779 157.393C479.779 157.537 479.761 157.735 479.743 158.023H472.615V158.149C472.633 159.049 472.903 159.769 473.443 160.309C473.965 160.849 474.649 161.119 475.513 161.119C476.161 161.119 476.719 160.957 477.187 160.633C477.655 160.309 477.961 159.841 478.123 159.247H479.617C479.437 160.183 478.987 160.957 478.267 161.551C477.547 162.145 476.665 162.433 475.621 162.433C474.703 162.433 473.911 162.253 473.227 161.857C472.543 161.461 472.003 160.921 471.625 160.201C471.247 159.481 471.067 158.671 471.067 157.735C471.067 156.799 471.247 155.989 471.607 155.269ZM478.249 156.799C478.177 156.025 477.871 155.413 477.367 154.981C476.863 154.549 476.215 154.333 475.441 154.333C474.739 154.333 474.127 154.567 473.605 155.017C473.065 155.485 472.777 156.079 472.705 156.799H478.249ZM480.194 153.145H481.778L484.55 160.651L487.304 153.145H488.852L485.414 162.325H483.632L480.194 153.145ZM489.818 155.269C490.178 154.567 490.7 154.027 491.366 153.631C492.014 153.235 492.77 153.037 493.634 153.037C494.462 153.037 495.218 153.217 495.866 153.559C496.514 153.919 497.018 154.423 497.396 155.071C497.756 155.737 497.954 156.511 497.99 157.393C497.99 157.537 497.972 157.735 497.954 158.023H490.826V158.149C490.844 159.049 491.114 159.769 491.654 160.309C492.176 160.849 492.86 161.119 493.724 161.119C494.372 161.119 494.93 160.957 495.398 160.633C495.866 160.309 496.172 159.841 496.334 159.247H497.828C497.648 160.183 497.198 160.957 496.478 161.551C495.758 162.145 494.876 162.433 493.832 162.433C492.914 162.433 492.122 162.253 491.438 161.857C490.754 161.461 490.214 160.921 489.836 160.201C489.458 159.481 489.278 158.671 489.278 157.735C489.278 156.799 489.458 155.989 489.818 155.269ZM496.46 156.799C496.388 156.025 496.082 155.413 495.578 154.981C495.074 154.549 494.426 154.333 493.652 154.333C492.95 154.333 492.338 154.567 491.816 155.017C491.276 155.485 490.988 156.079 490.916 156.799H496.46ZM504.336 153.145V154.585H503.598C502.716 154.585 502.086 154.891 501.708 155.467C501.33 156.061 501.15 156.781 501.15 157.645V162.325H499.674V153.145H500.952L501.15 154.531C501.402 154.117 501.744 153.775 502.176 153.523C502.59 153.271 503.166 153.145 503.922 153.145H504.336ZM504.809 160.705C504.989 160.525 505.241 160.417 505.547 160.417C505.835 160.417 506.087 160.525 506.285 160.705C506.465 160.885 506.573 161.137 506.573 161.425C506.573 161.731 506.465 161.983 506.285 162.163C506.087 162.343 505.835 162.433 505.547 162.433C505.241 162.433 504.989 162.343 504.809 162.163C504.611 161.983 504.521 161.731 504.521 161.425C504.521 161.137 504.611 160.885 504.809 160.705Z" fill="white"/>
<path d="M95.224 202.325V189.725H96.664L103.432 199.445V189.725H104.962V202.325H103.522L96.754 192.605V202.325H95.224ZM109.044 201.839C108.36 201.443 107.82 200.903 107.442 200.183C107.046 199.481 106.866 198.671 106.866 197.735C106.866 196.817 107.046 196.007 107.442 195.287C107.82 194.585 108.36 194.027 109.044 193.631C109.728 193.235 110.52 193.037 111.42 193.037C112.302 193.037 113.094 193.235 113.778 193.631C114.462 194.027 115.002 194.585 115.398 195.287C115.776 196.007 115.974 196.817 115.974 197.735C115.974 198.671 115.776 199.481 115.398 200.183C115.002 200.903 114.462 201.443 113.778 201.839C113.094 202.235 112.302 202.433 111.42 202.433C110.52 202.433 109.728 202.235 109.044 201.839ZM113.004 200.687C113.472 200.399 113.832 200.003 114.084 199.481C114.336 198.977 114.462 198.383 114.462 197.735C114.462 197.087 114.336 196.511 114.084 195.989C113.832 195.485 113.472 195.071 113.004 194.783C112.536 194.495 112.014 194.351 111.42 194.351C110.808 194.351 110.286 194.495 109.818 194.783C109.35 195.071 109.008 195.485 108.756 195.989C108.504 196.511 108.378 197.087 108.378 197.735C108.378 198.383 108.504 198.977 108.756 199.481C109.008 200.003 109.35 200.399 109.818 200.687C110.286 200.975 110.808 201.119 111.42 201.119C112.014 201.119 112.536 200.975 113.004 200.687ZM135.121 194.009C135.769 194.657 136.093 195.665 136.093 197.033V202.325H134.617V197.123C134.617 196.241 134.419 195.557 134.041 195.089C133.663 194.621 133.123 194.387 132.439 194.387C131.665 194.387 131.053 194.657 130.621 195.197C130.189 195.737 129.973 196.475 129.973 197.411V202.325H128.497V197.123C128.497 196.241 128.299 195.557 127.921 195.089C127.525 194.621 126.985 194.387 126.283 194.387C125.527 194.387 124.933 194.675 124.501 195.251C124.069 195.827 123.853 196.565 123.853 197.483V202.325H122.377V193.145H123.655L123.853 194.405C124.501 193.505 125.401 193.037 126.535 193.037C127.183 193.037 127.777 193.199 128.281 193.487C128.785 193.775 129.181 194.207 129.433 194.783C130.081 193.631 131.143 193.037 132.619 193.037C133.645 193.037 134.473 193.361 135.121 194.009ZM139.841 201.839C139.157 201.443 138.617 200.903 138.239 200.183C137.843 199.481 137.663 198.671 137.663 197.735C137.663 196.817 137.843 196.007 138.239 195.287C138.617 194.585 139.157 194.027 139.841 193.631C140.525 193.235 141.317 193.037 142.217 193.037C143.099 193.037 143.891 193.235 144.575 193.631C145.259 194.027 145.799 194.585 146.195 195.287C146.573 196.007 146.771 196.817 146.771 197.735C146.771 198.671 146.573 199.481 146.195 200.183C145.799 200.903 145.259 201.443 144.575 201.839C143.891 202.235 143.099 202.433 142.217 202.433C141.317 202.433 140.525 202.235 139.841 201.839ZM143.801 200.687C144.269 200.399 144.629 200.003 144.881 199.481C145.133 198.977 145.259 198.383 145.259 197.735C145.259 197.087 145.133 196.511 144.881 195.989C144.629 195.485 144.269 195.071 143.801 194.783C143.333 194.495 142.811 194.351 142.217 194.351C141.605 194.351 141.083 194.495 140.615 194.783C140.147 195.071 139.805 195.485 139.553 195.989C139.301 196.511 139.175 197.087 139.175 197.735C139.175 198.383 139.301 198.977 139.553 199.481C139.805 200.003 140.147 200.399 140.615 200.687C141.083 200.975 141.605 201.119 142.217 201.119C142.811 201.119 143.333 200.975 143.801 200.687ZM153.125 193.145V194.585H152.387C151.505 194.585 150.875 194.891 150.497 195.467C150.119 196.061 149.939 196.781 149.939 197.645V202.325H148.463V193.145H149.741L149.939 194.531C150.191 194.117 150.533 193.775 150.965 193.523C151.379 193.271 151.955 193.145 152.711 193.145H153.125ZM154.163 195.269C154.523 194.567 155.045 194.027 155.711 193.631C156.359 193.235 157.115 193.037 157.979 193.037C158.807 193.037 159.563 193.217 160.211 193.559C160.859 193.919 161.363 194.423 161.741 195.071C162.101 195.737 162.299 196.511 162.335 197.393C162.335 197.537 162.317 197.735 162.299 198.023H155.171V198.149C155.189 199.049 155.459 199.769 155.999 200.309C156.521 200.849 157.205 201.119 158.069 201.119C158.717 201.119 159.275 200.957 159.743 200.633C160.211 200.309 160.517 199.841 160.679 199.247H162.173C161.993 200.183 161.543 200.957 160.823 201.551C160.103 202.145 159.221 202.433 158.177 202.433C157.259 202.433 156.467 202.253 155.783 201.857C155.099 201.461 154.559 200.921 154.181 200.201C153.803 199.481 153.623 198.671 153.623 197.735C153.623 196.799 153.803 195.989 154.163 195.269ZM160.805 196.799C160.733 196.025 160.427 195.413 159.923 194.981C159.419 194.549 158.771 194.333 157.997 194.333C157.295 194.333 156.683 194.567 156.161 195.017C155.621 195.485 155.333 196.079 155.261 196.799H160.805ZM168.947 195.269C169.307 194.567 169.829 194.027 170.495 193.631C171.143 193.235 171.899 193.037 172.763 193.037C173.591 193.037 174.347 193.217 174.995 193.559C175.643 193.919 176.147 194.423 176.525 195.071C176.885 195.737 177.083 196.511 177.119 197.393C177.119 197.537 177.101 197.735 177.083 198.023H169.955V198.149C169.973 199.049 170.243 199.769 170.783 200.309C171.305 200.849 171.989 201.119 172.853 201.119C173.501 201.119 174.059 200.957 174.527 200.633C174.995 200.309 175.301 199.841 175.463 199.247H176.957C176.777 200.183 176.327 200.957 175.607 201.551C174.887 202.145 174.005 202.433 172.961 202.433C172.043 202.433 171.251 202.253 170.567 201.857C169.883 201.461 169.343 200.921 168.965 200.201C168.587 199.481 168.407 198.671 168.407 197.735C168.407 196.799 168.587 195.989 168.947 195.269ZM175.589 196.799C175.517 196.025 175.211 195.413 174.707 194.981C174.203 194.549 173.555 194.333 172.781 194.333C172.079 194.333 171.467 194.567 170.945 195.017C170.405 195.485 170.117 196.079 170.045 196.799H175.589ZM181.079 197.609L177.821 193.145H179.585L182.033 196.547L184.517 193.145H186.155L182.879 197.609L186.389 202.325H184.625L181.925 198.635L179.225 202.325H177.587L181.079 197.609ZM193.94 201.569C193.22 202.145 192.32 202.433 191.24 202.433C190.34 202.433 189.566 202.235 188.9 201.839C188.216 201.443 187.694 200.903 187.334 200.183C186.956 199.463 186.776 198.653 186.776 197.717C186.776 196.799 186.956 195.989 187.334 195.269C187.712 194.567 188.252 194.027 188.936 193.631C189.62 193.235 190.394 193.037 191.294 193.037C192.374 193.037 193.256 193.325 193.958 193.901C194.66 194.477 195.11 195.269 195.29 196.277H193.796C193.652 195.701 193.346 195.233 192.896 194.873C192.428 194.531 191.888 194.351 191.24 194.351C190.358 194.351 189.638 194.675 189.098 195.287C188.558 195.917 188.288 196.727 188.288 197.717C188.288 198.725 188.558 199.553 189.098 200.183C189.638 200.813 190.358 201.119 191.24 201.119C191.906 201.119 192.464 200.957 192.932 200.597C193.382 200.255 193.67 199.769 193.814 199.157H195.29C195.092 200.183 194.642 200.993 193.94 201.569ZM197.019 195.269C197.379 194.567 197.901 194.027 198.567 193.631C199.215 193.235 199.971 193.037 200.835 193.037C201.663 193.037 202.419 193.217 203.067 193.559C203.715 193.919 204.219 194.423 204.597 195.071C204.957 195.737 205.155 196.511 205.191 197.393C205.191 197.537 205.173 197.735 205.155 198.023H198.027V198.149C198.045 199.049 198.315 199.769 198.855 200.309C199.377 200.849 200.061 201.119 200.925 201.119C201.573 201.119 202.131 200.957 202.599 200.633C203.067 200.309 203.373 199.841 203.535 199.247H205.029C204.849 200.183 204.399 200.957 203.679 201.551C202.959 202.145 202.077 202.433 201.033 202.433C200.115 202.433 199.323 202.253 198.639 201.857C197.955 201.461 197.415 200.921 197.037 200.201C196.659 199.481 196.479 198.671 196.479 197.735C196.479 196.799 196.659 195.989 197.019 195.269ZM203.661 196.799C203.589 196.025 203.283 195.413 202.779 194.981C202.275 194.549 201.627 194.333 200.853 194.333C200.151 194.333 199.539 194.567 199.017 195.017C198.477 195.485 198.189 196.079 198.117 196.799H203.661ZM206.875 189.725H208.351V202.325H206.875V189.725ZM216.236 199.301C216.254 199.859 216.488 200.309 216.956 200.651C217.424 201.011 218.018 201.173 218.756 201.173C219.404 201.173 219.926 201.047 220.322 200.795C220.718 200.543 220.934 200.201 220.934 199.769C220.934 199.409 220.826 199.139 220.646 198.941C220.448 198.761 220.196 198.617 219.89 198.545C219.584 198.473 219.152 198.401 218.594 198.329C217.802 198.239 217.154 198.113 216.65 197.951C216.146 197.807 215.732 197.555 215.426 197.213C215.102 196.871 214.958 196.403 214.958 195.791C214.958 195.251 215.102 194.783 215.408 194.351C215.714 193.937 216.128 193.613 216.668 193.379C217.19 193.145 217.784 193.019 218.45 193.019C219.53 193.019 220.394 193.271 221.078 193.775C221.762 194.279 222.14 194.999 222.212 195.935H220.736C220.664 195.467 220.43 195.071 220.034 194.747C219.62 194.441 219.116 194.279 218.504 194.279C217.874 194.279 217.37 194.423 216.992 194.675C216.596 194.927 216.416 195.269 216.416 195.683C216.416 196.007 216.506 196.241 216.686 196.403C216.866 196.583 217.082 196.691 217.37 196.745C217.658 196.817 218.09 196.871 218.666 196.943C219.458 197.051 220.124 197.177 220.646 197.339C221.168 197.519 221.582 197.789 221.906 198.149C222.23 198.527 222.392 199.031 222.392 199.661C222.392 200.219 222.23 200.705 221.906 201.119C221.582 201.551 221.132 201.875 220.592 202.091C220.034 202.325 219.422 202.433 218.756 202.433C217.55 202.433 216.578 202.163 215.858 201.605C215.138 201.065 214.76 200.291 214.76 199.301H216.236ZM231.267 194.045C231.951 194.729 232.293 195.773 232.293 197.213V202.325H230.817V197.303C230.817 196.367 230.601 195.647 230.169 195.143C229.737 194.639 229.107 194.387 228.315 194.387C227.451 194.387 226.785 194.693 226.281 195.287C225.777 195.899 225.543 196.709 225.543 197.735V202.325H224.067V189.725H225.543V194.657C225.831 194.189 226.227 193.793 226.731 193.487C227.235 193.199 227.847 193.037 228.567 193.037C229.683 193.037 230.583 193.379 231.267 194.045ZM234.39 195.269C234.75 194.567 235.272 194.027 235.938 193.631C236.586 193.235 237.342 193.037 238.206 193.037C239.034 193.037 239.79 193.217 240.438 193.559C241.086 193.919 241.59 194.423 241.968 195.071C242.328 195.737 242.526 196.511 242.562 197.393C242.562 197.537 242.544 197.735 242.526 198.023H235.398V198.149C235.416 199.049 235.686 199.769 236.226 200.309C236.748 200.849 237.432 201.119 238.296 201.119C238.944 201.119 239.502 200.957 239.97 200.633C240.438 200.309 240.744 199.841 240.906 199.247H242.4C242.22 200.183 241.77 200.957 241.05 201.551C240.33 202.145 239.448 202.433 238.404 202.433C237.486 202.433 236.694 202.253 236.01 201.857C235.326 201.461 234.786 200.921 234.408 200.201C234.03 199.481 233.85 198.671 233.85 197.735C233.85 196.799 234.03 195.989 234.39 195.269ZM241.032 196.799C240.96 196.025 240.654 195.413 240.15 194.981C239.646 194.549 238.998 194.333 238.224 194.333C237.522 194.333 236.91 194.567 236.388 195.017C235.848 195.485 235.56 196.079 235.488 196.799H241.032ZM244.462 195.269C244.822 194.567 245.344 194.027 246.01 193.631C246.658 193.235 247.414 193.037 248.278 193.037C249.106 193.037 249.862 193.217 250.51 193.559C251.158 193.919 251.662 194.423 252.04 195.071C252.4 195.737 252.598 196.511 252.634 197.393C252.634 197.537 252.616 197.735 252.598 198.023H245.47V198.149C245.488 199.049 245.758 199.769 246.298 200.309C246.82 200.849 247.504 201.119 248.368 201.119C249.016 201.119 249.574 200.957 250.042 200.633C250.51 200.309 250.816 199.841 250.978 199.247H252.472C252.292 200.183 251.842 200.957 251.122 201.551C250.402 202.145 249.52 202.433 248.476 202.433C247.558 202.433 246.766 202.253 246.082 201.857C245.398 201.461 244.858 200.921 244.48 200.201C244.102 199.481 243.922 198.671 243.922 197.735C243.922 196.799 244.102 195.989 244.462 195.269ZM251.104 196.799C251.032 196.025 250.726 195.413 250.222 194.981C249.718 194.549 249.07 194.333 248.296 194.333C247.594 194.333 246.982 194.567 246.46 195.017C245.92 195.485 245.632 196.079 245.56 196.799H251.104ZM254.825 194.495H253.169V193.145H254.825V190.571H256.301V193.145H258.623V194.495H256.301V199.913C256.301 200.309 256.373 200.579 256.517 200.741C256.661 200.903 256.931 200.975 257.309 200.975H258.911V202.325H257.219C256.355 202.325 255.725 202.145 255.365 201.749C255.005 201.371 254.825 200.759 254.825 199.931V194.495ZM266.526 201.839C265.842 201.443 265.302 200.903 264.924 200.183C264.528 199.481 264.348 198.671 264.348 197.735C264.348 196.817 264.528 196.007 264.924 195.287C265.302 194.585 265.842 194.027 266.526 193.631C267.21 193.235 268.002 193.037 268.902 193.037C269.784 193.037 270.576 193.235 271.26 193.631C271.944 194.027 272.484 194.585 272.88 195.287C273.258 196.007 273.456 196.817 273.456 197.735C273.456 198.671 273.258 199.481 272.88 200.183C272.484 200.903 271.944 201.443 271.26 201.839C270.576 202.235 269.784 202.433 268.902 202.433C268.002 202.433 267.21 202.235 266.526 201.839ZM270.486 200.687C270.954 200.399 271.314 200.003 271.566 199.481C271.818 198.977 271.944 198.383 271.944 197.735C271.944 197.087 271.818 196.511 271.566 195.989C271.314 195.485 270.954 195.071 270.486 194.783C270.018 194.495 269.496 194.351 268.902 194.351C268.29 194.351 267.768 194.495 267.3 194.783C266.832 195.071 266.49 195.485 266.238 195.989C265.986 196.511 265.86 197.087 265.86 197.735C265.86 198.383 265.986 198.977 266.238 199.481C266.49 200.003 266.832 200.399 267.3 200.687C267.768 200.975 268.29 201.119 268.902 201.119C269.496 201.119 270.018 200.975 270.486 200.687ZM279.811 193.145V194.585H279.073C278.191 194.585 277.561 194.891 277.183 195.467C276.805 196.061 276.625 196.781 276.625 197.645V202.325H275.149V193.145H276.427L276.625 194.531C276.877 194.117 277.219 193.775 277.651 193.523C278.065 193.271 278.641 193.145 279.397 193.145H279.811ZM298.615 194.009C299.263 194.657 299.587 195.665 299.587 197.033V202.325H298.111V197.123C298.111 196.241 297.913 195.557 297.535 195.089C297.157 194.621 296.617 194.387 295.933 194.387C295.159 194.387 294.547 194.657 294.115 195.197C293.683 195.737 293.467 196.475 293.467 197.411V202.325H291.991V197.123C291.991 196.241 291.793 195.557 291.415 195.089C291.019 194.621 290.479 194.387 289.777 194.387C289.021 194.387 288.427 194.675 287.995 195.251C287.563 195.827 287.347 196.565 287.347 197.483V202.325H285.871V193.145H287.149L287.347 194.405C287.995 193.505 288.895 193.037 290.029 193.037C290.677 193.037 291.271 193.199 291.775 193.487C292.279 193.775 292.675 194.207 292.927 194.783C293.575 193.631 294.637 193.037 296.113 193.037C297.139 193.037 297.967 193.361 298.615 194.009ZM310.067 200.975V202.325H309.257C308.663 202.325 308.249 202.217 307.997 201.965C307.745 201.731 307.601 201.371 307.601 200.903C306.881 201.929 305.855 202.433 304.523 202.433C303.497 202.433 302.669 202.199 302.057 201.713C301.445 201.245 301.139 200.579 301.139 199.751C301.139 198.833 301.445 198.131 302.075 197.627C302.705 197.141 303.623 196.889 304.829 196.889H307.529V196.259C307.529 195.665 307.313 195.197 306.917 194.855C306.521 194.531 305.963 194.351 305.243 194.351C304.595 194.351 304.073 194.495 303.659 194.783C303.245 195.071 302.993 195.431 302.903 195.899H301.427C301.535 194.999 301.931 194.297 302.615 193.793C303.299 193.289 304.199 193.037 305.315 193.037C306.485 193.037 307.385 193.325 308.033 193.901C308.681 194.477 309.005 195.287 309.005 196.349V200.309C309.005 200.759 309.203 200.975 309.617 200.975H310.067ZM307.529 198.131H304.685C303.317 198.131 302.633 198.653 302.633 199.661C302.633 200.129 302.813 200.489 303.173 200.759C303.533 201.047 304.019 201.173 304.631 201.173C305.531 201.173 306.233 200.939 306.755 200.471C307.259 200.003 307.529 199.373 307.529 198.581V198.131ZM318.383 194.045C319.067 194.729 319.409 195.773 319.409 197.213V202.325H317.933V197.303C317.933 196.367 317.717 195.647 317.285 195.143C316.853 194.639 316.241 194.387 315.449 194.387C314.585 194.387 313.901 194.693 313.415 195.287C312.911 195.899 312.677 196.709 312.677 197.735V202.325H311.201V193.145H312.479L312.677 194.387C313.361 193.487 314.369 193.037 315.701 193.037C316.817 193.037 317.699 193.379 318.383 194.045ZM329.193 193.145V202.325H327.915L327.717 201.101C327.015 202.001 326.043 202.433 324.783 202.433C323.685 202.433 322.803 202.109 322.155 201.425C321.489 200.759 321.165 199.697 321.165 198.257V193.145H322.641V198.167C322.641 199.121 322.839 199.841 323.253 200.345C323.667 200.849 324.261 201.083 325.035 201.083C325.863 201.083 326.529 200.795 326.997 200.183C327.465 199.589 327.717 198.779 327.717 197.735V193.145H329.193ZM339.791 200.975V202.325H338.981C338.387 202.325 337.973 202.217 337.721 201.965C337.469 201.731 337.325 201.371 337.325 200.903C336.605 201.929 335.579 202.433 334.247 202.433C333.221 202.433 332.393 202.199 331.781 201.713C331.169 201.245 330.863 200.579 330.863 199.751C330.863 198.833 331.169 198.131 331.799 197.627C332.429 197.141 333.347 196.889 334.553 196.889H337.253V196.259C337.253 195.665 337.037 195.197 336.641 194.855C336.245 194.531 335.687 194.351 334.967 194.351C334.319 194.351 333.797 194.495 333.383 194.783C332.969 195.071 332.717 195.431 332.627 195.899H331.151C331.259 194.999 331.655 194.297 332.339 193.793C333.023 193.289 333.923 193.037 335.039 193.037C336.209 193.037 337.109 193.325 337.757 193.901C338.405 194.477 338.729 195.287 338.729 196.349V200.309C338.729 200.759 338.927 200.975 339.341 200.975H339.791ZM337.253 198.131H334.409C333.041 198.131 332.357 198.653 332.357 199.661C332.357 200.129 332.537 200.489 332.897 200.759C333.257 201.047 333.743 201.173 334.355 201.173C335.255 201.173 335.957 200.939 336.479 200.471C336.983 200.003 337.253 199.373 337.253 198.581V198.131ZM340.926 189.725H342.402V202.325H340.926V189.725ZM353.797 193.145V194.585H353.059C352.177 194.585 351.547 194.891 351.169 195.467C350.791 196.061 350.611 196.781 350.611 197.645V202.325H349.135V193.145H350.413L350.611 194.531C350.863 194.117 351.205 193.775 351.637 193.523C352.051 193.271 352.627 193.145 353.383 193.145H353.797ZM354.835 195.269C355.195 194.567 355.717 194.027 356.383 193.631C357.031 193.235 357.787 193.037 358.651 193.037C359.479 193.037 360.235 193.217 360.883 193.559C361.531 193.919 362.035 194.423 362.413 195.071C362.773 195.737 362.971 196.511 363.007 197.393C363.007 197.537 362.989 197.735 362.971 198.023H355.843V198.149C355.861 199.049 356.131 199.769 356.671 200.309C357.193 200.849 357.877 201.119 358.741 201.119C359.389 201.119 359.947 200.957 360.415 200.633C360.883 200.309 361.189 199.841 361.351 199.247H362.845C362.665 200.183 362.215 200.957 361.495 201.551C360.775 202.145 359.893 202.433 358.849 202.433C357.931 202.433 357.139 202.253 356.455 201.857C355.771 201.461 355.231 200.921 354.853 200.201C354.475 199.481 354.295 198.671 354.295 197.735C354.295 196.799 354.475 195.989 354.835 195.269ZM361.477 196.799C361.405 196.025 361.099 195.413 360.595 194.981C360.091 194.549 359.443 194.333 358.669 194.333C357.967 194.333 357.355 194.567 356.833 195.017C356.293 195.485 356.005 196.079 355.933 196.799H361.477ZM371.532 201.569C370.812 202.145 369.912 202.433 368.832 202.433C367.932 202.433 367.158 202.235 366.492 201.839C365.808 201.443 365.286 200.903 364.926 200.183C364.548 199.463 364.368 198.653 364.368 197.717C364.368 196.799 364.548 195.989 364.926 195.269C365.304 194.567 365.844 194.027 366.528 193.631C367.212 193.235 367.986 193.037 368.886 193.037C369.966 193.037 370.848 193.325 371.55 193.901C372.252 194.477 372.702 195.269 372.882 196.277H371.388C371.244 195.701 370.938 195.233 370.488 194.873C370.02 194.531 369.48 194.351 368.832 194.351C367.95 194.351 367.23 194.675 366.69 195.287C366.15 195.917 365.88 196.727 365.88 197.717C365.88 198.725 366.15 199.553 366.69 200.183C367.23 200.813 367.95 201.119 368.832 201.119C369.498 201.119 370.056 200.957 370.524 200.597C370.974 200.255 371.262 199.769 371.406 199.157H372.882C372.684 200.183 372.234 200.993 371.532 201.569ZM376.249 201.839C375.565 201.443 375.025 200.903 374.647 200.183C374.251 199.481 374.071 198.671 374.071 197.735C374.071 196.817 374.251 196.007 374.647 195.287C375.025 194.585 375.565 194.027 376.249 193.631C376.933 193.235 377.725 193.037 378.625 193.037C379.507 193.037 380.299 193.235 380.983 193.631C381.667 194.027 382.207 194.585 382.603 195.287C382.981 196.007 383.179 196.817 383.179 197.735C383.179 198.671 382.981 199.481 382.603 200.183C382.207 200.903 381.667 201.443 380.983 201.839C380.299 202.235 379.507 202.433 378.625 202.433C377.725 202.433 376.933 202.235 376.249 201.839ZM380.209 200.687C380.677 200.399 381.037 200.003 381.289 199.481C381.541 198.977 381.667 198.383 381.667 197.735C381.667 197.087 381.541 196.511 381.289 195.989C381.037 195.485 380.677 195.071 380.209 194.783C379.741 194.495 379.219 194.351 378.625 194.351C378.013 194.351 377.491 194.495 377.023 194.783C376.555 195.071 376.213 195.485 375.961 195.989C375.709 196.511 375.583 197.087 375.583 197.735C375.583 198.383 375.709 198.977 375.961 199.481C376.213 200.003 376.555 200.399 377.023 200.687C377.491 200.975 378.013 201.119 378.625 201.119C379.219 201.119 379.741 200.975 380.209 200.687ZM389.533 193.145V194.585H388.795C387.913 194.585 387.283 194.891 386.905 195.467C386.527 196.061 386.347 196.781 386.347 197.645V202.325H384.871V193.145H386.149L386.347 194.531C386.599 194.117 386.941 193.775 387.373 193.523C387.787 193.271 388.363 193.145 389.119 193.145H389.533ZM399.068 189.725V202.325H397.79L397.592 200.849C396.818 201.911 395.774 202.433 394.442 202.433C393.578 202.433 392.822 202.253 392.156 201.875C391.49 201.515 390.968 200.975 390.59 200.255C390.212 199.553 390.032 198.707 390.032 197.735C390.032 196.817 390.212 196.007 390.59 195.287C390.968 194.585 391.49 194.027 392.174 193.631C392.84 193.235 393.596 193.037 394.442 193.037C395.18 193.037 395.81 193.181 396.35 193.451C396.872 193.721 397.286 194.081 397.592 194.549V189.725H399.068ZM396.152 200.705C396.62 200.417 396.98 200.021 397.232 199.517C397.484 199.013 397.61 198.419 397.61 197.771C397.61 197.123 397.484 196.529 397.232 196.007C396.98 195.485 396.62 195.071 396.152 194.783C395.684 194.495 395.162 194.351 394.586 194.351C393.668 194.351 392.93 194.675 392.372 195.305C391.814 195.935 391.544 196.745 391.544 197.735C391.544 198.743 391.814 199.553 392.372 200.183C392.93 200.813 393.668 201.119 394.586 201.119C395.162 201.119 395.684 200.993 396.152 200.705ZM402.23 199.301C402.248 199.859 402.482 200.309 402.95 200.651C403.418 201.011 404.012 201.173 404.75 201.173C405.398 201.173 405.92 201.047 406.316 200.795C406.712 200.543 406.928 200.201 406.928 199.769C406.928 199.409 406.82 199.139 406.64 198.941C406.442 198.761 406.19 198.617 405.884 198.545C405.578 198.473 405.146 198.401 404.588 198.329C403.796 198.239 403.148 198.113 402.644 197.951C402.14 197.807 401.726 197.555 401.42 197.213C401.096 196.871 400.952 196.403 400.952 195.791C400.952 195.251 401.096 194.783 401.402 194.351C401.708 193.937 402.122 193.613 402.662 193.379C403.184 193.145 403.778 193.019 404.444 193.019C405.524 193.019 406.388 193.271 407.072 193.775C407.756 194.279 408.134 194.999 408.206 195.935H406.73C406.658 195.467 406.424 195.071 406.028 194.747C405.614 194.441 405.11 194.279 404.498 194.279C403.868 194.279 403.364 194.423 402.986 194.675C402.59 194.927 402.41 195.269 402.41 195.683C402.41 196.007 402.5 196.241 402.68 196.403C402.86 196.583 403.076 196.691 403.364 196.745C403.652 196.817 404.084 196.871 404.66 196.943C405.452 197.051 406.118 197.177 406.64 197.339C407.162 197.519 407.576 197.789 407.9 198.149C408.224 198.527 408.386 199.031 408.386 199.661C408.386 200.219 408.224 200.705 407.9 201.119C407.576 201.551 407.126 201.875 406.586 202.091C406.028 202.325 405.416 202.433 404.75 202.433C403.544 202.433 402.572 202.163 401.852 201.605C401.132 201.065 400.754 200.291 400.754 199.301H402.23ZM410.028 200.705C410.208 200.525 410.46 200.417 410.766 200.417C411.054 200.417 411.306 200.525 411.504 200.705C411.684 200.885 411.792 201.137 411.792 201.425C411.792 201.731 411.684 201.983 411.504 202.163C411.306 202.343 411.054 202.433 410.766 202.433C410.46 202.433 410.208 202.343 410.028 202.163C409.83 201.983 409.74 201.731 409.74 201.425C409.74 201.137 409.83 200.885 410.028 200.705Z" fill="white"/>
<path d="M95.224 229.725H98.95C100.246 229.725 101.362 229.995 102.316 230.517C103.27 231.039 104.008 231.777 104.512 232.713C105.016 233.667 105.286 234.765 105.286 236.025C105.286 237.285 105.016 238.383 104.512 239.337C104.008 240.291 103.27 241.029 102.316 241.551C101.362 242.073 100.246 242.325 98.95 242.325H95.224V229.725ZM98.95 240.885C100.444 240.885 101.614 240.453 102.442 239.571C103.27 238.707 103.684 237.519 103.684 236.025C103.684 234.531 103.27 233.343 102.442 232.479C101.614 231.615 100.462 231.165 98.95 231.165H96.79V240.885H98.95ZM108.903 241.839C108.219 241.443 107.679 240.903 107.301 240.183C106.905 239.481 106.725 238.671 106.725 237.735C106.725 236.817 106.905 236.007 107.301 235.287C107.679 234.585 108.219 234.027 108.903 233.631C109.587 233.235 110.379 233.037 111.279 233.037C112.161 233.037 112.953 233.235 113.637 233.631C114.321 234.027 114.861 234.585 115.257 235.287C115.635 236.007 115.833 236.817 115.833 237.735C115.833 238.671 115.635 239.481 115.257 240.183C114.861 240.903 114.321 241.443 113.637 241.839C112.953 242.235 112.161 242.433 111.279 242.433C110.379 242.433 109.587 242.235 108.903 241.839ZM112.863 240.687C113.331 240.399 113.691 240.003 113.943 239.481C114.195 238.977 114.321 238.383 114.321 237.735C114.321 237.087 114.195 236.511 113.943 235.989C113.691 235.485 113.331 235.071 112.863 234.783C112.395 234.495 111.873 234.351 111.279 234.351C110.667 234.351 110.145 234.495 109.677 234.783C109.209 235.071 108.867 235.485 108.615 235.989C108.363 236.511 108.237 237.087 108.237 237.735C108.237 238.383 108.363 238.977 108.615 239.481C108.867 240.003 109.209 240.399 109.677 240.687C110.145 240.975 110.667 241.119 111.279 241.119C111.873 241.119 112.395 240.975 112.863 240.687ZM116.398 233.145H117.946L120.232 240.615L122.644 233.145H124.012L126.298 240.615L128.692 233.145H130.186L127.126 242.325H125.506L123.292 235.503L120.988 242.325L119.368 242.343L116.398 233.145ZM138.524 234.045C139.208 234.729 139.55 235.773 139.55 237.213V242.325H138.074V237.303C138.074 236.367 137.858 235.647 137.426 235.143C136.994 234.639 136.382 234.387 135.59 234.387C134.726 234.387 134.042 234.693 133.556 235.287C133.052 235.899 132.818 236.709 132.818 237.735V242.325H131.342V233.145H132.62L132.818 234.387C133.502 233.487 134.51 233.037 135.842 233.037C136.958 233.037 137.84 233.379 138.524 234.045ZM141.432 229.725H142.908V242.325H141.432V229.725ZM146.784 241.839C146.1 241.443 145.56 240.903 145.182 240.183C144.786 239.481 144.606 238.671 144.606 237.735C144.606 236.817 144.786 236.007 145.182 235.287C145.56 234.585 146.1 234.027 146.784 233.631C147.468 233.235 148.26 233.037 149.16 233.037C150.042 233.037 150.834 233.235 151.518 233.631C152.202 234.027 152.742 234.585 153.138 235.287C153.516 236.007 153.714 236.817 153.714 237.735C153.714 238.671 153.516 239.481 153.138 240.183C152.742 240.903 152.202 241.443 151.518 241.839C150.834 242.235 150.042 242.433 149.16 242.433C148.26 242.433 147.468 242.235 146.784 241.839ZM150.744 240.687C151.212 240.399 151.572 240.003 151.824 239.481C152.076 238.977 152.202 238.383 152.202 237.735C152.202 237.087 152.076 236.511 151.824 235.989C151.572 235.485 151.212 235.071 150.744 234.783C150.276 234.495 149.754 234.351 149.16 234.351C148.548 234.351 148.026 234.495 147.558 234.783C147.09 235.071 146.748 235.485 146.496 235.989C146.244 236.511 146.118 237.087 146.118 237.735C146.118 238.383 146.244 238.977 146.496 239.481C146.748 240.003 147.09 240.399 147.558 240.687C148.026 240.975 148.548 241.119 149.16 241.119C149.754 241.119 150.276 240.975 150.744 240.687ZM163.992 240.975V242.325H163.182C162.588 242.325 162.174 242.217 161.922 241.965C161.67 241.731 161.526 241.371 161.526 240.903C160.806 241.929 159.78 242.433 158.448 242.433C157.422 242.433 156.594 242.199 155.982 241.713C155.37 241.245 155.064 240.579 155.064 239.751C155.064 238.833 155.37 238.131 156 237.627C156.63 237.141 157.548 236.889 158.754 236.889H161.454V236.259C161.454 235.665 161.238 235.197 160.842 234.855C160.446 234.531 159.888 234.351 159.168 234.351C158.52 234.351 157.998 234.495 157.584 234.783C157.17 235.071 156.918 235.431 156.828 235.899H155.352C155.46 234.999 155.856 234.297 156.54 233.793C157.224 233.289 158.124 233.037 159.24 233.037C160.41 233.037 161.31 233.325 161.958 233.901C162.606 234.477 162.93 235.287 162.93 236.349V240.309C162.93 240.759 163.128 240.975 163.542 240.975H163.992ZM161.454 238.131H158.61C157.242 238.131 156.558 238.653 156.558 239.661C156.558 240.129 156.738 240.489 157.098 240.759C157.458 241.047 157.944 241.173 158.556 241.173C159.456 241.173 160.158 240.939 160.68 240.471C161.184 240.003 161.454 239.373 161.454 238.581V238.131ZM173.839 229.725V242.325H172.561L172.363 240.849C171.589 241.911 170.545 242.433 169.213 242.433C168.349 242.433 167.593 242.253 166.927 241.875C166.261 241.515 165.739 240.975 165.361 240.255C164.983 239.553 164.803 238.707 164.803 237.735C164.803 236.817 164.983 236.007 165.361 235.287C165.739 234.585 166.261 234.027 166.945 233.631C167.611 233.235 168.367 233.037 169.213 233.037C169.951 233.037 170.581 233.181 171.121 233.451C171.643 233.721 172.057 234.081 172.363 234.549V229.725H173.839ZM170.923 240.705C171.391 240.417 171.751 240.021 172.003 239.517C172.255 239.013 172.381 238.419 172.381 237.771C172.381 237.123 172.255 236.529 172.003 236.007C171.751 235.485 171.391 235.071 170.923 234.783C170.455 234.495 169.933 234.351 169.357 234.351C168.439 234.351 167.701 234.675 167.143 235.305C166.585 235.935 166.315 236.745 166.315 237.735C166.315 238.743 166.585 239.553 167.143 240.183C167.701 240.813 168.439 241.119 169.357 241.119C169.933 241.119 170.455 240.993 170.923 240.705ZM181.209 233.145L184.035 240.633L186.771 233.145H188.337L184.107 243.873C183.891 244.431 183.693 244.845 183.531 245.115C183.351 245.403 183.153 245.601 182.901 245.727C182.649 245.871 182.307 245.925 181.893 245.925H180.129V244.575H181.443C181.731 244.575 181.947 244.557 182.091 244.485C182.235 244.431 182.343 244.341 182.433 244.197C182.523 244.053 182.631 243.819 182.775 243.495L183.243 242.397L179.643 233.145H181.209ZM190.94 241.839C190.256 241.443 189.716 240.903 189.338 240.183C188.942 239.481 188.762 238.671 188.762 237.735C188.762 236.817 188.942 236.007 189.338 235.287C189.716 234.585 190.256 234.027 190.94 233.631C191.624 233.235 192.416 233.037 193.316 233.037C194.198 233.037 194.99 233.235 195.674 233.631C196.358 234.027 196.898 234.585 197.294 235.287C197.672 236.007 197.87 236.817 197.87 237.735C197.87 238.671 197.672 239.481 197.294 240.183C196.898 240.903 196.358 241.443 195.674 241.839C194.99 242.235 194.198 242.433 193.316 242.433C192.416 242.433 191.624 242.235 190.94 241.839ZM194.9 240.687C195.368 240.399 195.728 240.003 195.98 239.481C196.232 238.977 196.358 238.383 196.358 237.735C196.358 237.087 196.232 236.511 195.98 235.989C195.728 235.485 195.368 235.071 194.9 234.783C194.432 234.495 193.91 234.351 193.316 234.351C192.704 234.351 192.182 234.495 191.714 234.783C191.246 235.071 190.904 235.485 190.652 235.989C190.4 236.511 190.274 237.087 190.274 237.735C190.274 238.383 190.4 238.977 190.652 239.481C190.904 240.003 191.246 240.399 191.714 240.687C192.182 240.975 192.704 241.119 193.316 241.119C193.91 241.119 194.432 240.975 194.9 240.687ZM207.465 233.145V242.325H206.187L205.989 241.101C205.287 242.001 204.315 242.433 203.055 242.433C201.957 242.433 201.075 242.109 200.427 241.425C199.761 240.759 199.437 239.697 199.437 238.257V233.145H200.913V238.167C200.913 239.121 201.111 239.841 201.525 240.345C201.939 240.849 202.533 241.083 203.307 241.083C204.135 241.083 204.801 240.795 205.269 240.183C205.737 239.589 205.989 238.779 205.989 237.735V233.145H207.465ZM214.139 233.145V234.585H213.401C212.519 234.585 211.889 234.891 211.511 235.467C211.133 236.061 210.953 236.781 210.953 237.645V242.325H209.477V233.145H210.755L210.953 234.531C211.205 234.117 211.547 233.775 211.979 233.523C212.393 233.271 212.969 233.145 213.725 233.145H214.139ZM227.093 233.595C227.759 233.973 228.281 234.513 228.659 235.215C229.037 235.935 229.235 236.763 229.235 237.735C229.235 238.671 229.037 239.481 228.659 240.183C228.281 240.903 227.759 241.443 227.093 241.839C226.409 242.235 225.653 242.433 224.825 242.433C224.069 242.433 223.439 242.307 222.917 242.037C222.377 241.767 221.963 241.389 221.675 240.921V245.925H220.199V233.145H221.477L221.675 234.621C222.431 233.577 223.493 233.037 224.825 233.037C225.671 233.037 226.427 233.235 227.093 233.595ZM226.877 240.183C227.435 239.553 227.723 238.743 227.723 237.735C227.723 236.745 227.435 235.935 226.877 235.305C226.319 234.675 225.581 234.351 224.681 234.351C224.087 234.351 223.565 234.495 223.097 234.783C222.629 235.071 222.287 235.467 222.035 235.971C221.783 236.475 221.657 237.051 221.657 237.699C221.657 238.365 221.783 238.959 222.035 239.481C222.287 240.003 222.629 240.399 223.097 240.687C223.565 240.975 224.087 241.119 224.681 241.119C225.581 241.119 226.319 240.813 226.877 240.183ZM239.508 240.975V242.325H238.698C238.104 242.325 237.69 242.217 237.438 241.965C237.186 241.731 237.042 241.371 237.042 240.903C236.322 241.929 235.296 242.433 233.964 242.433C232.938 242.433 232.11 242.199 231.498 241.713C230.886 241.245 230.58 240.579 230.58 239.751C230.58 238.833 230.886 238.131 231.516 237.627C232.146 237.141 233.064 236.889 234.27 236.889H236.97V236.259C236.97 235.665 236.754 235.197 236.358 234.855C235.962 234.531 235.404 234.351 234.684 234.351C234.036 234.351 233.514 234.495 233.1 234.783C232.686 235.071 232.434 235.431 232.344 235.899H230.868C230.976 234.999 231.372 234.297 232.056 233.793C232.74 233.289 233.64 233.037 234.756 233.037C235.926 233.037 236.826 233.325 237.474 233.901C238.122 234.477 238.446 235.287 238.446 236.349V240.309C238.446 240.759 238.644 240.975 239.058 240.975H239.508ZM236.97 238.131H234.126C232.758 238.131 232.074 238.653 232.074 239.661C232.074 240.129 232.254 240.489 232.614 240.759C232.974 241.047 233.46 241.173 234.072 241.173C234.972 241.173 235.674 240.939 236.196 240.471C236.7 240.003 236.97 239.373 236.97 238.581V238.131ZM241.027 233.145L243.853 240.633L246.589 233.145H248.155L243.925 243.873C243.709 244.431 243.511 244.845 243.349 245.115C243.169 245.403 242.971 245.601 242.719 245.727C242.467 245.871 242.125 245.925 241.711 245.925H239.947V244.575H241.261C241.549 244.575 241.765 244.557 241.909 244.485C242.053 244.431 242.161 244.341 242.251 244.197C242.341 244.053 242.449 243.819 242.593 243.495L243.061 242.397L239.461 233.145H241.027ZM253.918 233.145V234.585H253.18C252.298 234.585 251.668 234.891 251.29 235.467C250.912 236.061 250.732 236.781 250.732 237.645V242.325H249.256V233.145H250.534L250.732 234.531C250.984 234.117 251.326 233.775 251.758 233.523C252.172 233.271 252.748 233.145 253.504 233.145H253.918ZM256.594 241.839C255.91 241.443 255.37 240.903 254.992 240.183C254.596 239.481 254.416 238.671 254.416 237.735C254.416 236.817 254.596 236.007 254.992 235.287C255.37 234.585 255.91 234.027 256.594 233.631C257.278 233.235 258.07 233.037 258.97 233.037C259.852 233.037 260.644 233.235 261.328 233.631C262.012 234.027 262.552 234.585 262.948 235.287C263.326 236.007 263.524 236.817 263.524 237.735C263.524 238.671 263.326 239.481 262.948 240.183C262.552 240.903 262.012 241.443 261.328 241.839C260.644 242.235 259.852 242.433 258.97 242.433C258.07 242.433 257.278 242.235 256.594 241.839ZM260.554 240.687C261.022 240.399 261.382 240.003 261.634 239.481C261.886 238.977 262.012 238.383 262.012 237.735C262.012 237.087 261.886 236.511 261.634 235.989C261.382 235.485 261.022 235.071 260.554 234.783C260.086 234.495 259.564 234.351 258.97 234.351C258.358 234.351 257.836 234.495 257.368 234.783C256.9 235.071 256.558 235.485 256.306 235.989C256.054 236.511 255.928 237.087 255.928 237.735C255.928 238.383 256.054 238.977 256.306 239.481C256.558 240.003 256.9 240.399 257.368 240.687C257.836 240.975 258.358 241.119 258.97 241.119C259.564 241.119 260.086 240.975 260.554 240.687ZM265.217 229.725H266.693V242.325H265.217V229.725ZM268.715 229.725H270.191V242.325H268.715V229.725ZM284.124 234.045C284.808 234.729 285.15 235.773 285.15 237.213V242.325H283.674V237.303C283.674 236.367 283.458 235.647 283.026 235.143C282.594 234.639 281.964 234.387 281.172 234.387C280.308 234.387 279.642 234.693 279.138 235.287C278.634 235.899 278.4 236.709 278.4 237.735V242.325H276.924V229.725H278.4V234.657C278.688 234.189 279.084 233.793 279.588 233.487C280.092 233.199 280.704 233.037 281.424 233.037C282.54 233.037 283.44 233.379 284.124 234.045ZM288.453 229.869C288.633 230.049 288.723 230.283 288.723 230.553C288.723 230.841 288.633 231.057 288.453 231.237C288.273 231.417 288.039 231.507 287.769 231.507C287.481 231.507 287.265 231.417 287.085 231.237C286.905 231.057 286.815 230.841 286.815 230.553C286.815 230.283 286.905 230.049 287.085 229.869C287.265 229.689 287.481 229.599 287.769 229.599C288.039 229.599 288.273 229.689 288.453 229.869ZM287.031 233.145H288.507V242.325H287.031V233.145ZM291.681 239.301C291.699 239.859 291.933 240.309 292.401 240.651C292.869 241.011 293.463 241.173 294.201 241.173C294.849 241.173 295.371 241.047 295.767 240.795C296.163 240.543 296.379 240.201 296.379 239.769C296.379 239.409 296.271 239.139 296.091 238.941C295.893 238.761 295.641 238.617 295.335 238.545C295.029 238.473 294.597 238.401 294.039 238.329C293.247 238.239 292.599 238.113 292.095 237.951C291.591 237.807 291.177 237.555 290.871 237.213C290.547 236.871 290.403 236.403 290.403 235.791C290.403 235.251 290.547 234.783 290.853 234.351C291.159 233.937 291.573 233.613 292.113 233.379C292.635 233.145 293.229 233.019 293.895 233.019C294.975 233.019 295.839 233.271 296.523 233.775C297.207 234.279 297.585 234.999 297.657 235.935H296.181C296.109 235.467 295.875 235.071 295.479 234.747C295.065 234.441 294.561 234.279 293.949 234.279C293.319 234.279 292.815 234.423 292.437 234.675C292.041 234.927 291.861 235.269 291.861 235.683C291.861 236.007 291.951 236.241 292.131 236.403C292.311 236.583 292.527 236.691 292.815 236.745C293.103 236.817 293.535 236.871 294.111 236.943C294.903 237.051 295.569 237.177 296.091 237.339C296.613 237.519 297.027 237.789 297.351 238.149C297.675 238.527 297.837 239.031 297.837 239.661C297.837 240.219 297.675 240.705 297.351 241.119C297.027 241.551 296.577 241.875 296.037 242.091C295.479 242.325 294.867 242.433 294.201 242.433C292.995 242.433 292.023 242.163 291.303 241.605C290.583 241.065 290.205 240.291 290.205 239.301H291.681ZM300.124 234.495H298.468V233.145H300.124V230.571H301.6V233.145H303.922V234.495H301.6V239.913C301.6 240.309 301.672 240.579 301.816 240.741C301.96 240.903 302.23 240.975 302.608 240.975H304.21V242.325H302.518C301.654 242.325 301.024 242.145 300.664 241.749C300.304 241.371 300.124 240.759 300.124 239.931V234.495ZM306.885 241.839C306.201 241.443 305.661 240.903 305.283 240.183C304.887 239.481 304.707 238.671 304.707 237.735C304.707 236.817 304.887 236.007 305.283 235.287C305.661 234.585 306.201 234.027 306.885 233.631C307.569 233.235 308.361 233.037 309.261 233.037C310.143 233.037 310.935 233.235 311.619 233.631C312.303 234.027 312.843 234.585 313.239 235.287C313.617 236.007 313.815 236.817 313.815 237.735C313.815 238.671 313.617 239.481 313.239 240.183C312.843 240.903 312.303 241.443 311.619 241.839C310.935 242.235 310.143 242.433 309.261 242.433C308.361 242.433 307.569 242.235 306.885 241.839ZM310.845 240.687C311.313 240.399 311.673 240.003 311.925 239.481C312.177 238.977 312.303 238.383 312.303 237.735C312.303 237.087 312.177 236.511 311.925 235.989C311.673 235.485 311.313 235.071 310.845 234.783C310.377 234.495 309.855 234.351 309.261 234.351C308.649 234.351 308.127 234.495 307.659 234.783C307.191 235.071 306.849 235.485 306.597 235.989C306.345 236.511 306.219 237.087 306.219 237.735C306.219 238.383 306.345 238.977 306.597 239.481C306.849 240.003 307.191 240.399 307.659 240.687C308.127 240.975 308.649 241.119 309.261 241.119C309.855 241.119 310.377 240.975 310.845 240.687ZM320.17 233.145V234.585H319.432C318.55 234.585 317.92 234.891 317.542 235.467C317.164 236.061 316.984 236.781 316.984 237.645V242.325H315.508V233.145H316.786L316.984 234.531C317.236 234.117 317.578 233.775 318.01 233.523C318.424 233.271 319 233.145 319.756 233.145H320.17ZM322.256 233.145L325.082 240.633L327.818 233.145H329.384L325.154 243.873C324.938 244.431 324.74 244.845 324.578 245.115C324.398 245.403 324.2 245.601 323.948 245.727C323.696 245.871 323.354 245.925 322.94 245.925H321.176V244.575H322.49C322.778 244.575 322.994 244.557 323.138 244.485C323.282 244.431 323.39 244.341 323.48 244.197C323.57 244.053 323.678 243.819 323.822 243.495L324.29 242.397L320.69 233.145H322.256ZM343.782 240.975V242.325H342.972C342.378 242.325 341.964 242.217 341.712 241.965C341.46 241.731 341.316 241.371 341.316 240.903C340.596 241.929 339.57 242.433 338.238 242.433C337.212 242.433 336.384 242.199 335.772 241.713C335.16 241.245 334.854 240.579 334.854 239.751C334.854 238.833 335.16 238.131 335.79 237.627C336.42 237.141 337.338 236.889 338.544 236.889H341.244V236.259C341.244 235.665 341.028 235.197 340.632 234.855C340.236 234.531 339.678 234.351 338.958 234.351C338.31 234.351 337.788 234.495 337.374 234.783C336.96 235.071 336.708 235.431 336.618 235.899H335.142C335.25 234.999 335.646 234.297 336.33 233.793C337.014 233.289 337.914 233.037 339.03 233.037C340.2 233.037 341.1 233.325 341.748 233.901C342.396 234.477 342.72 235.287 342.72 236.349V240.309C342.72 240.759 342.918 240.975 343.332 240.975H343.782ZM341.244 238.131H338.4C337.032 238.131 336.348 238.653 336.348 239.661C336.348 240.129 336.528 240.489 336.888 240.759C337.248 241.047 337.734 241.173 338.346 241.173C339.246 241.173 339.948 240.939 340.47 240.471C340.974 240.003 341.244 239.373 341.244 238.581V238.131ZM352.098 234.045C352.782 234.729 353.124 235.773 353.124 237.213V242.325H351.648V237.303C351.648 236.367 351.432 235.647 351 235.143C350.568 234.639 349.956 234.387 349.164 234.387C348.3 234.387 347.616 234.693 347.13 235.287C346.626 235.899 346.392 236.709 346.392 237.735V242.325H344.916V233.145H346.194L346.392 234.387C347.076 233.487 348.084 233.037 349.416 233.037C350.532 233.037 351.414 233.379 352.098 234.045ZM355.39 233.145L358.216 240.633L360.952 233.145H362.518L358.288 243.873C358.072 244.431 357.874 244.845 357.712 245.115C357.532 245.403 357.334 245.601 357.082 245.727C356.83 245.871 356.488 245.925 356.074 245.925H354.31V244.575H355.624C355.912 244.575 356.128 244.557 356.272 244.485C356.416 244.431 356.524 244.341 356.614 244.197C356.704 244.053 356.812 243.819 356.956 243.495L357.424 242.397L353.824 233.145H355.39ZM363.619 230.571H365.095V233.145H367.417V234.495H365.095V239.913C365.095 240.309 365.167 240.579 365.311 240.741C365.455 240.903 365.725 240.975 366.103 240.975H367.705V242.325H366.013C365.149 242.325 364.519 242.145 364.159 241.749C363.799 241.371 363.619 240.759 363.619 239.931V230.571ZM370.174 229.869C370.354 230.049 370.444 230.283 370.444 230.553C370.444 230.841 370.354 231.057 370.174 231.237C369.994 231.417 369.76 231.507 369.49 231.507C369.202 231.507 368.986 231.417 368.806 231.237C368.626 231.057 368.536 230.841 368.536 230.553C368.536 230.283 368.626 230.049 368.806 229.869C368.986 229.689 369.202 229.599 369.49 229.599C369.76 229.599 369.994 229.689 370.174 229.869ZM368.752 233.145H370.228V242.325H368.752V233.145ZM384.994 234.009C385.642 234.657 385.966 235.665 385.966 237.033V242.325H384.49V237.123C384.49 236.241 384.292 235.557 383.914 235.089C383.536 234.621 382.996 234.387 382.312 234.387C381.538 234.387 380.926 234.657 380.494 235.197C380.062 235.737 379.846 236.475 379.846 237.411V242.325H378.37V237.123C378.37 236.241 378.172 235.557 377.794 235.089C377.398 234.621 376.858 234.387 376.156 234.387C375.4 234.387 374.806 234.675 374.374 235.251C373.942 235.827 373.726 236.565 373.726 237.483V242.325H372.25V233.145H373.528L373.726 234.405C374.374 233.505 375.274 233.037 376.408 233.037C377.056 233.037 377.65 233.199 378.154 233.487C378.658 233.775 379.054 234.207 379.306 234.783C379.954 233.631 381.016 233.037 382.492 233.037C383.518 233.037 384.346 233.361 384.994 234.009ZM388.076 235.269C388.436 234.567 388.958 234.027 389.624 233.631C390.272 233.235 391.028 233.037 391.892 233.037C392.72 233.037 393.476 233.217 394.124 233.559C394.772 233.919 395.276 234.423 395.654 235.071C396.014 235.737 396.212 236.511 396.248 237.393C396.248 237.537 396.23 237.735 396.212 238.023H389.084V238.149C389.102 239.049 389.372 239.769 389.912 240.309C390.434 240.849 391.118 241.119 391.982 241.119C392.63 241.119 393.188 240.957 393.656 240.633C394.124 240.309 394.43 239.841 394.592 239.247H396.086C395.906 240.183 395.456 240.957 394.736 241.551C394.016 242.145 393.134 242.433 392.09 242.433C391.172 242.433 390.38 242.253 389.696 241.857C389.012 241.461 388.472 240.921 388.094 240.201C387.716 239.481 387.536 238.671 387.536 237.735C387.536 236.799 387.716 235.989 388.076 235.269ZM394.718 236.799C394.646 236.025 394.34 235.413 393.836 234.981C393.332 234.549 392.684 234.333 391.91 234.333C391.208 234.333 390.596 234.567 390.074 235.017C389.534 235.485 389.246 236.079 389.174 236.799H394.718ZM403.291 233.145L406.117 240.633L408.853 233.145H410.419L406.189 243.873C405.973 244.431 405.775 244.845 405.613 245.115C405.433 245.403 405.235 245.601 404.983 245.727C404.731 245.871 404.389 245.925 403.975 245.925H402.211V244.575H403.525C403.813 244.575 404.029 244.557 404.173 244.485C404.317 244.431 404.425 244.341 404.515 244.197C404.605 244.053 404.713 243.819 404.857 243.495L405.325 242.397L401.725 233.145H403.291ZM413.022 241.839C412.338 241.443 411.798 240.903 411.42 240.183C411.024 239.481 410.844 238.671 410.844 237.735C410.844 236.817 411.024 236.007 411.42 235.287C411.798 234.585 412.338 234.027 413.022 233.631C413.706 233.235 414.498 233.037 415.398 233.037C416.28 233.037 417.072 233.235 417.756 233.631C418.44 234.027 418.98 234.585 419.376 235.287C419.754 236.007 419.952 236.817 419.952 237.735C419.952 238.671 419.754 239.481 419.376 240.183C418.98 240.903 418.44 241.443 417.756 241.839C417.072 242.235 416.28 242.433 415.398 242.433C414.498 242.433 413.706 242.235 413.022 241.839ZM416.982 240.687C417.45 240.399 417.81 240.003 418.062 239.481C418.314 238.977 418.44 238.383 418.44 237.735C418.44 237.087 418.314 236.511 418.062 235.989C417.81 235.485 417.45 235.071 416.982 234.783C416.514 234.495 415.992 234.351 415.398 234.351C414.786 234.351 414.264 234.495 413.796 234.783C413.328 235.071 412.986 235.485 412.734 235.989C412.482 236.511 412.356 237.087 412.356 237.735C412.356 238.383 412.482 238.977 412.734 239.481C412.986 240.003 413.328 240.399 413.796 240.687C414.264 240.975 414.786 241.119 415.398 241.119C415.992 241.119 416.514 240.975 416.982 240.687ZM429.547 233.145V242.325H428.269L428.071 241.101C427.369 242.001 426.397 242.433 425.137 242.433C424.039 242.433 423.157 242.109 422.509 241.425C421.843 240.759 421.519 239.697 421.519 238.257V233.145H422.995V238.167C422.995 239.121 423.193 239.841 423.607 240.345C424.021 240.849 424.615 241.083 425.389 241.083C426.217 241.083 426.883 240.795 427.351 240.183C427.819 239.589 428.071 238.779 428.071 237.735V233.145H429.547ZM443.452 234.045C444.136 234.729 444.478 235.773 444.478 237.213V242.325H443.002V237.303C443.002 236.367 442.786 235.647 442.354 235.143C441.922 234.639 441.31 234.387 440.518 234.387C439.654 234.387 438.97 234.693 438.484 235.287C437.98 235.899 437.746 236.709 437.746 237.735V242.325H436.27V233.145H437.548L437.746 234.387C438.43 233.487 439.438 233.037 440.77 233.037C441.886 233.037 442.768 233.379 443.452 234.045ZM446.576 235.269C446.936 234.567 447.458 234.027 448.124 233.631C448.772 233.235 449.528 233.037 450.392 233.037C451.22 233.037 451.976 233.217 452.624 233.559C453.272 233.919 453.776 234.423 454.154 235.071C454.514 235.737 454.712 236.511 454.748 237.393C454.748 237.537 454.73 237.735 454.712 238.023H447.584V238.149C447.602 239.049 447.872 239.769 448.412 240.309C448.934 240.849 449.618 241.119 450.482 241.119C451.13 241.119 451.688 240.957 452.156 240.633C452.624 240.309 452.93 239.841 453.092 239.247H454.586C454.406 240.183 453.956 240.957 453.236 241.551C452.516 242.145 451.634 242.433 450.59 242.433C449.672 242.433 448.88 242.253 448.196 241.857C447.512 241.461 446.972 240.921 446.594 240.201C446.216 239.481 446.036 238.671 446.036 237.735C446.036 236.799 446.216 235.989 446.576 235.269ZM453.218 236.799C453.146 236.025 452.84 235.413 452.336 234.981C451.832 234.549 451.184 234.333 450.41 234.333C449.708 234.333 449.096 234.567 448.574 235.017C448.034 235.485 447.746 236.079 447.674 236.799H453.218ZM456.648 235.269C457.008 234.567 457.53 234.027 458.196 233.631C458.844 233.235 459.6 233.037 460.464 233.037C461.292 233.037 462.048 233.217 462.696 233.559C463.344 233.919 463.848 234.423 464.226 235.071C464.586 235.737 464.784 236.511 464.82 237.393C464.82 237.537 464.802 237.735 464.784 238.023H457.656V238.149C457.674 239.049 457.944 239.769 458.484 240.309C459.006 240.849 459.69 241.119 460.554 241.119C461.202 241.119 461.76 240.957 462.228 240.633C462.696 240.309 463.002 239.841 463.164 239.247H464.658C464.478 240.183 464.028 240.957 463.308 241.551C462.588 242.145 461.706 242.433 460.662 242.433C459.744 242.433 458.952 242.253 458.268 241.857C457.584 241.461 457.044 240.921 456.666 240.201C456.288 239.481 456.108 238.671 456.108 237.735C456.108 236.799 456.288 235.989 456.648 235.269ZM463.29 236.799C463.218 236.025 462.912 235.413 462.408 234.981C461.904 234.549 461.256 234.333 460.482 234.333C459.78 234.333 459.168 234.567 458.646 235.017C458.106 235.485 457.818 236.079 457.746 236.799H463.29ZM475.216 229.725V242.325H473.938L473.74 240.849C472.966 241.911 471.922 242.433 470.59 242.433C469.726 242.433 468.97 242.253 468.304 241.875C467.638 241.515 467.116 240.975 466.738 240.255C466.36 239.553 466.18 238.707 466.18 237.735C466.18 236.817 466.36 236.007 466.738 235.287C467.116 234.585 467.638 234.027 468.322 233.631C468.988 233.235 469.744 233.037 470.59 233.037C471.328 233.037 471.958 233.181 472.498 233.451C473.02 233.721 473.434 234.081 473.74 234.549V229.725H475.216ZM472.3 240.705C472.768 240.417 473.128 240.021 473.38 239.517C473.632 239.013 473.758 238.419 473.758 237.771C473.758 237.123 473.632 236.529 473.38 236.007C473.128 235.485 472.768 235.071 472.3 234.783C471.832 234.495 471.31 234.351 470.734 234.351C469.816 234.351 469.078 234.675 468.52 235.305C467.962 235.935 467.692 236.745 467.692 237.735C467.692 238.743 467.962 239.553 468.52 240.183C469.078 240.813 469.816 241.119 470.734 241.119C471.31 241.119 471.832 240.993 472.3 240.705ZM483.36 229.869C483.54 230.049 483.63 230.283 483.63 230.553C483.63 230.841 483.54 231.057 483.36 231.237C483.18 231.417 482.946 231.507 482.676 231.507C482.388 231.507 482.172 231.417 481.992 231.237C481.812 231.057 481.722 230.841 481.722 230.553C481.722 230.283 481.812 230.049 481.992 229.869C482.172 229.689 482.388 229.599 482.676 229.599C482.946 229.599 483.18 229.689 483.36 229.869ZM481.938 233.145H483.414V242.325H481.938V233.145ZM486.048 234.495H484.392V233.145H486.048V230.571H487.524V233.145H489.846V234.495H487.524V239.913C487.524 240.309 487.596 240.579 487.74 240.741C487.884 240.903 488.154 240.975 488.532 240.975H490.134V242.325H488.442C487.578 242.325 486.948 242.145 486.588 241.749C486.228 241.371 486.048 240.759 486.048 239.931V234.495ZM491.38 240.705C491.56 240.525 491.812 240.417 492.118 240.417C492.406 240.417 492.658 240.525 492.856 240.705C493.036 240.885 493.144 241.137 493.144 241.425C493.144 241.731 493.036 241.983 492.856 242.163C492.658 242.343 492.406 242.433 492.118 242.433C491.812 242.433 491.56 242.343 491.38 242.163C491.182 241.983 491.092 241.731 491.092 241.425C491.092 241.137 491.182 240.885 491.38 240.705Z" fill="white"/>
</g>
<defs>
<filter id="filter0_dd_4707_196" x="0" y="0.325195" width="602" height="372" filterUnits="userSpaceOnUse" color-interpolation-filters="sRGB">
<feFlood flood-opacity="0" result="BackgroundImageFix"/>
<feColorMatrix in="SourceAlpha" type="matrix" values="0 0 0 0 0 0 0 0 0 0 0 0 0 0 0 0 0 0 127 0" result="hardAlpha"/>
<feOffset dx="-11"/>
<feGaussianBlur stdDeviation="9.5"/>
<feColorMatrix type="matrix" values="0 0 0 0 0.0901961 0 0 0 0 0.0901961 0 0 0 0 0.0901961 0 0 0 0.3 0"/>
<feBlend mode="normal" in2="BackgroundImageFix" result="effect1_dropShadow_4707_196"/>
<feColorMatrix in="SourceAlpha" type="matrix" values="0 0 0 0 0 0 0 0 0 0 0 0 0 0 0 0 0 0 127 0" result="hardAlpha"/>
<feOffset dy="13"/>
<feGaussianBlur stdDeviation="10"/>
<feColorMatrix type="matrix" values="0 0 0 0 0.0901961 0 0 0 0 0.0901961 0 0 0 0 0.0901961 0 0 0 0.2 0"/>
<feBlend mode="normal" in2="effect1_dropShadow_4707_196" result="effect2_dropShadow_4707_196"/>
<feBlend mode="normal" in="SourceGraphic" in2="effect2_dropShadow_4707_196" result="shape"/>
</filter>
<radialGradient id="paint0_radial_4707_196" cx="0" cy="0" r="1" gradientUnits="userSpaceOnUse" gradientTransform="translate(306 179.325) rotate(90) scale(160 276)">
<stop stop-color="#D9EBCD"/>
<stop offset="1" stop-color="#D9EBCD" stop-opacity="0.19"/>
</radialGradient>
</defs>
</svg>
