<svg width="602" height="373" viewBox="0 0 602 373" fill="none" xmlns="http://www.w3.org/2000/svg">
<g filter="url(#filter0_dd_4707_209)">
<rect x="30" y="19.3252" width="552" height="320" rx="16" fill="#11453B"/>
<rect x="30" y="19.3252" width="552" height="320" rx="16" fill="url(#paint0_radial_4707_209)" fill-opacity="0.14"/>
<path d="M103.66 92.7252C105.06 92.7252 106.292 93.0052 107.356 93.5372C108.42 94.0692 109.26 94.8252 109.848 95.8052C110.436 96.8132 110.744 97.9612 110.744 99.2492C110.744 100.565 110.436 101.713 109.848 102.693C109.26 103.673 108.42 104.429 107.356 104.961C106.292 105.493 105.06 105.745 103.66 105.745H99.88V112.325H95.68V92.7252H103.66ZM99.88 102.245H103.268C104.248 102.245 105.032 101.993 105.62 101.433C106.18 100.901 106.488 100.173 106.488 99.2492C106.488 98.3252 106.18 97.5972 105.62 97.0372C105.032 96.5052 104.248 96.2252 103.268 96.2252H99.88V102.245ZM126.11 108.993V112.325H124.094C122.274 112.325 121.378 111.541 121.434 109.973C120.902 110.813 120.258 111.429 119.502 111.849C118.718 112.297 117.794 112.493 116.73 112.493C115.106 112.493 113.818 112.129 112.838 111.401C111.858 110.673 111.382 109.609 111.382 108.265C111.382 106.753 111.942 105.577 113.062 104.737C114.182 103.897 115.834 103.477 117.99 103.477H120.846V102.777C120.846 102.133 120.594 101.629 120.118 101.237C119.614 100.845 118.97 100.649 118.158 100.649C117.43 100.649 116.814 100.817 116.366 101.125C115.89 101.461 115.61 101.881 115.526 102.413H111.718C111.83 100.957 112.502 99.8092 113.678 98.9972C114.854 98.1852 116.394 97.7652 118.354 97.7652C120.37 97.7652 121.938 98.2132 123.058 99.1092C124.178 100.005 124.738 101.321 124.738 103.001V108.069C124.738 108.433 124.794 108.685 124.962 108.797C125.102 108.937 125.326 108.993 125.662 108.993H126.11ZM120.846 106.109H117.962C117.122 106.109 116.478 106.277 116.03 106.613C115.582 106.949 115.358 107.397 115.358 107.985C115.358 108.489 115.526 108.909 115.918 109.189C116.31 109.497 116.814 109.637 117.486 109.637C118.494 109.637 119.306 109.357 119.922 108.769C120.51 108.181 120.818 107.397 120.846 106.389V106.109ZM129.945 97.9332L133.445 108.265L136.861 97.9332H141.089L134.705 114.369C134.369 115.265 134.033 115.937 133.753 116.441C133.445 116.945 133.053 117.309 132.605 117.561C132.157 117.813 131.569 117.925 130.841 117.925H127.005V114.593H129.189C129.693 114.593 130.057 114.509 130.281 114.341C130.505 114.173 130.701 113.865 130.925 113.361L131.289 112.409L125.745 97.9332H129.945ZM151.195 97.9332V101.517H149.627C148.507 101.517 147.667 101.853 147.163 102.525C146.631 103.197 146.379 104.121 146.379 105.269V112.325H142.431V97.9332H146.015L146.379 100.089C146.799 99.3892 147.331 98.8572 147.975 98.4932C148.591 98.1292 149.459 97.9332 150.523 97.9332H151.195ZM155.517 111.597C154.369 110.981 153.473 110.113 152.857 108.993C152.241 107.873 151.933 106.585 151.933 105.129C151.933 103.673 152.241 102.385 152.857 101.265C153.473 100.145 154.369 99.3052 155.517 98.6892C156.665 98.0732 158.009 97.7652 159.521 97.7652C161.033 97.7652 162.349 98.0732 163.497 98.6892C164.645 99.3052 165.541 100.145 166.157 101.265C166.773 102.385 167.109 103.673 167.109 105.129C167.109 106.613 166.773 107.901 166.157 109.021C165.541 110.141 164.645 110.981 163.497 111.597C162.349 112.213 161.033 112.493 159.521 112.493C158.009 112.493 156.665 112.213 155.517 111.597ZM162.125 108.125C162.769 107.369 163.105 106.361 163.105 105.129C163.105 103.897 162.769 102.917 162.125 102.133C161.481 101.377 160.613 100.985 159.521 100.985C158.429 100.985 157.561 101.377 156.917 102.133C156.273 102.917 155.965 103.897 155.965 105.129C155.965 106.361 156.273 107.369 156.917 108.125C157.561 108.909 158.429 109.273 159.521 109.273C160.613 109.273 161.481 108.909 162.125 108.125ZM169.282 92.7252H173.23V112.325H169.282V92.7252ZM175.981 92.7252H179.929V112.325H175.981V92.7252ZM193.238 92.5852C193.658 93.0052 193.882 93.5372 193.882 94.1532C193.882 94.7972 193.658 95.3292 193.238 95.7492C192.79 96.1972 192.258 96.3932 191.614 96.3932C190.942 96.3932 190.41 96.1972 189.962 95.7492C189.514 95.3292 189.318 94.7972 189.318 94.1532C189.318 93.5372 189.514 93.0052 189.962 92.5852C190.41 92.1652 190.942 91.9412 191.614 91.9412C192.258 91.9412 192.79 92.1652 193.238 92.5852ZM189.626 97.9332H193.574V112.325H189.626V97.9332ZM208.729 99.3332C209.793 100.397 210.353 102.105 210.353 104.513V112.325H206.405V104.737C206.405 102.273 205.425 101.013 203.493 101.013C202.457 101.013 201.673 101.377 201.113 102.049C200.553 102.749 200.273 103.729 200.273 104.961V112.325H196.325V97.9332H199.769L200.133 99.7252C200.637 99.1092 201.225 98.6332 201.953 98.2972C202.653 97.9612 203.521 97.7652 204.585 97.7652C206.265 97.7652 207.637 98.2972 208.729 99.3332ZM223.426 105.941C223.482 106.921 223.874 107.705 224.602 108.293C225.33 108.881 226.282 109.161 227.486 109.161C228.466 109.161 229.278 108.965 229.894 108.545C230.51 108.125 230.846 107.537 230.846 106.781C230.846 106.277 230.65 105.857 230.314 105.549C229.978 105.241 229.474 104.989 228.858 104.821C228.242 104.653 227.262 104.429 225.974 104.149C224.686 103.925 223.594 103.617 222.726 103.225C221.83 102.833 221.13 102.273 220.57 101.517C220.01 100.761 219.758 99.7532 219.758 98.4932C219.758 97.3732 220.066 96.3372 220.682 95.4412C221.298 94.5452 222.166 93.8452 223.286 93.3412C224.406 92.8372 225.666 92.5572 227.066 92.5572C228.494 92.5572 229.782 92.8372 230.93 93.3692C232.078 93.9012 232.974 94.6292 233.646 95.5532C234.318 96.5052 234.654 97.5412 234.682 98.7172H230.566C230.454 97.8772 230.118 97.2052 229.502 96.7012C228.886 96.1972 228.074 95.9172 227.066 95.9172C226.114 95.9172 225.386 96.1132 224.826 96.5052C224.266 96.8972 223.986 97.4572 223.986 98.1852C223.986 98.7172 224.154 99.1372 224.49 99.4172C224.826 99.6972 225.302 99.9492 225.918 100.117C226.534 100.285 227.486 100.509 228.774 100.733C230.062 100.985 231.182 101.293 232.078 101.657C232.974 102.021 233.674 102.581 234.234 103.309C234.794 104.037 235.074 105.017 235.074 106.249C235.074 107.453 234.738 108.517 234.094 109.469C233.422 110.421 232.526 111.149 231.35 111.681C230.174 112.241 228.886 112.493 227.43 112.493C225.862 112.493 224.462 112.213 223.23 111.653C221.998 111.093 221.046 110.281 220.374 109.273C219.674 108.265 219.31 107.145 219.31 105.885L223.426 105.941ZM237.622 101.265C238.238 100.145 239.078 99.3052 240.17 98.6892C241.262 98.0732 242.522 97.7652 243.978 97.7652C245.434 97.7652 246.694 98.0732 247.814 98.6332C248.934 99.1932 249.802 100.005 250.418 101.041C251.034 102.077 251.37 103.281 251.398 104.681C251.398 105.185 251.342 105.633 251.286 106.025H240.842V106.137C240.926 107.201 241.262 108.013 241.85 108.601C242.41 109.217 243.222 109.497 244.23 109.497C245.014 109.497 245.686 109.329 246.218 108.993C246.75 108.657 247.114 108.125 247.282 107.453H251.174C251.006 108.405 250.642 109.273 250.082 110.029C249.494 110.813 248.738 111.401 247.786 111.849C246.834 112.297 245.742 112.493 244.51 112.493C242.886 112.493 241.514 112.213 240.338 111.597C239.162 111.009 238.266 110.169 237.65 109.049C237.034 107.929 236.726 106.641 236.726 105.157C236.726 103.673 237.006 102.385 237.622 101.265ZM247.45 103.449C247.31 102.581 246.946 101.909 246.358 101.433C245.77 100.957 245.042 100.705 244.146 100.705C243.278 100.705 242.55 100.957 241.962 101.461C241.374 101.965 241.038 102.609 240.926 103.449H247.45ZM265.148 111.009C263.916 112.017 262.348 112.493 260.416 112.493C258.904 112.493 257.616 112.213 256.496 111.597C255.376 110.981 254.508 110.113 253.892 108.993C253.276 107.873 252.996 106.585 252.996 105.129C252.996 103.673 253.276 102.385 253.892 101.265C254.508 100.145 255.376 99.3052 256.496 98.6892C257.616 98.0732 258.932 97.7652 260.444 97.7652C262.348 97.7652 263.916 98.2692 265.148 99.2492C266.352 100.229 267.108 101.573 267.388 103.309H263.3C263.132 102.609 262.796 102.049 262.292 101.629C261.788 101.209 261.144 100.985 260.416 100.985C259.38 100.985 258.568 101.377 257.952 102.133C257.336 102.917 257.028 103.897 257.028 105.129C257.028 106.361 257.336 107.369 257.952 108.125C258.568 108.909 259.38 109.273 260.416 109.273C261.172 109.273 261.816 109.077 262.32 108.629C262.824 108.209 263.16 107.621 263.328 106.865H267.388C267.108 108.629 266.38 110.001 265.148 111.009ZM272.357 111.597C271.209 110.981 270.313 110.113 269.697 108.993C269.081 107.873 268.773 106.585 268.773 105.129C268.773 103.673 269.081 102.385 269.697 101.265C270.313 100.145 271.209 99.3052 272.357 98.6892C273.505 98.0732 274.849 97.7652 276.361 97.7652C277.873 97.7652 279.189 98.0732 280.337 98.6892C281.485 99.3052 282.381 100.145 282.997 101.265C283.613 102.385 283.949 103.673 283.949 105.129C283.949 106.613 283.613 107.901 282.997 109.021C282.381 110.141 281.485 110.981 280.337 111.597C279.189 112.213 277.873 112.493 276.361 112.493C274.849 112.493 273.505 112.213 272.357 111.597ZM278.965 108.125C279.609 107.369 279.945 106.361 279.945 105.129C279.945 103.897 279.609 102.917 278.965 102.133C278.321 101.377 277.453 100.985 276.361 100.985C275.269 100.985 274.401 101.377 273.757 102.133C273.113 102.917 272.805 103.897 272.805 105.129C272.805 106.361 273.113 107.369 273.757 108.125C274.401 108.909 275.269 109.273 276.361 109.273C277.453 109.273 278.321 108.909 278.965 108.125ZM298.526 99.3332C299.59 100.397 300.15 102.105 300.15 104.513V112.325H296.202V104.737C296.202 102.273 295.222 101.013 293.29 101.013C292.254 101.013 291.47 101.377 290.91 102.049C290.35 102.749 290.07 103.729 290.07 104.961V112.325H286.122V97.9332H289.566L289.93 99.7252C290.434 99.1092 291.022 98.6332 291.75 98.2972C292.45 97.9612 293.318 97.7652 294.382 97.7652C296.062 97.7652 297.434 98.2972 298.526 99.3332ZM317.03 92.7252V112.325H313.586L313.194 110.337C312.074 111.793 310.59 112.493 308.714 112.493C307.426 112.493 306.306 112.213 305.298 111.597C304.29 110.981 303.478 110.113 302.918 108.993C302.358 107.873 302.078 106.585 302.078 105.101C302.078 103.645 302.358 102.385 302.918 101.265C303.478 100.145 304.29 99.3052 305.298 98.6892C306.306 98.0732 307.454 97.7652 308.742 97.7652C310.59 97.7652 312.046 98.4372 313.082 99.7252V92.7252H317.03ZM312.186 108.153C312.802 107.397 313.138 106.389 313.138 105.157C313.138 103.925 312.802 102.917 312.186 102.133C311.542 101.377 310.702 100.985 309.638 100.985C308.574 100.985 307.706 101.377 307.062 102.133C306.418 102.917 306.11 103.897 306.11 105.129C306.11 106.361 306.418 107.369 307.062 108.125C307.706 108.909 308.574 109.273 309.638 109.273C310.702 109.273 311.542 108.909 312.186 108.153ZM323.002 107.537C323.058 108.181 323.366 108.685 323.926 109.077C324.486 109.469 325.186 109.665 326.082 109.665C326.922 109.665 327.566 109.553 328.07 109.273C328.546 108.993 328.798 108.601 328.798 108.097C328.798 107.733 328.686 107.453 328.462 107.257C328.238 107.089 327.902 106.949 327.51 106.865C327.09 106.781 326.418 106.669 325.494 106.557C324.206 106.389 323.17 106.193 322.33 105.913C321.49 105.661 320.818 105.241 320.314 104.681C319.81 104.121 319.558 103.393 319.558 102.441C319.558 101.517 319.81 100.705 320.314 99.9772C320.818 99.2492 321.546 98.6892 322.498 98.2972C323.422 97.9052 324.486 97.7092 325.718 97.7092C327.678 97.7372 329.246 98.1572 330.45 98.9692C331.654 99.8092 332.298 100.929 332.41 102.385H328.658C328.602 101.853 328.294 101.405 327.79 101.069C327.286 100.733 326.614 100.537 325.83 100.537C325.074 100.537 324.458 100.677 324.01 100.957C323.562 101.237 323.338 101.629 323.338 102.077C323.338 102.413 323.45 102.665 323.702 102.833C323.926 103.001 324.262 103.141 324.654 103.197C325.046 103.281 325.69 103.365 326.614 103.449C328.546 103.673 330.03 104.093 331.066 104.709C332.102 105.325 332.634 106.361 332.634 107.817C332.634 108.769 332.354 109.581 331.794 110.281C331.234 111.009 330.478 111.541 329.498 111.933C328.518 112.325 327.398 112.493 326.11 112.493C324.094 112.493 322.47 112.073 321.238 111.177C319.978 110.281 319.306 109.077 319.25 107.537H323.002Z" fill="white"/>
<path d="M95.224 162.325V149.725H96.664L103.432 159.445V149.725H104.962V162.325H103.522L96.754 152.605V162.325H95.224ZM107.406 155.269C107.766 154.567 108.288 154.027 108.954 153.631C109.602 153.235 110.358 153.037 111.222 153.037C112.05 153.037 112.806 153.217 113.454 153.559C114.102 153.919 114.606 154.423 114.984 155.071C115.344 155.737 115.542 156.511 115.578 157.393C115.578 157.537 115.56 157.735 115.542 158.023H108.414V158.149C108.432 159.049 108.702 159.769 109.242 160.309C109.764 160.849 110.448 161.119 111.312 161.119C111.96 161.119 112.518 160.957 112.986 160.633C113.454 160.309 113.76 159.841 113.922 159.247H115.416C115.236 160.183 114.786 160.957 114.066 161.551C113.346 162.145 112.464 162.433 111.42 162.433C110.502 162.433 109.71 162.253 109.026 161.857C108.342 161.461 107.802 160.921 107.424 160.201C107.046 159.481 106.866 158.671 106.866 157.735C106.866 156.799 107.046 155.989 107.406 155.269ZM114.048 156.799C113.976 156.025 113.67 155.413 113.166 154.981C112.662 154.549 112.014 154.333 111.24 154.333C110.538 154.333 109.926 154.567 109.404 155.017C108.864 155.485 108.576 156.079 108.504 156.799H114.048ZM115.992 153.145H117.576L120.348 160.651L123.102 153.145H124.65L121.212 162.325H119.43L115.992 153.145ZM125.617 155.269C125.977 154.567 126.499 154.027 127.165 153.631C127.813 153.235 128.569 153.037 129.433 153.037C130.261 153.037 131.017 153.217 131.665 153.559C132.313 153.919 132.817 154.423 133.195 155.071C133.555 155.737 133.753 156.511 133.789 157.393C133.789 157.537 133.771 157.735 133.753 158.023H126.625V158.149C126.643 159.049 126.913 159.769 127.453 160.309C127.975 160.849 128.659 161.119 129.523 161.119C130.171 161.119 130.729 160.957 131.197 160.633C131.665 160.309 131.971 159.841 132.133 159.247H133.627C133.447 160.183 132.997 160.957 132.277 161.551C131.557 162.145 130.675 162.433 129.631 162.433C128.713 162.433 127.921 162.253 127.237 161.857C126.553 161.461 126.013 160.921 125.635 160.201C125.257 159.481 125.077 158.671 125.077 157.735C125.077 156.799 125.257 155.989 125.617 155.269ZM132.259 156.799C132.187 156.025 131.881 155.413 131.377 154.981C130.873 154.549 130.225 154.333 129.451 154.333C128.749 154.333 128.137 154.567 127.615 155.017C127.075 155.485 126.787 156.079 126.715 156.799H132.259ZM140.135 153.145V154.585H139.397C138.515 154.585 137.885 154.891 137.507 155.467C137.129 156.061 136.949 156.781 136.949 157.645V162.325H135.473V153.145H136.751L136.949 154.531C137.201 154.117 137.543 153.775 137.975 153.523C138.389 153.271 138.965 153.145 139.721 153.145H140.135ZM154.782 160.975V162.325H153.972C153.378 162.325 152.964 162.217 152.712 161.965C152.46 161.731 152.316 161.371 152.316 160.903C151.596 161.929 150.57 162.433 149.238 162.433C148.212 162.433 147.384 162.199 146.772 161.713C146.16 161.245 145.854 160.579 145.854 159.751C145.854 158.833 146.16 158.131 146.79 157.627C147.42 157.141 148.338 156.889 149.544 156.889H152.244V156.259C152.244 155.665 152.028 155.197 151.632 154.855C151.236 154.531 150.678 154.351 149.958 154.351C149.31 154.351 148.788 154.495 148.374 154.783C147.96 155.071 147.708 155.431 147.618 155.899H146.142C146.25 154.999 146.646 154.297 147.33 153.793C148.014 153.289 148.914 153.037 150.03 153.037C151.2 153.037 152.1 153.325 152.748 153.901C153.396 154.477 153.72 155.287 153.72 156.349V160.309C153.72 160.759 153.918 160.975 154.332 160.975H154.782ZM152.244 158.131H149.4C148.032 158.131 147.348 158.653 147.348 159.661C147.348 160.129 147.528 160.489 147.888 160.759C148.248 161.047 148.734 161.173 149.346 161.173C150.246 161.173 150.948 160.939 151.47 160.471C151.974 160.003 152.244 159.373 152.244 158.581V158.131ZM164.628 153.145V161.875C164.628 164.647 163.098 166.033 160.074 166.033C158.886 166.033 157.914 165.763 157.158 165.223C156.402 164.683 155.97 163.927 155.862 162.919H157.374C157.482 163.495 157.788 163.945 158.292 164.251C158.778 164.575 159.408 164.719 160.182 164.719C162.162 164.719 163.152 163.765 163.152 161.821V160.741C162.486 161.875 161.442 162.433 160.002 162.433C159.138 162.433 158.382 162.253 157.716 161.875C157.05 161.515 156.528 160.975 156.15 160.255C155.772 159.553 155.592 158.707 155.592 157.735C155.592 156.817 155.772 156.007 156.15 155.287C156.528 154.585 157.05 154.027 157.734 153.631C158.4 153.235 159.156 153.037 160.002 153.037C160.74 153.037 161.37 153.199 161.91 153.487C162.432 153.775 162.846 154.189 163.152 154.729L163.35 153.145H164.628ZM161.712 160.705C162.18 160.417 162.54 160.021 162.792 159.517C163.044 159.013 163.17 158.419 163.17 157.771C163.17 157.123 163.044 156.529 162.792 156.007C162.54 155.485 162.18 155.071 161.712 154.783C161.244 154.495 160.722 154.351 160.146 154.351C159.228 154.351 158.49 154.675 157.932 155.305C157.374 155.935 157.104 156.745 157.104 157.735C157.104 158.743 157.374 159.553 157.932 160.183C158.49 160.813 159.228 161.119 160.146 161.119C160.722 161.119 161.244 160.993 161.712 160.705ZM175.225 160.975V162.325H174.415C173.821 162.325 173.407 162.217 173.155 161.965C172.903 161.731 172.759 161.371 172.759 160.903C172.039 161.929 171.013 162.433 169.681 162.433C168.655 162.433 167.827 162.199 167.215 161.713C166.603 161.245 166.297 160.579 166.297 159.751C166.297 158.833 166.603 158.131 167.233 157.627C167.863 157.141 168.781 156.889 169.987 156.889H172.687V156.259C172.687 155.665 172.471 155.197 172.075 154.855C171.679 154.531 171.121 154.351 170.401 154.351C169.753 154.351 169.231 154.495 168.817 154.783C168.403 155.071 168.151 155.431 168.061 155.899H166.585C166.693 154.999 167.089 154.297 167.773 153.793C168.457 153.289 169.357 153.037 170.473 153.037C171.643 153.037 172.543 153.325 173.191 153.901C173.839 154.477 174.163 155.287 174.163 156.349V160.309C174.163 160.759 174.361 160.975 174.775 160.975H175.225ZM172.687 158.131H169.843C168.475 158.131 167.791 158.653 167.791 159.661C167.791 160.129 167.971 160.489 168.331 160.759C168.691 161.047 169.177 161.173 169.789 161.173C170.689 161.173 171.391 160.939 171.913 160.471C172.417 160.003 172.687 159.373 172.687 158.581V158.131ZM177.782 149.869C177.962 150.049 178.052 150.283 178.052 150.553C178.052 150.841 177.962 151.057 177.782 151.237C177.602 151.417 177.368 151.507 177.098 151.507C176.81 151.507 176.594 151.417 176.414 151.237C176.234 151.057 176.144 150.841 176.144 150.553C176.144 150.283 176.234 150.049 176.414 149.869C176.594 149.689 176.81 149.599 177.098 149.599C177.368 149.599 177.602 149.689 177.782 149.869ZM176.36 153.145H177.836V162.325H176.36V153.145ZM187.04 154.045C187.724 154.729 188.066 155.773 188.066 157.213V162.325H186.59V157.303C186.59 156.367 186.374 155.647 185.942 155.143C185.51 154.639 184.898 154.387 184.106 154.387C183.242 154.387 182.558 154.693 182.072 155.287C181.568 155.899 181.334 156.709 181.334 157.735V162.325H179.858V153.145H181.136L181.334 154.387C182.018 153.487 183.026 153.037 184.358 153.037C185.474 153.037 186.356 153.379 187.04 154.045ZM193.794 153.145H195.342L197.628 160.615L200.04 153.145H201.408L203.694 160.615L206.088 153.145H207.582L204.522 162.325H202.902L200.688 155.503L198.384 162.325L196.764 162.343L193.794 153.145ZM210.16 149.869C210.34 150.049 210.43 150.283 210.43 150.553C210.43 150.841 210.34 151.057 210.16 151.237C209.98 151.417 209.746 151.507 209.476 151.507C209.188 151.507 208.972 151.417 208.792 151.237C208.612 151.057 208.522 150.841 208.522 150.553C208.522 150.283 208.612 150.049 208.792 149.869C208.972 149.689 209.188 149.599 209.476 149.599C209.746 149.599 209.98 149.689 210.16 149.869ZM208.738 153.145H210.214V162.325H208.738V153.145ZM212.237 149.725H213.713V162.325H212.237V149.725ZM221.094 153.145L223.92 160.633L226.656 153.145H228.222L223.992 163.873C223.776 164.431 223.578 164.845 223.416 165.115C223.236 165.403 223.038 165.601 222.786 165.727C222.534 165.871 222.192 165.925 221.778 165.925H220.014V164.575H221.328C221.616 164.575 221.832 164.557 221.976 164.485C222.12 164.431 222.228 164.341 222.318 164.197C222.408 164.053 222.516 163.819 222.66 163.495L223.128 162.397L219.528 153.145H221.094ZM230.825 161.839C230.141 161.443 229.601 160.903 229.223 160.183C228.827 159.481 228.647 158.671 228.647 157.735C228.647 156.817 228.827 156.007 229.223 155.287C229.601 154.585 230.141 154.027 230.825 153.631C231.509 153.235 232.301 153.037 233.201 153.037C234.083 153.037 234.875 153.235 235.559 153.631C236.243 154.027 236.783 154.585 237.179 155.287C237.557 156.007 237.755 156.817 237.755 157.735C237.755 158.671 237.557 159.481 237.179 160.183C236.783 160.903 236.243 161.443 235.559 161.839C234.875 162.235 234.083 162.433 233.201 162.433C232.301 162.433 231.509 162.235 230.825 161.839ZM234.785 160.687C235.253 160.399 235.613 160.003 235.865 159.481C236.117 158.977 236.243 158.383 236.243 157.735C236.243 157.087 236.117 156.511 235.865 155.989C235.613 155.485 235.253 155.071 234.785 154.783C234.317 154.495 233.795 154.351 233.201 154.351C232.589 154.351 232.067 154.495 231.599 154.783C231.131 155.071 230.789 155.485 230.537 155.989C230.285 156.511 230.159 157.087 230.159 157.735C230.159 158.383 230.285 158.977 230.537 159.481C230.789 160.003 231.131 160.399 231.599 160.687C232.067 160.975 232.589 161.119 233.201 161.119C233.795 161.119 234.317 160.975 234.785 160.687ZM247.349 153.145V162.325H246.071L245.873 161.101C245.171 162.001 244.199 162.433 242.939 162.433C241.841 162.433 240.959 162.109 240.311 161.425C239.645 160.759 239.321 159.697 239.321 158.257V153.145H240.797V158.167C240.797 159.121 240.995 159.841 241.409 160.345C241.823 160.849 242.417 161.083 243.191 161.083C244.019 161.083 244.685 160.795 245.153 160.183C245.621 159.589 245.873 158.779 245.873 157.735V153.145H247.349ZM255.224 159.301C255.242 159.859 255.476 160.309 255.944 160.651C256.412 161.011 257.006 161.173 257.744 161.173C258.392 161.173 258.914 161.047 259.31 160.795C259.706 160.543 259.922 160.201 259.922 159.769C259.922 159.409 259.814 159.139 259.634 158.941C259.436 158.761 259.184 158.617 258.878 158.545C258.572 158.473 258.14 158.401 257.582 158.329C256.79 158.239 256.142 158.113 255.638 157.951C255.134 157.807 254.72 157.555 254.414 157.213C254.09 156.871 253.946 156.403 253.946 155.791C253.946 155.251 254.09 154.783 254.396 154.351C254.702 153.937 255.116 153.613 255.656 153.379C256.178 153.145 256.772 153.019 257.438 153.019C258.518 153.019 259.382 153.271 260.066 153.775C260.75 154.279 261.128 154.999 261.2 155.935H259.724C259.652 155.467 259.418 155.071 259.022 154.747C258.608 154.441 258.104 154.279 257.492 154.279C256.862 154.279 256.358 154.423 255.98 154.675C255.584 154.927 255.404 155.269 255.404 155.683C255.404 156.007 255.494 156.241 255.674 156.403C255.854 156.583 256.07 156.691 256.358 156.745C256.646 156.817 257.078 156.871 257.654 156.943C258.446 157.051 259.112 157.177 259.634 157.339C260.156 157.519 260.57 157.789 260.894 158.149C261.218 158.527 261.38 159.031 261.38 159.661C261.38 160.219 261.218 160.705 260.894 161.119C260.57 161.551 260.12 161.875 259.58 162.091C259.022 162.325 258.41 162.433 257.744 162.433C256.538 162.433 255.566 162.163 254.846 161.605C254.126 161.065 253.748 160.291 253.748 159.301H255.224ZM269.949 153.595C270.615 153.973 271.137 154.513 271.515 155.215C271.893 155.935 272.091 156.763 272.091 157.735C272.091 158.671 271.893 159.481 271.515 160.183C271.137 160.903 270.615 161.443 269.949 161.839C269.265 162.235 268.509 162.433 267.681 162.433C266.925 162.433 266.295 162.307 265.773 162.037C265.233 161.767 264.819 161.389 264.531 160.921V165.925H263.055V153.145H264.333L264.531 154.621C265.287 153.577 266.349 153.037 267.681 153.037C268.527 153.037 269.283 153.235 269.949 153.595ZM269.733 160.183C270.291 159.553 270.579 158.743 270.579 157.735C270.579 156.745 270.291 155.935 269.733 155.305C269.175 154.675 268.437 154.351 267.537 154.351C266.943 154.351 266.421 154.495 265.953 154.783C265.485 155.071 265.143 155.467 264.891 155.971C264.639 156.475 264.513 157.051 264.513 157.699C264.513 158.365 264.639 158.959 264.891 159.481C265.143 160.003 265.485 160.399 265.953 160.687C266.421 160.975 266.943 161.119 267.537 161.119C268.437 161.119 269.175 160.813 269.733 160.183ZM273.994 155.269C274.354 154.567 274.876 154.027 275.542 153.631C276.19 153.235 276.946 153.037 277.81 153.037C278.638 153.037 279.394 153.217 280.042 153.559C280.69 153.919 281.194 154.423 281.572 155.071C281.932 155.737 282.13 156.511 282.166 157.393C282.166 157.537 282.148 157.735 282.13 158.023H275.002V158.149C275.02 159.049 275.29 159.769 275.83 160.309C276.352 160.849 277.036 161.119 277.9 161.119C278.548 161.119 279.106 160.957 279.574 160.633C280.042 160.309 280.348 159.841 280.51 159.247H282.004C281.824 160.183 281.374 160.957 280.654 161.551C279.934 162.145 279.052 162.433 278.008 162.433C277.09 162.433 276.298 162.253 275.614 161.857C274.93 161.461 274.39 160.921 274.012 160.201C273.634 159.481 273.454 158.671 273.454 157.735C273.454 156.799 273.634 155.989 273.994 155.269ZM280.636 156.799C280.564 156.025 280.258 155.413 279.754 154.981C279.25 154.549 278.602 154.333 277.828 154.333C277.126 154.333 276.514 154.567 275.992 155.017C275.452 155.485 275.164 156.079 275.092 156.799H280.636ZM291.032 154.045C291.716 154.729 292.058 155.773 292.058 157.213V162.325H290.582V157.303C290.582 156.367 290.366 155.647 289.934 155.143C289.502 154.639 288.89 154.387 288.098 154.387C287.234 154.387 286.55 154.693 286.064 155.287C285.56 155.899 285.326 156.709 285.326 157.735V162.325H283.85V153.145H285.128L285.326 154.387C286.01 153.487 287.018 153.037 288.35 153.037C289.466 153.037 290.348 153.379 291.032 154.045ZM302.652 149.725V162.325H301.374L301.176 160.849C300.402 161.911 299.358 162.433 298.026 162.433C297.162 162.433 296.406 162.253 295.74 161.875C295.074 161.515 294.552 160.975 294.174 160.255C293.796 159.553 293.616 158.707 293.616 157.735C293.616 156.817 293.796 156.007 294.174 155.287C294.552 154.585 295.074 154.027 295.758 153.631C296.424 153.235 297.18 153.037 298.026 153.037C298.764 153.037 299.394 153.181 299.934 153.451C300.456 153.721 300.87 154.081 301.176 154.549V149.725H302.652ZM299.736 160.705C300.204 160.417 300.564 160.021 300.816 159.517C301.068 159.013 301.194 158.419 301.194 157.771C301.194 157.123 301.068 156.529 300.816 156.007C300.564 155.485 300.204 155.071 299.736 154.783C299.268 154.495 298.746 154.351 298.17 154.351C297.252 154.351 296.514 154.675 295.956 155.305C295.398 155.935 295.128 156.745 295.128 157.735C295.128 158.743 295.398 159.553 295.956 160.183C296.514 160.813 297.252 161.119 298.17 161.119C298.746 161.119 299.268 160.993 299.736 160.705ZM322.117 154.009C322.765 154.657 323.089 155.665 323.089 157.033V162.325H321.613V157.123C321.613 156.241 321.415 155.557 321.037 155.089C320.659 154.621 320.119 154.387 319.435 154.387C318.661 154.387 318.049 154.657 317.617 155.197C317.185 155.737 316.969 156.475 316.969 157.411V162.325H315.493V157.123C315.493 156.241 315.295 155.557 314.917 155.089C314.521 154.621 313.981 154.387 313.279 154.387C312.523 154.387 311.929 154.675 311.497 155.251C311.065 155.827 310.849 156.565 310.849 157.483V162.325H309.373V153.145H310.651L310.849 154.405C311.497 153.505 312.397 153.037 313.531 153.037C314.179 153.037 314.773 153.199 315.277 153.487C315.781 153.775 316.177 154.207 316.429 154.783C317.077 153.631 318.139 153.037 319.615 153.037C320.641 153.037 321.469 153.361 322.117 154.009ZM326.837 161.839C326.153 161.443 325.613 160.903 325.235 160.183C324.839 159.481 324.659 158.671 324.659 157.735C324.659 156.817 324.839 156.007 325.235 155.287C325.613 154.585 326.153 154.027 326.837 153.631C327.521 153.235 328.313 153.037 329.213 153.037C330.095 153.037 330.887 153.235 331.571 153.631C332.255 154.027 332.795 154.585 333.191 155.287C333.569 156.007 333.767 156.817 333.767 157.735C333.767 158.671 333.569 159.481 333.191 160.183C332.795 160.903 332.255 161.443 331.571 161.839C330.887 162.235 330.095 162.433 329.213 162.433C328.313 162.433 327.521 162.235 326.837 161.839ZM330.797 160.687C331.265 160.399 331.625 160.003 331.877 159.481C332.129 158.977 332.255 158.383 332.255 157.735C332.255 157.087 332.129 156.511 331.877 155.989C331.625 155.485 331.265 155.071 330.797 154.783C330.329 154.495 329.807 154.351 329.213 154.351C328.601 154.351 328.079 154.495 327.611 154.783C327.143 155.071 326.801 155.485 326.549 155.989C326.297 156.511 326.171 157.087 326.171 157.735C326.171 158.383 326.297 158.977 326.549 159.481C326.801 160.003 327.143 160.399 327.611 160.687C328.079 160.975 328.601 161.119 329.213 161.119C329.807 161.119 330.329 160.975 330.797 160.687ZM340.121 153.145V154.585H339.383C338.501 154.585 337.871 154.891 337.493 155.467C337.115 156.061 336.935 156.781 336.935 157.645V162.325H335.459V153.145H336.737L336.935 154.531C337.187 154.117 337.529 153.775 337.961 153.523C338.375 153.271 338.951 153.145 339.707 153.145H340.121ZM341.16 155.269C341.52 154.567 342.042 154.027 342.708 153.631C343.356 153.235 344.112 153.037 344.976 153.037C345.804 153.037 346.56 153.217 347.208 153.559C347.856 153.919 348.36 154.423 348.738 155.071C349.098 155.737 349.296 156.511 349.332 157.393C349.332 157.537 349.314 157.735 349.296 158.023H342.168V158.149C342.186 159.049 342.456 159.769 342.996 160.309C343.518 160.849 344.202 161.119 345.066 161.119C345.714 161.119 346.272 160.957 346.74 160.633C347.208 160.309 347.514 159.841 347.676 159.247H349.17C348.99 160.183 348.54 160.957 347.82 161.551C347.1 162.145 346.218 162.433 345.174 162.433C344.256 162.433 343.464 162.253 342.78 161.857C342.096 161.461 341.556 160.921 341.178 160.201C340.8 159.481 340.62 158.671 340.62 157.735C340.62 156.799 340.8 155.989 341.16 155.269ZM347.802 156.799C347.73 156.025 347.424 155.413 346.92 154.981C346.416 154.549 345.768 154.333 344.994 154.333C344.292 154.333 343.68 154.567 343.158 155.017C342.618 155.485 342.33 156.079 342.258 156.799H347.802ZM356.339 154.495H354.683V153.145H356.339V150.571H357.815V153.145H360.137V154.495H357.815V159.913C357.815 160.309 357.887 160.579 358.031 160.741C358.175 160.903 358.445 160.975 358.823 160.975H360.425V162.325H358.733C357.869 162.325 357.239 162.145 356.879 161.749C356.519 161.371 356.339 160.759 356.339 159.931V154.495ZM368.675 154.045C369.359 154.729 369.701 155.773 369.701 157.213V162.325H368.225V157.303C368.225 156.367 368.009 155.647 367.577 155.143C367.145 154.639 366.515 154.387 365.723 154.387C364.859 154.387 364.193 154.693 363.689 155.287C363.185 155.899 362.951 156.709 362.951 157.735V162.325H361.475V149.725H362.951V154.657C363.239 154.189 363.635 153.793 364.139 153.487C364.643 153.199 365.255 153.037 365.975 153.037C367.091 153.037 367.991 153.379 368.675 154.045ZM380.168 160.975V162.325H379.358C378.764 162.325 378.35 162.217 378.098 161.965C377.846 161.731 377.702 161.371 377.702 160.903C376.982 161.929 375.956 162.433 374.624 162.433C373.598 162.433 372.77 162.199 372.158 161.713C371.546 161.245 371.24 160.579 371.24 159.751C371.24 158.833 371.546 158.131 372.176 157.627C372.806 157.141 373.724 156.889 374.93 156.889H377.63V156.259C377.63 155.665 377.414 155.197 377.018 154.855C376.622 154.531 376.064 154.351 375.344 154.351C374.696 154.351 374.174 154.495 373.76 154.783C373.346 155.071 373.094 155.431 373.004 155.899H371.528C371.636 154.999 372.032 154.297 372.716 153.793C373.4 153.289 374.3 153.037 375.416 153.037C376.586 153.037 377.486 153.325 378.134 153.901C378.782 154.477 379.106 155.287 379.106 156.349V160.309C379.106 160.759 379.304 160.975 379.718 160.975H380.168ZM377.63 158.131H374.786C373.418 158.131 372.734 158.653 372.734 159.661C372.734 160.129 372.914 160.489 373.274 160.759C373.634 161.047 374.12 161.173 374.732 161.173C375.632 161.173 376.334 160.939 376.856 160.471C377.36 160.003 377.63 159.373 377.63 158.581V158.131ZM388.485 154.045C389.169 154.729 389.511 155.773 389.511 157.213V162.325H388.035V157.303C388.035 156.367 387.819 155.647 387.387 155.143C386.955 154.639 386.343 154.387 385.551 154.387C384.687 154.387 384.003 154.693 383.517 155.287C383.013 155.899 382.779 156.709 382.779 157.735V162.325H381.303V153.145H382.581L382.779 154.387C383.463 153.487 384.471 153.037 385.803 153.037C386.919 153.037 387.801 153.379 388.485 154.045ZM400.694 156.799C401.396 156.187 401.936 155.647 402.296 155.143C402.656 154.639 402.836 154.081 402.836 153.451C402.836 152.677 402.584 152.065 402.08 151.615C401.576 151.183 400.91 150.949 400.082 150.949C399.254 150.949 398.606 151.201 398.12 151.705C397.616 152.209 397.382 152.893 397.382 153.757V153.991H395.87V153.667C395.87 152.875 396.032 152.173 396.392 151.561C396.734 150.949 397.22 150.481 397.868 150.121C398.516 149.779 399.254 149.599 400.082 149.599C401.414 149.599 402.476 149.941 403.232 150.625C403.988 151.309 404.384 152.227 404.384 153.379C404.384 153.991 404.258 154.531 404.024 155.017C403.79 155.521 403.484 155.971 403.124 156.367C402.746 156.763 402.26 157.231 401.666 157.735L397.886 160.939H404.474V162.325H395.798V161.047L400.694 156.799ZM423.736 154.009C424.384 154.657 424.708 155.665 424.708 157.033V162.325H423.232V157.123C423.232 156.241 423.034 155.557 422.656 155.089C422.278 154.621 421.738 154.387 421.054 154.387C420.28 154.387 419.668 154.657 419.236 155.197C418.804 155.737 418.588 156.475 418.588 157.411V162.325H417.112V157.123C417.112 156.241 416.914 155.557 416.536 155.089C416.14 154.621 415.6 154.387 414.898 154.387C414.142 154.387 413.548 154.675 413.116 155.251C412.684 155.827 412.468 156.565 412.468 157.483V162.325H410.992V153.145H412.27L412.468 154.405C413.116 153.505 414.016 153.037 415.15 153.037C415.798 153.037 416.392 153.199 416.896 153.487C417.4 153.775 417.796 154.207 418.048 154.783C418.696 153.631 419.758 153.037 421.234 153.037C422.26 153.037 423.088 153.361 423.736 154.009ZM428.024 149.869C428.204 150.049 428.294 150.283 428.294 150.553C428.294 150.841 428.204 151.057 428.024 151.237C427.844 151.417 427.61 151.507 427.34 151.507C427.052 151.507 426.836 151.417 426.656 151.237C426.476 151.057 426.386 150.841 426.386 150.553C426.386 150.283 426.476 150.049 426.656 149.869C426.836 149.689 427.052 149.599 427.34 149.599C427.61 149.599 427.844 149.689 428.024 149.869ZM426.602 153.145H428.078V162.325H426.602V153.145ZM437.282 154.045C437.966 154.729 438.308 155.773 438.308 157.213V162.325H436.832V157.303C436.832 156.367 436.616 155.647 436.184 155.143C435.752 154.639 435.14 154.387 434.348 154.387C433.484 154.387 432.8 154.693 432.314 155.287C431.81 155.899 431.576 156.709 431.576 157.735V162.325H430.1V153.145H431.378L431.576 154.387C432.26 153.487 433.268 153.037 434.6 153.037C435.716 153.037 436.598 153.379 437.282 154.045ZM448.092 153.145V162.325H446.814L446.616 161.101C445.914 162.001 444.942 162.433 443.682 162.433C442.584 162.433 441.702 162.109 441.054 161.425C440.388 160.759 440.064 159.697 440.064 158.257V153.145H441.54V158.167C441.54 159.121 441.738 159.841 442.152 160.345C442.566 160.849 443.16 161.083 443.934 161.083C444.762 161.083 445.428 160.795 445.896 160.183C446.364 159.589 446.616 158.779 446.616 157.735V153.145H448.092ZM450.751 154.495H449.095V153.145H450.751V150.571H452.227V153.145H454.549V154.495H452.227V159.913C452.227 160.309 452.299 160.579 452.443 160.741C452.587 160.903 452.857 160.975 453.235 160.975H454.837V162.325H453.145C452.281 162.325 451.651 162.145 451.291 161.749C450.931 161.371 450.751 160.759 450.751 159.931V154.495ZM455.874 155.269C456.234 154.567 456.756 154.027 457.422 153.631C458.07 153.235 458.826 153.037 459.69 153.037C460.518 153.037 461.274 153.217 461.922 153.559C462.57 153.919 463.074 154.423 463.452 155.071C463.812 155.737 464.01 156.511 464.046 157.393C464.046 157.537 464.028 157.735 464.01 158.023H456.882V158.149C456.9 159.049 457.17 159.769 457.71 160.309C458.232 160.849 458.916 161.119 459.78 161.119C460.428 161.119 460.986 160.957 461.454 160.633C461.922 160.309 462.228 159.841 462.39 159.247H463.884C463.704 160.183 463.254 160.957 462.534 161.551C461.814 162.145 460.932 162.433 459.888 162.433C458.97 162.433 458.178 162.253 457.494 161.857C456.81 161.461 456.27 160.921 455.892 160.201C455.514 159.481 455.334 158.671 455.334 157.735C455.334 156.799 455.514 155.989 455.874 155.269ZM462.516 156.799C462.444 156.025 462.138 155.413 461.634 154.981C461.13 154.549 460.482 154.333 459.708 154.333C459.006 154.333 458.394 154.567 457.872 155.017C457.332 155.485 457.044 156.079 456.972 156.799H462.516ZM466.848 159.301C466.866 159.859 467.1 160.309 467.568 160.651C468.036 161.011 468.63 161.173 469.368 161.173C470.016 161.173 470.538 161.047 470.934 160.795C471.33 160.543 471.546 160.201 471.546 159.769C471.546 159.409 471.438 159.139 471.258 158.941C471.06 158.761 470.808 158.617 470.502 158.545C470.196 158.473 469.764 158.401 469.206 158.329C468.414 158.239 467.766 158.113 467.262 157.951C466.758 157.807 466.344 157.555 466.038 157.213C465.714 156.871 465.57 156.403 465.57 155.791C465.57 155.251 465.714 154.783 466.02 154.351C466.326 153.937 466.74 153.613 467.28 153.379C467.802 153.145 468.396 153.019 469.062 153.019C470.142 153.019 471.006 153.271 471.69 153.775C472.374 154.279 472.752 154.999 472.824 155.935H471.348C471.276 155.467 471.042 155.071 470.646 154.747C470.232 154.441 469.728 154.279 469.116 154.279C468.486 154.279 467.982 154.423 467.604 154.675C467.208 154.927 467.028 155.269 467.028 155.683C467.028 156.007 467.118 156.241 467.298 156.403C467.478 156.583 467.694 156.691 467.982 156.745C468.27 156.817 468.702 156.871 469.278 156.943C470.07 157.051 470.736 157.177 471.258 157.339C471.78 157.519 472.194 157.789 472.518 158.149C472.842 158.527 473.004 159.031 473.004 159.661C473.004 160.219 472.842 160.705 472.518 161.119C472.194 161.551 471.744 161.875 471.204 162.091C470.646 162.325 470.034 162.433 469.368 162.433C468.162 162.433 467.19 162.163 466.47 161.605C465.75 161.065 465.372 160.291 465.372 159.301H466.848ZM481.243 161.839C480.559 161.443 480.019 160.903 479.641 160.183C479.245 159.481 479.065 158.671 479.065 157.735C479.065 156.817 479.245 156.007 479.641 155.287C480.019 154.585 480.559 154.027 481.243 153.631C481.927 153.235 482.719 153.037 483.619 153.037C484.501 153.037 485.293 153.235 485.977 153.631C486.661 154.027 487.201 154.585 487.597 155.287C487.975 156.007 488.173 156.817 488.173 157.735C488.173 158.671 487.975 159.481 487.597 160.183C487.201 160.903 486.661 161.443 485.977 161.839C485.293 162.235 484.501 162.433 483.619 162.433C482.719 162.433 481.927 162.235 481.243 161.839ZM485.203 160.687C485.671 160.399 486.031 160.003 486.283 159.481C486.535 158.977 486.661 158.383 486.661 157.735C486.661 157.087 486.535 156.511 486.283 155.989C486.031 155.485 485.671 155.071 485.203 154.783C484.735 154.495 484.213 154.351 483.619 154.351C483.007 154.351 482.485 154.495 482.017 154.783C481.549 155.071 481.207 155.485 480.955 155.989C480.703 156.511 480.577 157.087 480.577 157.735C480.577 158.383 480.703 158.977 480.955 159.481C481.207 160.003 481.549 160.399 482.017 160.687C482.485 160.975 483.007 161.119 483.619 161.119C484.213 161.119 484.735 160.975 485.203 160.687ZM497.047 154.045C497.731 154.729 498.073 155.773 498.073 157.213V162.325H496.597V157.303C496.597 156.367 496.381 155.647 495.949 155.143C495.517 154.639 494.905 154.387 494.113 154.387C493.249 154.387 492.565 154.693 492.079 155.287C491.575 155.899 491.341 156.709 491.341 157.735V162.325H489.865V153.145H491.143L491.341 154.387C492.025 153.487 493.033 153.037 494.365 153.037C495.481 153.037 496.363 153.379 497.047 154.045ZM101.902 177.595C102.568 177.973 103.09 178.513 103.468 179.215C103.846 179.935 104.044 180.763 104.044 181.735C104.044 182.671 103.846 183.481 103.468 184.183C103.09 184.903 102.568 185.443 101.902 185.839C101.218 186.235 100.462 186.433 99.634 186.433C98.878 186.433 98.248 186.307 97.726 186.037C97.186 185.767 96.772 185.389 96.484 184.921V189.925H95.008V177.145H96.286L96.484 178.621C97.24 177.577 98.302 177.037 99.634 177.037C100.48 177.037 101.236 177.235 101.902 177.595ZM101.686 184.183C102.244 183.553 102.532 182.743 102.532 181.735C102.532 180.745 102.244 179.935 101.686 179.305C101.128 178.675 100.39 178.351 99.49 178.351C98.896 178.351 98.374 178.495 97.906 178.783C97.438 179.071 97.096 179.467 96.844 179.971C96.592 180.475 96.466 181.051 96.466 181.699C96.466 182.365 96.592 182.959 96.844 183.481C97.096 184.003 97.438 184.399 97.906 184.687C98.374 184.975 98.896 185.119 99.49 185.119C100.39 185.119 101.128 184.813 101.686 184.183ZM114.317 184.975V186.325H113.507C112.913 186.325 112.499 186.217 112.247 185.965C111.995 185.731 111.851 185.371 111.851 184.903C111.131 185.929 110.105 186.433 108.773 186.433C107.747 186.433 106.919 186.199 106.307 185.713C105.695 185.245 105.389 184.579 105.389 183.751C105.389 182.833 105.695 182.131 106.325 181.627C106.955 181.141 107.873 180.889 109.079 180.889H111.779V180.259C111.779 179.665 111.563 179.197 111.167 178.855C110.771 178.531 110.213 178.351 109.493 178.351C108.845 178.351 108.323 178.495 107.909 178.783C107.495 179.071 107.243 179.431 107.153 179.899H105.677C105.785 178.999 106.181 178.297 106.865 177.793C107.549 177.289 108.449 177.037 109.565 177.037C110.735 177.037 111.635 177.325 112.283 177.901C112.931 178.477 113.255 179.287 113.255 180.349V184.309C113.255 184.759 113.453 184.975 113.867 184.975H114.317ZM111.779 182.131H108.935C107.567 182.131 106.883 182.653 106.883 183.661C106.883 184.129 107.063 184.489 107.423 184.759C107.783 185.047 108.269 185.173 108.881 185.173C109.781 185.173 110.483 184.939 111.005 184.471C111.509 184.003 111.779 183.373 111.779 182.581V182.131ZM115.836 177.145L118.662 184.633L121.398 177.145H122.964L118.734 187.873C118.518 188.431 118.32 188.845 118.158 189.115C117.978 189.403 117.78 189.601 117.528 189.727C117.276 189.871 116.934 189.925 116.52 189.925H114.756V188.575H116.07C116.358 188.575 116.574 188.557 116.718 188.485C116.862 188.431 116.97 188.341 117.06 188.197C117.15 188.053 117.258 187.819 117.402 187.495L117.87 186.397L114.27 177.145H115.836ZM128.727 177.145V178.585H127.989C127.107 178.585 126.477 178.891 126.099 179.467C125.721 180.061 125.541 180.781 125.541 181.645V186.325H124.065V177.145H125.343L125.541 178.531C125.793 178.117 126.135 177.775 126.567 177.523C126.981 177.271 127.557 177.145 128.313 177.145H128.727ZM131.403 185.839C130.719 185.443 130.179 184.903 129.801 184.183C129.405 183.481 129.225 182.671 129.225 181.735C129.225 180.817 129.405 180.007 129.801 179.287C130.179 178.585 130.719 178.027 131.403 177.631C132.087 177.235 132.879 177.037 133.779 177.037C134.661 177.037 135.453 177.235 136.137 177.631C136.821 178.027 137.361 178.585 137.757 179.287C138.135 180.007 138.333 180.817 138.333 181.735C138.333 182.671 138.135 183.481 137.757 184.183C137.361 184.903 136.821 185.443 136.137 185.839C135.453 186.235 134.661 186.433 133.779 186.433C132.879 186.433 132.087 186.235 131.403 185.839ZM135.363 184.687C135.831 184.399 136.191 184.003 136.443 183.481C136.695 182.977 136.821 182.383 136.821 181.735C136.821 181.087 136.695 180.511 136.443 179.989C136.191 179.485 135.831 179.071 135.363 178.783C134.895 178.495 134.373 178.351 133.779 178.351C133.167 178.351 132.645 178.495 132.177 178.783C131.709 179.071 131.367 179.485 131.115 179.989C130.863 180.511 130.737 181.087 130.737 181.735C130.737 182.383 130.863 182.977 131.115 183.481C131.367 184.003 131.709 184.399 132.177 184.687C132.645 184.975 133.167 185.119 133.779 185.119C134.373 185.119 134.895 184.975 135.363 184.687ZM140.026 173.725H141.502V186.325H140.026V173.725ZM143.524 173.725H145V186.325H143.524V173.725ZM147.13 184.705C147.31 184.525 147.562 184.417 147.868 184.417C148.156 184.417 148.408 184.525 148.606 184.705C148.786 184.885 148.894 185.137 148.894 185.425C148.894 185.731 148.786 185.983 148.606 186.163C148.408 186.343 148.156 186.433 147.868 186.433C147.562 186.433 147.31 186.343 147.13 186.163C146.932 185.983 146.842 185.731 146.842 185.425C146.842 185.137 146.932 184.885 147.13 184.705Z" fill="white"/>
<path d="M99.076 213.725V223.355C99.076 224.327 98.824 225.065 98.32 225.569C97.816 226.073 97.078 226.325 96.106 226.325H94.468V224.849H95.908C96.466 224.849 96.88 224.723 97.132 224.471C97.384 224.219 97.51 223.805 97.51 223.229V213.725H99.076ZM109.203 217.145V226.325H107.925L107.727 225.101C107.025 226.001 106.053 226.433 104.793 226.433C103.695 226.433 102.813 226.109 102.165 225.425C101.499 224.759 101.175 223.697 101.175 222.257V217.145H102.651V222.167C102.651 223.121 102.849 223.841 103.263 224.345C103.677 224.849 104.271 225.083 105.045 225.083C105.873 225.083 106.539 224.795 107.007 224.183C107.475 223.589 107.727 222.779 107.727 221.735V217.145H109.203ZM112.367 223.301C112.385 223.859 112.619 224.309 113.087 224.651C113.555 225.011 114.149 225.173 114.887 225.173C115.535 225.173 116.057 225.047 116.453 224.795C116.849 224.543 117.065 224.201 117.065 223.769C117.065 223.409 116.957 223.139 116.777 222.941C116.579 222.761 116.327 222.617 116.021 222.545C115.715 222.473 115.283 222.401 114.725 222.329C113.933 222.239 113.285 222.113 112.781 221.951C112.277 221.807 111.863 221.555 111.557 221.213C111.233 220.871 111.089 220.403 111.089 219.791C111.089 219.251 111.233 218.783 111.539 218.351C111.845 217.937 112.259 217.613 112.799 217.379C113.321 217.145 113.915 217.019 114.581 217.019C115.661 217.019 116.525 217.271 117.209 217.775C117.893 218.279 118.271 218.999 118.343 219.935H116.867C116.795 219.467 116.561 219.071 116.165 218.747C115.751 218.441 115.247 218.279 114.635 218.279C114.005 218.279 113.501 218.423 113.123 218.675C112.727 218.927 112.547 219.269 112.547 219.683C112.547 220.007 112.637 220.241 112.817 220.403C112.997 220.583 113.213 220.691 113.501 220.745C113.789 220.817 114.221 220.871 114.797 220.943C115.589 221.051 116.255 221.177 116.777 221.339C117.299 221.519 117.713 221.789 118.037 222.149C118.361 222.527 118.523 223.031 118.523 223.661C118.523 224.219 118.361 224.705 118.037 225.119C117.713 225.551 117.263 225.875 116.723 226.091C116.165 226.325 115.553 226.433 114.887 226.433C113.681 226.433 112.709 226.163 111.989 225.605C111.269 225.065 110.891 224.291 110.891 223.301H112.367ZM120.809 218.495H119.153V217.145H120.809V214.571H122.285V217.145H124.607V218.495H122.285V223.913C122.285 224.309 122.357 224.579 122.501 224.741C122.645 224.903 122.915 224.975 123.293 224.975H124.895V226.325H123.203C122.339 226.325 121.709 226.145 121.349 225.749C120.989 225.371 120.809 224.759 120.809 223.931V218.495ZM137.496 225.569C136.776 226.145 135.876 226.433 134.796 226.433C133.896 226.433 133.122 226.235 132.456 225.839C131.772 225.443 131.25 224.903 130.89 224.183C130.512 223.463 130.332 222.653 130.332 221.717C130.332 220.799 130.512 219.989 130.89 219.269C131.268 218.567 131.808 218.027 132.492 217.631C133.176 217.235 133.95 217.037 134.85 217.037C135.93 217.037 136.812 217.325 137.514 217.901C138.216 218.477 138.666 219.269 138.846 220.277H137.352C137.208 219.701 136.902 219.233 136.452 218.873C135.984 218.531 135.444 218.351 134.796 218.351C133.914 218.351 133.194 218.675 132.654 219.287C132.114 219.917 131.844 220.727 131.844 221.717C131.844 222.725 132.114 223.553 132.654 224.183C133.194 224.813 133.914 225.119 134.796 225.119C135.462 225.119 136.02 224.957 136.488 224.597C136.938 224.255 137.226 223.769 137.37 223.157H138.846C138.648 224.183 138.198 224.993 137.496 225.569ZM140.553 213.725H142.029V226.325H140.553V213.725ZM145.473 213.869C145.653 214.049 145.743 214.283 145.743 214.553C145.743 214.841 145.653 215.057 145.473 215.237C145.293 215.417 145.059 215.507 144.789 215.507C144.501 215.507 144.285 215.417 144.105 215.237C143.925 215.057 143.835 214.841 143.835 214.553C143.835 214.283 143.925 214.049 144.105 213.869C144.285 213.689 144.501 213.599 144.789 213.599C145.059 213.599 145.293 213.689 145.473 213.869ZM144.051 217.145H145.527V226.325H144.051V217.145ZM154.389 225.569C153.669 226.145 152.769 226.433 151.689 226.433C150.789 226.433 150.015 226.235 149.349 225.839C148.665 225.443 148.143 224.903 147.783 224.183C147.405 223.463 147.225 222.653 147.225 221.717C147.225 220.799 147.405 219.989 147.783 219.269C148.161 218.567 148.701 218.027 149.385 217.631C150.069 217.235 150.843 217.037 151.743 217.037C152.823 217.037 153.705 217.325 154.407 217.901C155.109 218.477 155.559 219.269 155.739 220.277H154.245C154.101 219.701 153.795 219.233 153.345 218.873C152.877 218.531 152.337 218.351 151.689 218.351C150.807 218.351 150.087 218.675 149.547 219.287C149.007 219.917 148.737 220.727 148.737 221.717C148.737 222.725 149.007 223.553 149.547 224.183C150.087 224.813 150.807 225.119 151.689 225.119C152.355 225.119 152.913 224.957 153.381 224.597C153.831 224.255 154.119 223.769 154.263 223.157H155.739C155.541 224.183 155.091 224.993 154.389 225.569ZM157.446 213.725H158.922V222.077L163.584 217.145H165.348L161.82 220.907L165.6 226.325H163.818L160.758 221.969L158.922 223.895V226.325H157.446V213.725ZM173.309 225.839C172.625 225.443 172.085 224.903 171.707 224.183C171.311 223.481 171.131 222.671 171.131 221.735C171.131 220.817 171.311 220.007 171.707 219.287C172.085 218.585 172.625 218.027 173.309 217.631C173.993 217.235 174.785 217.037 175.685 217.037C176.567 217.037 177.359 217.235 178.043 217.631C178.727 218.027 179.267 218.585 179.663 219.287C180.041 220.007 180.239 220.817 180.239 221.735C180.239 222.671 180.041 223.481 179.663 224.183C179.267 224.903 178.727 225.443 178.043 225.839C177.359 226.235 176.567 226.433 175.685 226.433C174.785 226.433 173.993 226.235 173.309 225.839ZM177.269 224.687C177.737 224.399 178.097 224.003 178.349 223.481C178.601 222.977 178.727 222.383 178.727 221.735C178.727 221.087 178.601 220.511 178.349 219.989C178.097 219.485 177.737 219.071 177.269 218.783C176.801 218.495 176.279 218.351 175.685 218.351C175.073 218.351 174.551 218.495 174.083 218.783C173.615 219.071 173.273 219.485 173.021 219.989C172.769 220.511 172.643 221.087 172.643 221.735C172.643 222.383 172.769 222.977 173.021 223.481C173.273 224.003 173.615 224.399 174.083 224.687C174.551 224.975 175.073 225.119 175.685 225.119C176.279 225.119 176.801 224.975 177.269 224.687ZM189.114 218.045C189.798 218.729 190.14 219.773 190.14 221.213V226.325H188.664V221.303C188.664 220.367 188.448 219.647 188.016 219.143C187.584 218.639 186.972 218.387 186.18 218.387C185.316 218.387 184.632 218.693 184.146 219.287C183.642 219.899 183.408 220.709 183.408 221.735V226.325H181.932V217.145H183.21L183.408 218.387C184.092 217.487 185.1 217.037 186.432 217.037C187.548 217.037 188.43 217.379 189.114 218.045ZM197.381 217.145L200.207 224.633L202.943 217.145H204.509L200.279 227.873C200.063 228.431 199.865 228.845 199.703 229.115C199.523 229.403 199.325 229.601 199.073 229.727C198.821 229.871 198.479 229.925 198.065 229.925H196.301V228.575H197.615C197.903 228.575 198.119 228.557 198.263 228.485C198.407 228.431 198.515 228.341 198.605 228.197C198.695 228.053 198.803 227.819 198.947 227.495L199.415 226.397L195.815 217.145H197.381ZM207.112 225.839C206.428 225.443 205.888 224.903 205.51 224.183C205.114 223.481 204.934 222.671 204.934 221.735C204.934 220.817 205.114 220.007 205.51 219.287C205.888 218.585 206.428 218.027 207.112 217.631C207.796 217.235 208.588 217.037 209.488 217.037C210.37 217.037 211.162 217.235 211.846 217.631C212.53 218.027 213.07 218.585 213.466 219.287C213.844 220.007 214.042 220.817 214.042 221.735C214.042 222.671 213.844 223.481 213.466 224.183C213.07 224.903 212.53 225.443 211.846 225.839C211.162 226.235 210.37 226.433 209.488 226.433C208.588 226.433 207.796 226.235 207.112 225.839ZM211.072 224.687C211.54 224.399 211.9 224.003 212.152 223.481C212.404 222.977 212.53 222.383 212.53 221.735C212.53 221.087 212.404 220.511 212.152 219.989C211.9 219.485 211.54 219.071 211.072 218.783C210.604 218.495 210.082 218.351 209.488 218.351C208.876 218.351 208.354 218.495 207.886 218.783C207.418 219.071 207.076 219.485 206.824 219.989C206.572 220.511 206.446 221.087 206.446 221.735C206.446 222.383 206.572 222.977 206.824 223.481C207.076 224.003 207.418 224.399 207.886 224.687C208.354 224.975 208.876 225.119 209.488 225.119C210.082 225.119 210.604 224.975 211.072 224.687ZM223.637 217.145V226.325H222.359L222.161 225.101C221.459 226.001 220.487 226.433 219.227 226.433C218.129 226.433 217.247 226.109 216.599 225.425C215.933 224.759 215.609 223.697 215.609 222.257V217.145H217.085V222.167C217.085 223.121 217.283 223.841 217.697 224.345C218.111 224.849 218.705 225.083 219.479 225.083C220.307 225.083 220.973 224.795 221.441 224.183C221.909 223.589 222.161 222.779 222.161 221.735V217.145H223.637ZM230.311 217.145V218.585H229.573C228.691 218.585 228.061 218.891 227.683 219.467C227.305 220.061 227.125 220.781 227.125 221.645V226.325H225.649V217.145H226.927L227.125 218.531C227.377 218.117 227.719 217.775 228.151 217.523C228.565 217.271 229.141 217.145 229.897 217.145H230.311ZM237.523 223.301C237.541 223.859 237.775 224.309 238.243 224.651C238.711 225.011 239.305 225.173 240.043 225.173C240.691 225.173 241.213 225.047 241.609 224.795C242.005 224.543 242.221 224.201 242.221 223.769C242.221 223.409 242.113 223.139 241.933 222.941C241.735 222.761 241.483 222.617 241.177 222.545C240.871 222.473 240.439 222.401 239.881 222.329C239.089 222.239 238.441 222.113 237.937 221.951C237.433 221.807 237.019 221.555 236.713 221.213C236.389 220.871 236.245 220.403 236.245 219.791C236.245 219.251 236.389 218.783 236.695 218.351C237.001 217.937 237.415 217.613 237.955 217.379C238.477 217.145 239.071 217.019 239.737 217.019C240.817 217.019 241.681 217.271 242.365 217.775C243.049 218.279 243.427 218.999 243.499 219.935H242.023C241.951 219.467 241.717 219.071 241.321 218.747C240.907 218.441 240.403 218.279 239.791 218.279C239.161 218.279 238.657 218.423 238.279 218.675C237.883 218.927 237.703 219.269 237.703 219.683C237.703 220.007 237.793 220.241 237.973 220.403C238.153 220.583 238.369 220.691 238.657 220.745C238.945 220.817 239.377 220.871 239.953 220.943C240.745 221.051 241.411 221.177 241.933 221.339C242.455 221.519 242.869 221.789 243.193 222.149C243.517 222.527 243.679 223.031 243.679 223.661C243.679 224.219 243.517 224.705 243.193 225.119C242.869 225.551 242.419 225.875 241.879 226.091C241.321 226.325 240.709 226.433 240.043 226.433C238.837 226.433 237.865 226.163 237.145 225.605C236.425 225.065 236.047 224.291 236.047 223.301H237.523ZM245.966 218.495H244.31V217.145H245.966V214.571H247.442V217.145H249.764V218.495H247.442V223.913C247.442 224.309 247.514 224.579 247.658 224.741C247.802 224.903 248.072 224.975 248.45 224.975H250.052V226.325H248.36C247.496 226.325 246.866 226.145 246.506 225.749C246.146 225.371 245.966 224.759 245.966 223.931V218.495ZM259.547 224.975V226.325H258.737C258.143 226.325 257.729 226.217 257.477 225.965C257.225 225.731 257.081 225.371 257.081 224.903C256.361 225.929 255.335 226.433 254.003 226.433C252.977 226.433 252.149 226.199 251.537 225.713C250.925 225.245 250.619 224.579 250.619 223.751C250.619 222.833 250.925 222.131 251.555 221.627C252.185 221.141 253.103 220.889 254.309 220.889H257.009V220.259C257.009 219.665 256.793 219.197 256.397 218.855C256.001 218.531 255.443 218.351 254.723 218.351C254.075 218.351 253.553 218.495 253.139 218.783C252.725 219.071 252.473 219.431 252.383 219.899H250.907C251.015 218.999 251.411 218.297 252.095 217.793C252.779 217.289 253.679 217.037 254.795 217.037C255.965 217.037 256.865 217.325 257.513 217.901C258.161 218.477 258.485 219.287 258.485 220.349V224.309C258.485 224.759 258.683 224.975 259.097 224.975H259.547ZM257.009 222.131H254.165C252.797 222.131 252.113 222.653 252.113 223.661C252.113 224.129 252.293 224.489 252.653 224.759C253.013 225.047 253.499 225.173 254.111 225.173C255.011 225.173 255.713 224.939 256.235 224.471C256.739 224.003 257.009 223.373 257.009 222.581V222.131ZM261.294 217.145V216.119C261.294 215.309 261.474 214.715 261.852 214.319C262.23 213.923 262.842 213.725 263.688 213.725H265.38V215.075H263.778C263.418 215.075 263.148 215.165 263.004 215.309C262.842 215.471 262.77 215.723 262.77 216.083V217.145H265.362V218.495H262.77V226.325H261.294V218.495H259.638V217.145H261.294ZM266.918 214.319C267.296 213.923 267.908 213.725 268.754 213.725H270.446V215.075H268.844C268.484 215.075 268.214 215.165 268.07 215.309C267.908 215.471 267.836 215.723 267.836 216.083V217.145H270.428V218.495H267.836V226.325H266.36V216.119C266.36 215.309 266.54 214.715 266.918 214.319ZM284.719 224.975V226.325H283.909C283.315 226.325 282.901 226.217 282.649 225.965C282.397 225.731 282.253 225.371 282.253 224.903C281.533 225.929 280.507 226.433 279.175 226.433C278.149 226.433 277.321 226.199 276.709 225.713C276.097 225.245 275.791 224.579 275.791 223.751C275.791 222.833 276.097 222.131 276.727 221.627C277.357 221.141 278.275 220.889 279.481 220.889H282.181V220.259C282.181 219.665 281.965 219.197 281.569 218.855C281.173 218.531 280.615 218.351 279.895 218.351C279.247 218.351 278.725 218.495 278.311 218.783C277.897 219.071 277.645 219.431 277.555 219.899H276.079C276.187 218.999 276.583 218.297 277.267 217.793C277.951 217.289 278.851 217.037 279.967 217.037C281.137 217.037 282.037 217.325 282.685 217.901C283.333 218.477 283.657 219.287 283.657 220.349V224.309C283.657 224.759 283.855 224.975 284.269 224.975H284.719ZM282.181 222.131H279.337C277.969 222.131 277.285 222.653 277.285 223.661C277.285 224.129 277.465 224.489 277.825 224.759C278.185 225.047 278.671 225.173 279.283 225.173C280.183 225.173 280.885 224.939 281.407 224.471C281.911 224.003 282.181 223.373 282.181 222.581V222.131ZM293.036 218.045C293.72 218.729 294.062 219.773 294.062 221.213V226.325H292.586V221.303C292.586 220.367 292.37 219.647 291.938 219.143C291.506 218.639 290.894 218.387 290.102 218.387C289.238 218.387 288.554 218.693 288.068 219.287C287.564 219.899 287.33 220.709 287.33 221.735V226.325H285.854V217.145H287.132L287.33 218.387C288.014 217.487 289.022 217.037 290.354 217.037C291.47 217.037 292.352 217.379 293.036 218.045ZM303.126 218.045C303.81 218.729 304.152 219.773 304.152 221.213V226.325H302.676V221.303C302.676 220.367 302.46 219.647 302.028 219.143C301.596 218.639 300.984 218.387 300.192 218.387C299.328 218.387 298.644 218.693 298.158 219.287C297.654 219.899 297.42 220.709 297.42 221.735V226.325H295.944V217.145H297.222L297.42 218.387C298.104 217.487 299.112 217.037 300.444 217.037C301.56 217.037 302.442 217.379 303.126 218.045ZM314.745 213.725V226.325H313.467L313.269 224.849C312.495 225.911 311.451 226.433 310.119 226.433C309.255 226.433 308.499 226.253 307.833 225.875C307.167 225.515 306.645 224.975 306.267 224.255C305.889 223.553 305.709 222.707 305.709 221.735C305.709 220.817 305.889 220.007 306.267 219.287C306.645 218.585 307.167 218.027 307.851 217.631C308.517 217.235 309.273 217.037 310.119 217.037C310.857 217.037 311.487 217.181 312.027 217.451C312.549 217.721 312.963 218.081 313.269 218.549V213.725H314.745ZM311.829 224.705C312.297 224.417 312.657 224.021 312.909 223.517C313.161 223.013 313.287 222.419 313.287 221.771C313.287 221.123 313.161 220.529 312.909 220.007C312.657 219.485 312.297 219.071 311.829 218.783C311.361 218.495 310.839 218.351 310.263 218.351C309.345 218.351 308.607 218.675 308.049 219.305C307.491 219.935 307.221 220.745 307.221 221.735C307.221 222.743 307.491 223.553 308.049 224.183C308.607 224.813 309.345 225.119 310.263 225.119C310.839 225.119 311.361 224.993 311.829 224.705ZM328.361 217.595C329.027 217.973 329.549 218.513 329.927 219.215C330.305 219.935 330.503 220.763 330.503 221.735C330.503 222.671 330.305 223.481 329.927 224.183C329.549 224.903 329.027 225.443 328.361 225.839C327.677 226.235 326.921 226.433 326.093 226.433C325.337 226.433 324.707 226.307 324.185 226.037C323.645 225.767 323.231 225.389 322.943 224.921L322.745 226.325H321.467V213.725H322.943V218.621C323.699 217.577 324.761 217.037 326.093 217.037C326.939 217.037 327.695 217.235 328.361 217.595ZM328.145 224.183C328.703 223.553 328.991 222.743 328.991 221.735C328.991 220.745 328.703 219.935 328.145 219.305C327.587 218.675 326.849 218.351 325.949 218.351C325.355 218.351 324.833 218.495 324.365 218.783C323.897 219.071 323.555 219.467 323.303 219.971C323.051 220.475 322.925 221.051 322.925 221.699C322.925 222.365 323.051 222.959 323.303 223.481C323.555 224.003 323.897 224.399 324.365 224.687C324.833 224.975 325.355 225.119 325.949 225.119C326.849 225.119 327.587 224.813 328.145 224.183ZM340.092 217.145V226.325H338.814L338.616 225.101C337.914 226.001 336.942 226.433 335.682 226.433C334.584 226.433 333.702 226.109 333.054 225.425C332.388 224.759 332.064 223.697 332.064 222.257V217.145H333.54V222.167C333.54 223.121 333.738 223.841 334.152 224.345C334.566 224.849 335.16 225.083 335.934 225.083C336.762 225.083 337.428 224.795 337.896 224.183C338.364 223.589 338.616 222.779 338.616 221.735V217.145H340.092ZM342.104 213.725H343.58V226.325H342.104V213.725ZM345.602 213.725H347.078V222.077L351.74 217.145H353.504L349.976 220.907L353.756 226.325H351.974L348.914 221.969L347.078 223.895V226.325H345.602V213.725ZM353.915 221.825V220.601H359.909V221.825H353.915ZM368.738 217.595C369.404 217.973 369.926 218.513 370.304 219.215C370.682 219.935 370.88 220.763 370.88 221.735C370.88 222.671 370.682 223.481 370.304 224.183C369.926 224.903 369.404 225.443 368.738 225.839C368.054 226.235 367.298 226.433 366.47 226.433C365.714 226.433 365.084 226.307 364.562 226.037C364.022 225.767 363.608 225.389 363.32 224.921V229.925H361.844V217.145H363.122L363.32 218.621C364.076 217.577 365.138 217.037 366.47 217.037C367.316 217.037 368.072 217.235 368.738 217.595ZM368.522 224.183C369.08 223.553 369.368 222.743 369.368 221.735C369.368 220.745 369.08 219.935 368.522 219.305C367.964 218.675 367.226 218.351 366.326 218.351C365.732 218.351 365.21 218.495 364.742 218.783C364.274 219.071 363.932 219.467 363.68 219.971C363.428 220.475 363.302 221.051 363.302 221.699C363.302 222.365 363.428 222.959 363.68 223.481C363.932 224.003 364.274 224.399 364.742 224.687C365.21 224.975 365.732 225.119 366.326 225.119C367.226 225.119 367.964 224.813 368.522 224.183ZM381.153 224.975V226.325H380.343C379.749 226.325 379.335 226.217 379.083 225.965C378.831 225.731 378.687 225.371 378.687 224.903C377.967 225.929 376.941 226.433 375.609 226.433C374.583 226.433 373.755 226.199 373.143 225.713C372.531 225.245 372.225 224.579 372.225 223.751C372.225 222.833 372.531 222.131 373.161 221.627C373.791 221.141 374.709 220.889 375.915 220.889H378.615V220.259C378.615 219.665 378.399 219.197 378.003 218.855C377.607 218.531 377.049 218.351 376.329 218.351C375.681 218.351 375.159 218.495 374.745 218.783C374.331 219.071 374.079 219.431 373.989 219.899H372.513C372.621 218.999 373.017 218.297 373.701 217.793C374.385 217.289 375.285 217.037 376.401 217.037C377.571 217.037 378.471 217.325 379.119 217.901C379.767 218.477 380.091 219.287 380.091 220.349V224.309C380.091 224.759 380.289 224.975 380.703 224.975H381.153ZM378.615 222.131H375.771C374.403 222.131 373.719 222.653 373.719 223.661C373.719 224.129 373.899 224.489 374.259 224.759C374.619 225.047 375.105 225.173 375.717 225.173C376.617 225.173 377.319 224.939 377.841 224.471C378.345 224.003 378.615 223.373 378.615 222.581V222.131ZM382.672 217.145L385.498 224.633L388.234 217.145H389.8L385.57 227.873C385.354 228.431 385.156 228.845 384.994 229.115C384.814 229.403 384.616 229.601 384.364 229.727C384.112 229.871 383.77 229.925 383.356 229.925H381.592V228.575H382.906C383.194 228.575 383.41 228.557 383.554 228.485C383.698 228.431 383.806 228.341 383.896 228.197C383.986 228.053 384.094 227.819 384.238 227.495L384.706 226.397L381.106 217.145H382.672ZM396.224 218.495H394.568V217.145H396.224V214.571H397.7V217.145H400.022V218.495H397.7V223.913C397.7 224.309 397.772 224.579 397.916 224.741C398.06 224.903 398.33 224.975 398.708 224.975H400.31V226.325H398.618C397.754 226.325 397.124 226.145 396.764 225.749C396.404 225.371 396.224 224.759 396.224 223.931V218.495ZM408.56 218.045C409.244 218.729 409.586 219.773 409.586 221.213V226.325H408.11V221.303C408.11 220.367 407.894 219.647 407.462 219.143C407.03 218.639 406.4 218.387 405.608 218.387C404.744 218.387 404.078 218.693 403.574 219.287C403.07 219.899 402.836 220.709 402.836 221.735V226.325H401.36V213.725H402.836V218.657C403.124 218.189 403.52 217.793 404.024 217.487C404.528 217.199 405.14 217.037 405.86 217.037C406.976 217.037 407.876 217.379 408.56 218.045ZM411.683 219.269C412.043 218.567 412.565 218.027 413.231 217.631C413.879 217.235 414.635 217.037 415.499 217.037C416.327 217.037 417.083 217.217 417.731 217.559C418.379 217.919 418.883 218.423 419.261 219.071C419.621 219.737 419.819 220.511 419.855 221.393C419.855 221.537 419.837 221.735 419.819 222.023H412.691V222.149C412.709 223.049 412.979 223.769 413.519 224.309C414.041 224.849 414.725 225.119 415.589 225.119C416.237 225.119 416.795 224.957 417.263 224.633C417.731 224.309 418.037 223.841 418.199 223.247H419.693C419.513 224.183 419.063 224.957 418.343 225.551C417.623 226.145 416.741 226.433 415.697 226.433C414.779 226.433 413.987 226.253 413.303 225.857C412.619 225.461 412.079 224.921 411.701 224.201C411.323 223.481 411.143 222.671 411.143 221.735C411.143 220.799 411.323 219.989 411.683 219.269ZM418.325 220.799C418.253 220.025 417.947 219.413 417.443 218.981C416.939 218.549 416.291 218.333 415.517 218.333C414.815 218.333 414.203 218.567 413.681 219.017C413.141 219.485 412.853 220.079 412.781 220.799H418.325ZM434.283 218.009C434.931 218.657 435.255 219.665 435.255 221.033V226.325H433.779V221.123C433.779 220.241 433.581 219.557 433.203 219.089C432.825 218.621 432.285 218.387 431.601 218.387C430.827 218.387 430.215 218.657 429.783 219.197C429.351 219.737 429.135 220.475 429.135 221.411V226.325H427.659V221.123C427.659 220.241 427.461 219.557 427.083 219.089C426.687 218.621 426.147 218.387 425.445 218.387C424.689 218.387 424.095 218.675 423.663 219.251C423.231 219.827 423.015 220.565 423.015 221.483V226.325H421.539V217.145H422.817L423.015 218.405C423.663 217.505 424.563 217.037 425.697 217.037C426.345 217.037 426.939 217.199 427.443 217.487C427.947 217.775 428.343 218.207 428.595 218.783C429.243 217.631 430.305 217.037 431.781 217.037C432.807 217.037 433.635 217.361 434.283 218.009ZM450.446 224.975V226.325H449.636C449.042 226.325 448.628 226.217 448.376 225.965C448.124 225.731 447.98 225.371 447.98 224.903C447.26 225.929 446.234 226.433 444.902 226.433C443.876 226.433 443.048 226.199 442.436 225.713C441.824 225.245 441.518 224.579 441.518 223.751C441.518 222.833 441.824 222.131 442.454 221.627C443.084 221.141 444.002 220.889 445.208 220.889H447.908V220.259C447.908 219.665 447.692 219.197 447.296 218.855C446.9 218.531 446.342 218.351 445.622 218.351C444.974 218.351 444.452 218.495 444.038 218.783C443.624 219.071 443.372 219.431 443.282 219.899H441.806C441.914 218.999 442.31 218.297 442.994 217.793C443.678 217.289 444.578 217.037 445.694 217.037C446.864 217.037 447.764 217.325 448.412 217.901C449.06 218.477 449.384 219.287 449.384 220.349V224.309C449.384 224.759 449.582 224.975 449.996 224.975H450.446ZM447.908 222.131H445.064C443.696 222.131 443.012 222.653 443.012 223.661C443.012 224.129 443.192 224.489 443.552 224.759C443.912 225.047 444.398 225.173 445.01 225.173C445.91 225.173 446.612 224.939 447.134 224.471C447.638 224.003 447.908 223.373 447.908 222.581V222.131ZM452.192 218.495H450.536V217.145H452.192V214.571H453.668V217.145H455.99V218.495H453.668V223.913C453.668 224.309 453.74 224.579 453.884 224.741C454.028 224.903 454.298 224.975 454.676 224.975H456.278V226.325H454.586C453.722 226.325 453.092 226.145 452.732 225.749C452.372 225.371 452.192 224.759 452.192 223.931V218.495ZM463.893 225.839C463.209 225.443 462.669 224.903 462.291 224.183C461.895 223.481 461.715 222.671 461.715 221.735C461.715 220.817 461.895 220.007 462.291 219.287C462.669 218.585 463.209 218.027 463.893 217.631C464.577 217.235 465.369 217.037 466.269 217.037C467.151 217.037 467.943 217.235 468.627 217.631C469.311 218.027 469.851 218.585 470.247 219.287C470.625 220.007 470.823 220.817 470.823 221.735C470.823 222.671 470.625 223.481 470.247 224.183C469.851 224.903 469.311 225.443 468.627 225.839C467.943 226.235 467.151 226.433 466.269 226.433C465.369 226.433 464.577 226.235 463.893 225.839ZM467.853 224.687C468.321 224.399 468.681 224.003 468.933 223.481C469.185 222.977 469.311 222.383 469.311 221.735C469.311 221.087 469.185 220.511 468.933 219.989C468.681 219.485 468.321 219.071 467.853 218.783C467.385 218.495 466.863 218.351 466.269 218.351C465.657 218.351 465.135 218.495 464.667 218.783C464.199 219.071 463.857 219.485 463.605 219.989C463.353 220.511 463.227 221.087 463.227 221.735C463.227 222.383 463.353 222.977 463.605 223.481C463.857 224.003 464.199 224.399 464.667 224.687C465.135 224.975 465.657 225.119 466.269 225.119C466.863 225.119 467.385 224.975 467.853 224.687ZM479.698 218.045C480.382 218.729 480.724 219.773 480.724 221.213V226.325H479.248V221.303C479.248 220.367 479.032 219.647 478.6 219.143C478.168 218.639 477.556 218.387 476.764 218.387C475.9 218.387 475.216 218.693 474.73 219.287C474.226 219.899 473.992 220.709 473.992 221.735V226.325H472.516V217.145H473.794L473.992 218.387C474.676 217.487 475.684 217.037 477.016 217.037C478.132 217.037 479.014 217.379 479.698 218.045ZM489.446 225.569C488.726 226.145 487.826 226.433 486.746 226.433C485.846 226.433 485.072 226.235 484.406 225.839C483.722 225.443 483.2 224.903 482.84 224.183C482.462 223.463 482.282 222.653 482.282 221.717C482.282 220.799 482.462 219.989 482.84 219.269C483.218 218.567 483.758 218.027 484.442 217.631C485.126 217.235 485.9 217.037 486.8 217.037C487.88 217.037 488.762 217.325 489.464 217.901C490.166 218.477 490.616 219.269 490.796 220.277H489.302C489.158 219.701 488.852 219.233 488.402 218.873C487.934 218.531 487.394 218.351 486.746 218.351C485.864 218.351 485.144 218.675 484.604 219.287C484.064 219.917 483.794 220.727 483.794 221.717C483.794 222.725 484.064 223.553 484.604 224.183C485.144 224.813 485.864 225.119 486.746 225.119C487.412 225.119 487.97 224.957 488.438 224.597C488.888 224.255 489.176 223.769 489.32 223.157H490.796C490.598 224.183 490.148 224.993 489.446 225.569ZM492.525 219.269C492.885 218.567 493.407 218.027 494.073 217.631C494.721 217.235 495.477 217.037 496.341 217.037C497.169 217.037 497.925 217.217 498.573 217.559C499.221 217.919 499.725 218.423 500.103 219.071C500.463 219.737 500.661 220.511 500.697 221.393C500.697 221.537 500.679 221.735 500.661 222.023H493.533V222.149C493.551 223.049 493.821 223.769 494.361 224.309C494.883 224.849 495.567 225.119 496.431 225.119C497.079 225.119 497.637 224.957 498.105 224.633C498.573 224.309 498.879 223.841 499.041 223.247H500.535C500.355 224.183 499.905 224.957 499.185 225.551C498.465 226.145 497.583 226.433 496.539 226.433C495.621 226.433 494.829 226.253 494.145 225.857C493.461 225.461 492.921 224.921 492.543 224.201C492.165 223.481 491.985 222.671 491.985 221.735C491.985 220.799 492.165 219.989 492.525 219.269ZM499.167 220.799C499.095 220.025 498.789 219.413 498.285 218.981C497.781 218.549 497.133 218.333 496.359 218.333C495.657 218.333 495.045 218.567 494.523 219.017C493.983 219.485 493.695 220.079 493.623 220.799H499.167ZM501.891 224.705C502.071 224.525 502.323 224.417 502.629 224.417C502.917 224.417 503.169 224.525 503.367 224.705C503.547 224.885 503.655 225.137 503.655 225.425C503.655 225.731 503.547 225.983 503.367 226.163C503.169 226.343 502.917 226.433 502.629 226.433C502.323 226.433 502.071 226.343 501.891 226.163C501.693 225.983 501.603 225.731 501.603 225.425C501.603 225.137 501.693 224.885 501.891 224.705Z" fill="white"/>
<path d="M100.066 253.725C100.894 253.725 101.614 253.887 102.262 254.211C102.892 254.535 103.378 254.985 103.72 255.561C104.062 256.137 104.242 256.821 104.242 257.595C104.242 258.387 104.062 259.071 103.72 259.647C103.36 260.241 102.874 260.691 102.244 261.015C101.614 261.339 100.894 261.483 100.066 261.483H96.79V266.325H95.224V253.725H100.066ZM96.79 260.043H99.922C100.75 260.043 101.398 259.827 101.902 259.377C102.388 258.945 102.64 258.351 102.64 257.595C102.64 256.857 102.388 256.263 101.902 255.831C101.416 255.399 100.768 255.165 99.94 255.165H96.79V260.043ZM113.737 264.975V266.325H112.927C112.333 266.325 111.919 266.217 111.667 265.965C111.415 265.731 111.271 265.371 111.271 264.903C110.551 265.929 109.525 266.433 108.193 266.433C107.167 266.433 106.339 266.199 105.727 265.713C105.115 265.245 104.809 264.579 104.809 263.751C104.809 262.833 105.115 262.131 105.745 261.627C106.375 261.141 107.293 260.889 108.499 260.889H111.199V260.259C111.199 259.665 110.983 259.197 110.587 258.855C110.191 258.531 109.633 258.351 108.913 258.351C108.265 258.351 107.743 258.495 107.329 258.783C106.915 259.071 106.663 259.431 106.573 259.899H105.097C105.205 258.999 105.601 258.297 106.285 257.793C106.969 257.289 107.869 257.037 108.985 257.037C110.155 257.037 111.055 257.325 111.703 257.901C112.351 258.477 112.675 259.287 112.675 260.349V264.309C112.675 264.759 112.873 264.975 113.287 264.975H113.737ZM111.199 262.131H108.355C106.987 262.131 106.303 262.653 106.303 263.661C106.303 264.129 106.483 264.489 106.843 264.759C107.203 265.047 107.689 265.173 108.301 265.173C109.201 265.173 109.903 264.939 110.425 264.471C110.929 264.003 111.199 263.373 111.199 262.581V262.131ZM115.256 257.145L118.082 264.633L120.818 257.145H122.384L118.154 267.873C117.938 268.431 117.74 268.845 117.578 269.115C117.398 269.403 117.2 269.601 116.948 269.727C116.696 269.871 116.354 269.925 115.94 269.925H114.176V268.575H115.49C115.778 268.575 115.994 268.557 116.138 268.485C116.282 268.431 116.39 268.341 116.48 268.197C116.57 268.053 116.678 267.819 116.822 267.495L117.29 266.397L113.69 257.145H115.256ZM136.229 258.009C136.877 258.657 137.201 259.665 137.201 261.033V266.325H135.725V261.123C135.725 260.241 135.527 259.557 135.149 259.089C134.771 258.621 134.231 258.387 133.547 258.387C132.773 258.387 132.161 258.657 131.729 259.197C131.297 259.737 131.081 260.475 131.081 261.411V266.325H129.605V261.123C129.605 260.241 129.407 259.557 129.029 259.089C128.633 258.621 128.093 258.387 127.391 258.387C126.635 258.387 126.041 258.675 125.609 259.251C125.177 259.827 124.961 260.565 124.961 261.483V266.325H123.485V257.145H124.763L124.961 258.405C125.609 257.505 126.509 257.037 127.643 257.037C128.291 257.037 128.885 257.199 129.389 257.487C129.893 257.775 130.289 258.207 130.541 258.783C131.189 257.631 132.251 257.037 133.727 257.037C134.753 257.037 135.581 257.361 136.229 258.009ZM139.31 259.269C139.67 258.567 140.192 258.027 140.858 257.631C141.506 257.235 142.262 257.037 143.126 257.037C143.954 257.037 144.71 257.217 145.358 257.559C146.006 257.919 146.51 258.423 146.888 259.071C147.248 259.737 147.446 260.511 147.482 261.393C147.482 261.537 147.464 261.735 147.446 262.023H140.318V262.149C140.336 263.049 140.606 263.769 141.146 264.309C141.668 264.849 142.352 265.119 143.216 265.119C143.864 265.119 144.422 264.957 144.89 264.633C145.358 264.309 145.664 263.841 145.826 263.247H147.32C147.14 264.183 146.69 264.957 145.97 265.551C145.25 266.145 144.368 266.433 143.324 266.433C142.406 266.433 141.614 266.253 140.93 265.857C140.246 265.461 139.706 264.921 139.328 264.201C138.95 263.481 138.77 262.671 138.77 261.735C138.77 260.799 138.95 259.989 139.31 259.269ZM145.952 260.799C145.88 260.025 145.574 259.413 145.07 258.981C144.566 258.549 143.918 258.333 143.144 258.333C142.442 258.333 141.83 258.567 141.308 259.017C140.768 259.485 140.48 260.079 140.408 260.799H145.952ZM156.348 258.045C157.032 258.729 157.374 259.773 157.374 261.213V266.325H155.898V261.303C155.898 260.367 155.682 259.647 155.25 259.143C154.818 258.639 154.206 258.387 153.414 258.387C152.55 258.387 151.866 258.693 151.38 259.287C150.876 259.899 150.642 260.709 150.642 261.735V266.325H149.166V257.145H150.444L150.642 258.387C151.326 257.487 152.334 257.037 153.666 257.037C154.782 257.037 155.664 257.379 156.348 258.045ZM159.868 258.495H158.212V257.145H159.868V254.571H161.344V257.145H163.666V258.495H161.344V263.913C161.344 264.309 161.416 264.579 161.56 264.741C161.704 264.903 161.974 264.975 162.352 264.975H163.954V266.325H162.262C161.398 266.325 160.768 266.145 160.408 265.749C160.048 265.371 159.868 264.759 159.868 263.931V258.495ZM171.137 253.869C171.317 254.049 171.407 254.283 171.407 254.553C171.407 254.841 171.317 255.057 171.137 255.237C170.957 255.417 170.723 255.507 170.453 255.507C170.165 255.507 169.949 255.417 169.769 255.237C169.589 255.057 169.499 254.841 169.499 254.553C169.499 254.283 169.589 254.049 169.769 253.869C169.949 253.689 170.165 253.599 170.453 253.599C170.723 253.599 170.957 253.689 171.137 253.869ZM169.715 257.145H171.191V266.325H169.715V257.145ZM174.365 263.301C174.383 263.859 174.617 264.309 175.085 264.651C175.553 265.011 176.147 265.173 176.885 265.173C177.533 265.173 178.055 265.047 178.451 264.795C178.847 264.543 179.063 264.201 179.063 263.769C179.063 263.409 178.955 263.139 178.775 262.941C178.577 262.761 178.325 262.617 178.019 262.545C177.713 262.473 177.281 262.401 176.723 262.329C175.931 262.239 175.283 262.113 174.779 261.951C174.275 261.807 173.861 261.555 173.555 261.213C173.231 260.871 173.087 260.403 173.087 259.791C173.087 259.251 173.231 258.783 173.537 258.351C173.843 257.937 174.257 257.613 174.797 257.379C175.319 257.145 175.913 257.019 176.579 257.019C177.659 257.019 178.523 257.271 179.207 257.775C179.891 258.279 180.269 258.999 180.341 259.935H178.865C178.793 259.467 178.559 259.071 178.163 258.747C177.749 258.441 177.245 258.279 176.633 258.279C176.003 258.279 175.499 258.423 175.121 258.675C174.725 258.927 174.545 259.269 174.545 259.683C174.545 260.007 174.635 260.241 174.815 260.403C174.995 260.583 175.211 260.691 175.499 260.745C175.787 260.817 176.219 260.871 176.795 260.943C177.587 261.051 178.253 261.177 178.775 261.339C179.297 261.519 179.711 261.789 180.035 262.149C180.359 262.527 180.521 263.031 180.521 263.661C180.521 264.219 180.359 264.705 180.035 265.119C179.711 265.551 179.261 265.875 178.721 266.091C178.163 266.325 177.551 266.433 176.885 266.433C175.679 266.433 174.707 266.163 173.987 265.605C173.267 265.065 172.889 264.291 172.889 263.301H174.365ZM195.618 253.725V266.325H194.34L194.142 264.849C193.368 265.911 192.324 266.433 190.992 266.433C190.128 266.433 189.372 266.253 188.706 265.875C188.04 265.515 187.518 264.975 187.14 264.255C186.762 263.553 186.582 262.707 186.582 261.735C186.582 260.817 186.762 260.007 187.14 259.287C187.518 258.585 188.04 258.027 188.724 257.631C189.39 257.235 190.146 257.037 190.992 257.037C191.73 257.037 192.36 257.181 192.9 257.451C193.422 257.721 193.836 258.081 194.142 258.549V253.725H195.618ZM192.702 264.705C193.17 264.417 193.53 264.021 193.782 263.517C194.034 263.013 194.16 262.419 194.16 261.771C194.16 261.123 194.034 260.529 193.782 260.007C193.53 259.485 193.17 259.071 192.702 258.783C192.234 258.495 191.712 258.351 191.136 258.351C190.218 258.351 189.48 258.675 188.922 259.305C188.364 259.935 188.094 260.745 188.094 261.735C188.094 262.743 188.364 263.553 188.922 264.183C189.48 264.813 190.218 265.119 191.136 265.119C191.712 265.119 192.234 264.993 192.702 264.705ZM199.483 265.839C198.799 265.443 198.259 264.903 197.881 264.183C197.485 263.481 197.305 262.671 197.305 261.735C197.305 260.817 197.485 260.007 197.881 259.287C198.259 258.585 198.799 258.027 199.483 257.631C200.167 257.235 200.959 257.037 201.859 257.037C202.741 257.037 203.533 257.235 204.217 257.631C204.901 258.027 205.441 258.585 205.837 259.287C206.215 260.007 206.413 260.817 206.413 261.735C206.413 262.671 206.215 263.481 205.837 264.183C205.441 264.903 204.901 265.443 204.217 265.839C203.533 266.235 202.741 266.433 201.859 266.433C200.959 266.433 200.167 266.235 199.483 265.839ZM203.443 264.687C203.911 264.399 204.271 264.003 204.523 263.481C204.775 262.977 204.901 262.383 204.901 261.735C204.901 261.087 204.775 260.511 204.523 259.989C204.271 259.485 203.911 259.071 203.443 258.783C202.975 258.495 202.453 258.351 201.859 258.351C201.247 258.351 200.725 258.495 200.257 258.783C199.789 259.071 199.447 259.485 199.195 259.989C198.943 260.511 198.817 261.087 198.817 261.735C198.817 262.383 198.943 262.977 199.195 263.481C199.447 264.003 199.789 264.399 200.257 264.687C200.725 264.975 201.247 265.119 201.859 265.119C202.453 265.119 202.975 264.975 203.443 264.687ZM215.288 258.045C215.972 258.729 216.314 259.773 216.314 261.213V266.325H214.838V261.303C214.838 260.367 214.622 259.647 214.19 259.143C213.758 258.639 213.146 258.387 212.354 258.387C211.49 258.387 210.806 258.693 210.32 259.287C209.816 259.899 209.582 260.709 209.582 261.735V266.325H208.106V257.145H209.384L209.582 258.387C210.266 257.487 211.274 257.037 212.606 257.037C213.722 257.037 214.604 257.379 215.288 258.045ZM218.412 259.269C218.772 258.567 219.294 258.027 219.96 257.631C220.608 257.235 221.364 257.037 222.228 257.037C223.056 257.037 223.812 257.217 224.46 257.559C225.108 257.919 225.612 258.423 225.99 259.071C226.35 259.737 226.548 260.511 226.584 261.393C226.584 261.537 226.566 261.735 226.548 262.023H219.42V262.149C219.438 263.049 219.708 263.769 220.248 264.309C220.77 264.849 221.454 265.119 222.318 265.119C222.966 265.119 223.524 264.957 223.992 264.633C224.46 264.309 224.766 263.841 224.928 263.247H226.422C226.242 264.183 225.792 264.957 225.072 265.551C224.352 266.145 223.47 266.433 222.426 266.433C221.508 266.433 220.716 266.253 220.032 265.857C219.348 265.461 218.808 264.921 218.43 264.201C218.052 263.481 217.872 262.671 217.872 261.735C217.872 260.799 218.052 259.989 218.412 259.269ZM225.054 260.799C224.982 260.025 224.676 259.413 224.172 258.981C223.668 258.549 223.02 258.333 222.246 258.333C221.544 258.333 220.932 258.567 220.41 259.017C219.87 259.485 219.582 260.079 219.51 260.799H225.054ZM239.873 257.595C240.539 257.973 241.061 258.513 241.439 259.215C241.817 259.935 242.015 260.763 242.015 261.735C242.015 262.671 241.817 263.481 241.439 264.183C241.061 264.903 240.539 265.443 239.873 265.839C239.189 266.235 238.433 266.433 237.605 266.433C236.849 266.433 236.219 266.307 235.697 266.037C235.157 265.767 234.743 265.389 234.455 264.921V269.925H232.979V257.145H234.257L234.455 258.621C235.211 257.577 236.273 257.037 237.605 257.037C238.451 257.037 239.207 257.235 239.873 257.595ZM239.657 264.183C240.215 263.553 240.503 262.743 240.503 261.735C240.503 260.745 240.215 259.935 239.657 259.305C239.099 258.675 238.361 258.351 237.461 258.351C236.867 258.351 236.345 258.495 235.877 258.783C235.409 259.071 235.067 259.467 234.815 259.971C234.563 260.475 234.437 261.051 234.437 261.699C234.437 262.365 234.563 262.959 234.815 263.481C235.067 264.003 235.409 264.399 235.877 264.687C236.345 264.975 236.867 265.119 237.461 265.119C238.361 265.119 239.099 264.813 239.657 264.183ZM243.917 259.269C244.277 258.567 244.799 258.027 245.465 257.631C246.113 257.235 246.869 257.037 247.733 257.037C248.561 257.037 249.317 257.217 249.965 257.559C250.613 257.919 251.117 258.423 251.495 259.071C251.855 259.737 252.053 260.511 252.089 261.393C252.089 261.537 252.071 261.735 252.053 262.023H244.925V262.149C244.943 263.049 245.213 263.769 245.753 264.309C246.275 264.849 246.959 265.119 247.823 265.119C248.471 265.119 249.029 264.957 249.497 264.633C249.965 264.309 250.271 263.841 250.433 263.247H251.927C251.747 264.183 251.297 264.957 250.577 265.551C249.857 266.145 248.975 266.433 247.931 266.433C247.013 266.433 246.221 266.253 245.537 265.857C244.853 265.461 244.313 264.921 243.935 264.201C243.557 263.481 243.377 262.671 243.377 261.735C243.377 260.799 243.557 259.989 243.917 259.269ZM250.559 260.799C250.487 260.025 250.181 259.413 249.677 258.981C249.173 258.549 248.525 258.333 247.751 258.333C247.049 258.333 246.437 258.567 245.915 259.017C245.375 259.485 245.087 260.079 245.015 260.799H250.559ZM258.436 257.145V258.585H257.698C256.816 258.585 256.186 258.891 255.808 259.467C255.43 260.061 255.25 260.781 255.25 261.645V266.325H253.774V257.145H255.052L255.25 258.531C255.502 258.117 255.844 257.775 256.276 257.523C256.69 257.271 257.266 257.145 258.022 257.145H258.436ZM272.529 258.009C273.177 258.657 273.501 259.665 273.501 261.033V266.325H272.025V261.123C272.025 260.241 271.827 259.557 271.449 259.089C271.071 258.621 270.531 258.387 269.847 258.387C269.073 258.387 268.461 258.657 268.029 259.197C267.597 259.737 267.381 260.475 267.381 261.411V266.325H265.905V261.123C265.905 260.241 265.707 259.557 265.329 259.089C264.933 258.621 264.393 258.387 263.691 258.387C262.935 258.387 262.341 258.675 261.909 259.251C261.477 259.827 261.261 260.565 261.261 261.483V266.325H259.785V257.145H261.063L261.261 258.405C261.909 257.505 262.809 257.037 263.943 257.037C264.591 257.037 265.185 257.199 265.689 257.487C266.193 257.775 266.589 258.207 266.841 258.783C267.489 257.631 268.551 257.037 270.027 257.037C271.053 257.037 271.881 257.361 272.529 258.009ZM283.981 264.975V266.325H283.171C282.577 266.325 282.163 266.217 281.911 265.965C281.659 265.731 281.515 265.371 281.515 264.903C280.795 265.929 279.769 266.433 278.437 266.433C277.411 266.433 276.583 266.199 275.971 265.713C275.359 265.245 275.053 264.579 275.053 263.751C275.053 262.833 275.359 262.131 275.989 261.627C276.619 261.141 277.537 260.889 278.743 260.889H281.443V260.259C281.443 259.665 281.227 259.197 280.831 258.855C280.435 258.531 279.877 258.351 279.157 258.351C278.509 258.351 277.987 258.495 277.573 258.783C277.159 259.071 276.907 259.431 276.817 259.899H275.341C275.449 258.999 275.845 258.297 276.529 257.793C277.213 257.289 278.113 257.037 279.229 257.037C280.399 257.037 281.299 257.325 281.947 257.901C282.595 258.477 282.919 259.287 282.919 260.349V264.309C282.919 264.759 283.117 264.975 283.531 264.975H283.981ZM281.443 262.131H278.599C277.231 262.131 276.547 262.653 276.547 263.661C276.547 264.129 276.727 264.489 277.087 264.759C277.447 265.047 277.933 265.173 278.545 265.173C279.445 265.173 280.147 264.939 280.669 264.471C281.173 264.003 281.443 263.373 281.443 262.581V262.131ZM292.297 258.045C292.981 258.729 293.323 259.773 293.323 261.213V266.325H291.847V261.303C291.847 260.367 291.631 259.647 291.199 259.143C290.767 258.639 290.155 258.387 289.363 258.387C288.499 258.387 287.815 258.693 287.329 259.287C286.825 259.899 286.591 260.709 286.591 261.735V266.325H285.115V257.145H286.393L286.591 258.387C287.275 257.487 288.283 257.037 289.615 257.037C290.731 257.037 291.613 257.379 292.297 258.045ZM295.421 259.269C295.781 258.567 296.303 258.027 296.969 257.631C297.617 257.235 298.373 257.037 299.237 257.037C300.065 257.037 300.821 257.217 301.469 257.559C302.117 257.919 302.621 258.423 302.999 259.071C303.359 259.737 303.557 260.511 303.593 261.393C303.593 261.537 303.575 261.735 303.557 262.023H296.429V262.149C296.447 263.049 296.717 263.769 297.257 264.309C297.779 264.849 298.463 265.119 299.327 265.119C299.975 265.119 300.533 264.957 301.001 264.633C301.469 264.309 301.775 263.841 301.937 263.247H303.431C303.251 264.183 302.801 264.957 302.081 265.551C301.361 266.145 300.479 266.433 299.435 266.433C298.517 266.433 297.725 266.253 297.041 265.857C296.357 265.461 295.817 264.921 295.439 264.201C295.061 263.481 294.881 262.671 294.881 261.735C294.881 260.799 295.061 259.989 295.421 259.269ZM302.063 260.799C301.991 260.025 301.685 259.413 301.181 258.981C300.677 258.549 300.029 258.333 299.255 258.333C298.553 258.333 297.941 258.567 297.419 259.017C296.879 259.485 296.591 260.079 296.519 260.799H302.063ZM312.46 258.045C313.144 258.729 313.486 259.773 313.486 261.213V266.325H312.01V261.303C312.01 260.367 311.794 259.647 311.362 259.143C310.93 258.639 310.318 258.387 309.526 258.387C308.662 258.387 307.978 258.693 307.492 259.287C306.988 259.899 306.754 260.709 306.754 261.735V266.325H305.278V257.145H306.556L306.754 258.387C307.438 257.487 308.446 257.037 309.778 257.037C310.894 257.037 311.776 257.379 312.46 258.045ZM315.979 258.495H314.323V257.145H315.979V254.571H317.455V257.145H319.777V258.495H317.455V263.913C317.455 264.309 317.527 264.579 317.671 264.741C317.815 264.903 318.085 264.975 318.463 264.975H320.065V266.325H318.373C317.509 266.325 316.879 266.145 316.519 265.749C316.159 265.371 315.979 264.759 315.979 263.931V258.495ZM321.115 253.725H322.591V266.325H321.115V253.725ZM325.261 257.145L328.087 264.633L330.823 257.145H332.389L328.159 267.873C327.943 268.431 327.745 268.845 327.583 269.115C327.403 269.403 327.205 269.601 326.953 269.727C326.701 269.871 326.359 269.925 325.945 269.925H324.181V268.575H325.495C325.783 268.575 325.999 268.557 326.143 268.485C326.287 268.431 326.395 268.341 326.485 268.197C326.575 268.053 326.683 267.819 326.827 267.495L327.295 266.397L323.695 257.145H325.261ZM332.895 264.705C333.075 264.525 333.327 264.417 333.633 264.417C333.921 264.417 334.173 264.525 334.371 264.705C334.551 264.885 334.659 265.137 334.659 265.425C334.659 265.731 334.551 265.983 334.371 266.163C334.173 266.343 333.921 266.433 333.633 266.433C333.327 266.433 333.075 266.343 332.895 266.163C332.697 265.983 332.607 265.731 332.607 265.425C332.607 265.137 332.697 264.885 332.895 264.705Z" fill="white"/>
</g>
<defs>
<filter id="filter0_dd_4707_209" x="0" y="0.325195" width="602" height="372" filterUnits="userSpaceOnUse" color-interpolation-filters="sRGB">
<feFlood flood-opacity="0" result="BackgroundImageFix"/>
<feColorMatrix in="SourceAlpha" type="matrix" values="0 0 0 0 0 0 0 0 0 0 0 0 0 0 0 0 0 0 127 0" result="hardAlpha"/>
<feOffset dx="-11"/>
<feGaussianBlur stdDeviation="9.5"/>
<feColorMatrix type="matrix" values="0 0 0 0 0.0901961 0 0 0 0 0.0901961 0 0 0 0 0.0901961 0 0 0 0.3 0"/>
<feBlend mode="normal" in2="BackgroundImageFix" result="effect1_dropShadow_4707_209"/>
<feColorMatrix in="SourceAlpha" type="matrix" values="0 0 0 0 0 0 0 0 0 0 0 0 0 0 0 0 0 0 127 0" result="hardAlpha"/>
<feOffset dy="13"/>
<feGaussianBlur stdDeviation="10"/>
<feColorMatrix type="matrix" values="0 0 0 0 0.0901961 0 0 0 0 0.0901961 0 0 0 0 0.0901961 0 0 0 0.2 0"/>
<feBlend mode="normal" in2="effect1_dropShadow_4707_209" result="effect2_dropShadow_4707_209"/>
<feBlend mode="normal" in="SourceGraphic" in2="effect2_dropShadow_4707_209" result="shape"/>
</filter>
<radialGradient id="paint0_radial_4707_209" cx="0" cy="0" r="1" gradientUnits="userSpaceOnUse" gradientTransform="translate(306 179.325) rotate(90) scale(160 276)">
<stop stop-color="#D9EBCD"/>
<stop offset="1" stop-color="#D9EBCD" stop-opacity="0.19"/>
</radialGradient>
</defs>
</svg>
