<svg width="799" height="47" viewBox="0 0 799 47" fill="none" xmlns="http://www.w3.org/2000/svg">
<path d="M1.77575 46.3252C1.26375 46.3252 0.94375 46.1332 0.94375 45.6852C0.94375 44.3412 2.35175 44.4692 2.35175 41.1412V6.70919C2.35175 3.3812 0.94375 3.50919 0.94375 2.16519C0.94375 1.71719 1.26375 1.52519 1.77575 1.52519H28.6558C29.8718 1.52519 30.5118 1.90919 30.7678 3.3812L31.8558 10.1652C32.0478 11.1892 31.5998 12.0212 30.5118 12.0212C27.5678 12.0212 26.0958 5.42919 22.0638 5.42919H14.7678C13.0398 5.42919 12.3358 6.45319 12.3358 8.18119V22.2612H18.7358C23.2158 22.2612 22.4478 18.6132 24.4318 18.6132C25.3278 18.6132 25.6478 19.3172 25.6478 20.1492V28.2132C25.6478 29.0452 25.3278 29.7492 24.4318 29.7492C22.4478 29.7492 23.2158 26.1012 18.7358 26.1012H12.3358V41.1412C12.3358 44.4692 13.7438 44.3412 13.7438 45.6852C13.7438 46.1332 13.4238 46.3252 12.9118 46.3252H1.77575ZM44.2533 46.8372C34.9733 46.8372 28.3813 40.7572 28.3813 31.6052C28.3813 22.4532 34.9733 16.4372 44.2533 16.4372C53.5333 16.4372 60.1253 22.4532 60.1253 31.6052C60.1253 40.7572 53.5333 46.8372 44.2533 46.8372ZM38.3013 31.6052C38.3013 38.0052 40.4773 43.3172 44.2533 43.3172C48.0933 43.3172 50.2053 38.0052 50.2053 31.6052C50.2053 25.2052 48.0933 19.8932 44.2533 19.8932C40.4773 19.8932 38.3013 25.2052 38.3013 31.6052ZM61.5807 46.3252C61.0688 46.3252 60.7488 46.1332 60.7488 45.6852C60.7488 44.3412 62.1568 44.4692 62.1568 41.1412V23.1572C62.1568 19.8292 60.7488 20.0852 60.7488 18.8692C60.7488 18.4212 61.0688 18.1012 61.5807 17.9732C62.3488 17.7812 67.7888 16.8212 69.6448 16.5012C71.2448 16.1812 71.8848 16.8212 71.8848 17.9732V21.9412C73.7408 19.1252 76.4928 16.4372 80.2048 16.4372C83.8528 16.4372 85.7728 19.3812 85.7728 22.7732C85.7728 25.9092 84.1088 28.0212 81.2928 28.0212C77.3248 28.0212 77.6448 23.5412 75.3408 23.5412C73.1008 23.5412 71.8848 27.5732 71.8848 31.2212V41.1412C71.8848 44.4692 73.2928 44.3412 73.2928 45.6852C73.2928 46.1332 72.9728 46.3252 72.4608 46.3252H61.5807ZM101.963 46.3252C101.451 46.3252 101.131 46.1332 101.131 45.6852C101.131 44.3412 102.539 44.4692 102.539 41.1412V6.70919C102.539 3.3812 101.131 3.50919 101.131 2.16519C101.131 1.71719 101.451 1.52519 101.963 1.52519H113.099C113.547 1.52519 113.931 1.71719 113.931 2.16519C113.931 3.50919 112.523 3.3812 112.523 6.70919V41.1412C112.523 44.4692 113.931 44.3412 113.931 45.6852C113.931 46.1332 113.547 46.3252 113.099 46.3252H101.963ZM116.706 46.3252C116.194 46.3252 115.874 46.1332 115.874 45.6852C115.874 44.3412 117.282 44.4692 117.282 41.1412V23.1572C117.282 19.8292 115.874 20.0852 115.874 18.8692C115.874 18.4212 116.194 18.1012 116.706 17.9732C117.474 17.7812 122.914 16.8212 124.77 16.5012C126.37 16.1812 127.01 16.8212 127.01 17.9732V20.6612C128.738 18.4212 131.618 16.4372 136.162 16.4372C143.138 16.4372 146.85 20.9172 146.85 28.9812V41.1412C146.85 44.4692 148.322 44.3412 148.322 45.6852C148.322 46.1332 147.938 46.3252 147.49 46.3252H136.546C136.098 46.3252 135.714 46.1332 135.714 45.6852C135.714 44.3412 137.186 44.4692 137.186 41.1412V28.9172C137.186 25.0132 136.098 21.7492 132.13 21.7492C128.802 21.7492 127.01 24.8852 127.01 29.1732V41.1412C127.01 44.4692 128.418 44.3412 128.418 45.6852C128.418 46.1332 128.098 46.3252 127.586 46.3252H116.706ZM162.632 46.8372C155.016 46.8372 149.256 40.6292 149.256 31.6052C149.256 22.6452 155.016 16.4372 162.632 16.4372C166.92 16.4372 169.864 18.4212 171.848 21.2372V7.73319C171.848 4.40519 170.44 4.66119 170.44 3.50919C170.44 3.06119 170.76 2.61319 171.272 2.54919L179.272 1.07719C180.936 0.757195 181.576 1.46119 181.576 2.54919V37.0452C181.576 40.9492 182.92 39.5412 183.624 40.6932C184.584 42.1652 182.92 46.8372 178.12 46.8372C174.792 46.8372 172.808 45.1092 172.104 41.6532C170.12 44.6612 167.112 46.8372 162.632 46.8372ZM159.176 31.6052C159.176 37.6852 162.056 41.5252 165.704 41.5252C169.352 41.5252 171.848 37.6212 171.848 31.6052C171.848 25.5892 169.352 21.7492 165.704 21.7492C161.992 21.7492 159.176 25.6532 159.176 31.6052ZM186.276 46.3252C185.828 46.3252 185.444 46.1332 185.444 45.6852C185.444 44.3412 186.852 44.4692 186.852 41.1412V23.1572C186.852 19.8292 185.444 20.0852 185.444 18.8692C185.444 18.4212 185.764 18.1012 186.276 17.9732C187.044 17.7812 192.484 16.8212 194.34 16.5012C196.004 16.1812 196.58 16.8212 196.58 17.9732V41.1412C196.58 44.4692 197.988 44.3412 197.988 45.6852C197.988 46.1332 197.668 46.3252 197.156 46.3252H186.276ZM186.148 7.34919C186.148 4.27719 188.772 1.84519 192.036 1.84519C195.236 1.84519 197.86 4.27719 197.86 7.34919C197.86 10.3572 195.236 12.8532 192.036 12.8532C188.772 12.8532 186.148 10.3572 186.148 7.34919ZM213.971 46.3252C212.307 46.3252 210.963 45.5572 210.387 44.2132C210.003 43.3172 204.115 29.4292 201.043 22.0052C199.891 19.5732 198.291 18.8692 198.291 17.5252C198.291 17.0772 198.611 16.8852 199.123 16.8852H211.091C211.603 16.8852 211.987 17.0772 211.987 17.5252C211.987 18.8692 210.259 18.9972 211.283 22.0692L217.107 39.1572L223.251 21.6212C224.019 18.8052 222.547 18.9972 222.547 17.5892C222.547 17.1412 222.867 16.8852 223.443 16.8852H228.883C229.523 16.8852 229.907 17.0772 229.907 17.5252C229.907 18.8692 228.115 18.8692 226.835 22.2612C224.147 29.5572 219.219 43.1252 218.835 44.1492C218.323 45.4932 216.915 46.3252 215.187 46.3252H213.971ZM232.026 46.3252C231.578 46.3252 231.194 46.1332 231.194 45.6852C231.194 44.3412 232.602 44.4692 232.602 41.1412V23.1572C232.602 19.8292 231.194 20.0852 231.194 18.8692C231.194 18.4212 231.514 18.1012 232.026 17.9732C232.794 17.7812 238.234 16.8212 240.09 16.5012C241.754 16.1812 242.33 16.8212 242.33 17.9732V41.1412C242.33 44.4692 243.738 44.3412 243.738 45.6852C243.738 46.1332 243.418 46.3252 242.906 46.3252H232.026ZM231.898 7.34919C231.898 4.27719 234.522 1.84519 237.786 1.84519C240.986 1.84519 243.61 4.27719 243.61 7.34919C243.61 10.3572 240.986 12.8532 237.786 12.8532C234.522 12.8532 231.898 10.3572 231.898 7.34919ZM258.382 46.8372C250.766 46.8372 245.006 40.6292 245.006 31.6052C245.006 22.6452 250.766 16.4372 258.382 16.4372C262.67 16.4372 265.614 18.4212 267.598 21.2372V7.73319C267.598 4.40519 266.19 4.66119 266.19 3.50919C266.19 3.06119 266.51 2.61319 267.022 2.54919L275.022 1.07719C276.686 0.757195 277.326 1.46119 277.326 2.54919V37.0452C277.326 40.9492 278.67 39.5412 279.374 40.6932C280.334 42.1652 278.67 46.8372 273.87 46.8372C270.542 46.8372 268.558 45.1092 267.854 41.6532C265.87 44.6612 262.862 46.8372 258.382 46.8372ZM254.926 31.6052C254.926 37.6852 257.806 41.5252 261.454 41.5252C265.102 41.5252 267.598 37.6212 267.598 31.6052C267.598 25.5892 265.102 21.7492 261.454 21.7492C257.742 21.7492 254.926 25.6532 254.926 31.6052ZM292.736 46.8372C287.104 46.8372 281.664 43.4452 281.664 35.3172V23.1572C281.664 19.8292 280.256 20.0852 280.256 18.8692C280.256 18.4212 280.576 18.1012 281.088 17.9732C281.856 17.7812 287.296 16.8212 289.088 16.5012C290.752 16.1812 291.392 16.8212 291.392 17.9732V34.8052C291.392 38.4532 292.864 41.5252 296.192 41.5252C298.944 41.5252 301.056 38.9652 301.056 35.0612V23.1572C301.056 19.8292 299.584 20.0852 299.584 18.8692C299.584 18.4212 299.904 18.1012 300.416 17.9732C301.248 17.7812 306.688 16.8212 308.48 16.5012C310.144 16.1812 310.72 16.8212 310.72 17.9732V37.0452C310.72 41.0132 312.128 39.5412 312.832 40.6932C313.728 42.1652 312.128 46.7732 307.264 46.7732C304.384 46.7732 302.464 45.4292 301.568 42.7412C299.968 44.8532 297.28 46.8372 292.736 46.8372ZM324.053 46.8372C318.293 46.8372 314.389 43.4452 314.389 38.3252C314.389 30.1972 321.621 28.9812 331.861 28.9812V26.7412C331.861 23.7972 331.093 19.6372 328.085 19.6372C324.373 19.6372 325.973 27.5092 320.597 27.5092C318.165 27.5092 316.437 26.2292 316.437 23.8612C316.437 19.8292 320.469 16.4372 327.829 16.4372C341.525 16.4372 341.525 26.4212 341.525 29.5572V37.0452C341.525 41.0132 342.933 39.5412 343.637 40.6932C344.533 42.1652 342.933 46.7732 338.133 46.7732C334.997 46.7732 333.013 45.2372 332.245 42.1652C331.157 44.2772 328.277 46.8372 324.053 46.8372ZM323.349 37.5572C323.349 40.1812 324.885 41.2692 327.253 41.2692C330.261 41.2692 331.861 38.4532 331.861 35.7652V32.3092C326.101 32.3092 323.349 34.3572 323.349 37.5572ZM345.643 46.3252C345.195 46.3252 344.811 46.1332 344.811 45.6852C344.811 44.3412 346.219 44.4692 346.219 41.1412V7.73319C346.219 4.40519 344.811 4.66119 344.811 3.50919C344.811 3.06119 345.131 2.67719 345.643 2.54919C346.475 2.42119 351.915 1.39719 353.707 1.07719C355.371 0.821194 355.947 1.46119 355.947 2.54919V41.1412C355.947 44.4692 357.355 44.3412 357.355 45.6852C357.355 46.1332 357.035 46.3252 356.523 46.3252H345.643ZM370.678 46.8372C364.214 46.8372 358.006 44.4692 358.006 40.3092C358.006 36.5972 358.582 35.3172 359.862 35.3172C361.014 35.3172 361.462 35.4452 362.486 37.9412C363.766 41.0132 366.646 43.4452 370.422 43.4452C372.726 43.4452 374.198 42.4212 374.198 40.6292C374.198 34.9332 359.222 37.3652 359.222 26.4212C359.222 20.7252 363.51 16.4372 371.126 16.4372C376.502 16.4372 381.75 18.9332 381.75 22.0692C381.75 25.5252 381.11 26.4852 380.086 26.4852C378.486 26.4852 378.038 25.3972 377.014 23.6692C375.542 21.3012 373.75 19.7652 370.806 19.7652C368.95 19.7652 367.606 20.9172 367.606 22.7092C367.606 28.0852 383.286 27.0612 383.286 35.9572C383.286 41.9732 378.23 46.8372 370.678 46.8372ZM410.24 46.8372C404.48 46.8372 400.576 43.4452 400.576 38.3252C400.576 30.1972 407.808 28.9812 418.048 28.9812V26.7412C418.048 23.7972 417.28 19.6372 414.272 19.6372C410.56 19.6372 412.16 27.5092 406.784 27.5092C404.352 27.5092 402.624 26.2292 402.624 23.8612C402.624 19.8292 406.656 16.4372 414.016 16.4372C427.712 16.4372 427.712 26.4212 427.712 29.5572V37.0452C427.712 41.0132 429.12 39.5412 429.824 40.6932C430.72 42.1652 429.12 46.7732 424.32 46.7732C421.184 46.7732 419.2 45.2372 418.432 42.1652C417.344 44.2772 414.464 46.8372 410.24 46.8372ZM409.536 37.5572C409.536 40.1812 411.072 41.2692 413.44 41.2692C416.448 41.2692 418.048 38.4532 418.048 35.7652V32.3092C412.288 32.3092 409.536 34.3572 409.536 37.5572ZM431.831 46.3252C431.319 46.3252 430.999 46.1332 430.999 45.6852C430.999 44.3412 432.407 44.4692 432.407 41.1412V23.1572C432.407 19.8292 430.999 20.0852 430.999 18.8692C430.999 18.4212 431.319 18.1012 431.831 17.9732C432.599 17.7812 438.039 16.8212 439.895 16.5012C441.495 16.1812 442.135 16.8212 442.135 17.9732V20.6612C443.863 18.4212 446.743 16.4372 451.287 16.4372C458.263 16.4372 461.975 20.9172 461.975 28.9812V41.1412C461.975 44.4692 463.447 44.3412 463.447 45.6852C463.447 46.1332 463.063 46.3252 462.615 46.3252H451.671C451.223 46.3252 450.839 46.1332 450.839 45.6852C450.839 44.3412 452.311 44.4692 452.311 41.1412V28.9172C452.311 25.0132 451.223 21.7492 447.255 21.7492C443.927 21.7492 442.135 24.8852 442.135 29.1732V41.1412C442.135 44.4692 443.543 44.3412 443.543 45.6852C443.543 46.1332 443.223 46.3252 442.711 46.3252H431.831ZM477.757 46.8372C470.141 46.8372 464.381 40.6292 464.381 31.6052C464.381 22.6452 470.141 16.4372 477.757 16.4372C482.045 16.4372 484.989 18.4212 486.973 21.2372V7.73319C486.973 4.40519 485.565 4.66119 485.565 3.50919C485.565 3.06119 485.885 2.61319 486.397 2.54919L494.397 1.07719C496.061 0.757195 496.701 1.46119 496.701 2.54919V37.0452C496.701 40.9492 498.045 39.5412 498.749 40.6932C499.709 42.1652 498.045 46.8372 493.245 46.8372C489.917 46.8372 487.933 45.1092 487.229 41.6532C485.245 44.6612 482.237 46.8372 477.757 46.8372ZM474.301 31.6052C474.301 37.6852 477.181 41.5252 480.829 41.5252C484.477 41.5252 486.973 37.6212 486.973 31.6052C486.973 25.5892 484.477 21.7492 480.829 21.7492C477.117 21.7492 474.301 25.6532 474.301 31.6052ZM516.463 46.3252C516.015 46.3252 515.631 46.1332 515.631 45.6852C515.631 44.3412 517.103 44.4692 517.103 41.1412V6.70919C517.103 3.3812 515.631 3.50919 515.631 2.16519C515.631 1.71719 516.015 1.52519 516.463 1.52519H534.063C543.087 1.52519 549.871 4.72519 549.871 12.7892C549.871 17.3972 545.903 21.6212 540.847 21.8132C548.847 22.3252 553.903 26.6772 553.903 33.5252C553.903 42.9332 545.519 46.3252 535.023 46.3252H516.463ZM527.023 39.6692C527.023 41.3972 527.791 42.4212 529.455 42.4212H531.951C536.239 42.4212 542.383 41.5252 542.383 33.7812C542.383 26.3572 535.983 24.8852 531.951 24.8852H529.455C527.791 24.8852 527.023 25.9732 527.023 27.7012V39.6692ZM527.023 18.1652C527.023 19.8932 527.791 20.9172 529.455 20.9172H530.927C535.343 20.9172 539.183 18.3572 539.183 13.0452C539.183 7.86119 535.471 5.42919 530.927 5.42919H529.455C527.791 5.42919 527.023 6.45319 527.023 8.18119V18.1652ZM567.361 46.8372C561.729 46.8372 556.289 43.4452 556.289 35.3172V23.1572C556.289 19.8292 554.881 20.0852 554.881 18.8692C554.881 18.4212 555.201 18.1012 555.713 17.9732C556.481 17.7812 561.921 16.8212 563.713 16.5012C565.377 16.1812 566.017 16.8212 566.017 17.9732V34.8052C566.017 38.4532 567.489 41.5252 570.817 41.5252C573.569 41.5252 575.681 38.9652 575.681 35.0612V23.1572C575.681 19.8292 574.209 20.0852 574.209 18.8692C574.209 18.4212 574.529 18.1012 575.041 17.9732C575.873 17.7812 581.313 16.8212 583.105 16.5012C584.769 16.1812 585.345 16.8212 585.345 17.9732V37.0452C585.345 41.0132 586.753 39.5412 587.457 40.6932C588.353 42.1652 586.753 46.7732 581.889 46.7732C579.009 46.7732 577.089 45.4292 576.193 42.7412C574.593 44.8532 571.905 46.8372 567.361 46.8372ZM601.678 46.8372C595.214 46.8372 589.006 44.4692 589.006 40.3092C589.006 36.5972 589.582 35.3172 590.862 35.3172C592.014 35.3172 592.462 35.4452 593.486 37.9412C594.766 41.0132 597.646 43.4452 601.422 43.4452C603.726 43.4452 605.198 42.4212 605.198 40.6292C605.198 34.9332 590.222 37.3652 590.222 26.4212C590.222 20.7252 594.51 16.4372 602.126 16.4372C607.502 16.4372 612.75 18.9332 612.75 22.0692C612.75 25.5252 612.11 26.4852 611.086 26.4852C609.486 26.4852 609.038 25.3972 608.014 23.6692C606.542 21.3012 604.75 19.7652 601.806 19.7652C599.95 19.7652 598.606 20.9172 598.606 22.7092C598.606 28.0852 614.286 27.0612 614.286 35.9572C614.286 41.9732 609.23 46.8372 601.678 46.8372ZM616.401 46.3252C615.953 46.3252 615.569 46.1332 615.569 45.6852C615.569 44.3412 616.977 44.4692 616.977 41.1412V23.1572C616.977 19.8292 615.569 20.0852 615.569 18.8692C615.569 18.4212 615.889 18.1012 616.401 17.9732C617.169 17.7812 622.609 16.8212 624.465 16.5012C626.129 16.1812 626.705 16.8212 626.705 17.9732V41.1412C626.705 44.4692 628.113 44.3412 628.113 45.6852C628.113 46.1332 627.793 46.3252 627.281 46.3252H616.401ZM616.273 7.34919C616.273 4.27719 618.897 1.84519 622.161 1.84519C625.361 1.84519 627.985 4.27719 627.985 7.34919C627.985 10.3572 625.361 12.8532 622.161 12.8532C618.897 12.8532 616.273 10.3572 616.273 7.34919ZM630.206 46.3252C629.694 46.3252 629.374 46.1332 629.374 45.6852C629.374 44.3412 630.782 44.4692 630.782 41.1412V23.1572C630.782 19.8292 629.374 20.0852 629.374 18.8692C629.374 18.4212 629.694 18.1012 630.206 17.9732C630.974 17.7812 636.414 16.8212 638.27 16.5012C639.87 16.1812 640.51 16.8212 640.51 17.9732V20.6612C642.238 18.4212 645.118 16.4372 649.662 16.4372C656.638 16.4372 660.35 20.9172 660.35 28.9812V41.1412C660.35 44.4692 661.822 44.3412 661.822 45.6852C661.822 46.1332 661.438 46.3252 660.99 46.3252H650.046C649.598 46.3252 649.214 46.1332 649.214 45.6852C649.214 44.3412 650.686 44.4692 650.686 41.1412V28.9172C650.686 25.0132 649.598 21.7492 645.63 21.7492C642.302 21.7492 640.51 24.8852 640.51 29.1732V41.1412C640.51 44.4692 641.918 44.3412 641.918 45.6852C641.918 46.1332 641.598 46.3252 641.086 46.3252H630.206ZM677.86 46.8372C668.836 46.8372 662.436 40.7572 662.436 31.8612C662.436 23.0292 668.772 16.4372 677.476 16.4372C686.116 16.4372 689.764 22.3892 689.764 28.1492C689.764 30.1972 688.804 31.0932 686.18 31.0932H671.332C672.484 36.0852 676.26 39.4772 681.892 39.4772C686.82 39.4772 687.908 36.3412 689.38 37.2372C691.812 38.5812 687.588 46.8372 677.86 46.8372ZM671.012 27.5092L680.74 26.5492C680.932 22.0692 679.204 19.6372 676.644 19.6372C673.956 19.6372 671.076 22.7732 671.012 27.5092ZM704.053 46.8372C697.589 46.8372 691.381 44.4692 691.381 40.3092C691.381 36.5972 691.957 35.3172 693.237 35.3172C694.389 35.3172 694.837 35.4452 695.861 37.9412C697.141 41.0132 700.021 43.4452 703.797 43.4452C706.101 43.4452 707.573 42.4212 707.573 40.6292C707.573 34.9332 692.597 37.3652 692.597 26.4212C692.597 20.7252 696.885 16.4372 704.501 16.4372C709.877 16.4372 715.125 18.9332 715.125 22.0692C715.125 25.5252 714.485 26.4852 713.461 26.4852C711.861 26.4852 711.413 25.3972 710.389 23.6692C708.917 21.3012 707.125 19.7652 704.181 19.7652C702.325 19.7652 700.981 20.9172 700.981 22.7092C700.981 28.0852 716.661 27.0612 716.661 35.9572C716.661 41.9732 711.605 46.8372 704.053 46.8372ZM730.303 46.8372C723.839 46.8372 717.631 44.4692 717.631 40.3092C717.631 36.5972 718.207 35.3172 719.487 35.3172C720.639 35.3172 721.087 35.4452 722.111 37.9412C723.391 41.0132 726.271 43.4452 730.047 43.4452C732.351 43.4452 733.823 42.4212 733.823 40.6292C733.823 34.9332 718.847 37.3652 718.847 26.4212C718.847 20.7252 723.135 16.4372 730.751 16.4372C736.127 16.4372 741.375 18.9332 741.375 22.0692C741.375 25.5252 740.735 26.4852 739.711 26.4852C738.111 26.4852 737.663 25.3972 736.639 23.6692C735.167 21.3012 733.375 19.7652 730.431 19.7652C728.575 19.7652 727.231 20.9172 727.231 22.7092C727.231 28.0852 742.911 27.0612 742.911 35.9572C742.911 41.9732 737.855 46.8372 730.303 46.8372ZM759.298 46.8372C750.274 46.8372 743.874 40.7572 743.874 31.8612C743.874 23.0292 750.21 16.4372 758.914 16.4372C767.554 16.4372 771.202 22.3892 771.202 28.1492C771.202 30.1972 770.242 31.0932 767.618 31.0932H752.77C753.922 36.0852 757.698 39.4772 763.33 39.4772C768.258 39.4772 769.346 36.3412 770.818 37.2372C773.25 38.5812 769.026 46.8372 759.298 46.8372ZM752.45 27.5092L762.178 26.5492C762.37 22.0692 760.642 19.6372 758.082 19.6372C755.394 19.6372 752.514 22.7732 752.45 27.5092ZM785.491 46.8372C779.027 46.8372 772.819 44.4692 772.819 40.3092C772.819 36.5972 773.395 35.3172 774.675 35.3172C775.827 35.3172 776.275 35.4452 777.299 37.9412C778.579 41.0132 781.459 43.4452 785.235 43.4452C787.539 43.4452 789.011 42.4212 789.011 40.6292C789.011 34.9332 774.035 37.3652 774.035 26.4212C774.035 20.7252 778.323 16.4372 785.939 16.4372C791.315 16.4372 796.563 18.9332 796.563 22.0692C796.563 25.5252 795.923 26.4852 794.899 26.4852C793.299 26.4852 792.851 25.3972 791.827 23.6692C790.355 21.3012 788.563 19.7652 785.619 19.7652C783.763 19.7652 782.419 20.9172 782.419 22.7092C782.419 28.0852 798.099 27.0612 798.099 35.9572C798.099 41.9732 793.043 46.8372 785.491 46.8372Z" fill="#11453B"/>
</svg>
