<svg width="466" height="19" viewBox="0 0 466 19" fill="none" xmlns="http://www.w3.org/2000/svg">
<path d="M5.40758 0.325194V11.0252C5.40758 12.1052 5.12758 12.9252 4.56758 13.4852C4.00758 14.0452 3.18758 14.3252 2.10758 14.3252H0.287578V12.6852H1.88758C2.50758 12.6852 2.96758 12.5452 3.24758 12.2652C3.52758 11.9852 3.66758 11.5252 3.66758 10.8852V0.325194H5.40758ZM10.1398 13.7852C9.37976 13.3452 8.77976 12.7452 8.35976 11.9452C7.91976 11.1652 7.71976 10.2652 7.71976 9.22519C7.71976 8.20519 7.91976 7.3052 8.35976 6.50519C8.77976 5.7252 9.37976 5.10519 10.1398 4.6652C10.8998 4.2252 11.7798 4.00519 12.7798 4.00519C13.7598 4.00519 14.6398 4.2252 15.3998 4.6652C16.1598 5.10519 16.7598 5.7252 17.1998 6.50519C17.6198 7.3052 17.8398 8.20519 17.8398 9.22519C17.8398 10.2652 17.6198 11.1652 17.1998 11.9452C16.7598 12.7452 16.1598 13.3452 15.3998 13.7852C14.6398 14.2252 13.7598 14.4452 12.7798 14.4452C11.7798 14.4452 10.8998 14.2252 10.1398 13.7852ZM14.5398 12.5052C15.0598 12.1852 15.4598 11.7452 15.7398 11.1652C16.0198 10.6052 16.1598 9.9452 16.1598 9.22519C16.1598 8.5052 16.0198 7.8652 15.7398 7.28519C15.4598 6.72519 15.0598 6.26519 14.5398 5.94519C14.0198 5.62519 13.4398 5.46519 12.7798 5.46519C12.0998 5.46519 11.5198 5.62519 10.9998 5.94519C10.4798 6.26519 10.0998 6.72519 9.81976 7.28519C9.53976 7.8652 9.39976 8.5052 9.39976 9.22519C9.39976 9.9452 9.53976 10.6052 9.81976 11.1652C10.0998 11.7452 10.4798 12.1852 10.9998 12.5052C11.5198 12.8252 12.0998 12.9852 12.7798 12.9852C13.4398 12.9852 14.0198 12.8252 14.5398 12.5052ZM21.5004 0.485195C21.7004 0.685194 21.8004 0.945195 21.8004 1.24519C21.8004 1.5652 21.7004 1.80519 21.5004 2.00519C21.3004 2.2052 21.0404 2.3052 20.7404 2.3052C20.4204 2.3052 20.1804 2.2052 19.9804 2.00519C19.7804 1.80519 19.6804 1.5652 19.6804 1.24519C19.6804 0.945195 19.7804 0.685194 19.9804 0.485195C20.1804 0.285195 20.4204 0.185195 20.7404 0.185195C21.0404 0.185195 21.3004 0.285195 21.5004 0.485195ZM19.9204 4.12519H21.5604V14.3252H19.9204V4.12519ZM31.9871 5.1252C32.7471 5.88519 33.1271 7.04519 33.1271 8.6452V14.3252H31.4871V8.7452C31.4871 7.70519 31.2471 6.90519 30.7671 6.34519C30.2871 5.78519 29.6071 5.5052 28.7271 5.5052C27.7671 5.5052 27.0071 5.84519 26.4671 6.50519C25.9071 7.18519 25.6471 8.0852 25.6471 9.22519V14.3252H24.0071V4.12519H25.4271L25.6471 5.5052C26.4071 4.50519 27.5271 4.00519 29.0071 4.00519C30.2471 4.00519 31.2271 4.3852 31.9871 5.1252ZM45.9524 8.1852C46.7324 7.50519 47.3324 6.90519 47.7324 6.34519C48.1324 5.78519 48.3324 5.16519 48.3324 4.46519C48.3324 3.6052 48.0524 2.92519 47.4924 2.42519C46.9324 1.94519 46.1924 1.68519 45.2724 1.68519C44.3524 1.68519 43.6324 1.96519 43.0924 2.52519C42.5324 3.08519 42.2724 3.84519 42.2724 4.8052V5.06519H40.5924V4.70519C40.5924 3.82519 40.7724 3.0452 41.1724 2.36519C41.5524 1.68519 42.0924 1.16519 42.8124 0.765195C43.5324 0.385195 44.3524 0.185195 45.2724 0.185195C46.7524 0.185195 47.9324 0.565195 48.7724 1.32519C49.6124 2.08519 50.0524 3.10519 50.0524 4.3852C50.0524 5.06519 49.9124 5.66519 49.6524 6.20519C49.3924 6.76519 49.0524 7.2652 48.6524 7.70519C48.2324 8.1452 47.6924 8.66519 47.0324 9.22519L42.8324 12.7852H50.1524V14.3252H40.5124V12.9052L45.9524 8.1852ZM52.181 7.00519C52.181 5.6852 52.401 4.5252 52.841 3.48519C53.281 2.46519 53.921 1.66519 54.721 1.08519C55.521 0.505194 56.461 0.205195 57.501 0.205195C58.521 0.205195 59.441 0.505194 60.241 1.08519C61.041 1.66519 61.681 2.46519 62.121 3.48519C62.561 4.5252 62.801 5.6852 62.801 7.00519V7.64519C62.801 9.0252 62.561 10.2252 62.121 11.2452C61.681 12.2852 61.061 13.0652 60.261 13.6252C59.461 14.1852 58.541 14.4452 57.501 14.4452C56.441 14.4452 55.521 14.1852 54.721 13.6252C53.921 13.0652 53.281 12.2852 52.841 11.2452C52.401 10.2252 52.181 9.0252 52.181 7.64519V7.00519ZM60.641 4.2252C60.341 3.42519 59.921 2.82519 59.381 2.3852C58.841 1.96519 58.221 1.7452 57.501 1.7452C56.781 1.7452 56.141 1.96519 55.601 2.3852C55.041 2.82519 54.621 3.42519 54.321 4.2252C54.021 5.02519 53.881 5.98519 53.881 7.0652V7.5852C53.881 8.6852 54.021 9.6252 54.321 10.4252C54.621 11.2252 55.041 11.8452 55.601 12.2652C56.141 12.7052 56.781 12.9052 57.501 12.9052C58.221 12.9052 58.841 12.7052 59.381 12.2652C59.921 11.8452 60.341 11.2252 60.641 10.4252C60.941 9.6252 61.101 8.6852 61.101 7.5852V7.0652C61.101 5.98519 60.941 5.02519 60.641 4.2252ZM64.881 7.00519C64.881 5.6852 65.101 4.5252 65.541 3.48519C65.981 2.46519 66.621 1.66519 67.421 1.08519C68.221 0.505194 69.161 0.205195 70.201 0.205195C71.221 0.205195 72.141 0.505194 72.941 1.08519C73.741 1.66519 74.381 2.46519 74.821 3.48519C75.261 4.5252 75.501 5.6852 75.501 7.00519V7.64519C75.501 9.0252 75.261 10.2252 74.821 11.2452C74.381 12.2852 73.761 13.0652 72.961 13.6252C72.161 14.1852 71.241 14.4452 70.201 14.4452C69.141 14.4452 68.221 14.1852 67.421 13.6252C66.621 13.0652 65.981 12.2852 65.541 11.2452C65.101 10.2252 64.881 9.0252 64.881 7.64519V7.00519ZM73.341 4.2252C73.041 3.42519 72.621 2.82519 72.081 2.3852C71.541 1.96519 70.921 1.7452 70.201 1.7452C69.481 1.7452 68.841 1.96519 68.301 2.3852C67.741 2.82519 67.321 3.42519 67.021 4.2252C66.721 5.02519 66.581 5.98519 66.581 7.0652V7.5852C66.581 8.6852 66.721 9.6252 67.021 10.4252C67.321 11.2252 67.741 11.8452 68.301 12.2652C68.841 12.7052 69.481 12.9052 70.201 12.9052C70.921 12.9052 71.541 12.7052 72.081 12.2652C72.621 11.8452 73.041 11.2252 73.341 10.4252C73.641 9.6252 73.801 8.6852 73.801 7.5852V7.0652C73.801 5.98519 73.641 5.02519 73.341 4.2252ZM81.121 4.40519H82.621V7.9052H85.961V9.2852H82.621V12.8052H81.121V9.2852H77.801V7.9052H81.121V4.40519ZM101.544 4.6252C102.284 5.04519 102.864 5.6452 103.284 6.4252C103.704 7.22519 103.924 8.1452 103.924 9.22519C103.924 10.2652 103.704 11.1652 103.284 11.9452C102.864 12.7452 102.284 13.3452 101.544 13.7852C100.784 14.2252 99.9437 14.4452 99.0237 14.4452C98.1837 14.4452 97.4837 14.3052 96.9037 14.0052C96.3037 13.7052 95.8437 13.2852 95.5237 12.7652L95.3037 14.3252H93.8837V0.325194H95.5237V5.76519C96.3637 4.60519 97.5437 4.00519 99.0237 4.00519C99.9637 4.00519 100.804 4.2252 101.544 4.6252ZM101.304 11.9452C101.924 11.2452 102.244 10.3452 102.244 9.22519C102.244 8.1252 101.924 7.22519 101.304 6.5252C100.684 5.8252 99.8637 5.46519 98.8637 5.46519C98.2037 5.46519 97.6237 5.62519 97.1037 5.94519C96.5837 6.26519 96.2037 6.7052 95.9237 7.2652C95.6437 7.82519 95.5037 8.4652 95.5037 9.1852C95.5037 9.9252 95.6437 10.5852 95.9237 11.1652C96.2037 11.7452 96.5837 12.1852 97.1037 12.5052C97.6237 12.8252 98.2037 12.9852 98.8637 12.9852C99.8637 12.9852 100.684 12.6452 101.304 11.9452ZM114.778 4.12519V14.3252H113.358L113.138 12.9652C112.358 13.9652 111.278 14.4452 109.878 14.4452C108.658 14.4452 107.678 14.0852 106.958 13.3252C106.218 12.5852 105.858 11.4052 105.858 9.8052V4.12519H107.498V9.7052C107.498 10.7652 107.718 11.5652 108.178 12.1252C108.638 12.6852 109.298 12.9452 110.158 12.9452C111.078 12.9452 111.818 12.6252 112.338 11.9452C112.858 11.2852 113.138 10.3852 113.138 9.22519V4.12519H114.778ZM118.493 10.9652C118.513 11.5852 118.773 12.0852 119.293 12.4652C119.813 12.8652 120.473 13.0452 121.293 13.0452C122.013 13.0452 122.593 12.9052 123.033 12.6252C123.473 12.3452 123.713 11.9652 123.713 11.4852C123.713 11.0852 123.593 10.7852 123.393 10.5652C123.173 10.3652 122.893 10.2052 122.553 10.1252C122.213 10.0452 121.733 9.9652 121.113 9.88519C120.233 9.7852 119.513 9.6452 118.953 9.4652C118.393 9.30519 117.933 9.0252 117.593 8.6452C117.233 8.2652 117.073 7.74519 117.073 7.0652C117.073 6.4652 117.233 5.94519 117.573 5.46519C117.913 5.00519 118.373 4.64519 118.973 4.3852C119.553 4.12519 120.213 3.98519 120.953 3.98519C122.153 3.98519 123.113 4.26519 123.873 4.82519C124.633 5.38519 125.053 6.1852 125.133 7.22519H123.493C123.413 6.7052 123.153 6.26519 122.713 5.90519C122.253 5.56519 121.693 5.38519 121.013 5.38519C120.313 5.38519 119.753 5.5452 119.333 5.8252C118.893 6.1052 118.693 6.48519 118.693 6.94519C118.693 7.3052 118.793 7.56519 118.993 7.74519C119.193 7.9452 119.433 8.06519 119.753 8.1252C120.073 8.20519 120.553 8.2652 121.193 8.34519C122.073 8.4652 122.813 8.6052 123.393 8.7852C123.973 8.98519 124.433 9.2852 124.793 9.6852C125.153 10.1052 125.333 10.6652 125.333 11.3652C125.333 11.9852 125.153 12.5252 124.793 12.9852C124.433 13.4652 123.933 13.8252 123.333 14.0652C122.713 14.3252 122.033 14.4452 121.293 14.4452C119.953 14.4452 118.873 14.1452 118.073 13.5252C117.273 12.9252 116.853 12.0652 116.853 10.9652H118.493ZM128.974 0.485195C129.174 0.685194 129.274 0.945195 129.274 1.24519C129.274 1.5652 129.174 1.80519 128.974 2.00519C128.774 2.2052 128.514 2.3052 128.214 2.3052C127.894 2.3052 127.654 2.2052 127.454 2.00519C127.254 1.80519 127.154 1.5652 127.154 1.24519C127.154 0.945195 127.254 0.685194 127.454 0.485195C127.654 0.285195 127.894 0.185195 128.214 0.185195C128.514 0.185195 128.774 0.285195 128.974 0.485195ZM127.394 4.12519H129.034V14.3252H127.394V4.12519ZM139.461 5.1252C140.221 5.88519 140.601 7.04519 140.601 8.6452V14.3252H138.961V8.7452C138.961 7.70519 138.721 6.90519 138.241 6.34519C137.761 5.78519 137.081 5.5052 136.201 5.5052C135.241 5.5052 134.481 5.84519 133.941 6.50519C133.381 7.18519 133.121 8.0852 133.121 9.22519V14.3252H131.481V4.12519H132.901L133.121 5.5052C133.881 4.50519 135.001 4.00519 136.481 4.00519C137.721 4.00519 138.701 4.3852 139.461 5.1252ZM143.131 6.48519C143.531 5.70519 144.111 5.10519 144.851 4.6652C145.571 4.2252 146.411 4.00519 147.371 4.00519C148.291 4.00519 149.131 4.20519 149.851 4.58519C150.571 4.9852 151.131 5.5452 151.551 6.26519C151.951 7.00519 152.171 7.8652 152.211 8.84519C152.211 9.0052 152.191 9.22519 152.171 9.5452H144.251V9.6852C144.271 10.6852 144.571 11.4852 145.171 12.0852C145.751 12.6852 146.511 12.9852 147.471 12.9852C148.191 12.9852 148.811 12.8052 149.331 12.4452C149.851 12.0852 150.191 11.5652 150.371 10.9052H152.031C151.831 11.9452 151.331 12.8052 150.531 13.4652C149.731 14.1252 148.751 14.4452 147.591 14.4452C146.571 14.4452 145.691 14.2452 144.931 13.8052C144.171 13.3652 143.571 12.7652 143.151 11.9652C142.731 11.1652 142.531 10.2652 142.531 9.22519C142.531 8.1852 142.731 7.28519 143.131 6.48519ZM150.511 8.1852C150.431 7.32519 150.091 6.6452 149.531 6.16519C148.971 5.6852 148.251 5.44519 147.391 5.44519C146.611 5.44519 145.931 5.70519 145.351 6.20519C144.751 6.72519 144.431 7.3852 144.351 8.1852H150.511ZM155.524 10.9652C155.544 11.5852 155.804 12.0852 156.324 12.4652C156.844 12.8652 157.504 13.0452 158.324 13.0452C159.044 13.0452 159.624 12.9052 160.064 12.6252C160.504 12.3452 160.744 11.9652 160.744 11.4852C160.744 11.0852 160.624 10.7852 160.424 10.5652C160.204 10.3652 159.924 10.2052 159.584 10.1252C159.244 10.0452 158.764 9.9652 158.144 9.88519C157.264 9.7852 156.544 9.6452 155.984 9.4652C155.424 9.30519 154.964 9.0252 154.624 8.6452C154.264 8.2652 154.104 7.74519 154.104 7.0652C154.104 6.4652 154.264 5.94519 154.604 5.46519C154.944 5.00519 155.404 4.64519 156.004 4.3852C156.584 4.12519 157.244 3.98519 157.984 3.98519C159.184 3.98519 160.144 4.26519 160.904 4.82519C161.664 5.38519 162.084 6.1852 162.164 7.22519H160.524C160.444 6.7052 160.184 6.26519 159.744 5.90519C159.284 5.56519 158.724 5.38519 158.044 5.38519C157.344 5.38519 156.784 5.5452 156.364 5.8252C155.924 6.1052 155.724 6.48519 155.724 6.94519C155.724 7.3052 155.824 7.56519 156.024 7.74519C156.224 7.9452 156.464 8.06519 156.784 8.1252C157.104 8.20519 157.584 8.2652 158.224 8.34519C159.104 8.4652 159.844 8.6052 160.424 8.7852C161.004 8.98519 161.464 9.2852 161.824 9.6852C162.184 10.1052 162.364 10.6652 162.364 11.3652C162.364 11.9852 162.184 12.5252 161.824 12.9852C161.464 13.4652 160.964 13.8252 160.364 14.0652C159.744 14.3252 159.064 14.4452 158.324 14.4452C156.984 14.4452 155.904 14.1452 155.104 13.5252C154.304 12.9252 153.884 12.0652 153.884 10.9652H155.524ZM165.509 10.9652C165.529 11.5852 165.789 12.0852 166.309 12.4652C166.829 12.8652 167.489 13.0452 168.309 13.0452C169.029 13.0452 169.609 12.9052 170.049 12.6252C170.489 12.3452 170.729 11.9652 170.729 11.4852C170.729 11.0852 170.609 10.7852 170.409 10.5652C170.189 10.3652 169.909 10.2052 169.569 10.1252C169.229 10.0452 168.749 9.9652 168.129 9.88519C167.249 9.7852 166.529 9.6452 165.969 9.4652C165.409 9.30519 164.949 9.0252 164.609 8.6452C164.249 8.2652 164.089 7.74519 164.089 7.0652C164.089 6.4652 164.249 5.94519 164.589 5.46519C164.929 5.00519 165.389 4.64519 165.989 4.3852C166.569 4.12519 167.229 3.98519 167.969 3.98519C169.169 3.98519 170.129 4.26519 170.889 4.82519C171.649 5.38519 172.069 6.1852 172.149 7.22519H170.509C170.429 6.7052 170.169 6.26519 169.729 5.90519C169.269 5.56519 168.709 5.38519 168.029 5.38519C167.329 5.38519 166.769 5.5452 166.349 5.8252C165.909 6.1052 165.709 6.48519 165.709 6.94519C165.709 7.3052 165.809 7.56519 166.009 7.74519C166.209 7.9452 166.449 8.06519 166.769 8.1252C167.089 8.20519 167.569 8.2652 168.209 8.34519C169.089 8.4652 169.829 8.6052 170.409 8.7852C170.989 8.98519 171.449 9.2852 171.809 9.6852C172.169 10.1052 172.349 10.6652 172.349 11.3652C172.349 11.9852 172.169 12.5252 171.809 12.9852C171.449 13.4652 170.949 13.8252 170.349 14.0652C169.729 14.3252 169.049 14.4452 168.309 14.4452C166.969 14.4452 165.889 14.1452 165.089 13.5252C164.289 12.9252 163.869 12.0652 163.869 10.9652H165.509ZM174.649 6.48519C175.049 5.70519 175.629 5.10519 176.369 4.6652C177.089 4.2252 177.929 4.00519 178.889 4.00519C179.809 4.00519 180.649 4.20519 181.369 4.58519C182.089 4.9852 182.649 5.5452 183.069 6.26519C183.469 7.00519 183.689 7.8652 183.729 8.84519C183.729 9.0052 183.709 9.22519 183.689 9.5452H175.769V9.6852C175.789 10.6852 176.089 11.4852 176.689 12.0852C177.269 12.6852 178.029 12.9852 178.989 12.9852C179.709 12.9852 180.329 12.8052 180.849 12.4452C181.369 12.0852 181.709 11.5652 181.889 10.9052H183.549C183.349 11.9452 182.849 12.8052 182.049 13.4652C181.249 14.1252 180.269 14.4452 179.109 14.4452C178.089 14.4452 177.209 14.2452 176.449 13.8052C175.689 13.3652 175.089 12.7652 174.669 11.9652C174.249 11.1652 174.049 10.2652 174.049 9.22519C174.049 8.1852 174.249 7.28519 174.649 6.48519ZM182.029 8.1852C181.949 7.32519 181.609 6.6452 181.049 6.16519C180.489 5.6852 179.769 5.44519 178.909 5.44519C178.129 5.44519 177.449 5.70519 176.869 6.20519C176.269 6.72519 175.949 7.3852 175.869 8.1852H182.029ZM187.042 10.9652C187.062 11.5852 187.322 12.0852 187.842 12.4652C188.362 12.8652 189.022 13.0452 189.842 13.0452C190.562 13.0452 191.142 12.9052 191.582 12.6252C192.022 12.3452 192.262 11.9652 192.262 11.4852C192.262 11.0852 192.142 10.7852 191.942 10.5652C191.722 10.3652 191.442 10.2052 191.102 10.1252C190.762 10.0452 190.282 9.9652 189.662 9.88519C188.782 9.7852 188.062 9.6452 187.502 9.4652C186.942 9.30519 186.482 9.0252 186.142 8.6452C185.782 8.2652 185.622 7.74519 185.622 7.0652C185.622 6.4652 185.782 5.94519 186.122 5.46519C186.462 5.00519 186.922 4.64519 187.522 4.3852C188.102 4.12519 188.762 3.98519 189.502 3.98519C190.702 3.98519 191.662 4.26519 192.422 4.82519C193.182 5.38519 193.602 6.1852 193.682 7.22519H192.042C191.962 6.7052 191.702 6.26519 191.262 5.90519C190.802 5.56519 190.242 5.38519 189.562 5.38519C188.862 5.38519 188.302 5.5452 187.882 5.8252C187.442 6.1052 187.242 6.48519 187.242 6.94519C187.242 7.3052 187.342 7.56519 187.542 7.74519C187.742 7.9452 187.982 8.06519 188.302 8.1252C188.622 8.20519 189.102 8.2652 189.742 8.34519C190.622 8.4652 191.362 8.6052 191.942 8.7852C192.522 8.98519 192.982 9.2852 193.342 9.6852C193.702 10.1052 193.882 10.6652 193.882 11.3652C193.882 11.9852 193.702 12.5252 193.342 12.9852C192.982 13.4652 192.482 13.8252 191.882 14.0652C191.262 14.3252 190.582 14.4452 189.842 14.4452C188.502 14.4452 187.422 14.1452 186.622 13.5252C185.822 12.9252 185.402 12.0652 185.402 10.9652H187.042ZM210.157 4.12519V14.3252H208.737L208.517 12.9652C207.737 13.9652 206.657 14.4452 205.257 14.4452C204.037 14.4452 203.057 14.0852 202.337 13.3252C201.597 12.5852 201.237 11.4052 201.237 9.8052V4.12519H202.877V9.7052C202.877 10.7652 203.097 11.5652 203.557 12.1252C204.017 12.6852 204.677 12.9452 205.537 12.9452C206.457 12.9452 207.197 12.6252 207.717 11.9452C208.237 11.2852 208.517 10.3852 208.517 9.22519V4.12519H210.157ZM213.872 10.9652C213.892 11.5852 214.152 12.0852 214.672 12.4652C215.192 12.8652 215.852 13.0452 216.672 13.0452C217.392 13.0452 217.972 12.9052 218.412 12.6252C218.852 12.3452 219.092 11.9652 219.092 11.4852C219.092 11.0852 218.972 10.7852 218.772 10.5652C218.552 10.3652 218.272 10.2052 217.932 10.1252C217.592 10.0452 217.112 9.9652 216.492 9.88519C215.612 9.7852 214.892 9.6452 214.332 9.4652C213.772 9.30519 213.312 9.0252 212.972 8.6452C212.612 8.2652 212.452 7.74519 212.452 7.0652C212.452 6.4652 212.612 5.94519 212.952 5.46519C213.292 5.00519 213.752 4.64519 214.352 4.3852C214.932 4.12519 215.592 3.98519 216.332 3.98519C217.532 3.98519 218.492 4.26519 219.252 4.82519C220.012 5.38519 220.432 6.1852 220.512 7.22519H218.872C218.792 6.7052 218.532 6.26519 218.092 5.90519C217.632 5.56519 217.072 5.38519 216.392 5.38519C215.692 5.38519 215.132 5.5452 214.712 5.8252C214.272 6.1052 214.072 6.48519 214.072 6.94519C214.072 7.3052 214.172 7.56519 214.372 7.74519C214.572 7.9452 214.812 8.06519 215.132 8.1252C215.452 8.20519 215.932 8.2652 216.572 8.34519C217.452 8.4652 218.192 8.6052 218.772 8.7852C219.352 8.98519 219.812 9.2852 220.172 9.6852C220.532 10.1052 220.712 10.6652 220.712 11.3652C220.712 11.9852 220.532 12.5252 220.172 12.9852C219.812 13.4652 219.312 13.8252 218.712 14.0652C218.092 14.3252 217.412 14.4452 216.672 14.4452C215.332 14.4452 214.252 14.1452 213.452 13.5252C212.652 12.9252 212.232 12.0652 212.232 10.9652H213.872ZM224.353 0.485195C224.553 0.685194 224.653 0.945195 224.653 1.24519C224.653 1.5652 224.553 1.80519 224.353 2.00519C224.153 2.2052 223.893 2.3052 223.593 2.3052C223.273 2.3052 223.033 2.2052 222.833 2.00519C222.633 1.80519 222.533 1.5652 222.533 1.24519C222.533 0.945195 222.633 0.685194 222.833 0.485195C223.033 0.285195 223.273 0.185195 223.593 0.185195C223.893 0.185195 224.153 0.285195 224.353 0.485195ZM222.773 4.12519H224.413V14.3252H222.773V4.12519ZM234.839 5.1252C235.599 5.88519 235.979 7.04519 235.979 8.6452V14.3252H234.339V8.7452C234.339 7.70519 234.099 6.90519 233.619 6.34519C233.139 5.78519 232.459 5.5052 231.579 5.5052C230.619 5.5052 229.859 5.84519 229.319 6.50519C228.759 7.18519 228.499 8.0852 228.499 9.22519V14.3252H226.859V4.12519H228.279L228.499 5.5052C229.259 4.50519 230.379 4.00519 231.859 4.00519C233.099 4.00519 234.079 4.3852 234.839 5.1252ZM247.95 4.12519V13.8252C247.95 16.9052 246.25 18.4452 242.89 18.4452C241.57 18.4452 240.49 18.1452 239.65 17.5452C238.81 16.9452 238.33 16.1052 238.21 14.9852H239.89C240.01 15.6252 240.35 16.1252 240.91 16.4652C241.45 16.8252 242.15 16.9852 243.01 16.9852C245.21 16.9852 246.31 15.9252 246.31 13.7652V12.5652C245.57 13.8252 244.41 14.4452 242.81 14.4452C241.85 14.4452 241.01 14.2452 240.27 13.8252C239.53 13.4252 238.95 12.8252 238.53 12.0252C238.11 11.2452 237.91 10.3052 237.91 9.22519C237.91 8.20519 238.11 7.3052 238.53 6.50519C238.95 5.7252 239.53 5.10519 240.29 4.6652C241.03 4.2252 241.87 4.00519 242.81 4.00519C243.63 4.00519 244.33 4.18519 244.93 4.50519C245.51 4.82519 245.97 5.28519 246.31 5.88519L246.53 4.12519H247.95ZM244.71 12.5252C245.23 12.2052 245.63 11.7652 245.91 11.2052C246.19 10.6452 246.33 9.9852 246.33 9.26519C246.33 8.5452 246.19 7.88519 245.91 7.3052C245.63 6.72519 245.23 6.26519 244.71 5.94519C244.19 5.62519 243.61 5.46519 242.97 5.46519C241.95 5.46519 241.13 5.8252 240.51 6.5252C239.89 7.22519 239.59 8.1252 239.59 9.22519C239.59 10.3452 239.89 11.2452 240.51 11.9452C241.13 12.6452 241.95 12.9852 242.97 12.9852C243.61 12.9852 244.19 12.8452 244.71 12.5252ZM256.059 0.325194H264.979V1.9252H257.799V6.40519H263.779V8.0052H257.799V12.7252H265.239V14.3252H256.059V0.325194ZM276.399 12.8252V14.3252H275.499C274.839 14.3252 274.379 14.2052 274.099 13.9252C273.819 13.6652 273.659 13.2652 273.659 12.7452C272.859 13.8852 271.719 14.4452 270.239 14.4452C269.099 14.4452 268.179 14.1852 267.499 13.6452C266.819 13.1252 266.479 12.3852 266.479 11.4652C266.479 10.4452 266.819 9.6652 267.519 9.1052C268.219 8.56519 269.239 8.28519 270.579 8.28519H273.579V7.5852C273.579 6.9252 273.339 6.40519 272.899 6.02519C272.459 5.66519 271.839 5.46519 271.039 5.46519C270.319 5.46519 269.739 5.62519 269.279 5.94519C268.819 6.26519 268.539 6.66519 268.439 7.18519H266.799C266.919 6.1852 267.359 5.4052 268.119 4.84519C268.879 4.28519 269.879 4.00519 271.119 4.00519C272.419 4.00519 273.419 4.3252 274.139 4.96519C274.859 5.60519 275.219 6.50519 275.219 7.68519V12.0852C275.219 12.5852 275.439 12.8252 275.899 12.8252H276.399ZM273.579 9.6652H270.419C268.899 9.6652 268.139 10.2452 268.139 11.3652C268.139 11.8852 268.339 12.2852 268.739 12.5852C269.139 12.9052 269.679 13.0452 270.359 13.0452C271.359 13.0452 272.139 12.7852 272.719 12.2652C273.279 11.7452 273.579 11.0452 273.579 10.1652V9.6652ZM277.439 4.12519H285.559V5.3652L279.359 12.8252H285.819V14.3252H277.179V13.0852L283.359 5.62519H277.439V4.12519ZM289.151 0.485195C289.351 0.685194 289.451 0.945195 289.451 1.24519C289.451 1.5652 289.351 1.80519 289.151 2.00519C288.951 2.2052 288.691 2.3052 288.391 2.3052C288.071 2.3052 287.831 2.2052 287.631 2.00519C287.431 1.80519 287.331 1.5652 287.331 1.24519C287.331 0.945195 287.431 0.685194 287.631 0.485195C287.831 0.285195 288.071 0.185195 288.391 0.185195C288.691 0.185195 288.951 0.285195 289.151 0.485195ZM287.571 4.12519H289.211V14.3252H287.571V4.12519ZM299.318 4.6252C300.058 5.04519 300.638 5.6452 301.058 6.4252C301.478 7.22519 301.698 8.1452 301.698 9.22519C301.698 10.2652 301.478 11.1652 301.058 11.9452C300.638 12.7452 300.058 13.3452 299.318 13.7852C298.558 14.2252 297.718 14.4452 296.798 14.4452C295.958 14.4452 295.258 14.3052 294.678 14.0052C294.078 13.7052 293.618 13.2852 293.298 12.7652V18.3252H291.658V4.12519H293.078L293.298 5.76519C294.138 4.60519 295.318 4.00519 296.798 4.00519C297.738 4.00519 298.578 4.2252 299.318 4.6252ZM299.078 11.9452C299.698 11.2452 300.018 10.3452 300.018 9.22519C300.018 8.1252 299.698 7.22519 299.078 6.5252C298.458 5.8252 297.638 5.46519 296.638 5.46519C295.978 5.46519 295.398 5.62519 294.878 5.94519C294.358 6.26519 293.978 6.7052 293.698 7.2652C293.418 7.82519 293.278 8.4652 293.278 9.1852C293.278 9.9252 293.418 10.5852 293.698 11.1652C293.978 11.7452 294.358 12.1852 294.878 12.5052C295.398 12.8252 295.978 12.9852 296.638 12.9852C297.638 12.9852 298.458 12.6452 299.078 11.9452ZM313.312 12.8252V14.3252H312.412C311.752 14.3252 311.292 14.2052 311.012 13.9252C310.732 13.6652 310.572 13.2652 310.572 12.7452C309.772 13.8852 308.632 14.4452 307.152 14.4452C306.012 14.4452 305.092 14.1852 304.412 13.6452C303.732 13.1252 303.392 12.3852 303.392 11.4652C303.392 10.4452 303.732 9.6652 304.432 9.1052C305.132 8.56519 306.152 8.28519 307.492 8.28519H310.492V7.5852C310.492 6.9252 310.252 6.40519 309.812 6.02519C309.372 5.66519 308.752 5.46519 307.952 5.46519C307.232 5.46519 306.652 5.62519 306.192 5.94519C305.732 6.26519 305.452 6.66519 305.352 7.18519H303.712C303.832 6.1852 304.272 5.4052 305.032 4.84519C305.792 4.28519 306.792 4.00519 308.032 4.00519C309.332 4.00519 310.332 4.3252 311.052 4.96519C311.772 5.60519 312.132 6.50519 312.132 7.68519V12.0852C312.132 12.5852 312.352 12.8252 312.812 12.8252H313.312ZM310.492 9.6652H307.332C305.812 9.6652 305.052 10.2452 305.052 11.3652C305.052 11.8852 305.252 12.2852 305.652 12.5852C306.052 12.9052 306.592 13.0452 307.272 13.0452C308.272 13.0452 309.052 12.7852 309.632 12.2652C310.192 11.7452 310.492 11.0452 310.492 10.1652V9.6652ZM315.2 4.12519L318.34 12.4452L321.38 4.12519H323.12L318.42 16.0452C318.18 16.6652 317.96 17.1252 317.78 17.4252C317.58 17.7452 317.36 17.9652 317.08 18.1052C316.8 18.2652 316.42 18.3252 315.96 18.3252H314V16.8252H315.46C315.78 16.8252 316.02 16.8052 316.18 16.7252C316.34 16.6652 316.46 16.5652 316.56 16.4052C316.66 16.2452 316.78 15.9852 316.94 15.6252L317.46 14.4052L313.46 4.12519H315.2ZM324.896 0.565195C325.056 0.365195 325.296 0.245194 325.616 0.245194C325.956 0.245194 326.196 0.365195 326.356 0.565195C326.496 0.785194 326.556 1.04519 326.536 1.3652L326.196 5.18519H325.056L324.696 1.3652C324.656 1.04519 324.736 0.785194 324.896 0.565195ZM329.773 10.9652C329.793 11.5852 330.053 12.0852 330.573 12.4652C331.093 12.8652 331.753 13.0452 332.573 13.0452C333.293 13.0452 333.873 12.9052 334.313 12.6252C334.753 12.3452 334.993 11.9652 334.993 11.4852C334.993 11.0852 334.873 10.7852 334.673 10.5652C334.453 10.3652 334.173 10.2052 333.833 10.1252C333.493 10.0452 333.013 9.9652 332.393 9.88519C331.513 9.7852 330.793 9.6452 330.233 9.4652C329.673 9.30519 329.213 9.0252 328.873 8.6452C328.513 8.2652 328.353 7.74519 328.353 7.0652C328.353 6.4652 328.513 5.94519 328.853 5.46519C329.193 5.00519 329.653 4.64519 330.253 4.3852C330.833 4.12519 331.493 3.98519 332.233 3.98519C333.433 3.98519 334.393 4.26519 335.153 4.82519C335.913 5.38519 336.333 6.1852 336.413 7.22519H334.773C334.693 6.7052 334.433 6.26519 333.993 5.90519C333.533 5.56519 332.973 5.38519 332.293 5.38519C331.593 5.38519 331.033 5.5452 330.613 5.8252C330.173 6.1052 329.973 6.48519 329.973 6.94519C329.973 7.3052 330.073 7.56519 330.273 7.74519C330.473 7.9452 330.713 8.06519 331.033 8.1252C331.353 8.20519 331.833 8.2652 332.473 8.34519C333.353 8.4652 334.093 8.6052 334.673 8.7852C335.253 8.98519 335.713 9.2852 336.073 9.6852C336.433 10.1052 336.613 10.6652 336.613 11.3652C336.613 11.9852 336.433 12.5252 336.073 12.9852C335.713 13.4652 335.213 13.8252 334.613 14.0652C333.993 14.3252 333.313 14.4452 332.573 14.4452C331.233 14.4452 330.153 14.1452 329.353 13.5252C328.553 12.9252 328.133 12.0652 328.133 10.9652H329.773ZM344.348 6.48519C344.748 5.70519 345.328 5.10519 346.068 4.6652C346.788 4.2252 347.628 4.00519 348.588 4.00519C349.508 4.00519 350.348 4.20519 351.068 4.58519C351.788 4.9852 352.348 5.5452 352.768 6.26519C353.168 7.00519 353.388 7.8652 353.428 8.84519C353.428 9.0052 353.408 9.22519 353.388 9.5452H345.468V9.6852C345.488 10.6852 345.788 11.4852 346.388 12.0852C346.968 12.6852 347.728 12.9852 348.688 12.9852C349.408 12.9852 350.028 12.8052 350.548 12.4452C351.068 12.0852 351.408 11.5652 351.588 10.9052H353.248C353.048 11.9452 352.548 12.8052 351.748 13.4652C350.948 14.1252 349.968 14.4452 348.808 14.4452C347.788 14.4452 346.908 14.2452 346.148 13.8052C345.388 13.3652 344.788 12.7652 344.368 11.9652C343.948 11.1652 343.748 10.2652 343.748 9.22519C343.748 8.1852 343.948 7.28519 344.348 6.48519ZM351.728 8.1852C351.648 7.32519 351.308 6.6452 350.748 6.16519C350.188 5.6852 349.468 5.44519 348.608 5.44519C347.828 5.44519 347.148 5.70519 346.568 6.20519C345.968 6.72519 345.648 7.3852 345.568 8.1852H351.728ZM365.039 12.8252V14.3252H364.139C363.479 14.3252 363.019 14.2052 362.739 13.9252C362.459 13.6652 362.299 13.2652 362.299 12.7452C361.499 13.8852 360.359 14.4452 358.879 14.4452C357.739 14.4452 356.819 14.1852 356.139 13.6452C355.459 13.1252 355.119 12.3852 355.119 11.4652C355.119 10.4452 355.459 9.6652 356.159 9.1052C356.859 8.56519 357.879 8.28519 359.219 8.28519H362.219V7.5852C362.219 6.9252 361.979 6.40519 361.539 6.02519C361.099 5.66519 360.479 5.46519 359.679 5.46519C358.959 5.46519 358.379 5.62519 357.919 5.94519C357.459 6.26519 357.179 6.66519 357.079 7.18519H355.439C355.559 6.1852 355.999 5.4052 356.759 4.84519C357.519 4.28519 358.519 4.00519 359.759 4.00519C361.059 4.00519 362.059 4.3252 362.779 4.96519C363.499 5.60519 363.859 6.50519 363.859 7.68519V12.0852C363.859 12.5852 364.079 12.8252 364.539 12.8252H365.039ZM362.219 9.6652H359.059C357.539 9.6652 356.779 10.2452 356.779 11.3652C356.779 11.8852 356.979 12.2852 357.379 12.5852C357.779 12.9052 358.319 13.0452 358.999 13.0452C359.999 13.0452 360.779 12.7852 361.359 12.2652C361.919 11.7452 362.219 11.0452 362.219 10.1652V9.6652ZM367.78 10.9652C367.8 11.5852 368.06 12.0852 368.58 12.4652C369.1 12.8652 369.76 13.0452 370.58 13.0452C371.3 13.0452 371.88 12.9052 372.32 12.6252C372.76 12.3452 373 11.9652 373 11.4852C373 11.0852 372.88 10.7852 372.68 10.5652C372.46 10.3652 372.18 10.2052 371.84 10.1252C371.5 10.0452 371.02 9.9652 370.4 9.88519C369.52 9.7852 368.8 9.6452 368.24 9.4652C367.68 9.30519 367.22 9.0252 366.88 8.6452C366.52 8.2652 366.36 7.74519 366.36 7.0652C366.36 6.4652 366.52 5.94519 366.86 5.46519C367.2 5.00519 367.66 4.64519 368.26 4.3852C368.84 4.12519 369.5 3.98519 370.24 3.98519C371.44 3.98519 372.4 4.26519 373.16 4.82519C373.92 5.38519 374.34 6.1852 374.42 7.22519H372.78C372.7 6.7052 372.44 6.26519 372 5.90519C371.54 5.56519 370.98 5.38519 370.3 5.38519C369.6 5.38519 369.04 5.5452 368.62 5.8252C368.18 6.1052 367.98 6.48519 367.98 6.94519C367.98 7.3052 368.08 7.56519 368.28 7.74519C368.48 7.9452 368.72 8.06519 369.04 8.1252C369.36 8.20519 369.84 8.2652 370.48 8.34519C371.36 8.4652 372.1 8.6052 372.68 8.7852C373.26 8.98519 373.72 9.2852 374.08 9.6852C374.44 10.1052 374.62 10.6652 374.62 11.3652C374.62 11.9852 374.44 12.5252 374.08 12.9852C373.72 13.4652 373.22 13.8252 372.62 14.0652C372 14.3252 371.32 14.4452 370.58 14.4452C369.24 14.4452 368.16 14.1452 367.36 13.5252C366.56 12.9252 366.14 12.0652 366.14 10.9652H367.78ZM377.166 4.12519L380.306 12.4452L383.346 4.12519H385.086L380.386 16.0452C380.146 16.6652 379.926 17.1252 379.746 17.4252C379.546 17.7452 379.326 17.9652 379.046 18.1052C378.766 18.2652 378.386 18.3252 377.926 18.3252H375.966V16.8252H377.426C377.746 16.8252 377.986 16.8052 378.146 16.7252C378.306 16.6652 378.426 16.5652 378.526 16.4052C378.626 16.2452 378.746 15.9852 378.906 15.6252L379.426 14.4052L375.426 4.12519H377.166ZM393.224 10.9652C393.244 11.5852 393.504 12.0852 394.024 12.4652C394.544 12.8652 395.204 13.0452 396.024 13.0452C396.744 13.0452 397.324 12.9052 397.764 12.6252C398.204 12.3452 398.444 11.9652 398.444 11.4852C398.444 11.0852 398.324 10.7852 398.124 10.5652C397.904 10.3652 397.624 10.2052 397.284 10.1252C396.944 10.0452 396.464 9.9652 395.844 9.88519C394.964 9.7852 394.244 9.6452 393.684 9.4652C393.124 9.30519 392.664 9.0252 392.324 8.6452C391.964 8.2652 391.804 7.74519 391.804 7.0652C391.804 6.4652 391.964 5.94519 392.304 5.46519C392.644 5.00519 393.104 4.64519 393.704 4.3852C394.284 4.12519 394.944 3.98519 395.684 3.98519C396.884 3.98519 397.844 4.26519 398.604 4.82519C399.364 5.38519 399.784 6.1852 399.864 7.22519H398.224C398.144 6.7052 397.884 6.26519 397.444 5.90519C396.984 5.56519 396.424 5.38519 395.744 5.38519C395.044 5.38519 394.484 5.5452 394.064 5.8252C393.624 6.1052 393.424 6.48519 393.424 6.94519C393.424 7.3052 393.524 7.56519 393.724 7.74519C393.924 7.9452 394.164 8.06519 394.484 8.1252C394.804 8.20519 395.284 8.2652 395.924 8.34519C396.804 8.4652 397.544 8.6052 398.124 8.7852C398.704 8.98519 399.164 9.2852 399.524 9.6852C399.884 10.1052 400.064 10.6652 400.064 11.3652C400.064 11.9852 399.884 12.5252 399.524 12.9852C399.164 13.4652 398.664 13.8252 398.064 14.0652C397.444 14.3252 396.764 14.4452 396.024 14.4452C394.684 14.4452 393.604 14.1452 392.804 13.5252C392.004 12.9252 391.584 12.0652 391.584 10.9652H393.224ZM404.184 13.7852C403.424 13.3452 402.824 12.7452 402.404 11.9452C401.964 11.1652 401.764 10.2652 401.764 9.22519C401.764 8.20519 401.964 7.3052 402.404 6.50519C402.824 5.7252 403.424 5.10519 404.184 4.6652C404.944 4.2252 405.824 4.00519 406.824 4.00519C407.804 4.00519 408.684 4.2252 409.444 4.6652C410.204 5.10519 410.804 5.7252 411.244 6.50519C411.664 7.3052 411.884 8.20519 411.884 9.22519C411.884 10.2652 411.664 11.1652 411.244 11.9452C410.804 12.7452 410.204 13.3452 409.444 13.7852C408.684 14.2252 407.804 14.4452 406.824 14.4452C405.824 14.4452 404.944 14.2252 404.184 13.7852ZM408.584 12.5052C409.104 12.1852 409.504 11.7452 409.784 11.1652C410.064 10.6052 410.204 9.9452 410.204 9.22519C410.204 8.5052 410.064 7.8652 409.784 7.28519C409.504 6.72519 409.104 6.26519 408.584 5.94519C408.064 5.62519 407.484 5.46519 406.824 5.46519C406.144 5.46519 405.564 5.62519 405.044 5.94519C404.524 6.26519 404.144 6.72519 403.864 7.28519C403.584 7.8652 403.444 8.5052 403.444 9.22519C403.444 9.9452 403.584 10.6052 403.864 11.1652C404.144 11.7452 404.524 12.1852 405.044 12.5052C405.564 12.8252 406.144 12.9852 406.824 12.9852C407.484 12.9852 408.064 12.8252 408.584 12.5052ZM413.965 0.325194H415.605V14.3252H413.965V0.325194ZM426.832 4.12519V14.3252H425.412L425.192 12.9652C424.412 13.9652 423.332 14.4452 421.932 14.4452C420.712 14.4452 419.732 14.0852 419.012 13.3252C418.272 12.5852 417.912 11.4052 417.912 9.8052V4.12519H419.552V9.7052C419.552 10.7652 419.772 11.5652 420.232 12.1252C420.692 12.6852 421.352 12.9452 422.212 12.9452C423.132 12.9452 423.872 12.6252 424.392 11.9452C424.912 11.2852 425.192 10.3852 425.192 9.22519V4.12519H426.832ZM429.986 5.62519H428.146V4.12519H429.986V1.26519H431.626V4.12519H434.206V5.62519H431.626V11.6452C431.626 12.0852 431.706 12.3852 431.866 12.5652C432.026 12.7452 432.326 12.8252 432.746 12.8252H434.526V14.3252H432.646C431.686 14.3252 430.986 14.1252 430.586 13.6852C430.186 13.2652 429.986 12.5852 429.986 11.6652V5.62519ZM437.473 0.485195C437.673 0.685194 437.773 0.945195 437.773 1.24519C437.773 1.5652 437.673 1.80519 437.473 2.00519C437.273 2.2052 437.013 2.3052 436.713 2.3052C436.393 2.3052 436.153 2.2052 435.953 2.00519C435.753 1.80519 435.653 1.5652 435.653 1.24519C435.653 0.945195 435.753 0.685194 435.953 0.485195C436.153 0.285195 436.393 0.185195 436.713 0.185195C437.013 0.185195 437.273 0.285195 437.473 0.485195ZM435.893 4.12519H437.533V14.3252H435.893V4.12519ZM442.04 13.7852C441.28 13.3452 440.68 12.7452 440.26 11.9452C439.82 11.1652 439.62 10.2652 439.62 9.22519C439.62 8.20519 439.82 7.3052 440.26 6.50519C440.68 5.7252 441.28 5.10519 442.04 4.6652C442.8 4.2252 443.68 4.00519 444.68 4.00519C445.66 4.00519 446.54 4.2252 447.3 4.6652C448.06 5.10519 448.66 5.7252 449.1 6.50519C449.52 7.3052 449.74 8.20519 449.74 9.22519C449.74 10.2652 449.52 11.1652 449.1 11.9452C448.66 12.7452 448.06 13.3452 447.3 13.7852C446.54 14.2252 445.66 14.4452 444.68 14.4452C443.68 14.4452 442.8 14.2252 442.04 13.7852ZM446.44 12.5052C446.96 12.1852 447.36 11.7452 447.64 11.1652C447.92 10.6052 448.06 9.9452 448.06 9.22519C448.06 8.5052 447.92 7.8652 447.64 7.28519C447.36 6.72519 446.96 6.26519 446.44 5.94519C445.92 5.62519 445.34 5.46519 444.68 5.46519C444 5.46519 443.42 5.62519 442.9 5.94519C442.38 6.26519 442 6.72519 441.72 7.28519C441.44 7.8652 441.3 8.5052 441.3 9.22519C441.3 9.9452 441.44 10.6052 441.72 11.1652C442 11.7452 442.38 12.1852 442.9 12.5052C443.42 12.8252 444 12.9852 444.68 12.9852C445.34 12.9852 445.92 12.8252 446.44 12.5052ZM459.8 5.1252C460.56 5.88519 460.94 7.04519 460.94 8.6452V14.3252H459.3V8.7452C459.3 7.70519 459.06 6.90519 458.58 6.34519C458.1 5.78519 457.42 5.5052 456.54 5.5052C455.58 5.5052 454.82 5.84519 454.28 6.50519C453.72 7.18519 453.46 8.0852 453.46 9.22519V14.3252H451.82V4.12519H453.24L453.46 5.5052C454.22 4.50519 455.34 4.00519 456.82 4.00519C458.06 4.00519 459.04 4.3852 459.8 5.1252ZM463.351 12.5252C463.551 12.3252 463.831 12.2052 464.171 12.2052C464.491 12.2052 464.771 12.3252 464.991 12.5252C465.191 12.7252 465.311 13.0052 465.311 13.3252C465.311 13.6652 465.191 13.9452 464.991 14.1452C464.771 14.3452 464.491 14.4452 464.171 14.4452C463.831 14.4452 463.551 14.3452 463.351 14.1452C463.131 13.9452 463.031 13.6652 463.031 13.3252C463.031 13.0052 463.131 12.7252 463.351 12.5252Z" fill="#292A29"/>
</svg>
