<svg width="376" height="68" viewBox="0 0 376 68" fill="none" xmlns="http://www.w3.org/2000/svg">
<path d="M65.396 34V24.2H67.006V32.572H71.22V34H65.396ZM73.5522 33.636C72.9922 33.328 72.5722 32.908 72.2642 32.348C71.9562 31.788 71.8162 31.144 71.8162 30.416C71.8162 29.702 71.9562 29.072 72.2642 28.512C72.5722 27.952 72.9922 27.518 73.5522 27.21C74.1122 26.902 74.7422 26.748 75.4702 26.748C76.1842 26.748 76.8142 26.902 77.3742 27.21C77.9342 27.518 78.3542 27.952 78.6622 28.512C78.9702 29.072 79.1242 29.702 79.1242 30.416C79.1242 31.144 78.9702 31.788 78.6622 32.348C78.3542 32.908 77.9342 33.328 77.3742 33.636C76.8142 33.944 76.1842 34.084 75.4702 34.084C74.7422 34.084 74.1122 33.944 73.5522 33.636ZM76.9962 32.138C77.3882 31.69 77.5842 31.116 77.5842 30.416C77.5842 29.716 77.3882 29.156 76.9962 28.708C76.6042 28.26 76.1002 28.036 75.4702 28.036C74.8262 28.036 74.3222 28.26 73.9442 28.708C73.5522 29.156 73.3702 29.716 73.3702 30.416C73.3702 31.116 73.5522 31.69 73.9442 32.138C74.3222 32.586 74.8262 32.796 75.4702 32.796C76.1002 32.796 76.6042 32.586 76.9962 32.138ZM87.398 26.832V33.706C87.398 34.714 87.09 35.498 86.502 36.058C85.9 36.618 84.976 36.884 83.73 36.884C82.75 36.884 81.966 36.674 81.364 36.24C80.748 35.806 80.412 35.19 80.356 34.392H81.896C81.98 34.798 82.204 35.106 82.54 35.33C82.876 35.554 83.31 35.652 83.842 35.652C85.214 35.652 85.9 34.994 85.9 33.65V32.852C85.368 33.636 84.598 34.028 83.562 34.028C82.904 34.028 82.316 33.888 81.812 33.594C81.294 33.3 80.888 32.88 80.608 32.334C80.314 31.788 80.174 31.144 80.174 30.388C80.174 29.674 80.314 29.044 80.608 28.484C80.902 27.938 81.308 27.518 81.826 27.21C82.33 26.902 82.918 26.748 83.562 26.748C84.094 26.748 84.57 26.86 84.962 27.07C85.354 27.294 85.662 27.588 85.914 27.952L86.082 26.832H87.398ZM85.326 32.11C85.704 31.676 85.9 31.116 85.9 30.416C85.9 29.716 85.704 29.142 85.326 28.694C84.934 28.246 84.43 28.022 83.814 28.022C83.184 28.022 82.68 28.246 82.302 28.68C81.91 29.128 81.728 29.688 81.728 30.388C81.728 31.088 81.91 31.662 82.302 32.096C82.68 32.544 83.184 32.754 83.814 32.754C84.43 32.754 84.934 32.544 85.326 32.11ZM94.0716 24.228C94.2396 24.396 94.3376 24.62 94.3376 24.872C94.3376 25.138 94.2396 25.362 94.0716 25.53C93.8896 25.698 93.6656 25.782 93.4136 25.782C93.1476 25.782 92.9236 25.698 92.7556 25.53C92.5736 25.362 92.4896 25.138 92.4896 24.872C92.4896 24.62 92.5736 24.396 92.7556 24.228C92.9236 24.06 93.1476 23.962 93.4136 23.962C93.6656 23.962 93.8896 24.06 94.0716 24.228ZM92.6576 26.832H94.1696V34H92.6576V26.832ZM101.604 27.532C102.136 28.064 102.416 28.904 102.416 30.052V34H100.89V30.136C100.89 29.464 100.736 28.946 100.456 28.582C100.162 28.232 99.7418 28.05 99.1818 28.05C98.5798 28.05 98.1038 28.26 97.7678 28.68C97.4318 29.1 97.2638 29.66 97.2638 30.388V34H95.7518V26.832H97.0678L97.2358 27.77C97.7678 27.098 98.5378 26.748 99.5318 26.748C100.372 26.748 101.072 27.014 101.604 27.532Z" fill="#11453B"/>
<rect x="0.5" y="8.5" width="167" height="39" rx="19.5" stroke="#11453B"/>
<g filter="url(#filter0_d_4_4135)">
<rect x="192" y="8" width="168" height="40" rx="20" fill="#11453B"/>
<path d="M253.76 24.2C254.432 24.2 255.034 24.34 255.552 24.592C256.056 24.844 256.462 25.208 256.742 25.684C257.022 26.16 257.176 26.706 257.176 27.322C257.176 27.98 256.994 28.554 256.658 29.044C256.308 29.548 255.846 29.898 255.272 30.094L257.344 34H255.552L253.69 30.444H251.506V34H249.896V24.2H253.76ZM251.506 29.044H253.634C254.208 29.044 254.67 28.89 255.006 28.582C255.342 28.274 255.524 27.854 255.524 27.322C255.524 26.804 255.342 26.384 255.006 26.076C254.67 25.768 254.208 25.6 253.634 25.6H251.506V29.044ZM258.418 28.498C258.712 27.938 259.118 27.518 259.65 27.21C260.182 26.902 260.784 26.748 261.47 26.748C262.156 26.748 262.758 26.888 263.29 27.168C263.822 27.448 264.228 27.854 264.536 28.358C264.844 28.876 264.998 29.478 265.012 30.164C265.012 30.36 264.998 30.542 264.97 30.738H259.566V30.822C259.594 31.452 259.79 31.942 260.154 32.306C260.504 32.67 260.98 32.852 261.568 32.852C262.03 32.852 262.422 32.754 262.744 32.53C263.052 32.306 263.262 31.998 263.374 31.592H264.886C264.746 32.32 264.396 32.922 263.822 33.384C263.248 33.86 262.534 34.084 261.68 34.084C260.924 34.084 260.28 33.944 259.72 33.636C259.16 33.328 258.74 32.908 258.432 32.348C258.124 31.802 257.984 31.158 257.984 30.43C257.984 29.702 258.124 29.058 258.418 28.498ZM263.472 29.632C263.402 29.114 263.192 28.708 262.842 28.414C262.492 28.12 262.058 27.966 261.526 27.966C261.022 27.966 260.602 28.12 260.238 28.428C259.874 28.736 259.678 29.128 259.622 29.632H263.472ZM273.293 26.832V33.706C273.293 34.714 272.985 35.498 272.397 36.058C271.795 36.618 270.871 36.884 269.625 36.884C268.645 36.884 267.861 36.674 267.259 36.24C266.643 35.806 266.307 35.19 266.251 34.392H267.791C267.875 34.798 268.099 35.106 268.435 35.33C268.771 35.554 269.205 35.652 269.737 35.652C271.109 35.652 271.795 34.994 271.795 33.65V32.852C271.263 33.636 270.493 34.028 269.457 34.028C268.799 34.028 268.211 33.888 267.707 33.594C267.189 33.3 266.783 32.88 266.503 32.334C266.209 31.788 266.069 31.144 266.069 30.388C266.069 29.674 266.209 29.044 266.503 28.484C266.797 27.938 267.203 27.518 267.721 27.21C268.225 26.902 268.813 26.748 269.457 26.748C269.989 26.748 270.465 26.86 270.857 27.07C271.249 27.294 271.557 27.588 271.809 27.952L271.977 26.832H273.293ZM271.221 32.11C271.599 31.676 271.795 31.116 271.795 30.416C271.795 29.716 271.599 29.142 271.221 28.694C270.829 28.246 270.325 28.022 269.709 28.022C269.079 28.022 268.575 28.246 268.197 28.68C267.805 29.128 267.623 29.688 267.623 30.388C267.623 31.088 267.805 31.662 268.197 32.096C268.575 32.544 269.079 32.754 269.709 32.754C270.325 32.754 270.829 32.544 271.221 32.11ZM276.284 24.228C276.452 24.396 276.55 24.62 276.55 24.872C276.55 25.138 276.452 25.362 276.284 25.53C276.102 25.698 275.878 25.782 275.626 25.782C275.36 25.782 275.136 25.698 274.968 25.53C274.786 25.362 274.702 25.138 274.702 24.872C274.702 24.62 274.786 24.396 274.968 24.228C275.136 24.06 275.36 23.962 275.626 23.962C275.878 23.962 276.102 24.06 276.284 24.228ZM274.87 26.832H276.382V34H274.87V26.832ZM279.168 31.634C279.196 32.012 279.364 32.32 279.686 32.558C280.008 32.796 280.428 32.908 280.946 32.908C281.394 32.908 281.772 32.824 282.052 32.656C282.332 32.488 282.486 32.25 282.486 31.956C282.486 31.718 282.416 31.536 282.29 31.41C282.15 31.298 281.982 31.214 281.758 31.158C281.534 31.102 281.198 31.046 280.75 30.99C280.12 30.92 279.602 30.822 279.196 30.696C278.79 30.57 278.468 30.374 278.216 30.094C277.964 29.814 277.852 29.45 277.852 28.974C277.852 28.54 277.964 28.148 278.216 27.812C278.468 27.476 278.804 27.21 279.238 27.014C279.672 26.832 280.162 26.734 280.722 26.734C281.618 26.734 282.36 26.944 282.92 27.336C283.48 27.742 283.788 28.302 283.844 29.03H282.374C282.332 28.708 282.164 28.442 281.884 28.232C281.59 28.022 281.226 27.91 280.792 27.91C280.344 27.91 279.994 27.994 279.728 28.162C279.448 28.33 279.322 28.568 279.322 28.848C279.322 29.072 279.378 29.226 279.518 29.338C279.658 29.45 279.826 29.52 280.036 29.562C280.232 29.604 280.568 29.646 281.03 29.702C281.646 29.772 282.164 29.87 282.584 30.01C283.004 30.15 283.34 30.36 283.592 30.654C283.844 30.948 283.97 31.34 283.97 31.844C283.97 32.292 283.83 32.698 283.578 33.034C283.312 33.37 282.948 33.636 282.5 33.818C282.038 34 281.52 34.084 280.96 34.084C279.994 34.084 279.21 33.874 278.622 33.44C278.034 33.006 277.726 32.404 277.712 31.634H279.168ZM285.759 28.162H284.513V26.832H285.759V24.83H287.285V26.832H289.007V28.162H287.285V31.9C287.285 32.18 287.341 32.39 287.453 32.502C287.565 32.614 287.747 32.67 288.027 32.67H289.175V34H287.719C287.033 34 286.529 33.846 286.221 33.524C285.913 33.216 285.759 32.726 285.759 32.054V28.162ZM290.104 28.498C290.398 27.938 290.804 27.518 291.336 27.21C291.868 26.902 292.47 26.748 293.156 26.748C293.842 26.748 294.444 26.888 294.976 27.168C295.508 27.448 295.914 27.854 296.222 28.358C296.53 28.876 296.684 29.478 296.698 30.164C296.698 30.36 296.684 30.542 296.656 30.738H291.252V30.822C291.28 31.452 291.476 31.942 291.84 32.306C292.19 32.67 292.666 32.852 293.254 32.852C293.716 32.852 294.108 32.754 294.43 32.53C294.738 32.306 294.948 31.998 295.06 31.592H296.572C296.432 32.32 296.082 32.922 295.508 33.384C294.934 33.86 294.22 34.084 293.366 34.084C292.61 34.084 291.966 33.944 291.406 33.636C290.846 33.328 290.426 32.908 290.118 32.348C289.81 31.802 289.67 31.158 289.67 30.43C289.67 29.702 289.81 29.058 290.104 28.498ZM295.158 29.632C295.088 29.114 294.878 28.708 294.528 28.414C294.178 28.12 293.744 27.966 293.212 27.966C292.708 27.966 292.288 28.12 291.924 28.428C291.56 28.736 291.364 29.128 291.308 29.632H295.158ZM301.982 26.832V28.246H301.31C300.68 28.246 300.232 28.456 299.952 28.862C299.672 29.268 299.532 29.786 299.532 30.402V34H298.02V26.832H299.364L299.532 27.91C299.728 27.574 299.994 27.322 300.33 27.126C300.652 26.93 301.086 26.832 301.646 26.832H301.982Z" fill="white"/>
</g>
<defs>
<filter id="filter0_d_4_4135" x="176" y="0" width="200" height="72" filterUnits="userSpaceOnUse" color-interpolation-filters="sRGB">
<feFlood flood-opacity="0" result="BackgroundImageFix"/>
<feColorMatrix in="SourceAlpha" type="matrix" values="0 0 0 0 0 0 0 0 0 0 0 0 0 0 0 0 0 0 127 0" result="hardAlpha"/>
<feOffset dy="8"/>
<feGaussianBlur stdDeviation="8"/>
<feColorMatrix type="matrix" values="0 0 0 0 0.0666667 0 0 0 0 0.270588 0 0 0 0 0.231373 0 0 0 0.2 0"/>
<feBlend mode="normal" in2="BackgroundImageFix" result="effect1_dropShadow_4_4135"/>
<feBlend mode="normal" in="SourceGraphic" in2="effect1_dropShadow_4_4135" result="shape"/>
</filter>
</defs>
</svg>
