<svg width="432" height="240" viewBox="0 0 432 240" fill="none" xmlns="http://www.w3.org/2000/svg">
<g filter="url(#filter0_d_4707_469)">
<g filter="url(#filter1_d_4707_469)">
<rect x="48.0167" y="28" width="64" height="64" rx="16" fill="#11453B"/>
<path d="M84.0687 48.8V74H78.8847V57.908C78.5607 58.052 78.0927 58.088 77.5167 58.088H73.3047V53.804H77.0847C77.6967 53.804 78.1647 53.588 78.4887 53.084C78.8127 52.58 78.9927 51.968 78.9927 51.248V48.8H84.0687Z" fill="white"/>
</g>
<path d="M49.4767 117.26C50.0367 116.18 50.8167 115.36 51.8567 114.76C52.8967 114.18 54.1167 113.88 55.5167 113.88C56.5967 113.88 57.5767 114.1 58.4567 114.52C59.3167 114.96 60.0167 115.56 60.5567 116.32C61.0767 117.1 61.3967 118 61.5167 119H58.5167C58.3367 118.2 57.9767 117.58 57.4167 117.12C56.8567 116.66 56.1767 116.42 55.3567 116.42C54.2367 116.42 53.3367 116.84 52.6967 117.68C52.0367 118.52 51.7167 119.64 51.7167 121C51.7167 122.36 52.0367 123.48 52.6967 124.32C53.3367 125.16 54.2367 125.58 55.3567 125.58C56.1767 125.58 56.8567 125.36 57.4167 124.9C57.9767 124.44 58.3367 123.8 58.5167 123H61.5167C61.3967 124.02 61.0767 124.92 60.5567 125.68C60.0167 126.46 59.3167 127.06 58.4567 127.48C57.5767 127.92 56.5967 128.12 55.5167 128.12C54.1167 128.12 52.8967 127.84 51.8567 127.24C50.8167 126.66 50.0367 125.84 49.4767 124.76C48.9167 123.68 48.6567 122.44 48.6567 121C48.6567 119.58 48.9167 118.34 49.4767 117.26ZM69.4997 117.72V120.28H68.3797C67.5797 120.28 66.9797 120.52 66.6197 121C66.2397 121.48 66.0597 122.14 66.0597 122.96V128H63.2397V117.72H65.7997L66.0597 119.26C66.3597 118.76 66.7397 118.38 67.1997 118.12C67.6397 117.86 68.2597 117.72 69.0197 117.72H69.4997ZM70.8672 120.1C71.3072 119.3 71.9072 118.7 72.6872 118.26C73.4672 117.82 74.3672 117.6 75.4072 117.6C76.4472 117.6 77.3472 117.82 78.1472 118.22C78.9472 118.62 79.5672 119.2 80.0072 119.94C80.4472 120.68 80.6872 121.54 80.7072 122.54C80.7072 122.9 80.6672 123.22 80.6272 123.5H73.1672V123.58C73.2272 124.34 73.4672 124.92 73.8872 125.34C74.2872 125.78 74.8672 125.98 75.5872 125.98C76.1472 125.98 76.6272 125.86 77.0072 125.62C77.3872 125.38 77.6472 125 77.7672 124.52H80.5472C80.4272 125.2 80.1672 125.82 79.7672 126.36C79.3472 126.92 78.8072 127.34 78.1272 127.66C77.4472 127.98 76.6672 128.12 75.7872 128.12C74.6272 128.12 73.6472 127.92 72.8072 127.48C71.9672 127.06 71.3272 126.46 70.8872 125.66C70.4472 124.86 70.2272 123.94 70.2272 122.88C70.2272 121.82 70.4272 120.9 70.8672 120.1ZM77.8872 121.66C77.7872 121.04 77.5272 120.56 77.1072 120.22C76.6872 119.88 76.1672 119.7 75.5272 119.7C74.9072 119.7 74.3872 119.88 73.9672 120.24C73.5472 120.6 73.3072 121.06 73.2272 121.66H77.8872ZM92.5683 125.62V128H91.1283C89.8283 128 89.1883 127.44 89.2283 126.32C88.8483 126.92 88.3883 127.36 87.8483 127.66C87.2883 127.98 86.6283 128.12 85.8683 128.12C84.7083 128.12 83.7883 127.86 83.0883 127.34C82.3883 126.82 82.0483 126.06 82.0483 125.1C82.0483 124.02 82.4483 123.18 83.2483 122.58C84.0483 121.98 85.2283 121.68 86.7683 121.68H88.8083V121.18C88.8083 120.72 88.6283 120.36 88.2883 120.08C87.9283 119.8 87.4683 119.66 86.8883 119.66C86.3683 119.66 85.9283 119.78 85.6083 120C85.2683 120.24 85.0683 120.54 85.0083 120.92H82.2883C82.3683 119.88 82.8483 119.06 83.6883 118.48C84.5283 117.9 85.6283 117.6 87.0283 117.6C88.4683 117.6 89.5883 117.92 90.3883 118.56C91.1883 119.2 91.5883 120.14 91.5883 121.34V124.96C91.5883 125.22 91.6283 125.4 91.7483 125.48C91.8483 125.58 92.0083 125.62 92.2483 125.62H92.5683ZM88.8083 123.56H86.7483C86.1483 123.56 85.6883 123.68 85.3683 123.92C85.0483 124.16 84.8883 124.48 84.8883 124.9C84.8883 125.26 85.0083 125.56 85.2883 125.76C85.5683 125.98 85.9283 126.08 86.4083 126.08C87.1283 126.08 87.7083 125.88 88.1483 125.46C88.5683 125.04 88.7883 124.48 88.8083 123.76V123.56ZM94.5192 120.1H92.8192V117.72H94.5192V114.84H97.3392V117.72H99.6792V120.1H97.3392V124.6C97.3392 124.96 97.3992 125.22 97.5592 125.38C97.7192 125.54 97.9792 125.62 98.3392 125.62H99.7992V128H97.4592C95.4992 128 94.5192 127.02 94.5192 125.06V120.1ZM101.272 120.1C101.712 119.3 102.312 118.7 103.092 118.26C103.872 117.82 104.772 117.6 105.812 117.6C106.852 117.6 107.752 117.82 108.552 118.22C109.352 118.62 109.972 119.2 110.412 119.94C110.852 120.68 111.092 121.54 111.112 122.54C111.112 122.9 111.072 123.22 111.032 123.5H103.572V123.58C103.632 124.34 103.872 124.92 104.292 125.34C104.692 125.78 105.272 125.98 105.992 125.98C106.552 125.98 107.032 125.86 107.412 125.62C107.792 125.38 108.052 125 108.172 124.52H110.952C110.832 125.2 110.572 125.82 110.172 126.36C109.752 126.92 109.212 127.34 108.532 127.66C107.852 127.98 107.072 128.12 106.192 128.12C105.032 128.12 104.052 127.92 103.212 127.48C102.372 127.06 101.732 126.46 101.292 125.66C100.852 124.86 100.632 123.94 100.632 122.88C100.632 121.82 100.832 120.9 101.272 120.1ZM108.292 121.66C108.192 121.04 107.932 120.56 107.512 120.22C107.092 119.88 106.572 119.7 105.932 119.7C105.312 119.7 104.792 119.88 104.372 120.24C103.952 120.6 103.712 121.06 103.632 121.66H108.292ZM120.014 117.72L122.514 125.1L124.954 117.72H127.974L123.414 129.46C123.174 130.1 122.934 130.58 122.734 130.94C122.514 131.3 122.234 131.56 121.914 131.74C121.594 131.92 121.174 132 120.654 132H117.914V129.62H119.474C119.834 129.62 120.094 129.56 120.254 129.44C120.414 129.32 120.554 129.1 120.714 128.74L120.974 128.06L117.014 117.72H120.014ZM130.901 127.48C130.081 127.04 129.441 126.42 129.001 125.62C128.561 124.82 128.341 123.9 128.341 122.86C128.341 121.82 128.561 120.9 129.001 120.1C129.441 119.3 130.081 118.7 130.901 118.26C131.721 117.82 132.681 117.6 133.761 117.6C134.841 117.6 135.781 117.82 136.601 118.26C137.421 118.7 138.061 119.3 138.501 120.1C138.941 120.9 139.181 121.82 139.181 122.86C139.181 123.92 138.941 124.84 138.501 125.64C138.061 126.44 137.421 127.04 136.601 127.48C135.781 127.92 134.841 128.12 133.761 128.12C132.681 128.12 131.721 127.92 130.901 127.48ZM135.621 125C136.081 124.46 136.321 123.74 136.321 122.86C136.321 121.98 136.081 121.28 135.621 120.72C135.161 120.18 134.541 119.9 133.761 119.9C132.981 119.9 132.361 120.18 131.901 120.72C131.441 121.28 131.221 121.98 131.221 122.86C131.221 123.74 131.441 124.46 131.901 125C132.361 125.56 132.981 125.82 133.761 125.82C134.541 125.82 135.161 125.56 135.621 125ZM150.613 117.72V128H148.113L147.853 126.76C147.493 127.2 147.073 127.52 146.593 127.76C146.113 128 145.513 128.12 144.833 128.12C143.633 128.12 142.653 127.76 141.893 127.02C141.133 126.28 140.753 125.04 140.753 123.3V117.72H143.573V122.96C143.573 123.9 143.733 124.6 144.053 125.08C144.373 125.56 144.893 125.78 145.573 125.78C146.273 125.78 146.813 125.52 147.213 125C147.593 124.48 147.793 123.74 147.793 122.78V117.72H150.613ZM159.034 117.72V120.28H157.914C157.114 120.28 156.514 120.52 156.154 121C155.774 121.48 155.594 122.14 155.594 122.96V128H152.774V117.72H155.334L155.594 119.26C155.894 118.76 156.274 118.38 156.734 118.12C157.174 117.86 157.794 117.72 158.554 117.72H159.034ZM166.315 117.72V116.82C166.315 115.92 166.575 115.22 167.095 114.74C167.615 114.26 168.375 114 169.415 114H171.715V116.4H169.975C169.675 116.4 169.455 116.48 169.335 116.6C169.195 116.74 169.135 116.96 169.135 117.24V117.72H171.715V120.1H169.135V128H166.315V120.1H164.615V117.72H166.315ZM179.224 117.72V120.28H178.104C177.304 120.28 176.704 120.52 176.344 121C175.964 121.48 175.784 122.14 175.784 122.96V128H172.964V117.72H175.524L175.784 119.26C176.084 118.76 176.464 118.38 176.924 118.12C177.364 117.86 177.984 117.72 178.744 117.72H179.224ZM180.591 120.1C181.031 119.3 181.631 118.7 182.411 118.26C183.191 117.82 184.091 117.6 185.131 117.6C186.171 117.6 187.071 117.82 187.871 118.22C188.671 118.62 189.291 119.2 189.731 119.94C190.171 120.68 190.411 121.54 190.431 122.54C190.431 122.9 190.391 123.22 190.351 123.5H182.891V123.58C182.951 124.34 183.191 124.92 183.611 125.34C184.011 125.78 184.591 125.98 185.311 125.98C185.871 125.98 186.351 125.86 186.731 125.62C187.111 125.38 187.371 125 187.491 124.52H190.271C190.151 125.2 189.891 125.82 189.491 126.36C189.071 126.92 188.531 127.34 187.851 127.66C187.171 127.98 186.391 128.12 185.511 128.12C184.351 128.12 183.371 127.92 182.531 127.48C181.691 127.06 181.051 126.46 180.611 125.66C180.171 124.86 179.951 123.94 179.951 122.88C179.951 121.82 180.151 120.9 180.591 120.1ZM187.611 121.66C187.511 121.04 187.251 120.56 186.831 120.22C186.411 119.88 185.891 119.7 185.251 119.7C184.631 119.7 184.111 119.88 183.691 120.24C183.271 120.6 183.031 121.06 182.951 121.66H187.611ZM192.413 120.1C192.853 119.3 193.453 118.7 194.233 118.26C195.013 117.82 195.913 117.6 196.953 117.6C197.993 117.6 198.893 117.82 199.693 118.22C200.493 118.62 201.113 119.2 201.553 119.94C201.993 120.68 202.233 121.54 202.253 122.54C202.253 122.9 202.213 123.22 202.173 123.5H194.713V123.58C194.773 124.34 195.013 124.92 195.433 125.34C195.833 125.78 196.413 125.98 197.133 125.98C197.693 125.98 198.173 125.86 198.553 125.62C198.933 125.38 199.193 125 199.313 124.52H202.093C201.973 125.2 201.713 125.82 201.313 126.36C200.893 126.92 200.353 127.34 199.673 127.66C198.993 127.98 198.213 128.12 197.333 128.12C196.173 128.12 195.193 127.92 194.353 127.48C193.513 127.06 192.873 126.46 192.433 125.66C191.993 124.86 191.773 123.94 191.773 122.88C191.773 121.82 191.973 120.9 192.413 120.1ZM199.433 121.66C199.333 121.04 199.073 120.56 198.653 120.22C198.233 119.88 197.713 119.7 197.073 119.7C196.453 119.7 195.933 119.88 195.513 120.24C195.093 120.6 194.853 121.06 194.773 121.66H199.433ZM219.275 125.62V128H217.835C216.535 128 215.895 127.44 215.935 126.32C215.555 126.92 215.095 127.36 214.555 127.66C213.995 127.98 213.335 128.12 212.575 128.12C211.415 128.12 210.495 127.86 209.795 127.34C209.095 126.82 208.755 126.06 208.755 125.1C208.755 124.02 209.155 123.18 209.955 122.58C210.755 121.98 211.935 121.68 213.475 121.68H215.515V121.18C215.515 120.72 215.335 120.36 214.995 120.08C214.635 119.8 214.175 119.66 213.595 119.66C213.075 119.66 212.635 119.78 212.315 120C211.975 120.24 211.775 120.54 211.715 120.92H208.995C209.075 119.88 209.555 119.06 210.395 118.48C211.235 117.9 212.335 117.6 213.735 117.6C215.175 117.6 216.295 117.92 217.095 118.56C217.895 119.2 218.295 120.14 218.295 121.34V124.96C218.295 125.22 218.335 125.4 218.455 125.48C218.555 125.58 218.715 125.62 218.955 125.62H219.275ZM215.515 123.56H213.455C212.855 123.56 212.395 123.68 212.075 123.92C211.755 124.16 211.595 124.48 211.595 124.9C211.595 125.26 211.715 125.56 211.995 125.76C212.275 125.98 212.635 126.08 213.115 126.08C213.835 126.08 214.415 125.88 214.855 125.46C215.275 125.04 215.495 124.48 215.515 123.76V123.56ZM228.845 127.06C227.965 127.78 226.845 128.12 225.465 128.12C224.385 128.12 223.465 127.92 222.665 127.48C221.865 127.04 221.245 126.42 220.805 125.62C220.365 124.82 220.165 123.9 220.165 122.86C220.165 121.82 220.365 120.9 220.805 120.1C221.245 119.3 221.865 118.7 222.665 118.26C223.465 117.82 224.405 117.6 225.485 117.6C226.845 117.6 227.965 117.96 228.845 118.66C229.705 119.36 230.245 120.32 230.445 121.56H227.525C227.405 121.06 227.165 120.66 226.805 120.36C226.445 120.06 225.985 119.9 225.465 119.9C224.725 119.9 224.145 120.18 223.705 120.72C223.265 121.28 223.045 121.98 223.045 122.86C223.045 123.74 223.265 124.46 223.705 125C224.145 125.56 224.725 125.82 225.465 125.82C226.005 125.82 226.465 125.68 226.825 125.36C227.185 125.06 227.425 124.64 227.545 124.1H230.445C230.245 125.36 229.725 126.34 228.845 127.06ZM240.315 127.06C239.435 127.78 238.315 128.12 236.935 128.12C235.855 128.12 234.935 127.92 234.135 127.48C233.335 127.04 232.715 126.42 232.275 125.62C231.835 124.82 231.635 123.9 231.635 122.86C231.635 121.82 231.835 120.9 232.275 120.1C232.715 119.3 233.335 118.7 234.135 118.26C234.935 117.82 235.875 117.6 236.955 117.6C238.315 117.6 239.435 117.96 240.315 118.66C241.175 119.36 241.715 120.32 241.915 121.56H238.995C238.875 121.06 238.635 120.66 238.275 120.36C237.915 120.06 237.455 119.9 236.935 119.9C236.195 119.9 235.615 120.18 235.175 120.72C234.735 121.28 234.515 121.98 234.515 122.86C234.515 123.74 234.735 124.46 235.175 125C235.615 125.56 236.195 125.82 236.935 125.82C237.475 125.82 237.935 125.68 238.295 125.36C238.655 125.06 238.895 124.64 239.015 124.1H241.915C241.715 125.36 241.195 126.34 240.315 127.06ZM245.665 127.48C244.845 127.04 244.205 126.42 243.765 125.62C243.325 124.82 243.105 123.9 243.105 122.86C243.105 121.82 243.325 120.9 243.765 120.1C244.205 119.3 244.845 118.7 245.665 118.26C246.485 117.82 247.445 117.6 248.525 117.6C249.605 117.6 250.545 117.82 251.365 118.26C252.185 118.7 252.825 119.3 253.265 120.1C253.705 120.9 253.945 121.82 253.945 122.86C253.945 123.92 253.705 124.84 253.265 125.64C252.825 126.44 252.185 127.04 251.365 127.48C250.545 127.92 249.605 128.12 248.525 128.12C247.445 128.12 246.485 127.92 245.665 127.48ZM250.385 125C250.845 124.46 251.085 123.74 251.085 122.86C251.085 121.98 250.845 121.28 250.385 120.72C249.925 120.18 249.305 119.9 248.525 119.9C247.745 119.9 247.125 120.18 246.665 120.72C246.205 121.28 245.985 121.98 245.985 122.86C245.985 123.74 246.205 124.46 246.665 125C247.125 125.56 247.745 125.82 248.525 125.82C249.305 125.82 249.925 125.56 250.385 125ZM265.377 117.72V128H262.877L262.617 126.76C262.257 127.2 261.837 127.52 261.357 127.76C260.877 128 260.277 128.12 259.597 128.12C258.397 128.12 257.417 127.76 256.657 127.02C255.897 126.28 255.517 125.04 255.517 123.3V117.72H258.337V122.96C258.337 123.9 258.497 124.6 258.817 125.08C259.137 125.56 259.657 125.78 260.337 125.78C261.037 125.78 261.577 125.52 261.977 125C262.357 124.48 262.557 123.74 262.557 122.78V117.72H265.377ZM276.397 118.72C277.157 119.48 277.557 120.7 277.557 122.42V128H274.737V122.58C274.737 120.82 274.037 119.92 272.657 119.92C271.917 119.92 271.357 120.18 270.957 120.66C270.557 121.16 270.357 121.86 270.357 122.74V128H267.537V117.72H269.997L270.257 119C270.617 118.56 271.037 118.22 271.557 117.98C272.057 117.74 272.677 117.6 273.437 117.6C274.637 117.6 275.617 117.98 276.397 118.72ZM280.194 120.1H278.494V117.72H280.194V114.84H283.014V117.72H285.354V120.1H283.014V124.6C283.014 124.96 283.074 125.22 283.234 125.38C283.394 125.54 283.654 125.62 284.014 125.62H285.474V128H283.134C281.174 128 280.194 127.02 280.194 125.06V120.1Z" fill="#515251"/>
<path d="M53.9207 166.096C50.7047 166.096 48.6887 163.824 48.6887 160.4C48.6887 157.008 50.7847 154.704 54.0327 154.704C56.5127 154.704 58.3207 156.144 58.7367 158.464H57.2647C56.8327 156.912 55.6487 155.984 53.9687 155.984C51.6167 155.984 50.1127 157.808 50.1127 160.4C50.1127 162.976 51.5527 164.816 53.9047 164.816C55.6327 164.816 56.8327 163.904 57.2487 162.336H58.7207C58.3047 164.656 56.4487 166.096 53.9207 166.096ZM60.2096 166V154.8H61.5216V166H60.2096ZM63.991 156.464C63.511 156.464 63.143 156.112 63.143 155.616C63.143 155.12 63.511 154.768 63.991 154.768C64.471 154.768 64.839 155.12 64.839 155.616C64.839 156.112 64.471 156.464 63.991 156.464ZM63.319 166V157.84H64.631V166H63.319ZM70.0923 166.096C67.7083 166.096 66.1403 164.48 66.1403 161.936C66.1403 159.44 67.7563 157.744 70.1243 157.744C72.1243 157.744 73.3883 158.864 73.7243 160.656H72.3483C72.1083 159.568 71.3083 158.912 70.1083 158.912C68.5403 158.912 67.4843 160.16 67.4843 161.936C67.4843 163.712 68.5403 164.928 70.1083 164.928C71.2763 164.928 72.0763 164.256 72.3323 163.216H73.7243C73.4043 164.976 72.0763 166.096 70.0923 166.096ZM75.1627 166V154.8H76.4747V162.176L80.5707 157.84H82.1867L79.0027 161.216L82.4107 166H80.8267L78.1227 162.16L76.4747 163.856V166H75.1627ZM91.5221 157.744C93.3461 157.744 94.8341 158.752 94.8341 161.456V166H93.5221V161.536C93.5221 159.84 92.7061 158.944 91.2981 158.944C89.7781 158.944 88.8341 160.08 88.8341 161.92V166H87.5221V154.8H88.8341V159.184C89.3141 158.416 90.1461 157.744 91.5221 157.744ZM100.173 166.096C97.7247 166.096 96.1247 164.416 96.1247 161.92C96.1247 159.44 97.6927 157.744 99.9967 157.744C102.301 157.744 103.805 159.2 103.869 161.616C103.869 161.792 103.853 161.984 103.837 162.176H97.5007V162.288C97.5487 163.84 98.5247 164.928 100.077 164.928C101.229 164.928 102.125 164.32 102.397 163.264H103.725C103.405 164.896 102.061 166.096 100.173 166.096ZM97.5807 161.088H102.461C102.333 159.68 101.373 158.896 100.013 158.896C98.8127 158.896 97.7087 159.76 97.5807 161.088ZM109.142 157.84H109.51V159.12H108.854C107.142 159.12 106.678 160.544 106.678 161.84V166H105.366V157.84H106.502L106.678 159.072C107.062 158.448 107.686 157.84 109.142 157.84ZM113.938 166.096C111.49 166.096 109.89 164.416 109.89 161.92C109.89 159.44 111.458 157.744 113.762 157.744C116.066 157.744 117.57 159.2 117.634 161.616C117.634 161.792 117.618 161.984 117.602 162.176H111.266V162.288C111.314 163.84 112.29 164.928 113.842 164.928C114.994 164.928 115.89 164.32 116.162 163.264H117.49C117.17 164.896 115.826 166.096 113.938 166.096ZM111.346 161.088H116.226C116.098 159.68 115.138 158.896 113.778 158.896C112.578 158.896 111.474 159.76 111.346 161.088ZM123.927 163.872V159.04H122.455V157.84H123.927V155.552H125.239V157.84H127.351V159.04H125.239V163.856C125.239 164.544 125.479 164.8 126.183 164.8H127.479V166H126.055C124.487 166 123.927 165.312 123.927 163.872ZM132.173 166.096C129.789 166.096 128.125 164.4 128.125 161.92C128.125 159.44 129.789 157.744 132.173 157.744C134.557 157.744 136.221 159.44 136.221 161.92C136.221 164.4 134.557 166.096 132.173 166.096ZM132.173 164.928C133.789 164.928 134.877 163.664 134.877 161.92C134.877 160.176 133.789 158.912 132.173 158.912C130.557 158.912 129.469 160.176 129.469 161.92C129.469 163.664 130.557 164.928 132.173 164.928ZM141.577 163.312H142.921C142.969 164.272 143.817 164.976 145.177 164.976C146.329 164.976 147.145 164.48 147.145 163.728C147.145 162.704 146.249 162.624 145.033 162.48C143.209 162.256 141.753 161.888 141.753 160.192C141.753 158.704 143.113 157.728 144.953 157.744C146.809 157.76 148.153 158.624 148.281 160.32H146.937C146.841 159.488 146.073 158.864 144.953 158.864C143.817 158.864 143.049 159.344 143.049 160.096C143.049 160.992 143.913 161.104 145.097 161.248C146.953 161.472 148.441 161.824 148.441 163.632C148.441 165.152 146.985 166.096 145.177 166.096C143.065 166.096 141.609 165.104 141.577 163.312ZM153.657 166.096C151.209 166.096 149.609 164.416 149.609 161.92C149.609 159.44 151.177 157.744 153.481 157.744C155.785 157.744 157.289 159.2 157.353 161.616C157.353 161.792 157.337 161.984 157.321 162.176H150.985V162.288C151.033 163.84 152.009 164.928 153.561 164.928C154.713 164.928 155.609 164.32 155.881 163.264H157.209C156.889 164.896 155.545 166.096 153.657 166.096ZM151.065 161.088H155.945C155.817 159.68 154.857 158.896 153.497 158.896C152.297 158.896 151.193 159.76 151.065 161.088ZM159.364 163.872V159.04H157.892V157.84H159.364V155.552H160.676V157.84H162.788V159.04H160.676V163.856C160.676 164.544 160.916 164.8 161.62 164.8H162.916V166H161.492C159.924 166 159.364 165.312 159.364 163.872ZM173.953 161.92V157.84H175.265V166H174.129L173.953 164.912C173.473 165.52 172.689 166.096 171.345 166.096C169.553 166.096 168.129 165.088 168.129 162.384V157.84H169.441V162.304C169.441 164 170.209 164.896 171.569 164.896C173.057 164.896 173.953 163.76 173.953 161.92ZM181.165 157.744C183.421 157.744 185.085 159.264 185.085 161.92C185.085 164.416 183.421 166.096 181.165 166.096C179.789 166.096 178.861 165.536 178.365 164.752V169.2H177.053V157.84H178.189L178.365 159.152C178.909 158.4 179.789 157.744 181.165 157.744ZM181.037 164.928C182.653 164.928 183.741 163.696 183.741 161.92C183.741 160.144 182.653 158.912 181.037 158.912C179.437 158.912 178.349 160.144 178.349 161.888C178.349 163.68 179.437 164.928 181.037 164.928ZM193.14 166.048L189.956 157.84H191.348L193.86 164.352L196.292 157.84H197.684L193.924 167.376C193.412 168.688 193.108 169.2 191.956 169.2H190.388V168H191.556C192.308 168 192.436 167.808 192.74 167.04L193.14 166.048ZM202.063 166.096C199.679 166.096 198.015 164.4 198.015 161.92C198.015 159.44 199.679 157.744 202.063 157.744C204.447 157.744 206.111 159.44 206.111 161.92C206.111 164.4 204.447 166.096 202.063 166.096ZM202.063 164.928C203.679 164.928 204.767 163.664 204.767 161.92C204.767 160.176 203.679 158.912 202.063 158.912C200.447 158.912 199.359 160.176 199.359 161.92C199.359 163.664 200.447 164.928 202.063 164.928ZM213.328 161.92V157.84H214.64V166H213.504L213.328 164.912C212.848 165.52 212.064 166.096 210.72 166.096C208.928 166.096 207.504 165.088 207.504 162.384V157.84H208.816V162.304C208.816 164 209.584 164.896 210.944 164.896C212.432 164.896 213.328 163.76 213.328 161.92ZM220.204 157.84H220.572V159.12H219.916C218.204 159.12 217.74 160.544 217.74 161.84V166H216.428V157.84H217.564L217.74 159.072C218.124 158.448 218.748 157.84 220.204 157.84ZM226.089 166V154.8H233.225V156.08H227.481V159.664H232.265V160.944H227.481V164.72H233.433V166H226.089ZM241.785 164.8H242.201V166H241.481C240.393 166 240.025 165.536 240.009 164.736C239.497 165.472 238.681 166.096 237.273 166.096C235.481 166.096 234.265 165.2 234.265 163.712C234.265 162.08 235.401 161.168 237.545 161.168H239.945V160.608C239.945 159.552 239.193 158.912 237.913 158.912C236.761 158.912 235.993 159.456 235.833 160.288H234.521C234.713 158.688 236.009 157.744 237.977 157.744C240.057 157.744 241.257 158.784 241.257 160.688V164.256C241.257 164.688 241.417 164.8 241.785 164.8ZM239.945 162.672V162.272H237.417C236.249 162.272 235.593 162.704 235.593 163.632C235.593 164.432 236.281 164.976 237.369 164.976C239.001 164.976 239.945 164.032 239.945 162.672ZM242.952 159.04V157.84H249.448V158.832L244.488 164.8H249.656V166H242.744V165.008L247.688 159.04H242.952ZM251.569 156.464C251.089 156.464 250.721 156.112 250.721 155.616C250.721 155.12 251.089 154.768 251.569 154.768C252.049 154.768 252.417 155.12 252.417 155.616C252.417 156.112 252.049 156.464 251.569 156.464ZM250.897 166V157.84H252.209V166H250.897ZM258.118 157.744C260.374 157.744 262.038 159.264 262.038 161.92C262.038 164.416 260.374 166.096 258.118 166.096C256.742 166.096 255.814 165.536 255.318 164.752V169.2H254.006V157.84H255.142L255.318 159.152C255.862 158.4 256.742 157.744 258.118 157.744ZM257.99 164.928C259.606 164.928 260.694 163.696 260.694 161.92C260.694 160.144 259.606 158.912 257.99 158.912C256.39 158.912 255.302 160.144 255.302 161.888C255.302 163.68 256.39 164.928 257.99 164.928ZM270.754 164.8H271.17V166H270.45C269.362 166 268.994 165.536 268.978 164.736C268.466 165.472 267.65 166.096 266.242 166.096C264.45 166.096 263.234 165.2 263.234 163.712C263.234 162.08 264.37 161.168 266.514 161.168H268.914V160.608C268.914 159.552 268.162 158.912 266.882 158.912C265.73 158.912 264.962 159.456 264.802 160.288H263.49C263.682 158.688 264.978 157.744 266.946 157.744C269.026 157.744 270.226 158.784 270.226 160.688V164.256C270.226 164.688 270.386 164.8 270.754 164.8ZM268.914 162.672V162.272H266.386C265.218 162.272 264.562 162.704 264.562 163.632C264.562 164.432 265.25 164.976 266.338 164.976C267.97 164.976 268.914 164.032 268.914 162.672ZM274.249 166.048L271.065 157.84H272.457L274.969 164.352L277.401 157.84H278.793L275.033 167.376C274.521 168.688 274.217 169.2 273.065 169.2H271.497V168H272.665C273.417 168 273.545 167.808 273.849 167.04L274.249 166.048ZM291.176 164.8H291.592V166H290.872C289.784 166 289.416 165.536 289.4 164.736C288.888 165.472 288.072 166.096 286.664 166.096C284.872 166.096 283.656 165.2 283.656 163.712C283.656 162.08 284.792 161.168 286.936 161.168H289.336V160.608C289.336 159.552 288.584 158.912 287.304 158.912C286.152 158.912 285.384 159.456 285.224 160.288H283.912C284.104 158.688 285.4 157.744 287.368 157.744C289.448 157.744 290.648 158.784 290.648 160.688V164.256C290.648 164.688 290.808 164.8 291.176 164.8ZM289.336 162.672V162.272H286.808C285.64 162.272 284.984 162.704 284.984 163.632C284.984 164.432 285.672 164.976 286.76 164.976C288.392 164.976 289.336 164.032 289.336 162.672ZM296.17 166.096C293.786 166.096 292.218 164.48 292.218 161.936C292.218 159.44 293.834 157.744 296.202 157.744C298.202 157.744 299.466 158.864 299.802 160.656H298.426C298.186 159.568 297.386 158.912 296.186 158.912C294.618 158.912 293.562 160.16 293.562 161.936C293.562 163.712 294.618 164.928 296.186 164.928C297.354 164.928 298.154 164.256 298.41 163.216H299.802C299.482 164.976 298.154 166.096 296.17 166.096ZM304.905 166.096C302.521 166.096 300.953 164.48 300.953 161.936C300.953 159.44 302.569 157.744 304.937 157.744C306.937 157.744 308.201 158.864 308.537 160.656H307.161C306.921 159.568 306.121 158.912 304.921 158.912C303.353 158.912 302.297 160.16 302.297 161.936C302.297 163.712 303.353 164.928 304.921 164.928C306.089 164.928 306.889 164.256 307.145 163.216H308.537C308.217 164.976 306.889 166.096 304.905 166.096ZM313.735 166.096C311.351 166.096 309.687 164.4 309.687 161.92C309.687 159.44 311.351 157.744 313.735 157.744C316.119 157.744 317.783 159.44 317.783 161.92C317.783 164.4 316.119 166.096 313.735 166.096ZM313.735 164.928C315.351 164.928 316.439 163.664 316.439 161.92C316.439 160.176 315.351 158.912 313.735 158.912C312.119 158.912 311.031 160.176 311.031 161.92C311.031 163.664 312.119 164.928 313.735 164.928ZM325 161.92V157.84H326.312V166H325.176L325 164.912C324.52 165.52 323.736 166.096 322.392 166.096C320.6 166.096 319.176 165.088 319.176 162.384V157.84H320.488V162.304C320.488 164 321.256 164.896 322.616 164.896C324.104 164.896 325 163.76 325 161.92ZM332.1 157.744C333.94 157.744 335.396 158.752 335.396 161.456V166H334.084V161.536C334.084 159.84 333.3 158.944 331.876 158.944C330.34 158.944 329.412 160.08 329.412 161.92V166H328.1V157.84H329.236L329.412 158.944C329.892 158.32 330.724 157.744 332.1 157.744ZM337.677 163.872V159.04H336.205V157.84H337.677V155.552H338.989V157.84H341.101V159.04H338.989V163.856C338.989 164.544 339.229 164.8 339.933 164.8H341.229V166H339.805C338.237 166 337.677 165.312 337.677 163.872ZM342.268 165.2C342.268 164.656 342.652 164.304 343.18 164.304C343.708 164.304 344.092 164.656 344.092 165.2C344.092 165.744 343.708 166.096 343.18 166.096C342.652 166.096 342.268 165.744 342.268 165.2Z" fill="#515251"/>
</g>
<defs>
<filter id="filter0_d_4707_469" x="0.0167236" y="0" width="456" height="240" filterUnits="userSpaceOnUse" color-interpolation-filters="sRGB">
<feFlood flood-opacity="0" result="BackgroundImageFix"/>
<feColorMatrix in="SourceAlpha" type="matrix" values="0 0 0 0 0 0 0 0 0 0 0 0 0 0 0 0 0 0 127 0" result="hardAlpha"/>
<feOffset dy="20"/>
<feGaussianBlur stdDeviation="24"/>
<feColorMatrix type="matrix" values="0 0 0 0 0.666667 0 0 0 0 0.666667 0 0 0 0 0.666667 0 0 0 0.29 0"/>
<feBlend mode="normal" in2="BackgroundImageFix" result="effect1_dropShadow_4707_469"/>
<feBlend mode="normal" in="SourceGraphic" in2="effect1_dropShadow_4707_469" result="shape"/>
</filter>
<filter id="filter1_d_4707_469" x="0.0167236" y="0" width="160" height="160" filterUnits="userSpaceOnUse" color-interpolation-filters="sRGB">
<feFlood flood-opacity="0" result="BackgroundImageFix"/>
<feColorMatrix in="SourceAlpha" type="matrix" values="0 0 0 0 0 0 0 0 0 0 0 0 0 0 0 0 0 0 127 0" result="hardAlpha"/>
<feOffset dy="20"/>
<feGaussianBlur stdDeviation="24"/>
<feColorMatrix type="matrix" values="0 0 0 0 0.666667 0 0 0 0 0.666667 0 0 0 0 0.666667 0 0 0 0.29 0"/>
<feBlend mode="normal" in2="BackgroundImageFix" result="effect1_dropShadow_4707_469"/>
<feBlend mode="normal" in="SourceGraphic" in2="effect1_dropShadow_4707_469" result="shape"/>
</filter>
</defs>
</svg>
