<svg width="550" height="43" viewBox="0 0 550 43" fill="none" xmlns="http://www.w3.org/2000/svg">
<path d="M15.8975 0.325194H17.7175L20.9975 12.0852L24.4375 0.325194H26.1975L29.5175 12.0852L32.8175 0.325194H34.6175L30.5175 14.3252H28.4375L25.2375 3.2252L22.0575 14.3252H19.9775L15.8975 0.325194ZM35.8428 6.48519C36.2428 5.70519 36.8228 5.10519 37.5628 4.6652C38.2828 4.2252 39.1228 4.00519 40.0828 4.00519C41.0028 4.00519 41.8428 4.20519 42.5628 4.58519C43.2828 4.9852 43.8428 5.5452 44.2628 6.26519C44.6628 7.00519 44.8828 7.8652 44.9228 8.84519C44.9228 9.0052 44.9028 9.22519 44.8828 9.5452H36.9628V9.6852C36.9828 10.6852 37.2828 11.4852 37.8828 12.0852C38.4628 12.6852 39.2228 12.9852 40.1828 12.9852C40.9028 12.9852 41.5228 12.8052 42.0428 12.4452C42.5628 12.0852 42.9028 11.5652 43.0828 10.9052H44.7428C44.5428 11.9452 44.0428 12.8052 43.2428 13.4652C42.4428 14.1252 41.4628 14.4452 40.3028 14.4452C39.2828 14.4452 38.4028 14.2452 37.6428 13.8052C36.8828 13.3652 36.2828 12.7652 35.8628 11.9652C35.4428 11.1652 35.2428 10.2652 35.2428 9.22519C35.2428 8.1852 35.4428 7.28519 35.8428 6.48519ZM43.2228 8.1852C43.1428 7.32519 42.8028 6.6452 42.2428 6.16519C41.6828 5.6852 40.9628 5.44519 40.1028 5.44519C39.3228 5.44519 38.6428 5.70519 38.0628 6.20519C37.4628 6.72519 37.1428 7.3852 37.0628 8.1852H43.2228ZM61.9686 12.8252V14.3252H61.0686C60.4086 14.3252 59.9486 14.2052 59.6686 13.9252C59.3886 13.6652 59.2286 13.2652 59.2286 12.7452C58.4286 13.8852 57.2886 14.4452 55.8086 14.4452C54.6686 14.4452 53.7486 14.1852 53.0686 13.6452C52.3886 13.1252 52.0486 12.3852 52.0486 11.4652C52.0486 10.4452 52.3886 9.6652 53.0886 9.1052C53.7886 8.56519 54.8086 8.28519 56.1486 8.28519H59.1486V7.5852C59.1486 6.9252 58.9086 6.40519 58.4686 6.02519C58.0286 5.66519 57.4086 5.46519 56.6086 5.46519C55.8886 5.46519 55.3086 5.62519 54.8486 5.94519C54.3886 6.26519 54.1086 6.66519 54.0086 7.18519H52.3686C52.4886 6.1852 52.9286 5.4052 53.6886 4.84519C54.4486 4.28519 55.4486 4.00519 56.6886 4.00519C57.9886 4.00519 58.9886 4.3252 59.7086 4.96519C60.4286 5.60519 60.7886 6.50519 60.7886 7.68519V12.0852C60.7886 12.5852 61.0086 12.8252 61.4686 12.8252H61.9686ZM59.1486 9.6652H55.9886C54.4686 9.6652 53.7086 10.2452 53.7086 11.3652C53.7086 11.8852 53.9086 12.2852 54.3086 12.5852C54.7086 12.9052 55.2486 13.0452 55.9286 13.0452C56.9286 13.0452 57.7086 12.7852 58.2886 12.2652C58.8486 11.7452 59.1486 11.0452 59.1486 10.1652V9.6652ZM68.6094 4.12519V5.7252H67.7894C66.8094 5.7252 66.1094 6.06519 65.6894 6.7052C65.2694 7.36519 65.0694 8.16519 65.0694 9.12519V14.3252H63.4294V4.12519H64.8494L65.0694 5.66519C65.3494 5.20519 65.7294 4.82519 66.2094 4.54519C66.6694 4.26519 67.3094 4.12519 68.1494 4.12519H68.6094ZM69.9631 6.48519C70.3631 5.70519 70.9431 5.10519 71.6831 4.6652C72.4031 4.2252 73.2431 4.00519 74.2031 4.00519C75.1231 4.00519 75.9631 4.20519 76.6831 4.58519C77.4031 4.9852 77.9631 5.5452 78.3831 6.26519C78.7831 7.00519 79.0031 7.8652 79.0431 8.84519C79.0431 9.0052 79.0231 9.22519 79.0031 9.5452H71.0831V9.6852C71.1031 10.6852 71.4031 11.4852 72.0031 12.0852C72.5831 12.6852 73.3431 12.9852 74.3031 12.9852C75.0231 12.9852 75.6431 12.8052 76.1631 12.4452C76.6831 12.0852 77.0231 11.5652 77.2031 10.9052H78.8631C78.6631 11.9452 78.1631 12.8052 77.3631 13.4652C76.5631 14.1252 75.5831 14.4452 74.4231 14.4452C73.4031 14.4452 72.5231 14.2452 71.7631 13.8052C71.0031 13.3652 70.4031 12.7652 69.9831 11.9652C69.5631 11.1652 69.3631 10.2652 69.3631 9.22519C69.3631 8.1852 69.5631 7.28519 69.9631 6.48519ZM77.3431 8.1852C77.2631 7.32519 76.9231 6.6452 76.3631 6.16519C75.8031 5.6852 75.0831 5.44519 74.2231 5.44519C73.4431 5.44519 72.7631 5.70519 72.1831 6.20519C71.5831 6.72519 71.2631 7.3852 71.1831 8.1852H77.3431ZM94.5489 5.1252C95.3089 5.88519 95.6889 7.04519 95.6889 8.6452V14.3252H94.0489V8.7452C94.0489 7.70519 93.8089 6.90519 93.3289 6.34519C92.8489 5.78519 92.1489 5.5052 91.2689 5.5052C90.3089 5.5052 89.5689 5.84519 89.0089 6.50519C88.4489 7.18519 88.1889 8.0852 88.1889 9.22519V14.3252H86.5489V0.325194H88.1889V5.80519C88.5089 5.28519 88.9489 4.84519 89.5089 4.50519C90.0689 4.18519 90.7489 4.00519 91.5489 4.00519C92.7889 4.00519 93.7889 4.3852 94.5489 5.1252ZM107.519 12.8252V14.3252H106.619C105.959 14.3252 105.499 14.2052 105.219 13.9252C104.939 13.6652 104.779 13.2652 104.779 12.7452C103.979 13.8852 102.839 14.4452 101.359 14.4452C100.219 14.4452 99.2994 14.1852 98.6194 13.6452C97.9394 13.1252 97.5994 12.3852 97.5994 11.4652C97.5994 10.4452 97.9394 9.6652 98.6394 9.1052C99.3394 8.56519 100.359 8.28519 101.699 8.28519H104.699V7.5852C104.699 6.9252 104.459 6.40519 104.019 6.02519C103.579 5.66519 102.959 5.46519 102.159 5.46519C101.439 5.46519 100.859 5.62519 100.399 5.94519C99.9394 6.26519 99.6594 6.66519 99.5594 7.18519H97.9194C98.0394 6.1852 98.4794 5.4052 99.2394 4.84519C99.9994 4.28519 100.999 4.00519 102.239 4.00519C103.539 4.00519 104.539 4.3252 105.259 4.96519C105.979 5.60519 106.339 6.50519 106.339 7.68519V12.0852C106.339 12.5852 106.559 12.8252 107.019 12.8252H107.519ZM104.699 9.6652H101.539C100.019 9.6652 99.2594 10.2452 99.2594 11.3652C99.2594 11.8852 99.4594 12.2852 99.8594 12.5852C100.259 12.9052 100.799 13.0452 101.479 13.0452C102.479 13.0452 103.259 12.7852 103.839 12.2652C104.399 11.7452 104.699 11.0452 104.699 10.1652V9.6652ZM116.64 4.6252C117.38 5.04519 117.96 5.6452 118.38 6.4252C118.8 7.22519 119.02 8.1452 119.02 9.22519C119.02 10.2652 118.8 11.1652 118.38 11.9452C117.96 12.7452 117.38 13.3452 116.64 13.7852C115.88 14.2252 115.04 14.4452 114.12 14.4452C113.28 14.4452 112.58 14.3052 112 14.0052C111.4 13.7052 110.94 13.2852 110.62 12.7652V18.3252H108.98V4.12519H110.4L110.62 5.76519C111.46 4.60519 112.64 4.00519 114.12 4.00519C115.06 4.00519 115.9 4.2252 116.64 4.6252ZM116.4 11.9452C117.02 11.2452 117.34 10.3452 117.34 9.22519C117.34 8.1252 117.02 7.22519 116.4 6.5252C115.78 5.8252 114.96 5.46519 113.96 5.46519C113.3 5.46519 112.72 5.62519 112.2 5.94519C111.68 6.26519 111.3 6.7052 111.02 7.2652C110.74 7.82519 110.6 8.4652 110.6 9.1852C110.6 9.9252 110.74 10.5852 111.02 11.1652C111.3 11.7452 111.68 12.1852 112.2 12.5052C112.72 12.8252 113.3 12.9852 113.96 12.9852C114.96 12.9852 115.78 12.6452 116.4 11.9452ZM128.754 4.6252C129.494 5.04519 130.074 5.6452 130.494 6.4252C130.914 7.22519 131.134 8.1452 131.134 9.22519C131.134 10.2652 130.914 11.1652 130.494 11.9452C130.074 12.7452 129.494 13.3452 128.754 13.7852C127.994 14.2252 127.154 14.4452 126.234 14.4452C125.394 14.4452 124.694 14.3052 124.114 14.0052C123.514 13.7052 123.054 13.2852 122.734 12.7652V18.3252H121.094V4.12519H122.514L122.734 5.76519C123.574 4.60519 124.754 4.00519 126.234 4.00519C127.174 4.00519 128.014 4.2252 128.754 4.6252ZM128.514 11.9452C129.134 11.2452 129.454 10.3452 129.454 9.22519C129.454 8.1252 129.134 7.22519 128.514 6.5252C127.894 5.8252 127.074 5.46519 126.074 5.46519C125.414 5.46519 124.834 5.62519 124.314 5.94519C123.794 6.26519 123.414 6.7052 123.134 7.2652C122.854 7.82519 122.714 8.4652 122.714 9.1852C122.714 9.9252 122.854 10.5852 123.134 11.1652C123.414 11.7452 123.794 12.1852 124.314 12.5052C124.834 12.8252 125.414 12.9852 126.074 12.9852C127.074 12.9852 127.894 12.6452 128.514 11.9452ZM133.538 4.12519L136.678 12.4452L139.718 4.12519H141.458L136.758 16.0452C136.518 16.6652 136.298 17.1252 136.118 17.4252C135.918 17.7452 135.698 17.9652 135.418 18.1052C135.138 18.2652 134.758 18.3252 134.298 18.3252H132.338V16.8252H133.798C134.118 16.8252 134.358 16.8052 134.518 16.7252C134.678 16.6652 134.798 16.5652 134.898 16.4052C134.998 16.2452 135.118 15.9852 135.278 15.6252L135.798 14.4052L131.798 4.12519H133.538ZM148.995 5.62519H147.155V4.12519H148.995V1.26519H150.635V4.12519H153.215V5.62519H150.635V11.6452C150.635 12.0852 150.715 12.3852 150.875 12.5652C151.035 12.7452 151.335 12.8252 151.755 12.8252H153.535V14.3252H151.655C150.695 14.3252 149.995 14.1252 149.595 13.6852C149.195 13.2652 148.995 12.5852 148.995 11.6652V5.62519ZM156.708 13.7852C155.948 13.3452 155.348 12.7452 154.928 11.9452C154.488 11.1652 154.288 10.2652 154.288 9.22519C154.288 8.20519 154.488 7.3052 154.928 6.50519C155.348 5.7252 155.948 5.10519 156.708 4.6652C157.468 4.2252 158.348 4.00519 159.348 4.00519C160.328 4.00519 161.208 4.2252 161.968 4.6652C162.728 5.10519 163.328 5.7252 163.768 6.50519C164.188 7.3052 164.408 8.20519 164.408 9.22519C164.408 10.2652 164.188 11.1652 163.768 11.9452C163.328 12.7452 162.728 13.3452 161.968 13.7852C161.208 14.2252 160.328 14.4452 159.348 14.4452C158.348 14.4452 157.468 14.2252 156.708 13.7852ZM161.108 12.5052C161.628 12.1852 162.028 11.7452 162.308 11.1652C162.588 10.6052 162.728 9.9452 162.728 9.22519C162.728 8.5052 162.588 7.8652 162.308 7.28519C162.028 6.72519 161.628 6.26519 161.108 5.94519C160.588 5.62519 160.008 5.46519 159.348 5.46519C158.668 5.46519 158.088 5.62519 157.568 5.94519C157.048 6.26519 156.668 6.72519 156.388 7.28519C156.108 7.8652 155.968 8.5052 155.968 9.22519C155.968 9.9452 156.108 10.6052 156.388 11.1652C156.668 11.7452 157.048 12.1852 157.568 12.5052C158.088 12.8252 158.668 12.9852 159.348 12.9852C160.008 12.9852 160.588 12.8252 161.108 12.5052ZM181.463 12.8252V14.3252H180.563C179.903 14.3252 179.443 14.2052 179.163 13.9252C178.883 13.6652 178.723 13.2652 178.723 12.7452C177.923 13.8852 176.783 14.4452 175.303 14.4452C174.163 14.4452 173.243 14.1852 172.563 13.6452C171.883 13.1252 171.543 12.3852 171.543 11.4652C171.543 10.4452 171.883 9.6652 172.583 9.1052C173.283 8.56519 174.303 8.28519 175.643 8.28519H178.643V7.5852C178.643 6.9252 178.403 6.40519 177.963 6.02519C177.523 5.66519 176.903 5.46519 176.103 5.46519C175.383 5.46519 174.803 5.62519 174.343 5.94519C173.883 6.26519 173.603 6.66519 173.503 7.18519H171.863C171.983 6.1852 172.423 5.4052 173.183 4.84519C173.943 4.28519 174.943 4.00519 176.183 4.00519C177.483 4.00519 178.483 4.3252 179.203 4.96519C179.923 5.60519 180.283 6.50519 180.283 7.68519V12.0852C180.283 12.5852 180.503 12.8252 180.963 12.8252H181.463ZM178.643 9.6652H175.483C173.963 9.6652 173.203 10.2452 173.203 11.3652C173.203 11.8852 173.403 12.2852 173.803 12.5852C174.203 12.9052 174.743 13.0452 175.423 13.0452C176.423 13.0452 177.203 12.7852 177.783 12.2652C178.343 11.7452 178.643 11.0452 178.643 10.1652V9.6652ZM190.904 5.1252C191.664 5.88519 192.044 7.04519 192.044 8.6452V14.3252H190.404V8.7452C190.404 7.70519 190.164 6.90519 189.684 6.34519C189.204 5.78519 188.524 5.5052 187.644 5.5052C186.684 5.5052 185.924 5.84519 185.384 6.50519C184.824 7.18519 184.564 8.0852 184.564 9.22519V14.3252H182.924V4.12519H184.344L184.564 5.5052C185.324 4.50519 186.444 4.00519 187.924 4.00519C189.164 4.00519 190.144 4.3852 190.904 5.1252ZM195.615 10.9652C195.635 11.5852 195.895 12.0852 196.415 12.4652C196.935 12.8652 197.595 13.0452 198.415 13.0452C199.135 13.0452 199.715 12.9052 200.155 12.6252C200.595 12.3452 200.835 11.9652 200.835 11.4852C200.835 11.0852 200.715 10.7852 200.515 10.5652C200.295 10.3652 200.015 10.2052 199.675 10.1252C199.335 10.0452 198.855 9.9652 198.235 9.88519C197.355 9.7852 196.635 9.6452 196.075 9.4652C195.515 9.30519 195.055 9.0252 194.715 8.6452C194.355 8.2652 194.195 7.74519 194.195 7.0652C194.195 6.4652 194.355 5.94519 194.695 5.46519C195.035 5.00519 195.495 4.64519 196.095 4.3852C196.675 4.12519 197.335 3.98519 198.075 3.98519C199.275 3.98519 200.235 4.26519 200.995 4.82519C201.755 5.38519 202.175 6.1852 202.255 7.22519H200.615C200.535 6.7052 200.275 6.26519 199.835 5.90519C199.375 5.56519 198.815 5.38519 198.135 5.38519C197.435 5.38519 196.875 5.5452 196.455 5.8252C196.015 6.1052 195.815 6.48519 195.815 6.94519C195.815 7.3052 195.915 7.56519 196.115 7.74519C196.315 7.9452 196.555 8.06519 196.875 8.1252C197.195 8.20519 197.675 8.2652 198.315 8.34519C199.195 8.4652 199.935 8.6052 200.515 8.7852C201.095 8.98519 201.555 9.2852 201.915 9.6852C202.275 10.1052 202.455 10.6652 202.455 11.3652C202.455 11.9852 202.275 12.5252 201.915 12.9852C201.555 13.4652 201.055 13.8252 200.455 14.0652C199.835 14.3252 199.155 14.4452 198.415 14.4452C197.075 14.4452 195.995 14.1452 195.195 13.5252C194.395 12.9252 193.975 12.0652 193.975 10.9652H195.615ZM203.321 4.12519H205.041L207.581 12.4252L210.261 4.12519H211.781L214.321 12.4252L216.981 4.12519H218.641L215.241 14.3252H213.441L210.981 6.7452L208.421 14.3252L206.621 14.3452L203.321 4.12519ZM220.072 6.48519C220.472 5.70519 221.052 5.10519 221.792 4.6652C222.512 4.2252 223.352 4.00519 224.312 4.00519C225.232 4.00519 226.072 4.20519 226.792 4.58519C227.512 4.9852 228.072 5.5452 228.492 6.26519C228.892 7.00519 229.112 7.8652 229.152 8.84519C229.152 9.0052 229.132 9.22519 229.112 9.5452H221.192V9.6852C221.212 10.6852 221.512 11.4852 222.112 12.0852C222.692 12.6852 223.452 12.9852 224.412 12.9852C225.132 12.9852 225.752 12.8052 226.272 12.4452C226.792 12.0852 227.132 11.5652 227.312 10.9052H228.972C228.772 11.9452 228.272 12.8052 227.472 13.4652C226.672 14.1252 225.692 14.4452 224.532 14.4452C223.512 14.4452 222.632 14.2452 221.872 13.8052C221.112 13.3652 220.512 12.7652 220.092 11.9652C219.672 11.1652 219.472 10.2652 219.472 9.22519C219.472 8.1852 219.672 7.28519 220.072 6.48519ZM227.452 8.1852C227.372 7.32519 227.032 6.6452 226.472 6.16519C225.912 5.6852 225.192 5.44519 224.332 5.44519C223.552 5.44519 222.872 5.70519 222.292 6.20519C221.692 6.72519 221.372 7.3852 221.292 8.1852H227.452ZM236.404 4.12519V5.7252H235.584C234.604 5.7252 233.904 6.06519 233.484 6.7052C233.064 7.36519 232.864 8.16519 232.864 9.12519V14.3252H231.224V4.12519H232.644L232.864 5.66519C233.144 5.20519 233.524 4.82519 234.004 4.54519C234.464 4.26519 235.104 4.12519 235.944 4.12519H236.404ZM244.258 4.12519L247.398 12.4452L250.438 4.12519H252.178L247.478 16.0452C247.238 16.6652 247.018 17.1252 246.838 17.4252C246.638 17.7452 246.418 17.9652 246.138 18.1052C245.858 18.2652 245.478 18.3252 245.018 18.3252H243.058V16.8252H244.518C244.838 16.8252 245.078 16.8052 245.238 16.7252C245.398 16.6652 245.518 16.5652 245.618 16.4052C245.718 16.2452 245.838 15.9852 245.998 15.6252L246.518 14.4052L242.518 4.12519H244.258ZM255.271 13.7852C254.511 13.3452 253.911 12.7452 253.491 11.9452C253.051 11.1652 252.851 10.2652 252.851 9.22519C252.851 8.20519 253.051 7.3052 253.491 6.50519C253.911 5.7252 254.511 5.10519 255.271 4.6652C256.031 4.2252 256.911 4.00519 257.911 4.00519C258.891 4.00519 259.771 4.2252 260.531 4.6652C261.291 5.10519 261.891 5.7252 262.331 6.50519C262.751 7.3052 262.971 8.20519 262.971 9.22519C262.971 10.2652 262.751 11.1652 262.331 11.9452C261.891 12.7452 261.291 13.3452 260.531 13.7852C259.771 14.2252 258.891 14.4452 257.911 14.4452C256.911 14.4452 256.031 14.2252 255.271 13.7852ZM259.671 12.5052C260.191 12.1852 260.591 11.7452 260.871 11.1652C261.151 10.6052 261.291 9.9452 261.291 9.22519C261.291 8.5052 261.151 7.8652 260.871 7.28519C260.591 6.72519 260.191 6.26519 259.671 5.94519C259.151 5.62519 258.571 5.46519 257.911 5.46519C257.231 5.46519 256.651 5.62519 256.131 5.94519C255.611 6.26519 255.231 6.72519 254.951 7.28519C254.671 7.8652 254.531 8.5052 254.531 9.22519C254.531 9.9452 254.671 10.6052 254.951 11.1652C255.231 11.7452 255.611 12.1852 256.131 12.5052C256.651 12.8252 257.231 12.9852 257.911 12.9852C258.571 12.9852 259.151 12.8252 259.671 12.5052ZM273.831 4.12519V14.3252H272.411L272.191 12.9652C271.411 13.9652 270.331 14.4452 268.931 14.4452C267.711 14.4452 266.731 14.0852 266.011 13.3252C265.271 12.5852 264.911 11.4052 264.911 9.8052V4.12519H266.551V9.7052C266.551 10.7652 266.771 11.5652 267.231 12.1252C267.691 12.6852 268.351 12.9452 269.211 12.9452C270.131 12.9452 270.871 12.6252 271.391 11.9452C271.911 11.2852 272.191 10.3852 272.191 9.22519V4.12519H273.831ZM281.447 4.12519V5.7252H280.627C279.647 5.7252 278.947 6.06519 278.527 6.7052C278.107 7.36519 277.907 8.16519 277.907 9.12519V14.3252H276.267V4.12519H277.687L277.907 5.66519C278.187 5.20519 278.567 4.82519 279.047 4.54519C279.507 4.26519 280.147 4.12519 280.987 4.12519H281.447ZM298.261 4.12519V18.3252H296.621V12.6852C295.761 13.8652 294.601 14.4452 293.121 14.4452C292.161 14.4452 291.321 14.2452 290.581 13.8252C289.841 13.4252 289.261 12.8252 288.841 12.0252C288.421 11.2452 288.221 10.3052 288.221 9.22519C288.221 8.20519 288.421 7.3052 288.841 6.50519C289.261 5.7252 289.841 5.10519 290.601 4.6652C291.341 4.2252 292.181 4.00519 293.121 4.00519C293.941 4.00519 294.641 4.16519 295.241 4.46519C295.821 4.7652 296.281 5.16519 296.621 5.6852L296.841 4.12519H298.261ZM295.021 12.5252C295.541 12.2052 295.941 11.7652 296.221 11.2052C296.501 10.6452 296.641 9.9852 296.641 9.26519C296.641 8.5452 296.501 7.88519 296.221 7.3052C295.941 6.72519 295.541 6.26519 295.021 5.94519C294.501 5.62519 293.921 5.46519 293.281 5.46519C292.261 5.46519 291.441 5.8252 290.821 6.5252C290.201 7.22519 289.901 8.1252 289.901 9.22519C289.901 10.3452 290.201 11.2452 290.821 11.9452C291.441 12.6452 292.261 12.9852 293.281 12.9852C293.921 12.9852 294.501 12.8452 295.021 12.5252ZM309.475 4.12519V14.3252H308.055L307.835 12.9652C307.055 13.9652 305.975 14.4452 304.575 14.4452C303.355 14.4452 302.375 14.0852 301.655 13.3252C300.915 12.5852 300.555 11.4052 300.555 9.8052V4.12519H302.195V9.7052C302.195 10.7652 302.415 11.5652 302.875 12.1252C303.335 12.6852 303.995 12.9452 304.855 12.9452C305.775 12.9452 306.515 12.6252 307.035 11.9452C307.555 11.2852 307.835 10.3852 307.835 9.22519V4.12519H309.475ZM312.151 6.48519C312.551 5.70519 313.131 5.10519 313.871 4.6652C314.591 4.2252 315.431 4.00519 316.391 4.00519C317.311 4.00519 318.151 4.20519 318.871 4.58519C319.591 4.9852 320.151 5.5452 320.571 6.26519C320.971 7.00519 321.191 7.8652 321.231 8.84519C321.231 9.0052 321.211 9.22519 321.191 9.5452H313.271V9.6852C313.291 10.6852 313.591 11.4852 314.191 12.0852C314.771 12.6852 315.531 12.9852 316.491 12.9852C317.211 12.9852 317.831 12.8052 318.351 12.4452C318.871 12.0852 319.211 11.5652 319.391 10.9052H321.051C320.851 11.9452 320.351 12.8052 319.551 13.4652C318.751 14.1252 317.771 14.4452 316.611 14.4452C315.591 14.4452 314.711 14.2452 313.951 13.8052C313.191 13.3652 312.591 12.7652 312.171 11.9652C311.751 11.1652 311.551 10.2652 311.551 9.22519C311.551 8.1852 311.751 7.28519 312.151 6.48519ZM319.531 8.1852C319.451 7.32519 319.111 6.6452 318.551 6.16519C317.991 5.6852 317.271 5.44519 316.411 5.44519C315.631 5.44519 314.951 5.70519 314.371 6.20519C313.771 6.72519 313.451 7.3852 313.371 8.1852H319.531ZM328.482 4.12519V5.7252H327.662C326.682 5.7252 325.982 6.06519 325.562 6.7052C325.142 7.36519 324.942 8.16519 324.942 9.12519V14.3252H323.302V4.12519H324.722L324.942 5.66519C325.222 5.20519 325.602 4.82519 326.082 4.54519C326.542 4.26519 327.182 4.12519 328.022 4.12519H328.482ZM331.762 0.485195C331.962 0.685194 332.062 0.945195 332.062 1.24519C332.062 1.5652 331.962 1.80519 331.762 2.00519C331.562 2.2052 331.302 2.3052 331.002 2.3052C330.682 2.3052 330.442 2.2052 330.242 2.00519C330.042 1.80519 329.942 1.5652 329.942 1.24519C329.942 0.945195 330.042 0.685194 330.242 0.485195C330.442 0.285195 330.682 0.185195 331.002 0.185195C331.302 0.185195 331.562 0.285195 331.762 0.485195ZM330.182 4.12519H331.822V14.3252H330.182V4.12519ZM334.508 6.48519C334.908 5.70519 335.488 5.10519 336.228 4.6652C336.948 4.2252 337.788 4.00519 338.748 4.00519C339.668 4.00519 340.508 4.20519 341.228 4.58519C341.948 4.9852 342.508 5.5452 342.928 6.26519C343.328 7.00519 343.548 7.8652 343.588 8.84519C343.588 9.0052 343.568 9.22519 343.548 9.5452H335.628V9.6852C335.648 10.6852 335.948 11.4852 336.548 12.0852C337.128 12.6852 337.888 12.9852 338.848 12.9852C339.568 12.9852 340.188 12.8052 340.708 12.4452C341.228 12.0852 341.568 11.5652 341.748 10.9052H343.408C343.208 11.9452 342.708 12.8052 341.908 13.4652C341.108 14.1252 340.128 14.4452 338.968 14.4452C337.948 14.4452 337.068 14.2452 336.308 13.8052C335.548 13.3652 334.948 12.7652 334.528 11.9652C334.108 11.1652 333.908 10.2652 333.908 9.22519C333.908 8.1852 334.108 7.28519 334.508 6.48519ZM341.888 8.1852C341.808 7.32519 341.468 6.6452 340.908 6.16519C340.348 5.6852 339.628 5.44519 338.768 5.44519C337.988 5.44519 337.308 5.70519 336.728 6.20519C336.128 6.72519 335.808 7.3852 335.728 8.1852H341.888ZM346.901 10.9652C346.921 11.5852 347.181 12.0852 347.701 12.4652C348.221 12.8652 348.881 13.0452 349.701 13.0452C350.421 13.0452 351.001 12.9052 351.441 12.6252C351.881 12.3452 352.121 11.9652 352.121 11.4852C352.121 11.0852 352.001 10.7852 351.801 10.5652C351.581 10.3652 351.301 10.2052 350.961 10.1252C350.621 10.0452 350.141 9.9652 349.521 9.88519C348.641 9.7852 347.921 9.6452 347.361 9.4652C346.801 9.30519 346.341 9.0252 346.001 8.6452C345.641 8.2652 345.481 7.74519 345.481 7.0652C345.481 6.4652 345.641 5.94519 345.981 5.46519C346.321 5.00519 346.781 4.64519 347.381 4.3852C347.961 4.12519 348.621 3.98519 349.361 3.98519C350.561 3.98519 351.521 4.26519 352.281 4.82519C353.041 5.38519 353.461 6.1852 353.541 7.22519H351.901C351.821 6.7052 351.561 6.26519 351.121 5.90519C350.661 5.56519 350.101 5.38519 349.421 5.38519C348.721 5.38519 348.161 5.5452 347.741 5.8252C347.301 6.1052 347.101 6.48519 347.101 6.94519C347.101 7.3052 347.201 7.56519 347.401 7.74519C347.601 7.9452 347.841 8.06519 348.161 8.1252C348.481 8.20519 348.961 8.2652 349.601 8.34519C350.481 8.4652 351.221 8.6052 351.801 8.7852C352.381 8.98519 352.841 9.2852 353.201 9.6852C353.561 10.1052 353.741 10.6652 353.741 11.3652C353.741 11.9852 353.561 12.5252 353.201 12.9852C352.841 13.4652 352.341 13.8252 351.741 14.0652C351.121 14.3252 350.441 14.4452 349.701 14.4452C348.361 14.4452 347.281 14.1452 346.481 13.5252C345.681 12.9252 345.261 12.0652 345.261 10.9652H346.901ZM355.765 12.5252C355.965 12.3252 356.245 12.2052 356.585 12.2052C356.905 12.2052 357.185 12.3252 357.405 12.5252C357.605 12.7252 357.725 13.0052 357.725 13.3252C357.725 13.6652 357.605 13.9452 357.405 14.1452C357.185 14.3452 356.905 14.4452 356.585 14.4452C356.245 14.4452 355.965 14.3452 355.765 14.1452C355.545 13.9452 355.445 13.6652 355.445 13.3252C355.445 13.0052 355.545 12.7252 355.765 12.5252ZM371.02 0.325194C371.94 0.325194 372.74 0.505194 373.46 0.865195C374.16 1.22519 374.7 1.72519 375.08 2.36519C375.46 3.00519 375.66 3.7652 375.66 4.6252C375.66 5.5052 375.46 6.26519 375.08 6.90519C374.68 7.56519 374.14 8.06519 373.44 8.42519C372.74 8.7852 371.94 8.94519 371.02 8.94519H367.38V14.3252H365.64V0.325194H371.02ZM367.38 7.3452H370.86C371.78 7.3452 372.5 7.10519 373.06 6.6052C373.6 6.12519 373.88 5.46519 373.88 4.6252C373.88 3.80519 373.6 3.1452 373.06 2.6652C372.52 2.18519 371.8 1.9252 370.88 1.9252H367.38V7.3452ZM377.475 0.325194H379.115V14.3252H377.475V0.325194ZM381.802 6.48519C382.202 5.70519 382.782 5.10519 383.522 4.6652C384.242 4.2252 385.082 4.00519 386.042 4.00519C386.962 4.00519 387.802 4.20519 388.522 4.58519C389.242 4.9852 389.802 5.5452 390.222 6.26519C390.622 7.00519 390.842 7.8652 390.882 8.84519C390.882 9.0052 390.862 9.22519 390.842 9.5452H382.922V9.6852C382.942 10.6852 383.242 11.4852 383.842 12.0852C384.422 12.6852 385.182 12.9852 386.142 12.9852C386.862 12.9852 387.482 12.8052 388.002 12.4452C388.522 12.0852 388.862 11.5652 389.042 10.9052H390.702C390.502 11.9452 390.002 12.8052 389.202 13.4652C388.402 14.1252 387.422 14.4452 386.262 14.4452C385.242 14.4452 384.362 14.2452 383.602 13.8052C382.842 13.3652 382.242 12.7652 381.822 11.9652C381.402 11.1652 381.202 10.2652 381.202 9.22519C381.202 8.1852 381.402 7.28519 381.802 6.48519ZM389.182 8.1852C389.102 7.32519 388.762 6.6452 388.202 6.16519C387.642 5.6852 386.922 5.44519 386.062 5.44519C385.282 5.44519 384.602 5.70519 384.022 6.20519C383.422 6.72519 383.102 7.3852 383.022 8.1852H389.182ZM402.494 12.8252V14.3252H401.594C400.934 14.3252 400.474 14.2052 400.194 13.9252C399.914 13.6652 399.754 13.2652 399.754 12.7452C398.954 13.8852 397.814 14.4452 396.334 14.4452C395.194 14.4452 394.274 14.1852 393.594 13.6452C392.914 13.1252 392.574 12.3852 392.574 11.4652C392.574 10.4452 392.914 9.6652 393.614 9.1052C394.314 8.56519 395.334 8.28519 396.674 8.28519H399.674V7.5852C399.674 6.9252 399.434 6.40519 398.994 6.02519C398.554 5.66519 397.934 5.46519 397.134 5.46519C396.414 5.46519 395.834 5.62519 395.374 5.94519C394.914 6.26519 394.634 6.66519 394.534 7.18519H392.894C393.014 6.1852 393.454 5.4052 394.214 4.84519C394.974 4.28519 395.974 4.00519 397.214 4.00519C398.514 4.00519 399.514 4.3252 400.234 4.96519C400.954 5.60519 401.314 6.50519 401.314 7.68519V12.0852C401.314 12.5852 401.534 12.8252 401.994 12.8252H402.494ZM399.674 9.6652H396.514C394.994 9.6652 394.234 10.2452 394.234 11.3652C394.234 11.8852 394.434 12.2852 394.834 12.5852C395.234 12.9052 395.774 13.0452 396.454 13.0452C397.454 13.0452 398.234 12.7852 398.814 12.2652C399.374 11.7452 399.674 11.0452 399.674 10.1652V9.6652ZM405.234 10.9652C405.254 11.5852 405.514 12.0852 406.034 12.4652C406.554 12.8652 407.214 13.0452 408.034 13.0452C408.754 13.0452 409.334 12.9052 409.774 12.6252C410.214 12.3452 410.454 11.9652 410.454 11.4852C410.454 11.0852 410.334 10.7852 410.134 10.5652C409.914 10.3652 409.634 10.2052 409.294 10.1252C408.954 10.0452 408.474 9.9652 407.854 9.88519C406.974 9.7852 406.254 9.6452 405.694 9.4652C405.134 9.30519 404.674 9.0252 404.334 8.6452C403.974 8.2652 403.814 7.74519 403.814 7.0652C403.814 6.4652 403.974 5.94519 404.314 5.46519C404.654 5.00519 405.114 4.64519 405.714 4.3852C406.294 4.12519 406.954 3.98519 407.694 3.98519C408.894 3.98519 409.854 4.26519 410.614 4.82519C411.374 5.38519 411.794 6.1852 411.874 7.22519H410.234C410.154 6.7052 409.894 6.26519 409.454 5.90519C408.994 5.56519 408.434 5.38519 407.754 5.38519C407.054 5.38519 406.494 5.5452 406.074 5.8252C405.634 6.1052 405.434 6.48519 405.434 6.94519C405.434 7.3052 405.534 7.56519 405.734 7.74519C405.934 7.9452 406.174 8.06519 406.494 8.1252C406.814 8.20519 407.294 8.2652 407.934 8.34519C408.814 8.4652 409.554 8.6052 410.134 8.7852C410.714 8.98519 411.174 9.2852 411.534 9.6852C411.894 10.1052 412.074 10.6652 412.074 11.3652C412.074 11.9852 411.894 12.5252 411.534 12.9852C411.174 13.4652 410.674 13.8252 410.074 14.0652C409.454 14.3252 408.774 14.4452 408.034 14.4452C406.694 14.4452 405.614 14.1452 404.814 13.5252C404.014 12.9252 403.594 12.0652 403.594 10.9652H405.234ZM414.375 6.48519C414.775 5.70519 415.355 5.10519 416.095 4.6652C416.815 4.2252 417.655 4.00519 418.615 4.00519C419.535 4.00519 420.375 4.20519 421.095 4.58519C421.815 4.9852 422.375 5.5452 422.795 6.26519C423.195 7.00519 423.415 7.8652 423.455 8.84519C423.455 9.0052 423.435 9.22519 423.415 9.5452H415.495V9.6852C415.515 10.6852 415.815 11.4852 416.415 12.0852C416.995 12.6852 417.755 12.9852 418.715 12.9852C419.435 12.9852 420.055 12.8052 420.575 12.4452C421.095 12.0852 421.435 11.5652 421.615 10.9052H423.275C423.075 11.9452 422.575 12.8052 421.775 13.4652C420.975 14.1252 419.995 14.4452 418.835 14.4452C417.815 14.4452 416.935 14.2452 416.175 13.8052C415.415 13.3652 414.815 12.7652 414.395 11.9652C413.975 11.1652 413.775 10.2652 413.775 9.22519C413.775 8.1852 413.975 7.28519 414.375 6.48519ZM421.755 8.1852C421.675 7.32519 421.335 6.6452 420.775 6.16519C420.215 5.6852 419.495 5.44519 418.635 5.44519C417.855 5.44519 417.175 5.70519 416.595 6.20519C415.995 6.72519 415.675 7.3852 415.595 8.1852H421.755ZM426.742 12.8252C427.022 13.2252 427.182 13.7052 427.182 14.2652C427.182 15.1252 426.922 15.7852 426.422 16.2652C425.922 16.7452 425.242 17.0052 424.362 17.0252V16.0852C424.942 16.0852 425.362 15.9052 425.642 15.5852C425.902 15.2652 426.042 14.9052 426.042 14.4852C426.042 14.3652 426.022 14.2852 426.022 14.2252C425.862 14.3852 425.622 14.4652 425.342 14.4652C425.022 14.4652 424.782 14.3852 424.582 14.1852C424.382 14.0052 424.282 13.7452 424.282 13.3852C424.282 13.0652 424.382 12.7852 424.622 12.5652C424.862 12.3452 425.182 12.2252 425.602 12.2252C426.082 12.2252 426.462 12.4252 426.742 12.8252ZM439.798 4.12519V5.7252H438.978C437.998 5.7252 437.298 6.06519 436.878 6.7052C436.458 7.36519 436.258 8.16519 436.258 9.12519V14.3252H434.618V4.12519H436.038L436.258 5.66519C436.538 5.20519 436.918 4.82519 437.398 4.54519C437.858 4.26519 438.498 4.12519 439.338 4.12519H439.798ZM441.151 6.48519C441.551 5.70519 442.131 5.10519 442.871 4.6652C443.591 4.2252 444.431 4.00519 445.391 4.00519C446.311 4.00519 447.151 4.20519 447.871 4.58519C448.591 4.9852 449.151 5.5452 449.571 6.26519C449.971 7.00519 450.191 7.8652 450.231 8.84519C450.231 9.0052 450.211 9.22519 450.191 9.5452H442.271V9.6852C442.291 10.6852 442.591 11.4852 443.191 12.0852C443.771 12.6852 444.531 12.9852 445.491 12.9852C446.211 12.9852 446.831 12.8052 447.351 12.4452C447.871 12.0852 448.211 11.5652 448.391 10.9052H450.051C449.851 11.9452 449.351 12.8052 448.551 13.4652C447.751 14.1252 446.771 14.4452 445.611 14.4452C444.591 14.4452 443.711 14.2452 442.951 13.8052C442.191 13.3652 441.591 12.7652 441.171 11.9652C440.751 11.1652 440.551 10.2652 440.551 9.22519C440.551 8.1852 440.751 7.28519 441.151 6.48519ZM448.531 8.1852C448.451 7.32519 448.111 6.6452 447.551 6.16519C446.991 5.6852 446.271 5.44519 445.411 5.44519C444.631 5.44519 443.951 5.70519 443.371 6.20519C442.771 6.72519 442.451 7.3852 442.371 8.1852H448.531ZM461.843 12.8252V14.3252H460.943C460.283 14.3252 459.823 14.2052 459.543 13.9252C459.263 13.6652 459.103 13.2652 459.103 12.7452C458.303 13.8852 457.163 14.4452 455.683 14.4452C454.543 14.4452 453.623 14.1852 452.943 13.6452C452.263 13.1252 451.923 12.3852 451.923 11.4652C451.923 10.4452 452.263 9.6652 452.963 9.1052C453.663 8.56519 454.683 8.28519 456.023 8.28519H459.023V7.5852C459.023 6.9252 458.783 6.40519 458.343 6.02519C457.903 5.66519 457.283 5.46519 456.483 5.46519C455.763 5.46519 455.183 5.62519 454.723 5.94519C454.263 6.26519 453.983 6.66519 453.883 7.18519H452.243C452.363 6.1852 452.803 5.4052 453.563 4.84519C454.323 4.28519 455.323 4.00519 456.563 4.00519C457.863 4.00519 458.863 4.3252 459.583 4.96519C460.303 5.60519 460.663 6.50519 460.663 7.68519V12.0852C460.663 12.5852 460.883 12.8252 461.343 12.8252H461.843ZM459.023 9.6652H455.863C454.343 9.6652 453.583 10.2452 453.583 11.3652C453.583 11.8852 453.783 12.2852 454.183 12.5852C454.583 12.9052 455.123 13.0452 455.803 13.0452C456.803 13.0452 457.583 12.7852 458.163 12.2652C458.723 11.7452 459.023 11.0452 459.023 10.1652V9.6652ZM470.904 13.4852C470.104 14.1252 469.104 14.4452 467.904 14.4452C466.904 14.4452 466.044 14.2252 465.304 13.7852C464.544 13.3452 463.964 12.7452 463.564 11.9452C463.144 11.1452 462.944 10.2452 462.944 9.2052C462.944 8.1852 463.144 7.28519 463.564 6.48519C463.984 5.70519 464.584 5.10519 465.344 4.6652C466.104 4.2252 466.964 4.00519 467.964 4.00519C469.164 4.00519 470.144 4.3252 470.924 4.96519C471.704 5.60519 472.204 6.48519 472.404 7.60519H470.744C470.584 6.96519 470.244 6.44519 469.744 6.04519C469.224 5.66519 468.624 5.46519 467.904 5.46519C466.924 5.46519 466.124 5.8252 465.524 6.50519C464.924 7.2052 464.624 8.10519 464.624 9.2052C464.624 10.3252 464.924 11.2452 465.524 11.9452C466.124 12.6452 466.924 12.9852 467.904 12.9852C468.644 12.9852 469.264 12.8052 469.784 12.4052C470.284 12.0252 470.604 11.4852 470.764 10.8052H472.404C472.184 11.9452 471.684 12.8452 470.904 13.4852ZM482.5 5.1252C483.26 5.88519 483.64 7.04519 483.64 8.6452V14.3252H482V8.7452C482 7.70519 481.76 6.90519 481.28 6.34519C480.8 5.78519 480.1 5.5052 479.22 5.5052C478.26 5.5052 477.52 5.84519 476.96 6.50519C476.4 7.18519 476.14 8.0852 476.14 9.22519V14.3252H474.5V0.325194H476.14V5.80519C476.46 5.28519 476.9 4.84519 477.46 4.50519C478.02 4.18519 478.7 4.00519 479.5 4.00519C480.74 4.00519 481.74 4.3852 482.5 5.1252ZM500.145 4.12519V14.3252H498.725L498.505 12.9652C497.725 13.9652 496.645 14.4452 495.245 14.4452C494.025 14.4452 493.045 14.0852 492.325 13.3252C491.585 12.5852 491.225 11.4052 491.225 9.8052V4.12519H492.865V9.7052C492.865 10.7652 493.085 11.5652 493.545 12.1252C494.005 12.6852 494.665 12.9452 495.525 12.9452C496.445 12.9452 497.185 12.6252 497.705 11.9452C498.225 11.2852 498.505 10.3852 498.505 9.22519V4.12519H500.145ZM503.86 10.9652C503.88 11.5852 504.14 12.0852 504.66 12.4652C505.18 12.8652 505.84 13.0452 506.66 13.0452C507.38 13.0452 507.96 12.9052 508.4 12.6252C508.84 12.3452 509.08 11.9652 509.08 11.4852C509.08 11.0852 508.96 10.7852 508.76 10.5652C508.54 10.3652 508.26 10.2052 507.92 10.1252C507.58 10.0452 507.1 9.9652 506.48 9.88519C505.6 9.7852 504.88 9.6452 504.32 9.4652C503.76 9.30519 503.3 9.0252 502.96 8.6452C502.6 8.2652 502.44 7.74519 502.44 7.0652C502.44 6.4652 502.6 5.94519 502.94 5.46519C503.28 5.00519 503.74 4.64519 504.34 4.3852C504.92 4.12519 505.58 3.98519 506.32 3.98519C507.52 3.98519 508.48 4.26519 509.24 4.82519C510 5.38519 510.42 6.1852 510.5 7.22519H508.86C508.78 6.7052 508.52 6.26519 508.08 5.90519C507.62 5.56519 507.06 5.38519 506.38 5.38519C505.68 5.38519 505.12 5.5452 504.7 5.8252C504.26 6.1052 504.06 6.48519 504.06 6.94519C504.06 7.3052 504.16 7.56519 504.36 7.74519C504.56 7.9452 504.8 8.06519 505.12 8.1252C505.44 8.20519 505.92 8.2652 506.56 8.34519C507.44 8.4652 508.18 8.6052 508.76 8.7852C509.34 8.98519 509.8 9.2852 510.16 9.6852C510.52 10.1052 510.7 10.6652 510.7 11.3652C510.7 11.9852 510.52 12.5252 510.16 12.9852C509.8 13.4652 509.3 13.8252 508.7 14.0652C508.08 14.3252 507.4 14.4452 506.66 14.4452C505.32 14.4452 504.24 14.1452 503.44 13.5252C502.64 12.9252 502.22 12.0652 502.22 10.9652H503.86ZM527.735 12.8252V14.3252H526.835C526.175 14.3252 525.715 14.2052 525.435 13.9252C525.155 13.6652 524.995 13.2652 524.995 12.7452C524.195 13.8852 523.055 14.4452 521.575 14.4452C520.435 14.4452 519.515 14.1852 518.835 13.6452C518.155 13.1252 517.815 12.3852 517.815 11.4652C517.815 10.4452 518.155 9.6652 518.855 9.1052C519.555 8.56519 520.575 8.28519 521.915 8.28519H524.915V7.5852C524.915 6.9252 524.675 6.40519 524.235 6.02519C523.795 5.66519 523.175 5.46519 522.375 5.46519C521.655 5.46519 521.075 5.62519 520.615 5.94519C520.155 6.26519 519.875 6.66519 519.775 7.18519H518.135C518.255 6.1852 518.695 5.4052 519.455 4.84519C520.215 4.28519 521.215 4.00519 522.455 4.00519C523.755 4.00519 524.755 4.3252 525.475 4.96519C526.195 5.60519 526.555 6.50519 526.555 7.68519V12.0852C526.555 12.5852 526.775 12.8252 527.235 12.8252H527.735ZM524.915 9.6652H521.755C520.235 9.6652 519.475 10.2452 519.475 11.3652C519.475 11.8852 519.675 12.2852 520.075 12.5852C520.475 12.9052 521.015 13.0452 521.695 13.0452C522.695 13.0452 523.475 12.7852 524.055 12.2652C524.615 11.7452 524.915 11.0452 524.915 10.1652V9.6652ZM529.876 5.62519H528.036V4.12519H529.876V1.26519H531.516V4.12519H534.096V5.62519H531.516V11.6452C531.516 12.0852 531.596 12.3852 531.756 12.5652C531.916 12.7452 532.216 12.8252 532.636 12.8252H534.416V14.3252H532.536C531.576 14.3252 530.876 14.1252 530.476 13.6852C530.076 13.2652 529.876 12.5852 529.876 11.6652V5.62519ZM217.427 36.8252V38.3252H216.527C215.867 38.3252 215.407 38.2052 215.127 37.9252C214.847 37.6652 214.687 37.2652 214.687 36.7452C213.887 37.8852 212.747 38.4452 211.267 38.4452C210.127 38.4452 209.207 38.1852 208.527 37.6452C207.847 37.1252 207.507 36.3852 207.507 35.4652C207.507 34.4452 207.847 33.6652 208.547 33.1052C209.247 32.5652 210.267 32.2852 211.607 32.2852H214.607V31.5852C214.607 30.9252 214.367 30.4052 213.927 30.0252C213.487 29.6652 212.867 29.4652 212.067 29.4652C211.347 29.4652 210.767 29.6252 210.307 29.9452C209.847 30.2652 209.567 30.6652 209.467 31.1852H207.827C207.947 30.1852 208.387 29.4052 209.147 28.8452C209.907 28.2852 210.907 28.0052 212.147 28.0052C213.447 28.0052 214.447 28.3252 215.167 28.9652C215.887 29.6052 216.247 30.5052 216.247 31.6852V36.0852C216.247 36.5852 216.467 36.8252 216.927 36.8252H217.427ZM214.607 33.6652H211.447C209.927 33.6652 209.167 34.2452 209.167 35.3652C209.167 35.8852 209.367 36.2852 209.767 36.5852C210.167 36.9052 210.707 37.0452 211.387 37.0452C212.387 37.0452 213.167 36.7852 213.747 36.2652C214.307 35.7452 214.607 35.0452 214.607 34.1652V33.6652ZM226.868 29.1252C227.628 29.8852 228.008 31.0452 228.008 32.6452V38.3252H226.368V32.7452C226.368 31.7052 226.128 30.9052 225.648 30.3452C225.168 29.7852 224.488 29.5052 223.608 29.5052C222.648 29.5052 221.888 29.8452 221.348 30.5052C220.788 31.1852 220.528 32.0852 220.528 33.2252V38.3252H218.888V28.1252H220.308L220.528 29.5052C221.288 28.5052 222.408 28.0052 223.888 28.0052C225.128 28.0052 226.108 28.3852 226.868 29.1252ZM239.978 24.3252V38.3252H238.558L238.338 36.6852C237.478 37.8652 236.318 38.4452 234.838 38.4452C233.878 38.4452 233.038 38.2452 232.298 37.8252C231.558 37.4252 230.978 36.8252 230.558 36.0252C230.138 35.2452 229.938 34.3052 229.938 33.2252C229.938 32.2052 230.138 31.3052 230.558 30.5052C230.978 29.7252 231.558 29.1052 232.318 28.6652C233.058 28.2252 233.898 28.0052 234.838 28.0052C235.658 28.0052 236.358 28.1652 236.958 28.4652C237.538 28.7652 237.998 29.1652 238.338 29.6852V24.3252H239.978ZM236.738 36.5252C237.258 36.2052 237.658 35.7652 237.938 35.2052C238.218 34.6452 238.358 33.9852 238.358 33.2652C238.358 32.5452 238.218 31.8852 237.938 31.3052C237.658 30.7252 237.258 30.2652 236.738 29.9452C236.218 29.6252 235.638 29.4652 234.998 29.4652C233.978 29.4652 233.158 29.8252 232.538 30.5252C231.918 31.2252 231.618 32.1252 231.618 33.2252C231.618 34.3452 231.918 35.2452 232.538 35.9452C233.158 36.6452 233.978 36.9852 234.998 36.9852C235.638 36.9852 236.218 36.8452 236.738 36.5252ZM248.087 30.4852C248.487 29.7052 249.067 29.1052 249.807 28.6652C250.527 28.2252 251.367 28.0052 252.327 28.0052C253.247 28.0052 254.087 28.2052 254.807 28.5852C255.527 28.9852 256.087 29.5452 256.507 30.2652C256.907 31.0052 257.127 31.8652 257.167 32.8452C257.167 33.0052 257.147 33.2252 257.127 33.5452H249.207V33.6852C249.227 34.6852 249.527 35.4852 250.127 36.0852C250.707 36.6852 251.467 36.9852 252.427 36.9852C253.147 36.9852 253.767 36.8052 254.287 36.4452C254.807 36.0852 255.147 35.5652 255.327 34.9052H256.987C256.787 35.9452 256.287 36.8052 255.487 37.4652C254.687 38.1252 253.707 38.4452 252.547 38.4452C251.527 38.4452 250.647 38.2452 249.887 37.8052C249.127 37.3652 248.527 36.7652 248.107 35.9652C247.687 35.1652 247.487 34.2652 247.487 33.2252C247.487 32.1852 247.687 31.2852 248.087 30.4852ZM255.467 32.1852C255.387 31.3252 255.047 30.6452 254.487 30.1652C253.927 29.6852 253.207 29.4452 252.347 29.4452C251.567 29.4452 250.887 29.7052 250.307 30.2052C249.707 30.7252 249.387 31.3852 249.307 32.1852H255.467ZM261.768 33.0852L258.148 28.1252H260.108L262.828 31.9052L265.588 28.1252H267.408L263.768 33.0852L267.668 38.3252H265.708L262.708 34.2252L259.708 38.3252H257.888L261.768 33.0852ZM276.805 28.6252C277.545 29.0452 278.125 29.6452 278.545 30.4252C278.965 31.2252 279.185 32.1452 279.185 33.2252C279.185 34.2652 278.965 35.1652 278.545 35.9452C278.125 36.7452 277.545 37.3452 276.805 37.7852C276.045 38.2252 275.205 38.4452 274.285 38.4452C273.445 38.4452 272.745 38.3052 272.165 38.0052C271.565 37.7052 271.105 37.2852 270.785 36.7652V42.3252H269.145V28.1252H270.565L270.785 29.7652C271.625 28.6052 272.805 28.0052 274.285 28.0052C275.225 28.0052 276.065 28.2252 276.805 28.6252ZM276.565 35.9452C277.185 35.2452 277.505 34.3452 277.505 33.2252C277.505 32.1252 277.185 31.2252 276.565 30.5252C275.945 29.8252 275.125 29.4652 274.125 29.4652C273.465 29.4652 272.885 29.6252 272.365 29.9452C271.845 30.2652 271.465 30.7052 271.185 31.2652C270.905 31.8252 270.765 32.4652 270.765 33.1852C270.765 33.9252 270.905 34.5852 271.185 35.1652C271.465 35.7452 271.845 36.1852 272.365 36.5052C272.885 36.8252 273.465 36.9852 274.125 36.9852C275.125 36.9852 275.945 36.6452 276.565 35.9452ZM281.499 30.4852C281.899 29.7052 282.479 29.1052 283.219 28.6652C283.939 28.2252 284.779 28.0052 285.739 28.0052C286.659 28.0052 287.499 28.2052 288.219 28.5852C288.939 28.9852 289.499 29.5452 289.919 30.2652C290.319 31.0052 290.539 31.8652 290.579 32.8452C290.579 33.0052 290.559 33.2252 290.539 33.5452H282.619V33.6852C282.639 34.6852 282.939 35.4852 283.539 36.0852C284.119 36.6852 284.879 36.9852 285.839 36.9852C286.559 36.9852 287.179 36.8052 287.699 36.4452C288.219 36.0852 288.559 35.5652 288.739 34.9052H290.399C290.199 35.9452 289.699 36.8052 288.899 37.4652C288.099 38.1252 287.119 38.4452 285.959 38.4452C284.939 38.4452 284.059 38.2452 283.299 37.8052C282.539 37.3652 281.939 36.7652 281.519 35.9652C281.099 35.1652 280.899 34.2652 280.899 33.2252C280.899 32.1852 281.099 31.2852 281.499 30.4852ZM288.879 32.1852C288.799 31.3252 288.459 30.6452 287.899 30.1652C287.339 29.6852 286.619 29.4452 285.759 29.4452C284.979 29.4452 284.299 29.7052 283.719 30.2052C283.119 30.7252 282.799 31.3852 282.719 32.1852H288.879ZM300.251 37.4852C299.451 38.1252 298.451 38.4452 297.251 38.4452C296.251 38.4452 295.391 38.2252 294.651 37.7852C293.891 37.3452 293.311 36.7452 292.911 35.9452C292.491 35.1452 292.291 34.2452 292.291 33.2052C292.291 32.1852 292.491 31.2852 292.911 30.4852C293.331 29.7052 293.931 29.1052 294.691 28.6652C295.451 28.2252 296.311 28.0052 297.311 28.0052C298.511 28.0052 299.491 28.3252 300.271 28.9652C301.051 29.6052 301.551 30.4852 301.751 31.6052H300.091C299.931 30.9652 299.591 30.4452 299.091 30.0452C298.571 29.6652 297.971 29.4652 297.251 29.4652C296.271 29.4652 295.471 29.8252 294.871 30.5052C294.271 31.2052 293.971 32.1052 293.971 33.2052C293.971 34.3252 294.271 35.2452 294.871 35.9452C295.471 36.6452 296.271 36.9852 297.251 36.9852C297.991 36.9852 298.611 36.8052 299.131 36.4052C299.631 36.0252 299.951 35.4852 300.111 34.8052H301.751C301.531 35.9452 301.031 36.8452 300.251 37.4852ZM304.527 29.6252H302.687V28.1252H304.527V25.2652H306.167V28.1252H308.747V29.6252H306.167V35.6452C306.167 36.0852 306.247 36.3852 306.407 36.5652C306.567 36.7452 306.867 36.8252 307.287 36.8252H309.067V38.3252H307.187C306.227 38.3252 305.527 38.1252 305.127 37.6852C304.727 37.2652 304.527 36.5852 304.527 35.6652V29.6252ZM317.928 37.7852C317.168 37.3452 316.568 36.7452 316.148 35.9452C315.708 35.1652 315.508 34.2652 315.508 33.2252C315.508 32.2052 315.708 31.3052 316.148 30.5052C316.568 29.7252 317.168 29.1052 317.928 28.6652C318.688 28.2252 319.568 28.0052 320.568 28.0052C321.548 28.0052 322.428 28.2252 323.188 28.6652C323.948 29.1052 324.548 29.7252 324.988 30.5052C325.408 31.3052 325.628 32.2052 325.628 33.2252C325.628 34.2652 325.408 35.1652 324.988 35.9452C324.548 36.7452 323.948 37.3452 323.188 37.7852C322.428 38.2252 321.548 38.4452 320.568 38.4452C319.568 38.4452 318.688 38.2252 317.928 37.7852ZM322.328 36.5052C322.848 36.1852 323.248 35.7452 323.528 35.1652C323.808 34.6052 323.948 33.9452 323.948 33.2252C323.948 32.5052 323.808 31.8652 323.528 31.2852C323.248 30.7252 322.848 30.2652 322.328 29.9452C321.808 29.6252 321.228 29.4652 320.568 29.4652C319.888 29.4652 319.308 29.6252 318.788 29.9452C318.268 30.2652 317.888 30.7252 317.608 31.2852C317.328 31.8652 317.188 32.5052 317.188 33.2252C317.188 33.9452 317.328 34.6052 317.608 35.1652C317.888 35.7452 318.268 36.1852 318.788 36.5052C319.308 36.8252 319.888 36.9852 320.568 36.9852C321.228 36.9852 321.808 36.8252 322.328 36.5052ZM336.489 28.1252V38.3252H335.069L334.849 36.9652C334.069 37.9652 332.989 38.4452 331.589 38.4452C330.369 38.4452 329.389 38.0852 328.669 37.3252C327.929 36.5852 327.569 35.4052 327.569 33.8052V28.1252H329.209V33.7052C329.209 34.7652 329.429 35.5652 329.889 36.1252C330.349 36.6852 331.009 36.9452 331.869 36.9452C332.789 36.9452 333.529 36.6252 334.049 35.9452C334.569 35.2852 334.849 34.3852 334.849 33.2252V28.1252H336.489ZM344.104 28.1252V29.7252H343.284C342.304 29.7252 341.604 30.0652 341.184 30.7052C340.764 31.3652 340.564 32.1652 340.564 33.1252V38.3252H338.924V28.1252H340.344L340.564 29.6652C340.844 29.2052 341.224 28.8252 341.704 28.5452C342.164 28.2652 342.804 28.1252 343.644 28.1252H344.104ZM356.418 28.1252V29.7252H355.598C354.618 29.7252 353.918 30.0652 353.498 30.7052C353.078 31.3652 352.878 32.1652 352.878 33.1252V38.3252H351.238V28.1252H352.658L352.878 29.6652C353.158 29.2052 353.538 28.8252 354.018 28.5452C354.478 28.2652 355.118 28.1252 355.958 28.1252H356.418ZM357.772 30.4852C358.172 29.7052 358.752 29.1052 359.492 28.6652C360.212 28.2252 361.052 28.0052 362.012 28.0052C362.932 28.0052 363.772 28.2052 364.492 28.5852C365.212 28.9852 365.772 29.5452 366.192 30.2652C366.592 31.0052 366.812 31.8652 366.852 32.8452C366.852 33.0052 366.832 33.2252 366.812 33.5452H358.892V33.6852C358.912 34.6852 359.212 35.4852 359.812 36.0852C360.392 36.6852 361.152 36.9852 362.112 36.9852C362.832 36.9852 363.452 36.8052 363.972 36.4452C364.492 36.0852 364.832 35.5652 365.012 34.9052H366.672C366.472 35.9452 365.972 36.8052 365.172 37.4652C364.372 38.1252 363.392 38.4452 362.232 38.4452C361.212 38.4452 360.332 38.2452 359.572 37.8052C358.812 37.3652 358.212 36.7652 357.792 35.9652C357.372 35.1652 357.172 34.2652 357.172 33.2252C357.172 32.1852 357.372 31.2852 357.772 30.4852ZM365.152 32.1852C365.072 31.3252 364.732 30.6452 364.172 30.1652C363.612 29.6852 362.892 29.4452 362.032 29.4452C361.252 29.4452 360.572 29.7052 359.992 30.2052C359.392 30.7252 359.072 31.3852 358.992 32.1852H365.152ZM370.164 34.9652C370.184 35.5852 370.444 36.0852 370.964 36.4652C371.484 36.8652 372.144 37.0452 372.964 37.0452C373.684 37.0452 374.264 36.9052 374.704 36.6252C375.144 36.3452 375.384 35.9652 375.384 35.4852C375.384 35.0852 375.264 34.7852 375.064 34.5652C374.844 34.3652 374.564 34.2052 374.224 34.1252C373.884 34.0452 373.404 33.9652 372.784 33.8852C371.904 33.7852 371.184 33.6452 370.624 33.4652C370.064 33.3052 369.604 33.0252 369.264 32.6452C368.904 32.2652 368.744 31.7452 368.744 31.0652C368.744 30.4652 368.904 29.9452 369.244 29.4652C369.584 29.0052 370.044 28.6452 370.644 28.3852C371.224 28.1252 371.884 27.9852 372.624 27.9852C373.824 27.9852 374.784 28.2652 375.544 28.8252C376.304 29.3852 376.724 30.1852 376.804 31.2252H375.164C375.084 30.7052 374.824 30.2652 374.384 29.9052C373.924 29.5652 373.364 29.3852 372.684 29.3852C371.984 29.3852 371.424 29.5452 371.004 29.8252C370.564 30.1052 370.364 30.4852 370.364 30.9452C370.364 31.3052 370.464 31.5652 370.664 31.7452C370.864 31.9452 371.104 32.0652 371.424 32.1252C371.744 32.2052 372.224 32.2652 372.864 32.3452C373.744 32.4652 374.484 32.6052 375.064 32.7852C375.644 32.9852 376.104 33.2852 376.464 33.6852C376.824 34.1052 377.004 34.6652 377.004 35.3652C377.004 35.9852 376.824 36.5252 376.464 36.9852C376.104 37.4652 375.604 37.8252 375.004 38.0652C374.384 38.3252 373.704 38.4452 372.964 38.4452C371.624 38.4452 370.544 38.1452 369.744 37.5252C368.944 36.9252 368.524 36.0652 368.524 34.9652H370.164ZM386.725 28.6252C387.465 29.0452 388.045 29.6452 388.465 30.4252C388.885 31.2252 389.105 32.1452 389.105 33.2252C389.105 34.2652 388.885 35.1652 388.465 35.9452C388.045 36.7452 387.465 37.3452 386.725 37.7852C385.965 38.2252 385.125 38.4452 384.205 38.4452C383.365 38.4452 382.665 38.3052 382.085 38.0052C381.485 37.7052 381.025 37.2852 380.705 36.7652V42.3252H379.065V28.1252H380.485L380.705 29.7652C381.545 28.6052 382.725 28.0052 384.205 28.0052C385.145 28.0052 385.985 28.2252 386.725 28.6252ZM386.485 35.9452C387.105 35.2452 387.425 34.3452 387.425 33.2252C387.425 32.1252 387.105 31.2252 386.485 30.5252C385.865 29.8252 385.045 29.4652 384.045 29.4652C383.385 29.4652 382.805 29.6252 382.285 29.9452C381.765 30.2652 381.385 30.7052 381.105 31.2652C380.825 31.8252 380.685 32.4652 380.685 33.1852C380.685 33.9252 380.825 34.5852 381.105 35.1652C381.385 35.7452 381.765 36.1852 382.285 36.5052C382.805 36.8252 383.385 36.9852 384.045 36.9852C385.045 36.9852 385.865 36.6452 386.485 35.9452ZM393.239 37.7852C392.479 37.3452 391.879 36.7452 391.459 35.9452C391.019 35.1652 390.819 34.2652 390.819 33.2252C390.819 32.2052 391.019 31.3052 391.459 30.5052C391.879 29.7252 392.479 29.1052 393.239 28.6652C393.999 28.2252 394.879 28.0052 395.879 28.0052C396.859 28.0052 397.739 28.2252 398.499 28.6652C399.259 29.1052 399.859 29.7252 400.299 30.5052C400.719 31.3052 400.939 32.2052 400.939 33.2252C400.939 34.2652 400.719 35.1652 400.299 35.9452C399.859 36.7452 399.259 37.3452 398.499 37.7852C397.739 38.2252 396.859 38.4452 395.879 38.4452C394.879 38.4452 393.999 38.2252 393.239 37.7852ZM397.639 36.5052C398.159 36.1852 398.559 35.7452 398.839 35.1652C399.119 34.6052 399.259 33.9452 399.259 33.2252C399.259 32.5052 399.119 31.8652 398.839 31.2852C398.559 30.7252 398.159 30.2652 397.639 29.9452C397.119 29.6252 396.539 29.4652 395.879 29.4652C395.199 29.4652 394.619 29.6252 394.099 29.9452C393.579 30.2652 393.199 30.7252 392.919 31.2852C392.639 31.8652 392.499 32.5052 392.499 33.2252C392.499 33.9452 392.639 34.6052 392.919 35.1652C393.199 35.7452 393.579 36.1852 394.099 36.5052C394.619 36.8252 395.199 36.9852 395.879 36.9852C396.539 36.9852 397.119 36.8252 397.639 36.5052ZM411 29.1252C411.76 29.8852 412.14 31.0452 412.14 32.6452V38.3252H410.5V32.7452C410.5 31.7052 410.26 30.9052 409.78 30.3452C409.3 29.7852 408.62 29.5052 407.74 29.5052C406.78 29.5052 406.02 29.8452 405.48 30.5052C404.92 31.1852 404.66 32.0852 404.66 33.2252V38.3252H403.02V28.1252H404.44L404.66 29.5052C405.42 28.5052 406.54 28.0052 408.02 28.0052C409.26 28.0052 410.24 28.3852 411 29.1252ZM415.711 34.9652C415.731 35.5852 415.991 36.0852 416.511 36.4652C417.031 36.8652 417.691 37.0452 418.511 37.0452C419.231 37.0452 419.811 36.9052 420.251 36.6252C420.691 36.3452 420.931 35.9652 420.931 35.4852C420.931 35.0852 420.811 34.7852 420.611 34.5652C420.391 34.3652 420.111 34.2052 419.771 34.1252C419.431 34.0452 418.951 33.9652 418.331 33.8852C417.451 33.7852 416.731 33.6452 416.171 33.4652C415.611 33.3052 415.151 33.0252 414.811 32.6452C414.451 32.2652 414.291 31.7452 414.291 31.0652C414.291 30.4652 414.451 29.9452 414.791 29.4652C415.131 29.0052 415.591 28.6452 416.191 28.3852C416.771 28.1252 417.431 27.9852 418.171 27.9852C419.371 27.9852 420.331 28.2652 421.091 28.8252C421.851 29.3852 422.271 30.1852 422.351 31.2252H420.711C420.631 30.7052 420.371 30.2652 419.931 29.9052C419.471 29.5652 418.911 29.3852 418.231 29.3852C417.531 29.3852 416.971 29.5452 416.551 29.8252C416.111 30.1052 415.911 30.4852 415.911 30.9452C415.911 31.3052 416.011 31.5652 416.211 31.7452C416.411 31.9452 416.651 32.0652 416.971 32.1252C417.291 32.2052 417.771 32.2652 418.411 32.3452C419.291 32.4652 420.031 32.6052 420.611 32.7852C421.191 32.9852 421.651 33.2852 422.011 33.6852C422.371 34.1052 422.551 34.6652 422.551 35.3652C422.551 35.9852 422.371 36.5252 422.011 36.9852C421.651 37.4652 421.151 37.8252 420.551 38.0652C419.931 38.3252 419.251 38.4452 418.511 38.4452C417.171 38.4452 416.091 38.1452 415.291 37.5252C414.491 36.9252 414.071 36.0652 414.071 34.9652H415.711ZM424.851 30.4852C425.251 29.7052 425.831 29.1052 426.571 28.6652C427.291 28.2252 428.131 28.0052 429.091 28.0052C430.011 28.0052 430.851 28.2052 431.571 28.5852C432.291 28.9852 432.851 29.5452 433.271 30.2652C433.671 31.0052 433.891 31.8652 433.931 32.8452C433.931 33.0052 433.911 33.2252 433.891 33.5452H425.971V33.6852C425.991 34.6852 426.291 35.4852 426.891 36.0852C427.471 36.6852 428.231 36.9852 429.191 36.9852C429.911 36.9852 430.531 36.8052 431.051 36.4452C431.571 36.0852 431.911 35.5652 432.091 34.9052H433.751C433.551 35.9452 433.051 36.8052 432.251 37.4652C431.451 38.1252 430.471 38.4452 429.311 38.4452C428.291 38.4452 427.411 38.2452 426.651 37.8052C425.891 37.3652 425.291 36.7652 424.871 35.9652C424.451 35.1652 424.251 34.2652 424.251 33.2252C424.251 32.1852 424.451 31.2852 424.851 30.4852ZM432.231 32.1852C432.151 31.3252 431.811 30.6452 431.251 30.1652C430.691 29.6852 429.971 29.4452 429.111 29.4452C428.331 29.4452 427.651 29.7052 427.071 30.2052C426.471 30.7252 426.151 31.3852 426.071 32.1852H432.231ZM442.717 34.9652C442.737 35.5852 442.997 36.0852 443.517 36.4652C444.037 36.8652 444.697 37.0452 445.517 37.0452C446.237 37.0452 446.817 36.9052 447.257 36.6252C447.697 36.3452 447.937 35.9652 447.937 35.4852C447.937 35.0852 447.817 34.7852 447.617 34.5652C447.397 34.3652 447.117 34.2052 446.777 34.1252C446.437 34.0452 445.957 33.9652 445.337 33.8852C444.457 33.7852 443.737 33.6452 443.177 33.4652C442.617 33.3052 442.157 33.0252 441.817 32.6452C441.457 32.2652 441.297 31.7452 441.297 31.0652C441.297 30.4652 441.457 29.9452 441.797 29.4652C442.137 29.0052 442.597 28.6452 443.197 28.3852C443.777 28.1252 444.437 27.9852 445.177 27.9852C446.377 27.9852 447.337 28.2652 448.097 28.8252C448.857 29.3852 449.277 30.1852 449.357 31.2252H447.717C447.637 30.7052 447.377 30.2652 446.937 29.9052C446.477 29.5652 445.917 29.3852 445.237 29.3852C444.537 29.3852 443.977 29.5452 443.557 29.8252C443.117 30.1052 442.917 30.4852 442.917 30.9452C442.917 31.3052 443.017 31.5652 443.217 31.7452C443.417 31.9452 443.657 32.0652 443.977 32.1252C444.297 32.2052 444.777 32.2652 445.417 32.3452C446.297 32.4652 447.037 32.6052 447.617 32.7852C448.197 32.9852 448.657 33.2852 449.017 33.6852C449.377 34.1052 449.557 34.6652 449.557 35.3652C449.557 35.9852 449.377 36.5252 449.017 36.9852C448.657 37.4652 448.157 37.8252 447.557 38.0652C446.937 38.3252 446.257 38.4452 445.517 38.4452C444.177 38.4452 443.097 38.1452 442.297 37.5252C441.497 36.9252 441.077 36.0652 441.077 34.9652H442.717ZM459.617 29.1252C460.377 29.8852 460.757 31.0452 460.757 32.6452V38.3252H459.117V32.7452C459.117 31.7052 458.877 30.9052 458.397 30.3452C457.917 29.7852 457.217 29.5052 456.337 29.5052C455.377 29.5052 454.637 29.8452 454.077 30.5052C453.517 31.1852 453.257 32.0852 453.257 33.2252V38.3252H451.617V24.3252H453.257V29.8052C453.577 29.2852 454.017 28.8452 454.577 28.5052C455.137 28.1852 455.817 28.0052 456.617 28.0052C457.857 28.0052 458.857 28.3852 459.617 29.1252ZM465.108 37.7852C464.348 37.3452 463.748 36.7452 463.328 35.9452C462.888 35.1652 462.688 34.2652 462.688 33.2252C462.688 32.2052 462.888 31.3052 463.328 30.5052C463.748 29.7252 464.348 29.1052 465.108 28.6652C465.868 28.2252 466.748 28.0052 467.748 28.0052C468.728 28.0052 469.608 28.2252 470.368 28.6652C471.128 29.1052 471.728 29.7252 472.168 30.5052C472.588 31.3052 472.808 32.2052 472.808 33.2252C472.808 34.2652 472.588 35.1652 472.168 35.9452C471.728 36.7452 471.128 37.3452 470.368 37.7852C469.608 38.2252 468.728 38.4452 467.748 38.4452C466.748 38.4452 465.868 38.2252 465.108 37.7852ZM469.508 36.5052C470.028 36.1852 470.428 35.7452 470.708 35.1652C470.988 34.6052 471.128 33.9452 471.128 33.2252C471.128 32.5052 470.988 31.8652 470.708 31.2852C470.428 30.7252 470.028 30.2652 469.508 29.9452C468.988 29.6252 468.408 29.4652 467.748 29.4652C467.068 29.4652 466.488 29.6252 465.968 29.9452C465.448 30.2652 465.068 30.7252 464.788 31.2852C464.508 31.8652 464.368 32.5052 464.368 33.2252C464.368 33.9452 464.508 34.6052 464.788 35.1652C465.068 35.7452 465.448 36.1852 465.968 36.5052C466.488 36.8252 467.068 36.9852 467.748 36.9852C468.408 36.9852 468.988 36.8252 469.508 36.5052ZM480.068 28.1252V29.7252H479.248C478.268 29.7252 477.568 30.0652 477.148 30.7052C476.728 31.3652 476.528 32.1652 476.528 33.1252V38.3252H474.888V28.1252H476.308L476.528 29.6652C476.808 29.2052 477.188 28.8252 477.668 28.5452C478.128 28.2652 478.768 28.1252 479.608 28.1252H480.068ZM481.768 25.2652H483.408V28.1252H485.988V29.6252H483.408V35.6452C483.408 36.0852 483.488 36.3852 483.648 36.5652C483.808 36.7452 484.108 36.8252 484.528 36.8252H486.308V38.3252H484.428C483.468 38.3252 482.768 38.1252 482.368 37.6852C481.968 37.2652 481.768 36.5852 481.768 35.6652V25.2652ZM487.671 24.3252H489.311V38.3252H487.671V24.3252ZM492.478 28.1252L495.618 36.4452L498.658 28.1252H500.398L495.698 40.0452C495.458 40.6652 495.238 41.1252 495.058 41.4252C494.858 41.7452 494.638 41.9652 494.358 42.1052C494.078 42.2652 493.698 42.3252 493.238 42.3252H491.278V40.8252H492.738C493.058 40.8252 493.298 40.8052 493.458 40.7252C493.618 40.6652 493.738 40.5652 493.838 40.4052C493.938 40.2452 494.058 39.9852 494.218 39.6252L494.738 38.4052L490.738 28.1252H492.478ZM516.795 36.8252V38.3252H515.895C515.235 38.3252 514.775 38.2052 514.495 37.9252C514.215 37.6652 514.055 37.2652 514.055 36.7452C513.255 37.8852 512.115 38.4452 510.635 38.4452C509.495 38.4452 508.575 38.1852 507.895 37.6452C507.215 37.1252 506.875 36.3852 506.875 35.4652C506.875 34.4452 507.215 33.6652 507.915 33.1052C508.615 32.5652 509.635 32.2852 510.975 32.2852H513.975V31.5852C513.975 30.9252 513.735 30.4052 513.295 30.0252C512.855 29.6652 512.235 29.4652 511.435 29.4652C510.715 29.4652 510.135 29.6252 509.675 29.9452C509.215 30.2652 508.935 30.6652 508.835 31.1852H507.195C507.315 30.1852 507.755 29.4052 508.515 28.8452C509.275 28.2852 510.275 28.0052 511.515 28.0052C512.815 28.0052 513.815 28.3252 514.535 28.9652C515.255 29.6052 515.615 30.5052 515.615 31.6852V36.0852C515.615 36.5852 515.835 36.8252 516.295 36.8252H516.795ZM513.975 33.6652H510.815C509.295 33.6652 508.535 34.2452 508.535 35.3652C508.535 35.8852 508.735 36.2852 509.135 36.5852C509.535 36.9052 510.075 37.0452 510.755 37.0452C511.755 37.0452 512.535 36.7852 513.115 36.2652C513.675 35.7452 513.975 35.0452 513.975 34.1652V33.6652ZM518.936 28.1252V26.9852C518.936 26.0852 519.136 25.4252 519.556 24.9852C519.976 24.5452 520.656 24.3252 521.596 24.3252H523.476V25.8252H521.696C521.296 25.8252 520.996 25.9252 520.836 26.0852C520.656 26.2652 520.576 26.5452 520.576 26.9452V28.1252H523.456V29.6252H520.576V38.3252H518.936V29.6252H517.096V28.1252H518.936ZM524.765 25.2652H526.405V28.1252H528.985V29.6252H526.405V35.6452C526.405 36.0852 526.485 36.3852 526.645 36.5652C526.805 36.7452 527.105 36.8252 527.525 36.8252H529.305V38.3252H527.425C526.465 38.3252 525.765 38.1252 525.365 37.6852C524.965 37.2652 524.765 36.5852 524.765 35.6652V25.2652ZM530.654 30.4852C531.054 29.7052 531.634 29.1052 532.374 28.6652C533.094 28.2252 533.934 28.0052 534.894 28.0052C535.814 28.0052 536.654 28.2052 537.374 28.5852C538.094 28.9852 538.654 29.5452 539.074 30.2652C539.474 31.0052 539.694 31.8652 539.734 32.8452C539.734 33.0052 539.714 33.2252 539.694 33.5452H531.774V33.6852C531.794 34.6852 532.094 35.4852 532.694 36.0852C533.274 36.6852 534.034 36.9852 534.994 36.9852C535.714 36.9852 536.334 36.8052 536.854 36.4452C537.374 36.0852 537.714 35.5652 537.894 34.9052H539.554C539.354 35.9452 538.854 36.8052 538.054 37.4652C537.254 38.1252 536.274 38.4452 535.114 38.4452C534.094 38.4452 533.214 38.2452 532.454 37.8052C531.694 37.3652 531.094 36.7652 530.674 35.9652C530.254 35.1652 530.054 34.2652 530.054 33.2252C530.054 32.1852 530.254 31.2852 530.654 30.4852ZM538.034 32.1852C537.954 31.3252 537.614 30.6452 537.054 30.1652C536.494 29.6852 535.774 29.4452 534.914 29.4452C534.134 29.4452 533.454 29.7052 532.874 30.2052C532.274 30.7252 531.954 31.3852 531.874 32.1852H538.034ZM546.986 28.1252V29.7252H546.166C545.186 29.7252 544.486 30.0652 544.066 30.7052C543.646 31.3652 543.446 32.1652 543.446 33.1252V38.3252H541.806V28.1252H543.226L543.446 29.6652C543.726 29.2052 544.106 28.8252 544.586 28.5452C545.046 28.2652 545.686 28.1252 546.526 28.1252H546.986ZM547.711 36.5252C547.911 36.3252 548.191 36.2052 548.531 36.2052C548.851 36.2052 549.131 36.3252 549.351 36.5252C549.551 36.7252 549.671 37.0052 549.671 37.3252C549.671 37.6652 549.551 37.9452 549.351 38.1452C549.131 38.3452 548.851 38.4452 548.531 38.4452C548.191 38.4452 547.911 38.3452 547.711 38.1452C547.491 37.9452 547.391 37.6652 547.391 37.3252C547.391 37.0052 547.491 36.7252 547.711 36.5252Z" fill="#515251"/>
<path d="M8.52741 29.1252C9.28741 29.8852 9.66741 31.0452 9.66741 32.6452V38.3252H8.02741V32.7452C8.02741 31.7052 7.78741 30.9052 7.30741 30.3452C6.82741 29.7852 6.12741 29.5052 5.24741 29.5052C4.28741 29.5052 3.54741 29.8452 2.98741 30.5052C2.42741 31.1852 2.16741 32.0852 2.16741 33.2252V38.3252H0.52741V24.3252H2.16741V29.8052C2.48741 29.2852 2.92741 28.8452 3.48741 28.5052C4.04741 28.1852 4.72741 28.0052 5.52741 28.0052C6.76741 28.0052 7.76741 28.3852 8.52741 29.1252ZM12.1979 30.4852C12.5979 29.7052 13.1779 29.1052 13.9179 28.6652C14.6379 28.2252 15.4779 28.0052 16.4379 28.0052C17.3579 28.0052 18.1979 28.2052 18.9179 28.5852C19.6379 28.9852 20.1979 29.5452 20.6179 30.2652C21.0179 31.0052 21.2379 31.8652 21.2779 32.8452C21.2779 33.0052 21.2579 33.2252 21.2379 33.5452H13.3179V33.6852C13.3379 34.6852 13.6379 35.4852 14.2379 36.0852C14.8179 36.6852 15.5779 36.9852 16.5379 36.9852C17.2579 36.9852 17.8779 36.8052 18.3979 36.4452C18.9179 36.0852 19.2579 35.5652 19.4379 34.9052H21.0979C20.8979 35.9452 20.3979 36.8052 19.5979 37.4652C18.7979 38.1252 17.8179 38.4452 16.6579 38.4452C15.6379 38.4452 14.7579 38.2452 13.9979 37.8052C13.2379 37.3652 12.6379 36.7652 12.2179 35.9652C11.7979 35.1652 11.5979 34.2652 11.5979 33.2252C11.5979 32.1852 11.7979 31.2852 12.1979 30.4852ZM19.5779 32.1852C19.4979 31.3252 19.1579 30.6452 18.5979 30.1652C18.0379 29.6852 17.3179 29.4452 16.4579 29.4452C15.6779 29.4452 14.9979 29.7052 14.4179 30.2052C13.8179 30.7252 13.4979 31.3852 13.4179 32.1852H19.5779ZM23.3493 24.3252H24.9893V38.3252H23.3493V24.3252ZM27.436 24.3252H29.076V38.3252H27.436V24.3252ZM33.5827 37.7852C32.8227 37.3452 32.2227 36.7452 31.8027 35.9452C31.3627 35.1652 31.1627 34.2652 31.1627 33.2252C31.1627 32.2052 31.3627 31.3052 31.8027 30.5052C32.2227 29.7252 32.8227 29.1052 33.5827 28.6652C34.3427 28.2252 35.2227 28.0052 36.2227 28.0052C37.2027 28.0052 38.0827 28.2252 38.8427 28.6652C39.6027 29.1052 40.2027 29.7252 40.6427 30.5052C41.0627 31.3052 41.2827 32.2052 41.2827 33.2252C41.2827 34.2652 41.0627 35.1652 40.6427 35.9452C40.2027 36.7452 39.6027 37.3452 38.8427 37.7852C38.0827 38.2252 37.2027 38.4452 36.2227 38.4452C35.2227 38.4452 34.3427 38.2252 33.5827 37.7852ZM37.9827 36.5052C38.5027 36.1852 38.9027 35.7452 39.1827 35.1652C39.4627 34.6052 39.6027 33.9452 39.6027 33.2252C39.6027 32.5052 39.4627 31.8652 39.1827 31.2852C38.9027 30.7252 38.5027 30.2652 37.9827 29.9452C37.4627 29.6252 36.8827 29.4652 36.2227 29.4652C35.5427 29.4652 34.9627 29.6252 34.4427 29.9452C33.9227 30.2652 33.5427 30.7252 33.2627 31.2852C32.9827 31.8652 32.8427 32.5052 32.8427 33.2252C32.8427 33.9452 32.9827 34.6052 33.2627 35.1652C33.5427 35.7452 33.9227 36.1852 34.4427 36.5052C34.9627 36.8252 35.5427 36.9852 36.2227 36.9852C36.8827 36.9852 37.4627 36.8252 37.9827 36.5052ZM44.4833 28.9852C45.3033 27.6652 46.4233 26.6252 47.8433 25.8652C49.2433 25.1052 50.8033 24.7252 52.4833 24.7252C54.1033 24.7252 55.5433 25.0452 56.8233 25.6652C58.1033 26.2852 59.0833 27.1452 59.8033 28.2452C60.5033 29.3452 60.8633 30.5852 60.8633 31.9852C60.8633 33.0252 60.6633 33.9652 60.2833 34.7652C59.9033 35.5852 59.3833 36.2252 58.7233 36.6652C58.0633 37.1252 57.3233 37.3452 56.5233 37.3452C55.9233 37.3452 55.4633 37.2052 55.1033 36.9252C54.7433 36.6452 54.5233 36.2852 54.4833 35.8452L54.4433 35.5452C54.2033 36.0852 53.8033 36.5252 53.2233 36.8452C52.6233 37.1652 51.9833 37.3252 51.2833 37.3252C50.6033 37.3252 50.0033 37.1652 49.4633 36.8452C48.9233 36.5252 48.5033 36.0852 48.2033 35.5052C47.8833 34.9252 47.7433 34.2652 47.7433 33.5052C47.7433 32.6852 47.9233 31.9252 48.3033 31.2052C48.6833 30.5052 49.2033 29.9452 49.8433 29.5252C50.4833 29.1252 51.1633 28.9052 51.9033 28.9052C52.6433 28.9052 53.2633 29.0452 53.7433 29.3252C54.2233 29.6052 54.5433 29.9852 54.7033 30.4252L55.0033 29.0852H56.2833L55.6833 34.7852L55.6633 35.0452C55.6633 35.4452 55.7633 35.7252 55.9633 35.9252C56.1633 36.1252 56.4433 36.2052 56.8033 36.2052C57.2433 36.2052 57.6433 36.0252 58.0233 35.6452C58.4033 35.2852 58.7033 34.7652 58.9433 34.1052C59.1833 33.4652 59.3033 32.7452 59.3033 31.9452C59.3033 30.7852 59.0033 29.7652 58.4433 28.8852C57.8833 28.0052 57.0833 27.3052 56.0433 26.8252C55.0033 26.3452 53.8033 26.0852 52.4633 26.0852C51.0633 26.0852 49.7833 26.4252 48.6233 27.0652C47.4633 27.7052 46.5233 28.5852 45.8433 29.7052C45.1633 30.8252 44.8233 32.0452 44.8233 33.3852C44.8233 34.7652 45.1233 35.9652 45.7233 36.9652C46.3233 37.9852 47.1633 38.7652 48.2833 39.3052C49.4033 39.8452 50.7033 40.1052 52.2033 40.1052C53.0633 40.1052 53.8833 40.0052 54.6633 39.7852C55.4433 39.5852 56.1433 39.2652 56.7833 38.8652L56.7433 40.3252C56.2233 40.6852 55.5433 40.9652 54.7033 41.1652C53.8633 41.3652 52.9833 41.4652 52.0633 41.4652C50.3433 41.4652 48.8233 41.1452 47.5033 40.4652C46.1633 39.8052 45.1233 38.8652 44.3833 37.6452C43.6233 36.4452 43.2633 35.0252 43.2633 33.4052C43.2633 31.7852 43.6633 30.3052 44.4833 28.9852ZM53.8433 30.7652C53.4233 30.3252 52.8833 30.1052 52.2033 30.1052C51.6433 30.1052 51.1433 30.2652 50.7033 30.5652C50.2633 30.8652 49.9033 31.2652 49.6433 31.7852C49.3833 32.3052 49.2633 32.8452 49.2633 33.4452C49.2633 34.2452 49.4633 34.9052 49.9033 35.3852C50.3433 35.8852 50.9033 36.1252 51.6033 36.1252C52.1233 36.1252 52.6233 35.9852 53.0633 35.6852C53.5033 35.3852 53.8433 34.9652 54.1033 34.4052C54.3433 33.8652 54.4833 33.2452 54.4833 32.5252C54.4833 31.7852 54.2633 31.2052 53.8433 30.7652ZM77.3718 29.0852C78.0918 29.8052 78.4518 30.9252 78.4518 32.4452V38.3252H76.8118V32.5452C76.8118 31.5652 76.5918 30.8052 76.1718 30.2852C75.7518 29.7652 75.1518 29.5052 74.3918 29.5052C73.5318 29.5052 72.8518 29.8052 72.3718 30.4052C71.8918 31.0052 71.6518 31.8252 71.6518 32.8652V38.3252H70.0118V32.5452C70.0118 31.5652 69.7918 30.8052 69.3718 30.2852C68.9318 29.7652 68.3318 29.5052 67.5518 29.5052C66.7118 29.5052 66.0518 29.8252 65.5718 30.4652C65.0918 31.1052 64.8518 31.9252 64.8518 32.9452V38.3252H63.2118V28.1252H64.6318L64.8518 29.5252C65.5718 28.5252 66.5718 28.0052 67.8318 28.0052C68.5518 28.0052 69.2118 28.1852 69.7718 28.5052C70.3318 28.8252 70.7718 29.3052 71.0518 29.9452C71.7718 28.6652 72.9518 28.0052 74.5918 28.0052C75.7318 28.0052 76.6518 28.3652 77.3718 29.0852ZM81.1826 28.1252L84.3226 36.4452L87.3626 28.1252H89.1026L84.4026 40.0452C84.1626 40.6652 83.9426 41.1252 83.7626 41.4252C83.5626 41.7452 83.3426 41.9652 83.0626 42.1052C82.7826 42.2652 82.4026 42.3252 81.9426 42.3252H79.9826V40.8252H81.4426C81.7626 40.8252 82.0026 40.8052 82.1626 40.7252C82.3226 40.6652 82.4426 40.5652 82.5426 40.4052C82.6426 40.2452 82.7626 39.9852 82.9226 39.6252L83.4426 38.4052L79.4426 28.1252H81.1826ZM90.3752 30.4852C90.7752 29.7052 91.3552 29.1052 92.0952 28.6652C92.8152 28.2252 93.6552 28.0052 94.6152 28.0052C95.5352 28.0052 96.3752 28.2052 97.0952 28.5852C97.8152 28.9852 98.3752 29.5452 98.7952 30.2652C99.1952 31.0052 99.4152 31.8652 99.4552 32.8452C99.4552 33.0052 99.4352 33.2252 99.4152 33.5452H91.4952V33.6852C91.5152 34.6852 91.8152 35.4852 92.4152 36.0852C92.9952 36.6852 93.7552 36.9852 94.7152 36.9852C95.4352 36.9852 96.0552 36.8052 96.5752 36.4452C97.0952 36.0852 97.4352 35.5652 97.6152 34.9052H99.2752C99.0752 35.9452 98.5752 36.8052 97.7752 37.4652C96.9752 38.1252 95.9952 38.4452 94.8352 38.4452C93.8152 38.4452 92.9352 38.2452 92.1752 37.8052C91.4152 37.3652 90.8152 36.7652 90.3952 35.9652C89.9752 35.1652 89.7752 34.2652 89.7752 33.2252C89.7752 32.1852 89.9752 31.2852 90.3752 30.4852ZM97.7552 32.1852C97.6752 31.3252 97.3352 30.6452 96.7752 30.1652C96.2152 29.6852 95.4952 29.4452 94.6352 29.4452C93.8552 29.4452 93.1752 29.7052 92.5952 30.2052C91.9952 30.7252 91.6752 31.3852 91.5952 32.1852H97.7552ZM111.067 36.8252V38.3252H110.167C109.507 38.3252 109.047 38.2052 108.767 37.9252C108.487 37.6652 108.327 37.2652 108.327 36.7452C107.527 37.8852 106.387 38.4452 104.907 38.4452C103.767 38.4452 102.847 38.1852 102.167 37.6452C101.487 37.1252 101.147 36.3852 101.147 35.4652C101.147 34.4452 101.487 33.6652 102.187 33.1052C102.887 32.5652 103.907 32.2852 105.247 32.2852H108.247V31.5852C108.247 30.9252 108.007 30.4052 107.567 30.0252C107.127 29.6652 106.507 29.4652 105.707 29.4652C104.987 29.4652 104.407 29.6252 103.947 29.9452C103.487 30.2652 103.207 30.6652 103.107 31.1852H101.467C101.587 30.1852 102.027 29.4052 102.787 28.8452C103.547 28.2852 104.547 28.0052 105.787 28.0052C107.087 28.0052 108.087 28.3252 108.807 28.9652C109.527 29.6052 109.887 30.5052 109.887 31.6852V36.0852C109.887 36.5852 110.107 36.8252 110.567 36.8252H111.067ZM108.247 33.6652H105.087C103.567 33.6652 102.807 34.2452 102.807 35.3652C102.807 35.8852 103.007 36.2852 103.407 36.5852C103.807 36.9052 104.347 37.0452 105.027 37.0452C106.027 37.0452 106.807 36.7852 107.387 36.2652C107.947 35.7452 108.247 35.0452 108.247 34.1652V33.6652ZM112.107 28.1252H120.227V29.3652L114.027 36.8252H120.487V38.3252H111.847V37.0852L118.027 29.6252H112.107V28.1252ZM123.819 24.4852C124.019 24.6852 124.119 24.9452 124.119 25.2452C124.119 25.5652 124.019 25.8052 123.819 26.0052C123.619 26.2052 123.359 26.3052 123.059 26.3052C122.739 26.3052 122.499 26.2052 122.299 26.0052C122.099 25.8052 121.999 25.5652 121.999 25.2452C121.999 24.9452 122.099 24.6852 122.299 24.4852C122.499 24.2852 122.739 24.1852 123.059 24.1852C123.359 24.1852 123.619 24.2852 123.819 24.4852ZM122.239 28.1252H123.879V38.3252H122.239V28.1252ZM133.986 28.6252C134.726 29.0452 135.306 29.6452 135.726 30.4252C136.146 31.2252 136.366 32.1452 136.366 33.2252C136.366 34.2652 136.146 35.1652 135.726 35.9452C135.306 36.7452 134.726 37.3452 133.986 37.7852C133.226 38.2252 132.386 38.4452 131.466 38.4452C130.626 38.4452 129.926 38.3052 129.346 38.0052C128.746 37.7052 128.286 37.2852 127.966 36.7652V42.3252H126.326V28.1252H127.746L127.966 29.7652C128.806 28.6052 129.986 28.0052 131.466 28.0052C132.406 28.0052 133.246 28.2252 133.986 28.6252ZM133.746 35.9452C134.366 35.2452 134.686 34.3452 134.686 33.2252C134.686 32.1252 134.366 31.2252 133.746 30.5252C133.126 29.8252 132.306 29.4652 131.306 29.4652C130.646 29.4652 130.066 29.6252 129.546 29.9452C129.026 30.2652 128.646 30.7052 128.366 31.2652C128.086 31.8252 127.946 32.4652 127.946 33.1852C127.946 33.9252 128.086 34.5852 128.366 35.1652C128.646 35.7452 129.026 36.1852 129.546 36.5052C130.066 36.8252 130.646 36.9852 131.306 36.9852C132.306 36.9852 133.126 36.6452 133.746 35.9452ZM147.98 36.8252V38.3252H147.08C146.42 38.3252 145.96 38.2052 145.68 37.9252C145.4 37.6652 145.24 37.2652 145.24 36.7452C144.44 37.8852 143.3 38.4452 141.82 38.4452C140.68 38.4452 139.76 38.1852 139.08 37.6452C138.4 37.1252 138.06 36.3852 138.06 35.4652C138.06 34.4452 138.4 33.6652 139.1 33.1052C139.8 32.5652 140.82 32.2852 142.16 32.2852H145.16V31.5852C145.16 30.9252 144.92 30.4052 144.48 30.0252C144.04 29.6652 143.42 29.4652 142.62 29.4652C141.9 29.4652 141.32 29.6252 140.86 29.9452C140.4 30.2652 140.12 30.6652 140.02 31.1852H138.38C138.5 30.1852 138.94 29.4052 139.7 28.8452C140.46 28.2852 141.46 28.0052 142.7 28.0052C144 28.0052 145 28.3252 145.72 28.9652C146.44 29.6052 146.8 30.5052 146.8 31.6852V36.0852C146.8 36.5852 147.02 36.8252 147.48 36.8252H147.98ZM145.16 33.6652H142C140.48 33.6652 139.72 34.2452 139.72 35.3652C139.72 35.8852 139.92 36.2852 140.32 36.5852C140.72 36.9052 141.26 37.0452 141.94 37.0452C142.94 37.0452 143.72 36.7852 144.3 36.2652C144.86 35.7452 145.16 35.0452 145.16 34.1652V33.6652ZM149.868 28.1252L153.008 36.4452L156.048 28.1252H157.788L153.088 40.0452C152.848 40.6652 152.628 41.1252 152.448 41.4252C152.248 41.7452 152.028 41.9652 151.748 42.1052C151.468 42.2652 151.088 42.3252 150.628 42.3252H148.668V40.8252H150.128C150.448 40.8252 150.688 40.8052 150.848 40.7252C151.008 40.6652 151.128 40.5652 151.228 40.4052C151.328 40.2452 151.448 39.9852 151.608 39.6252L152.128 38.4052L148.128 28.1252H149.868ZM158.55 36.5252C158.75 36.3252 159.03 36.2052 159.37 36.2052C159.69 36.2052 159.97 36.3252 160.19 36.5252C160.39 36.7252 160.51 37.0052 160.51 37.3252C160.51 37.6652 160.39 37.9452 160.19 38.1452C159.97 38.3452 159.69 38.4452 159.37 38.4452C159.03 38.4452 158.75 38.3452 158.55 38.1452C158.33 37.9452 158.23 37.6652 158.23 37.3252C158.23 37.0052 158.33 36.7252 158.55 36.5252ZM169.687 37.4852C168.887 38.1252 167.887 38.4452 166.687 38.4452C165.687 38.4452 164.827 38.2252 164.087 37.7852C163.327 37.3452 162.747 36.7452 162.347 35.9452C161.927 35.1452 161.727 34.2452 161.727 33.2052C161.727 32.1852 161.927 31.2852 162.347 30.4852C162.767 29.7052 163.367 29.1052 164.127 28.6652C164.887 28.2252 165.747 28.0052 166.747 28.0052C167.947 28.0052 168.927 28.3252 169.707 28.9652C170.487 29.6052 170.987 30.4852 171.187 31.6052H169.527C169.367 30.9652 169.027 30.4452 168.527 30.0452C168.007 29.6652 167.407 29.4652 166.687 29.4652C165.707 29.4652 164.907 29.8252 164.307 30.5052C163.707 31.2052 163.407 32.1052 163.407 33.2052C163.407 34.3252 163.707 35.2452 164.307 35.9452C164.907 36.6452 165.707 36.9852 166.687 36.9852C167.427 36.9852 168.047 36.8052 168.567 36.4052C169.067 36.0252 169.387 35.4852 169.547 34.8052H171.187C170.967 35.9452 170.467 36.8452 169.687 37.4852ZM175.128 37.7852C174.368 37.3452 173.768 36.7452 173.348 35.9452C172.908 35.1652 172.708 34.2652 172.708 33.2252C172.708 32.2052 172.908 31.3052 173.348 30.5052C173.768 29.7252 174.368 29.1052 175.128 28.6652C175.888 28.2252 176.768 28.0052 177.768 28.0052C178.748 28.0052 179.628 28.2252 180.388 28.6652C181.148 29.1052 181.748 29.7252 182.188 30.5052C182.608 31.3052 182.828 32.2052 182.828 33.2252C182.828 34.2652 182.608 35.1652 182.188 35.9452C181.748 36.7452 181.148 37.3452 180.388 37.7852C179.628 38.2252 178.748 38.4452 177.768 38.4452C176.768 38.4452 175.888 38.2252 175.128 37.7852ZM179.528 36.5052C180.048 36.1852 180.448 35.7452 180.728 35.1652C181.008 34.6052 181.148 33.9452 181.148 33.2252C181.148 32.5052 181.008 31.8652 180.728 31.2852C180.448 30.7252 180.048 30.2652 179.528 29.9452C179.008 29.6252 178.428 29.4652 177.768 29.4652C177.088 29.4652 176.508 29.6252 175.988 29.9452C175.468 30.2652 175.088 30.7252 174.808 31.2852C174.528 31.8652 174.388 32.5052 174.388 33.2252C174.388 33.9452 174.528 34.6052 174.808 35.1652C175.088 35.7452 175.468 36.1852 175.988 36.5052C176.508 36.8252 177.088 36.9852 177.768 36.9852C178.428 36.9852 179.008 36.8252 179.528 36.5052ZM199.069 29.0852C199.789 29.8052 200.149 30.9252 200.149 32.4452V38.3252H198.509V32.5452C198.509 31.5652 198.289 30.8052 197.869 30.2852C197.449 29.7652 196.849 29.5052 196.089 29.5052C195.229 29.5052 194.549 29.8052 194.069 30.4052C193.589 31.0052 193.349 31.8252 193.349 32.8652V38.3252H191.709V32.5452C191.709 31.5652 191.489 30.8052 191.069 30.2852C190.629 29.7652 190.029 29.5052 189.249 29.5052C188.409 29.5052 187.749 29.8252 187.269 30.4652C186.789 31.1052 186.549 31.9252 186.549 32.9452V38.3252H184.909V28.1252H186.329L186.549 29.5252C187.269 28.5252 188.269 28.0052 189.529 28.0052C190.249 28.0052 190.909 28.1852 191.469 28.5052C192.029 28.8252 192.469 29.3052 192.749 29.9452C193.469 28.6652 194.649 28.0052 196.289 28.0052C197.429 28.0052 198.349 28.3652 199.069 29.0852Z" fill="#EA4E4B"/>
<a href="mailto:hello@myeazipay.com">
<rect fill="black" fill-opacity="0" x="35.2775" y="24" width="201.721" height="24"/>
</a>
</svg>
